<svg width="25" height="24" viewBox="0 0 25 24" fill="none" xmlns="http://www.w3.org/2000/svg">
<path d="M22.2663 21.6755H2.46555C2.09654 21.6755 1.79053 21.3695 1.79053 21.0005C1.79053 20.6315 2.09654 20.3254 2.46555 20.3254H22.2663C22.6353 20.3254 22.9413 20.6315 22.9413 21.0005C22.9413 21.3695 22.6353 21.6755 22.2663 21.6755Z" fill="black"/>
<path d="M19.3685 21.685C18.9995 21.685 18.6935 21.379 18.6935 21.01V16.9958C18.6935 16.6268 18.9995 16.3208 19.3685 16.3208C19.7375 16.3208 20.0435 16.6268 20.0435 16.9958V21.01C20.0435 21.379 19.7465 21.685 19.3685 21.685Z" fill="black"/>
<path d="M19.3856 17.6711C17.9185 17.6711 16.7305 16.4831 16.7305 15.016V12.973C16.7305 11.5059 17.9185 10.3179 19.3856 10.3179C20.8526 10.3179 22.0407 11.5059 22.0407 12.973V15.016C22.0407 16.4831 20.8526 17.6711 19.3856 17.6711ZM19.3856 11.6769C18.6655 11.6769 18.0805 12.262 18.0805 12.982V15.025C18.0805 15.745 18.6655 16.3301 19.3856 16.3301C20.1056 16.3301 20.6906 15.745 20.6906 15.025V12.982C20.6906 12.262 20.1056 11.6769 19.3856 11.6769Z" fill="black"/>
<path d="M14.4357 21.6755C14.0667 21.6755 13.7607 21.3695 13.7607 21.0005V6.62703C13.7607 5.19598 13.1577 4.58394 11.7537 4.58394H6.14648C4.73343 4.58394 4.12141 5.19598 4.12141 6.62703V21.0005C4.12141 21.3695 3.8154 21.6755 3.44639 21.6755C3.07737 21.6755 2.77136 21.3695 2.77136 21.0005V6.62703C2.77136 4.43995 3.96841 3.23389 6.14648 3.23389H11.7537C13.9227 3.23389 15.1108 4.43995 15.1108 6.62703V21.0005C15.1108 21.3695 14.8048 21.6755 14.4357 21.6755Z" fill="black"/>
<path d="M11.2404 9.29976H6.78525C6.41624 9.29976 6.11023 8.99374 6.11023 8.62473C6.11023 8.25572 6.41624 7.94971 6.78525 7.94971H11.2404C11.6094 7.94971 11.9155 8.25572 11.9155 8.62473C11.9155 8.99374 11.6094 9.29976 11.2404 9.29976Z" fill="black"/>
<path d="M11.2404 12.6752H6.78525C6.41624 12.6752 6.11023 12.3692 6.11023 12.0002C6.11023 11.6312 6.41624 11.3252 6.78525 11.3252H11.2404C11.6094 11.3252 11.9155 11.6312 11.9155 12.0002C11.9155 12.3692 11.6094 12.6752 11.2404 12.6752Z" fill="black"/>
<path d="M8.99009 21.6751C8.62107 21.6751 8.31506 21.3691 8.31506 21.0001V17.625C8.31506 17.256 8.62107 16.95 8.99009 16.95C9.3591 16.95 9.66511 17.256 9.66511 17.625V21.0001C9.66511 21.3691 9.3591 21.6751 8.99009 21.6751Z" fill="black"/>
</svg>
