<svg width="449" height="424" viewBox="0 0 449 424" fill="none" xmlns="http://www.w3.org/2000/svg">
<path d="M296.133 187.29V197.279H152.299V187.29H296.133Z" fill="#1D5466"/>
<path d="M440 391.998V423.998H291V391.998H431.547H440Z" fill="#1D5466"/>
<path d="M157 391.999V423.999H9V391.999H17.3964H157Z" fill="#1D5466"/>
<path d="M439.727 391.934V394.779H291.397V391.934H431.312H439.727Z" fill="#085E69"/>
<path d="M157.035 391.934V394.779H8.70508V391.934H17.1201H157.035Z" fill="#085E69"/>
<path d="M140.606 187.29V197.279H29.9297V187.29H140.606Z" fill="#1D5466"/>
<path d="M418.503 187.29V197.279H307.827V187.29H418.503Z" fill="#1D5466"/>
<path d="M291 391.715V423.997H279.667V207.047H168.333V423.997H157V391.715V196.997H291V391.715Z" fill="#085E69"/>
<path d="M314.155 61.3936H134.277C125.571 61.3936 118.447 54.2696 118.447 45.5616V15.8309C118.447 7.1229 125.571 0.000231524 134.277 0.000231524H314.155C322.861 0.000231524 329.985 7.1229 329.985 15.8309V45.5616C329.985 54.2696 322.861 61.3936 314.155 61.3936Z" fill="#4AA9B5"/>
<path d="M126.787 53.7072C126.483 53.4579 126.192 53.1912 125.918 52.9085C125.406 52.3792 124.56 52.3672 124.032 52.8792C123.504 53.3925 123.491 54.2365 124.004 54.7659C124.348 55.1205 124.714 55.4552 125.096 55.7699C125.666 56.2365 126.506 56.1539 126.972 55.5845C127.44 55.0152 127.356 54.1752 126.787 53.7072ZM123.2 47.7592C123.123 47.3765 123.068 46.9872 123.035 46.5912C122.974 45.8578 122.328 45.3125 121.595 45.3739C120.86 45.4352 120.316 46.0805 120.378 46.8139C120.419 47.3125 120.49 47.8032 120.586 48.2845C120.731 49.0059 121.434 49.4738 122.156 49.3285C122.878 49.1832 123.346 48.4805 123.2 47.7592ZM122.998 40.0379V38.7045C122.998 37.9672 122.402 37.3712 121.664 37.3712C120.928 37.3712 120.331 37.9672 120.331 38.7045V40.0379C120.331 40.7739 120.928 41.3712 121.664 41.3712C122.402 41.3712 122.998 40.7739 122.998 40.0379ZM122.998 32.0379V30.7045C122.998 29.9672 122.402 29.3712 121.664 29.3712C120.928 29.3712 120.331 29.9672 120.331 30.7045V32.0379C120.331 32.7739 120.928 33.3712 121.664 33.3712C122.402 33.3712 122.998 32.7739 122.998 32.0379ZM122.998 24.0379V22.7045C122.998 21.9672 122.402 21.3712 121.664 21.3712C120.928 21.3712 120.331 21.9672 120.331 22.7045V24.0379C120.331 24.7739 120.928 25.3712 121.664 25.3712C122.402 25.3712 122.998 24.7739 122.998 24.0379ZM122.998 16.0379V15.6739C122.998 15.3845 123.01 15.0979 123.034 14.8152C123.094 14.0819 122.548 13.4379 121.814 13.3765C121.08 13.3165 120.436 13.8618 120.376 14.5965C120.347 14.9512 120.331 15.3112 120.331 15.6739V16.0379C120.331 16.7739 120.928 17.3712 121.664 17.3712C122.402 17.3712 122.998 16.7739 122.998 16.0379ZM125.136 9.38854C125.376 9.07654 125.635 8.77785 125.908 8.49518C126.42 7.96585 126.407 7.12186 125.878 6.60986C125.348 6.09786 124.504 6.11119 123.992 6.64052C123.648 6.99519 123.324 7.36985 123.023 7.76318C122.574 8.34585 122.683 9.18318 123.266 9.63252C123.85 10.0819 124.687 9.97254 125.136 9.38854ZM130.97 5.61653C131.35 5.52853 131.738 5.4592 132.132 5.41386C132.863 5.32986 133.388 4.66852 133.303 3.93652C133.219 3.20585 132.558 2.68052 131.826 2.76585C131.33 2.82318 130.84 2.90854 130.363 3.02054C129.646 3.18854 129.2 3.90454 129.368 4.62187C129.536 5.33921 130.254 5.78453 130.97 5.61653ZM138.642 5.34586H139.975C140.712 5.34586 141.308 4.74986 141.308 4.01253C141.308 3.27653 140.712 2.6792 139.975 2.6792H138.642C137.906 2.6792 137.308 3.27653 137.308 4.01253C137.308 4.74986 137.906 5.34586 138.642 5.34586ZM146.642 5.34586H147.975C148.712 5.34586 149.308 4.74986 149.308 4.01253C149.308 3.27653 148.712 2.6792 147.975 2.6792H146.642C145.906 2.6792 145.308 3.27653 145.308 4.01253C145.308 4.74986 145.906 5.34586 146.642 5.34586ZM154.642 5.34586H155.975C156.712 5.34586 157.308 4.74986 157.308 4.01253C157.308 3.27653 156.712 2.6792 155.975 2.6792H154.642C153.906 2.6792 153.308 3.27653 153.308 4.01253C153.308 4.74986 153.906 5.34586 154.642 5.34586ZM162.642 5.34586H163.975C164.712 5.34586 165.308 4.74986 165.308 4.01253C165.308 3.27653 164.712 2.6792 163.975 2.6792H162.642C161.906 2.6792 161.308 3.27653 161.308 4.01253C161.308 4.74986 161.906 5.34586 162.642 5.34586ZM170.642 5.34586H171.975C172.712 5.34586 173.308 4.74986 173.308 4.01253C173.308 3.27653 172.712 2.6792 171.975 2.6792H170.642C169.906 2.6792 169.308 3.27653 169.308 4.01253C169.308 4.74986 169.906 5.34586 170.642 5.34586ZM178.642 5.34586H179.975C180.712 5.34586 181.308 4.74986 181.308 4.01253C181.308 3.27653 180.712 2.6792 179.975 2.6792H178.642C177.906 2.6792 177.308 3.27653 177.308 4.01253C177.308 4.74986 177.906 5.34586 178.642 5.34586ZM186.642 5.34586H187.975C188.712 5.34586 189.308 4.74986 189.308 4.01253C189.308 3.27653 188.712 2.6792 187.975 2.6792H186.642C185.906 2.6792 185.308 3.27653 185.308 4.01253C185.308 4.74986 185.906 5.34586 186.642 5.34586ZM194.642 5.34586H195.975C196.712 5.34586 197.308 4.74986 197.308 4.01253C197.308 3.27653 196.712 2.6792 195.975 2.6792H194.642C193.906 2.6792 193.308 3.27653 193.308 4.01253C193.308 4.74986 193.906 5.34586 194.642 5.34586ZM202.642 5.34586H203.975C204.712 5.34586 205.308 4.74986 205.308 4.01253C205.308 3.27653 204.712 2.6792 203.975 2.6792H202.642C201.906 2.6792 201.308 3.27653 201.308 4.01253C201.308 4.74986 201.906 5.34586 202.642 5.34586ZM210.642 5.34586H211.975C212.712 5.34586 213.308 4.74986 213.308 4.01253C213.308 3.27653 212.712 2.6792 211.975 2.6792H210.642C209.906 2.6792 209.308 3.27653 209.308 4.01253C209.308 4.74986 209.906 5.34586 210.642 5.34586ZM218.642 5.34586H219.975C220.712 5.34586 221.308 4.74986 221.308 4.01253C221.308 3.27653 220.712 2.6792 219.975 2.6792H218.642C217.906 2.6792 217.308 3.27653 217.308 4.01253C217.308 4.74986 217.906 5.34586 218.642 5.34586ZM226.642 5.34586H227.975C228.712 5.34586 229.308 4.74986 229.308 4.01253C229.308 3.27653 228.712 2.6792 227.975 2.6792H226.642C225.906 2.6792 225.308 3.27653 225.308 4.01253C225.308 4.74986 225.906 5.34586 226.642 5.34586ZM234.642 5.34586H235.975C236.712 5.34586 237.308 4.74986 237.308 4.01253C237.308 3.27653 236.712 2.6792 235.975 2.6792H234.642C233.906 2.6792 233.308 3.27653 233.308 4.01253C233.308 4.74986 233.906 5.34586 234.642 5.34586ZM242.642 5.34586H243.975C244.712 5.34586 245.308 4.74986 245.308 4.01253C245.308 3.27653 244.712 2.6792 243.975 2.6792H242.642C241.906 2.6792 241.308 3.27653 241.308 4.01253C241.308 4.74986 241.906 5.34586 242.642 5.34586ZM250.642 5.34586H251.975C252.712 5.34586 253.308 4.74986 253.308 4.01253C253.308 3.27653 252.712 2.6792 251.975 2.6792H250.642C249.906 2.6792 249.308 3.27653 249.308 4.01253C249.308 4.74986 249.906 5.34586 250.642 5.34586ZM258.642 5.34586H259.975C260.712 5.34586 261.308 4.74986 261.308 4.01253C261.308 3.27653 260.712 2.6792 259.975 2.6792H258.642C257.906 2.6792 257.308 3.27653 257.308 4.01253C257.308 4.74986 257.906 5.34586 258.642 5.34586ZM266.642 5.34586H267.975C268.712 5.34586 269.308 4.74986 269.308 4.01253C269.308 3.27653 268.712 2.6792 267.975 2.6792H266.642C265.906 2.6792 265.308 3.27653 265.308 4.01253C265.308 4.74986 265.906 5.34586 266.642 5.34586ZM274.642 5.34586H275.975C276.712 5.34586 277.308 4.74986 277.308 4.01253C277.308 3.27653 276.712 2.6792 275.975 2.6792H274.642C273.906 2.6792 273.308 3.27653 273.308 4.01253C273.308 4.74986 273.906 5.34586 274.642 5.34586ZM282.642 5.34586H283.975C284.711 5.34586 285.308 4.74986 285.308 4.01253C285.308 3.27653 284.711 2.6792 283.975 2.6792H282.642C281.906 2.6792 281.308 3.27653 281.308 4.01253C281.308 4.74986 281.906 5.34586 282.642 5.34586ZM290.642 5.34586H291.975C292.711 5.34586 293.308 4.74986 293.308 4.01253C293.308 3.27653 292.711 2.6792 291.975 2.6792H290.642C289.906 2.6792 289.308 3.27653 289.308 4.01253C289.308 4.74986 289.906 5.34586 290.642 5.34586ZM298.642 5.34586H299.975C300.711 5.34586 301.308 4.74986 301.308 4.01253C301.308 3.27653 300.711 2.6792 299.975 2.6792H298.642C297.906 2.6792 297.308 3.27653 297.308 4.01253C297.308 4.74986 297.906 5.34586 298.642 5.34586ZM306.642 5.34586H307.975C308.711 5.34586 309.308 4.74986 309.308 4.01253C309.308 3.27653 308.711 2.6792 307.975 2.6792H306.642C305.906 2.6792 305.308 3.27653 305.308 4.01253C305.308 4.74986 305.906 5.34586 306.642 5.34586ZM314.642 5.34586H315.108C315.367 5.34586 315.623 5.35519 315.876 5.37386C316.611 5.42852 317.25 4.87653 317.304 4.14319C317.358 3.40853 316.807 2.76853 316.072 2.7152C315.754 2.6912 315.432 2.6792 315.108 2.6792H314.642C313.906 2.6792 313.308 3.27653 313.308 4.01253C313.308 4.74986 313.906 5.34586 314.642 5.34586ZM321.32 7.42985C321.635 7.66718 321.936 7.92318 322.22 8.19385C322.755 8.70185 323.598 8.68053 324.106 8.1472C324.614 7.61386 324.592 6.76985 324.059 6.26185C323.702 5.92185 323.324 5.60052 322.928 5.30185C322.34 4.85785 321.504 4.97385 321.06 5.56185C320.616 6.14985 320.734 6.98585 321.32 7.42985ZM325.143 13.2312C325.235 13.6098 325.306 13.9965 325.355 14.3912C325.446 15.1218 326.112 15.6405 326.843 15.5499C327.574 15.4592 328.092 14.7925 328.002 14.0618C327.94 13.5658 327.85 13.0779 327.734 12.6005C327.56 11.8859 326.839 11.4459 326.123 11.6205C325.408 11.7952 324.968 12.5152 325.143 13.2312ZM325.435 20.8885V22.2219C325.435 22.9592 326.031 23.5552 326.768 23.5552C327.504 23.5552 328.102 22.9592 328.102 22.2219V20.8885C328.102 20.1525 327.504 19.5552 326.768 19.5552C326.031 19.5552 325.435 20.1525 325.435 20.8885ZM325.435 28.8885V30.2219C325.435 30.9592 326.031 31.5552 326.768 31.5552C327.504 31.5552 328.102 30.9592 328.102 30.2219V28.8885C328.102 28.1525 327.504 27.5552 326.768 27.5552C326.031 27.5552 325.435 28.1525 325.435 28.8885ZM325.435 36.8885V38.2219C325.435 38.9592 326.031 39.5552 326.768 39.5552C327.504 39.5552 328.102 38.9592 328.102 38.2219V36.8885C328.102 36.1525 327.504 35.5552 326.768 35.5552C326.031 35.5552 325.435 36.1525 325.435 36.8885ZM325.435 44.8885V45.7192C325.435 45.8685 325.431 46.0179 325.424 46.1645C325.394 46.9005 325.964 47.5232 326.7 47.5539C327.436 47.5859 328.058 47.0139 328.09 46.2792C328.098 46.0925 328.102 45.9072 328.102 45.7192V44.8885C328.102 44.1525 327.504 43.5552 326.768 43.5552C326.031 43.5552 325.435 44.1525 325.435 44.8885ZM323.542 51.6712C323.314 51.9939 323.068 52.3018 322.806 52.5952C322.315 53.1445 322.362 53.9872 322.911 54.4779C323.46 54.9685 324.303 54.9219 324.794 54.3725C325.123 54.0045 325.432 53.6165 325.718 53.2125C326.144 52.6112 326.002 51.7792 325.4 51.3539C324.799 50.9285 323.967 51.0712 323.542 51.6712ZM317.862 55.6739C317.486 55.7779 317.102 55.8619 316.71 55.9232C315.982 56.0365 315.484 56.7179 315.598 57.4459C315.712 58.1739 316.394 58.6712 317.122 58.5578C317.615 58.4805 318.099 58.3752 318.574 58.2445C319.283 58.0472 319.699 57.3125 319.503 56.6032C319.306 55.8939 318.571 55.4779 317.862 55.6739ZM310.256 56.0472H308.923C308.187 56.0472 307.59 56.6432 307.59 57.3805C307.59 58.1165 308.187 58.7139 308.923 58.7139H310.256C310.992 58.7139 311.59 58.1165 311.59 57.3805C311.59 56.6432 310.992 56.0472 310.256 56.0472ZM302.256 56.0472H300.923C300.187 56.0472 299.59 56.6432 299.59 57.3805C299.59 58.1165 300.187 58.7139 300.923 58.7139H302.256C302.992 58.7139 303.59 58.1165 303.59 57.3805C303.59 56.6432 302.992 56.0472 302.256 56.0472ZM294.256 56.0472H292.923C292.187 56.0472 291.59 56.6432 291.59 57.3805C291.59 58.1165 292.187 58.7139 292.923 58.7139H294.256C294.992 58.7139 295.59 58.1165 295.59 57.3805C295.59 56.6432 294.992 56.0472 294.256 56.0472ZM286.256 56.0472H284.923C284.187 56.0472 283.59 56.6432 283.59 57.3805C283.59 58.1165 284.187 58.7139 284.923 58.7139H286.256C286.992 58.7139 287.59 58.1165 287.59 57.3805C287.59 56.6432 286.992 56.0472 286.256 56.0472ZM278.256 56.0472H276.923C276.187 56.0472 275.59 56.6432 275.59 57.3805C275.59 58.1165 276.187 58.7139 276.923 58.7139H278.256C278.992 58.7139 279.59 58.1165 279.59 57.3805C279.59 56.6432 278.992 56.0472 278.256 56.0472ZM270.256 56.0472H268.923C268.187 56.0472 267.59 56.6432 267.59 57.3805C267.59 58.1165 268.187 58.7139 268.923 58.7139H270.256C270.992 58.7139 271.59 58.1165 271.59 57.3805C271.59 56.6432 270.992 56.0472 270.256 56.0472ZM262.256 56.0472H260.923C260.187 56.0472 259.59 56.6432 259.59 57.3805C259.59 58.1165 260.187 58.7139 260.923 58.7139H262.256C262.992 58.7139 263.59 58.1165 263.59 57.3805C263.59 56.6432 262.992 56.0472 262.256 56.0472ZM254.256 56.0472H252.923C252.187 56.0472 251.59 56.6432 251.59 57.3805C251.59 58.1165 252.187 58.7139 252.923 58.7139H254.256C254.992 58.7139 255.59 58.1165 255.59 57.3805C255.59 56.6432 254.992 56.0472 254.256 56.0472ZM246.256 56.0472H244.923C244.187 56.0472 243.59 56.6432 243.59 57.3805C243.59 58.1165 244.187 58.7139 244.923 58.7139H246.256C246.992 58.7139 247.59 58.1165 247.59 57.3805C247.59 56.6432 246.992 56.0472 246.256 56.0472ZM238.256 56.0472H236.923C236.187 56.0472 235.59 56.6432 235.59 57.3805C235.59 58.1165 236.187 58.7139 236.923 58.7139H238.256C238.992 58.7139 239.59 58.1165 239.59 57.3805C239.59 56.6432 238.992 56.0472 238.256 56.0472ZM230.256 56.0472H228.923C228.187 56.0472 227.59 56.6432 227.59 57.3805C227.59 58.1165 228.187 58.7139 228.923 58.7139H230.256C230.992 58.7139 231.59 58.1165 231.59 57.3805C231.59 56.6432 230.992 56.0472 230.256 56.0472ZM222.256 56.0472H220.923C220.187 56.0472 219.59 56.6432 219.59 57.3805C219.59 58.1165 220.187 58.7139 220.923 58.7139H222.256C222.992 58.7139 223.59 58.1165 223.59 57.3805C223.59 56.6432 222.992 56.0472 222.256 56.0472ZM214.256 56.0472H212.923C212.187 56.0472 211.59 56.6432 211.59 57.3805C211.59 58.1165 212.187 58.7139 212.923 58.7139H214.256C214.992 58.7139 215.59 58.1165 215.59 57.3805C215.59 56.6432 214.992 56.0472 214.256 56.0472ZM206.256 56.0472H204.923C204.187 56.0472 203.59 56.6432 203.59 57.3805C203.59 58.1165 204.187 58.7139 204.923 58.7139H206.256C206.992 58.7139 207.59 58.1165 207.59 57.3805C207.59 56.6432 206.992 56.0472 206.256 56.0472ZM198.256 56.0472H196.923C196.187 56.0472 195.59 56.6432 195.59 57.3805C195.59 58.1165 196.187 58.7139 196.923 58.7139H198.256C198.992 58.7139 199.59 58.1165 199.59 57.3805C199.59 56.6432 198.992 56.0472 198.256 56.0472ZM190.256 56.0472H188.923C188.187 56.0472 187.59 56.6432 187.59 57.3805C187.59 58.1165 188.187 58.7139 188.923 58.7139H190.256C190.992 58.7139 191.59 58.1165 191.59 57.3805C191.59 56.6432 190.992 56.0472 190.256 56.0472ZM182.256 56.0472H180.923C180.187 56.0472 179.59 56.6432 179.59 57.3805C179.59 58.1165 180.187 58.7139 180.923 58.7139H182.256C182.992 58.7139 183.59 58.1165 183.59 57.3805C183.59 56.6432 182.992 56.0472 182.256 56.0472ZM174.256 56.0472H172.923C172.187 56.0472 171.59 56.6432 171.59 57.3805C171.59 58.1165 172.187 58.7139 172.923 58.7139H174.256C174.992 58.7139 175.59 58.1165 175.59 57.3805C175.59 56.6432 174.992 56.0472 174.256 56.0472ZM166.256 56.0472H164.923C164.187 56.0472 163.59 56.6432 163.59 57.3805C163.59 58.1165 164.187 58.7139 164.923 58.7139H166.256C166.992 58.7139 167.59 58.1165 167.59 57.3805C167.59 56.6432 166.992 56.0472 166.256 56.0472ZM158.256 56.0472H156.923C156.187 56.0472 155.59 56.6432 155.59 57.3805C155.59 58.1165 156.187 58.7139 156.923 58.7139H158.256C158.992 58.7139 159.59 58.1165 159.59 57.3805C159.59 56.6432 158.992 56.0472 158.256 56.0472ZM150.256 56.0472H148.923C148.187 56.0472 147.59 56.6432 147.59 57.3805C147.59 58.1165 148.187 58.7139 148.923 58.7139H150.256C150.992 58.7139 151.59 58.1165 151.59 57.3805C151.59 56.6432 150.992 56.0472 150.256 56.0472ZM142.256 56.0472H140.923C140.187 56.0472 139.59 56.6432 139.59 57.3805C139.59 58.1165 140.187 58.7139 140.923 58.7139H142.256C142.992 58.7139 143.59 58.1165 143.59 57.3805C143.59 56.6432 142.992 56.0472 142.256 56.0472ZM134.256 56.0472H133.324C132.926 56.0472 132.532 56.0245 132.146 55.9792C131.414 55.8965 130.754 56.4219 130.67 57.1539C130.586 57.8845 131.112 58.5459 131.843 58.6299C132.33 58.6845 132.824 58.7139 133.324 58.7139H134.256C134.994 58.7139 135.59 58.1165 135.59 57.3805C135.59 56.6432 134.994 56.0472 134.256 56.0472Z" fill="#085E69"/>
<mask id="mask0_83_1500" style="mask-type:luminance" maskUnits="userSpaceOnUse" x="125" y="6" width="199" height="49">
<path d="M134.277 54.7266C129.224 54.7266 125.113 50.6146 125.113 45.5612V15.8306C125.113 10.7772 129.224 6.66657 134.277 6.66657H314.155C319.208 6.66657 323.319 10.7772 323.319 15.8306V45.5612C323.319 50.6146 319.208 54.7266 314.155 54.7266H134.277Z" fill="white"/>
</mask>
<g mask="url(#mask0_83_1500)">
<path d="M134.277 54.7266C129.224 54.7266 125.113 50.6146 125.113 45.5612V15.8306C125.113 10.7772 129.224 6.66657 134.277 6.66657H314.155C319.208 6.66657 323.319 10.7772 323.319 15.8306V45.5612C323.319 50.6146 319.208 54.7266 314.155 54.7266H134.277Z" fill="url(#paint0_linear_83_1500)"/>
</g>
<mask id="mask1_83_1500" style="mask-type:luminance" maskUnits="userSpaceOnUse" x="291" y="61" width="11" height="11">
<path d="M291.419 71.748H301.775V61.3934H291.419V71.748Z" fill="white"/>
</mask>
<g mask="url(#mask1_83_1500)">
<path d="M291.419 71.748H301.775V61.3934H291.419V71.748Z" fill="#085E69"/>
</g>
<mask id="mask2_83_1500" style="mask-type:luminance" maskUnits="userSpaceOnUse" x="146" y="61" width="12" height="11">
<path d="M146.658 71.748H157.014V61.3934H146.658V71.748Z" fill="white"/>
</mask>
<g mask="url(#mask2_83_1500)">
<path d="M146.658 71.748H157.014V61.3934H146.658V71.748Z" fill="#085E69"/>
</g>
<path d="M439.727 66.5708V79.0762H8.70508V66.5708H439.727Z" fill="#085E69"/>
<path d="M17.1201 93.7461H431.312V79.0768H17.1201V93.7461Z" fill="#4AA9B5"/>
<path d="M17.1201 83.3486H431.312V79.0768H17.1201V83.3486Z" fill="#0A4148"/>
<path d="M431.312 101.074V115.729H17.1201V101.074H431.312Z" fill="#4AA9B5"/>
<mask id="mask3_83_1500" style="mask-type:luminance" maskUnits="userSpaceOnUse" x="21" y="94" width="407" height="8">
<path d="M427.896 101.328H21V94.0001V96.1548H427.896V98.0561V101.328Z" fill="white"/>
</mask>
<g mask="url(#mask3_83_1500)">
<path d="M427.896 101.328H21V94.0001V96.1548H427.896V98.0561V101.328Z" fill="#3889A2"/>
</g>
<mask id="mask4_83_1500" style="mask-type:luminance" maskUnits="userSpaceOnUse" x="20" y="93" width="408" height="3">
<path d="M20.7676 95.9004H427.664V93.7457H20.7676V95.9004Z" fill="white"/>
</mask>
<g mask="url(#mask4_83_1500)">
<path d="M20.7676 95.9004H427.664V93.7457H20.7676V95.9004Z" fill="#489DB7"/>
</g>
<path d="M389.892 115.73L403.36 152.841H358.563L348.474 115.73H389.892Z" fill="#F0F5F7"/>
<path d="M58.5401 115.73L45.0721 152.841H0.289551L17.1202 115.73H58.5401Z" fill="#F0F5F7"/>
<path d="M141.377 115.73L134.651 152.841H89.8682L99.9588 115.73H141.377Z" fill="#F0F5F7"/>
<path d="M224.216 115.73V152.841H179.434L182.798 115.73H224.216Z" fill="#F0F5F7"/>
<path d="M307.055 115.73L313.781 152.841H268.999L265.635 115.73H307.055Z" fill="#F0F5F7"/>
<path d="M45.0721 152.841V158.709C45.0721 171.075 35.0534 181.093 22.6879 181.093C20.813 181.093 18.9953 180.865 17.2634 180.435C7.51661 178.002 0.289551 169.199 0.289551 158.709V152.841H45.0721Z" fill="#C3D3DD"/>
<path d="M134.651 152.841V158.709C134.651 171.075 124.619 181.093 112.252 181.093C99.8868 181.093 89.8682 171.075 89.8682 158.709V152.841H134.651Z" fill="#C3D3DD"/>
<path d="M224.216 152.841V158.709C224.216 171.075 214.198 181.093 201.818 181.093C189.452 181.093 179.434 171.075 179.434 158.709V152.841H224.216Z" fill="#C3D3DD"/>
<path d="M313.782 152.841V158.709C313.782 171.075 303.763 181.093 291.398 181.093C279.031 181.093 268.999 171.075 268.999 158.709V152.841H313.782Z" fill="#C3D3DD"/>
<path d="M403.36 152.841V158.709C403.36 171.075 393.327 181.093 380.962 181.093C368.596 181.093 358.563 171.075 358.563 158.709V152.841H403.36Z" fill="#C3D3DD"/>
<path d="M431.312 115.73L448.143 152.841H403.36L389.892 115.73H431.312Z" fill="#489DB7"/>
<path d="M348.473 115.73L358.563 152.841H313.781L307.055 115.73H348.473Z" fill="#489DB7"/>
<path d="M265.635 115.73L268.999 152.841H224.216V115.73H265.635Z" fill="#489DB7"/>
<path d="M182.798 115.73L179.434 152.841H134.651L141.378 115.73H182.798Z" fill="#489DB7"/>
<mask id="mask5_83_1500" style="mask-type:luminance" maskUnits="userSpaceOnUse" x="403" y="152" width="46" height="30">
<path d="M425.744 181.093C413.379 181.093 403.36 171.075 403.36 158.709V152.841H448.143V158.709C448.143 169.199 440.915 178.002 431.168 180.435C429.438 180.865 427.619 181.093 425.744 181.093Z" fill="white"/>
</mask>
<g mask="url(#mask5_83_1500)">
<path d="M425.744 181.093C413.379 181.093 403.36 171.075 403.36 158.709V152.841H448.143V158.709C448.143 169.199 440.915 178.002 431.168 180.435C429.438 180.865 427.619 181.093 425.744 181.093Z" fill="#317B93"/>
</g>
<path d="M140.605 341.212V331.223H134.651V197.26H140.605V187.271H29.9293V197.26H35.8827V331.223H29.9293V341.212H140.605ZM418.503 341.212V331.223H412.548V197.26H418.503V187.271H307.827V197.26H313.781V331.223H307.827V341.212H418.503ZM431.312 181.074V391.934H291.397V197.26H296.133V187.271H152.299V197.26H157.035V391.934H17.1201V181.074L17.2633 180.416C18.9952 180.846 20.8129 181.074 22.6879 181.074C35.0533 181.074 45.072 171.056 45.072 158.69C45.072 171.056 55.1053 181.074 67.4707 181.074C79.836 181.074 89.868 171.056 89.868 158.69C89.868 171.056 99.8867 181.074 112.252 181.074C124.619 181.074 134.651 171.056 134.651 158.69C134.651 171.056 144.669 181.074 157.035 181.074C169.401 181.074 179.433 171.056 179.433 158.69C179.433 171.056 189.452 181.074 201.817 181.074C214.197 181.074 224.216 171.056 224.216 158.69C224.216 171.056 234.235 181.074 246.615 181.074C258.98 181.074 268.999 171.056 268.999 158.69C268.999 171.056 279.031 181.074 291.397 181.074C303.763 181.074 313.781 171.056 313.781 158.69C313.781 171.056 323.813 181.074 336.18 181.074C348.545 181.074 358.563 171.056 358.563 158.69C358.563 171.056 368.596 181.074 380.961 181.074C393.327 181.074 403.36 171.056 403.36 158.69C403.36 171.056 413.379 181.074 425.744 181.074C427.619 181.074 429.437 180.846 431.168 180.416L431.312 181.074Z" fill="#4AA9B5"/>
<mask id="mask6_83_1500" style="mask-type:luminance" maskUnits="userSpaceOnUse" x="81" y="250" width="97" height="97">
<path d="M81.5493 346.107H177.549V250.107H81.5493V346.107Z" fill="white"/>
</mask>
<g mask="url(#mask6_83_1500)">
<path d="M140.605 341.786H157.034V340.826H140.605V341.786Z" fill="#4CA9B5"/>
</g>
<mask id="mask7_83_1500" style="mask-type:luminance" maskUnits="userSpaceOnUse" x="81" y="250" width="97" height="97">
<path d="M81.5493 346.107H177.549V250.107H81.5493V346.107Z" fill="white"/>
</mask>
<g mask="url(#mask7_83_1500)">
<path d="M134.651 322.588H157.035V321.627H134.651V322.588Z" fill="#4CA9B5"/>
</g>
<mask id="mask8_83_1500" style="mask-type:luminance" maskUnits="userSpaceOnUse" x="81" y="250" width="97" height="97">
<path d="M81.5493 346.107H177.549V250.107H81.5493V346.107Z" fill="white"/>
</mask>
<g mask="url(#mask8_83_1500)">
<path d="M134.651 303.388H157.035V302.427H134.651V303.388Z" fill="#4CA9B5"/>
</g>
<mask id="mask9_83_1500" style="mask-type:luminance" maskUnits="userSpaceOnUse" x="81" y="250" width="97" height="97">
<path d="M81.5493 346.107H177.549V250.107H81.5493V346.107Z" fill="white"/>
</mask>
<g mask="url(#mask9_83_1500)">
<path d="M134.651 284.188H157.035V283.227H134.651V284.188Z" fill="#4CA9B5"/>
</g>
<mask id="mask10_83_1500" style="mask-type:luminance" maskUnits="userSpaceOnUse" x="81" y="250" width="97" height="97">
<path d="M81.5493 346.107H177.549V250.107H81.5493V346.107Z" fill="white"/>
</mask>
<g mask="url(#mask10_83_1500)">
<path d="M134.651 264.987H157.035V264.027H134.651V264.987Z" fill="#4CA9B5"/>
</g>
<mask id="mask11_83_1500" style="mask-type:luminance" maskUnits="userSpaceOnUse" x="81" y="250" width="97" height="97">
<path d="M81.5493 346.107H177.549V250.107H81.5493V346.107Z" fill="white"/>
</mask>
<g mask="url(#mask11_83_1500)">
<path d="M157.035 332.188H140.605V331.242H134.651V331.228H157.035V332.188Z" fill="#4CA9B5"/>
</g>
<mask id="mask12_83_1500" style="mask-type:luminance" maskUnits="userSpaceOnUse" x="81" y="250" width="97" height="97">
<path d="M81.5493 346.107H177.549V250.107H81.5493V346.107Z" fill="white"/>
</mask>
<g mask="url(#mask12_83_1500)">
<path d="M134.651 312.987H157.035V312.027H134.651V312.987Z" fill="#4CA9B5"/>
</g>
<mask id="mask13_83_1500" style="mask-type:luminance" maskUnits="userSpaceOnUse" x="81" y="250" width="97" height="97">
<path d="M81.5493 346.107H177.549V250.107H81.5493V346.107Z" fill="white"/>
</mask>
<g mask="url(#mask13_83_1500)">
<path d="M134.651 293.787H157.035V292.827H134.651V293.787Z" fill="#4CA9B5"/>
</g>
<mask id="mask14_83_1500" style="mask-type:luminance" maskUnits="userSpaceOnUse" x="81" y="250" width="97" height="97">
<path d="M81.5493 346.107H177.549V250.107H81.5493V346.107Z" fill="white"/>
</mask>
<g mask="url(#mask14_83_1500)">
<path d="M134.651 274.588H157.035V273.627H134.651V274.588Z" fill="#4CA9B5"/>
</g>
<mask id="mask15_83_1500" style="mask-type:luminance" maskUnits="userSpaceOnUse" x="81" y="250" width="97" height="97">
<path d="M81.5493 346.107H177.549V250.107H81.5493V346.107Z" fill="white"/>
</mask>
<g mask="url(#mask15_83_1500)">
<path d="M134.651 255.388H157.035V254.427H134.651V255.388Z" fill="#4CA9B5"/>
</g>
<mask id="mask16_83_1500" style="mask-type:luminance" maskUnits="userSpaceOnUse" x="273" y="250" width="97" height="97">
<path d="M273.549 346.107H369.549V250.107H273.549V346.107Z" fill="white"/>
</mask>
<g mask="url(#mask16_83_1500)">
<path d="M307.827 341.786H291.397V340.826H307.827V341.231V341.786Z" fill="#4CA9B5"/>
</g>
<mask id="mask17_83_1500" style="mask-type:luminance" maskUnits="userSpaceOnUse" x="273" y="250" width="97" height="97">
<path d="M273.549 346.107H369.549V250.107H273.549V346.107Z" fill="white"/>
</mask>
<g mask="url(#mask17_83_1500)">
<path d="M291.397 322.588H313.782V321.627H291.397V322.588Z" fill="#4CA9B5"/>
</g>
<mask id="mask18_83_1500" style="mask-type:luminance" maskUnits="userSpaceOnUse" x="273" y="250" width="97" height="97">
<path d="M273.549 346.107H369.549V250.107H273.549V346.107Z" fill="white"/>
</mask>
<g mask="url(#mask18_83_1500)">
<path d="M291.397 303.388H313.782V302.427H291.397V303.388Z" fill="#4CA9B5"/>
</g>
<mask id="mask19_83_1500" style="mask-type:luminance" maskUnits="userSpaceOnUse" x="273" y="250" width="97" height="97">
<path d="M273.549 346.107H369.549V250.107H273.549V346.107Z" fill="white"/>
</mask>
<g mask="url(#mask19_83_1500)">
<path d="M291.397 284.188H313.782V283.227H291.397V284.188Z" fill="#4CA9B5"/>
</g>
<mask id="mask20_83_1500" style="mask-type:luminance" maskUnits="userSpaceOnUse" x="273" y="250" width="97" height="97">
<path d="M273.549 346.107H369.549V250.107H273.549V346.107Z" fill="white"/>
</mask>
<g mask="url(#mask20_83_1500)">
<path d="M291.397 264.987H313.782V264.027H291.397V264.987Z" fill="#4CA9B5"/>
</g>
<mask id="mask21_83_1500" style="mask-type:luminance" maskUnits="userSpaceOnUse" x="273" y="250" width="97" height="97">
<path d="M273.549 346.107H369.549V250.107H273.549V346.107Z" fill="white"/>
</mask>
<g mask="url(#mask21_83_1500)">
<path d="M307.827 332.188H291.397V331.228H313.781V331.242H307.827V332.188Z" fill="#4CA9B5"/>
</g>
<mask id="mask22_83_1500" style="mask-type:luminance" maskUnits="userSpaceOnUse" x="273" y="250" width="97" height="97">
<path d="M273.549 346.107H369.549V250.107H273.549V346.107Z" fill="white"/>
</mask>
<g mask="url(#mask22_83_1500)">
<path d="M291.397 312.987H313.782V312.027H291.397V312.987Z" fill="#4CA9B5"/>
</g>
<mask id="mask23_83_1500" style="mask-type:luminance" maskUnits="userSpaceOnUse" x="273" y="250" width="97" height="97">
<path d="M273.549 346.107H369.549V250.107H273.549V346.107Z" fill="white"/>
</mask>
<g mask="url(#mask23_83_1500)">
<path d="M291.397 293.787H313.782V292.827H291.397V293.787Z" fill="#4CA9B5"/>
</g>
<mask id="mask24_83_1500" style="mask-type:luminance" maskUnits="userSpaceOnUse" x="273" y="250" width="97" height="97">
<path d="M273.549 346.107H369.549V250.107H273.549V346.107Z" fill="white"/>
</mask>
<g mask="url(#mask24_83_1500)">
<path d="M291.397 274.588H313.782V273.627H291.397V274.588Z" fill="#4CA9B5"/>
</g>
<mask id="mask25_83_1500" style="mask-type:luminance" maskUnits="userSpaceOnUse" x="273" y="250" width="97" height="97">
<path d="M273.549 346.107H369.549V250.107H273.549V346.107Z" fill="white"/>
</mask>
<g mask="url(#mask25_83_1500)">
<path d="M291.397 255.388H313.782V254.427H291.397V255.388Z" fill="#4CA9B5"/>
</g>
<mask id="mask26_83_1500" style="mask-type:luminance" maskUnits="userSpaceOnUse" x="81" y="154" width="97" height="97">
<path d="M81.5493 250.107H177.549V154.107H81.5493V250.107Z" fill="white"/>
</mask>
<g mask="url(#mask26_83_1500)">
<path d="M134.651 245.786H157.035V244.826H134.651V245.786Z" fill="#4CA9B5"/>
</g>
<mask id="mask27_83_1500" style="mask-type:luminance" maskUnits="userSpaceOnUse" x="81" y="154" width="97" height="97">
<path d="M81.5493 250.107H177.549V154.107H81.5493V250.107Z" fill="white"/>
</mask>
<g mask="url(#mask27_83_1500)">
<path d="M134.651 226.588H157.035V225.627H134.651V226.588Z" fill="#4CA9B5"/>
</g>
<mask id="mask28_83_1500" style="mask-type:luminance" maskUnits="userSpaceOnUse" x="81" y="154" width="97" height="97">
<path d="M81.5493 250.107H177.549V154.107H81.5493V250.107Z" fill="white"/>
</mask>
<g mask="url(#mask28_83_1500)">
<path d="M134.651 207.389H157.035V206.429H134.651V207.389Z" fill="#4CA9B5"/>
</g>
<mask id="mask29_83_1500" style="mask-type:luminance" maskUnits="userSpaceOnUse" x="81" y="154" width="97" height="97">
<path d="M81.5493 250.107H177.549V154.107H81.5493V250.107Z" fill="white"/>
</mask>
<g mask="url(#mask29_83_1500)">
<path d="M152.299 188.188H140.605V187.29H81.8826V187.227H81.5493H177.216H177.549V187.29H152.299V188.188Z" fill="#4CA9B5"/>
</g>
<mask id="mask30_83_1500" style="mask-type:luminance" maskUnits="userSpaceOnUse" x="81" y="154" width="97" height="97">
<path d="M81.5493 250.107H177.549V154.107H81.5493V250.107Z" fill="white"/>
</mask>
<g mask="url(#mask30_83_1500)">
<path d="M177.549 168.987H176.937C177.101 168.671 177.257 168.351 177.407 168.027H177.549V168.987ZM137.144 168.987H132.155C132.319 168.671 132.475 168.351 132.624 168.027H136.676C136.824 168.351 136.98 168.671 137.144 168.987ZM92.3613 168.987H87.3733C87.536 168.671 87.6919 168.351 87.8413 168.027H91.8933C92.0413 168.351 92.1973 168.671 92.3613 168.987Z" fill="#4CA9B5"/>
</g>
<mask id="mask31_83_1500" style="mask-type:luminance" maskUnits="userSpaceOnUse" x="81" y="154" width="97" height="97">
<path d="M81.5493 250.107H177.549V154.107H81.5493V250.107Z" fill="white"/>
</mask>
<g mask="url(#mask31_83_1500)">
<path d="M134.651 236.188H157.035V235.227H134.651V236.188Z" fill="#4CA9B5"/>
</g>
<mask id="mask32_83_1500" style="mask-type:luminance" maskUnits="userSpaceOnUse" x="81" y="154" width="97" height="97">
<path d="M81.5493 250.107H177.549V154.107H81.5493V250.107Z" fill="white"/>
</mask>
<g mask="url(#mask32_83_1500)">
<path d="M134.651 216.987H157.035V216.027H134.651V216.987Z" fill="#4CA9B5"/>
</g>
<mask id="mask33_83_1500" style="mask-type:luminance" maskUnits="userSpaceOnUse" x="81" y="154" width="97" height="97">
<path d="M81.5493 250.107H177.549V154.107H81.5493V250.107Z" fill="white"/>
</mask>
<g mask="url(#mask33_83_1500)">
<path d="M157.035 197.787H134.651V197.279H140.605V196.827H152.299V197.279H157.035V197.787Z" fill="#4CA9B5"/>
</g>
<mask id="mask34_83_1500" style="mask-type:luminance" maskUnits="userSpaceOnUse" x="81" y="154" width="97" height="97">
<path d="M81.5493 250.107H177.549V154.107H81.5493V250.107Z" fill="white"/>
</mask>
<g mask="url(#mask34_83_1500)">
<path d="M177.549 178.588H167.341C167.913 178.292 168.471 177.971 169.012 177.628H177.216H177.549V178.588ZM146.732 178.588H122.559C123.131 178.292 123.688 177.971 124.229 177.628H145.063C145.604 177.971 146.16 178.292 146.732 178.588ZM101.949 178.588H81.8826V177.628H81.5493H100.28C100.821 177.971 101.377 178.292 101.949 178.588Z" fill="#4CA9B5"/>
</g>
<mask id="mask35_83_1500" style="mask-type:luminance" maskUnits="userSpaceOnUse" x="81" y="154" width="97" height="97">
<path d="M81.5493 250.107H177.549V154.107H81.5493V250.107Z" fill="white"/>
</mask>
<g mask="url(#mask35_83_1500)">
<path d="M134.661 159.389H134.641C134.648 159.162 134.651 158.937 134.651 158.709C134.651 158.937 134.655 159.162 134.661 159.389ZM89.8786 159.389H89.8586C89.8653 159.162 89.868 158.937 89.868 158.709C89.868 158.937 89.872 159.162 89.8786 159.389Z" fill="#4CA9B5"/>
</g>
<mask id="mask36_83_1500" style="mask-type:luminance" maskUnits="userSpaceOnUse" x="81" y="154" width="97" height="97">
<path d="M81.5493 250.107H177.549V154.107H81.5493V250.107Z" fill="white"/>
</mask>
<g mask="url(#mask36_83_1500)">
<path d="M81.5493 187.29H81.8826V187.227H81.5493V187.29Z" fill="#4CA9B5"/>
</g>
<mask id="mask37_83_1500" style="mask-type:luminance" maskUnits="userSpaceOnUse" x="81" y="154" width="97" height="97">
<path d="M81.5493 250.107H177.549V154.107H81.5493V250.107Z" fill="white"/>
</mask>
<g mask="url(#mask37_83_1500)">
<path d="M81.5493 178.588H81.8826V177.627H81.5493V178.588Z" fill="#4CA9B5"/>
</g>
<mask id="mask38_83_1500" style="mask-type:luminance" maskUnits="userSpaceOnUse" x="177" y="154" width="97" height="97">
<path d="M177.549 250.107H273.549V154.107H177.549V250.107Z" fill="white"/>
</mask>
<g mask="url(#mask38_83_1500)">
<path d="M273.549 187.29H177.883V187.227H177.549H273.216H273.549V187.29Z" fill="#4CA9B5"/>
</g>
<mask id="mask39_83_1500" style="mask-type:luminance" maskUnits="userSpaceOnUse" x="177" y="154" width="97" height="97">
<path d="M177.549 250.107H273.549V154.107H177.549V250.107Z" fill="white"/>
</mask>
<g mask="url(#mask39_83_1500)">
<path d="M271.495 168.987H266.505C266.669 168.671 266.825 168.351 266.975 168.027H271.025C271.175 168.351 271.331 168.671 271.495 168.987ZM226.709 168.987H221.723C221.887 168.671 222.043 168.351 222.191 168.027H226.241C226.389 168.351 226.545 168.671 226.709 168.987ZM181.927 168.987H177.883V168.027H177.549H181.457C181.607 168.351 181.763 168.671 181.927 168.987Z" fill="#4CA9B5"/>
</g>
<mask id="mask40_83_1500" style="mask-type:luminance" maskUnits="userSpaceOnUse" x="177" y="154" width="97" height="97">
<path d="M177.549 250.107H273.549V154.107H177.549V250.107Z" fill="white"/>
</mask>
<g mask="url(#mask40_83_1500)">
<path d="M273.549 178.588H256.917C257.489 178.292 258.045 177.971 258.587 177.628H273.216H273.549V178.588ZM236.301 178.588H212.131C212.703 178.292 213.259 177.971 213.8 177.628H234.632C235.173 177.971 235.729 178.292 236.301 178.588ZM191.515 178.588H177.883V177.628H177.549H189.845C190.387 177.971 190.943 178.292 191.515 178.588Z" fill="#4CA9B5"/>
</g>
<mask id="mask41_83_1500" style="mask-type:luminance" maskUnits="userSpaceOnUse" x="177" y="154" width="97" height="97">
<path d="M177.549 250.107H273.549V154.107H177.549V250.107Z" fill="white"/>
</mask>
<g mask="url(#mask41_83_1500)">
<path d="M269.009 159.389H268.988C268.995 159.162 268.999 158.937 268.999 158.709C268.999 158.937 269.001 159.162 269.009 159.389ZM224.227 159.389H224.205C224.212 159.162 224.216 158.937 224.216 158.709C224.216 158.937 224.22 159.162 224.227 159.389ZM179.444 159.389H179.424C179.431 159.162 179.433 158.937 179.433 158.709C179.433 158.937 179.437 159.162 179.444 159.389Z" fill="#4CA9B5"/>
</g>
<mask id="mask42_83_1500" style="mask-type:luminance" maskUnits="userSpaceOnUse" x="177" y="154" width="97" height="97">
<path d="M177.549 250.107H273.549V154.107H177.549V250.107Z" fill="white"/>
</mask>
<g mask="url(#mask42_83_1500)">
<path d="M177.549 187.29H177.883V187.227H177.549V187.29Z" fill="#4CA9B5"/>
</g>
<mask id="mask43_83_1500" style="mask-type:luminance" maskUnits="userSpaceOnUse" x="177" y="154" width="97" height="97">
<path d="M177.549 250.107H273.549V154.107H177.549V250.107Z" fill="white"/>
</mask>
<g mask="url(#mask43_83_1500)">
<path d="M177.549 168.987H177.883V168.027H177.549V168.987Z" fill="#4CA9B5"/>
</g>
<mask id="mask44_83_1500" style="mask-type:luminance" maskUnits="userSpaceOnUse" x="177" y="154" width="97" height="97">
<path d="M177.549 250.107H273.549V154.107H177.549V250.107Z" fill="white"/>
</mask>
<g mask="url(#mask44_83_1500)">
<path d="M177.549 178.588H177.883V177.627H177.549V178.588Z" fill="#4CA9B5"/>
</g>
<mask id="mask45_83_1500" style="mask-type:luminance" maskUnits="userSpaceOnUse" x="273" y="154" width="97" height="97">
<path d="M273.549 250.107H369.549V154.107H273.549V250.107Z" fill="white"/>
</mask>
<g mask="url(#mask45_83_1500)">
<path d="M291.397 245.786H313.782V244.826H291.397V245.786Z" fill="#4CA9B5"/>
</g>
<mask id="mask46_83_1500" style="mask-type:luminance" maskUnits="userSpaceOnUse" x="273" y="154" width="97" height="97">
<path d="M273.549 250.107H369.549V154.107H273.549V250.107Z" fill="white"/>
</mask>
<g mask="url(#mask46_83_1500)">
<path d="M291.397 226.588H313.782V225.627H291.397V226.588Z" fill="#4CA9B5"/>
</g>
<mask id="mask47_83_1500" style="mask-type:luminance" maskUnits="userSpaceOnUse" x="273" y="154" width="97" height="97">
<path d="M273.549 250.107H369.549V154.107H273.549V250.107Z" fill="white"/>
</mask>
<g mask="url(#mask47_83_1500)">
<path d="M291.397 207.389H313.782V206.429H291.397V207.389Z" fill="#4CA9B5"/>
</g>
<mask id="mask48_83_1500" style="mask-type:luminance" maskUnits="userSpaceOnUse" x="273" y="154" width="97" height="97">
<path d="M273.549 250.107H369.549V154.107H273.549V250.107Z" fill="white"/>
</mask>
<g mask="url(#mask48_83_1500)">
<path d="M307.827 188.188H296.133V187.29H273.883V187.227H273.549H369.216H369.549V187.29H307.827V188.188Z" fill="#4CA9B5"/>
</g>
<mask id="mask49_83_1500" style="mask-type:luminance" maskUnits="userSpaceOnUse" x="273" y="154" width="97" height="97">
<path d="M273.549 250.107H369.549V154.107H273.549V250.107Z" fill="white"/>
</mask>
<g mask="url(#mask49_83_1500)">
<path d="M361.059 168.987H356.071C356.235 168.671 356.389 168.351 356.539 168.027H360.591C360.739 168.351 360.895 168.671 361.059 168.987ZM316.277 168.987H311.288C311.452 168.671 311.608 168.351 311.756 168.027H315.808C315.957 168.351 316.113 168.671 316.277 168.987Z" fill="#4CA9B5"/>
</g>
<mask id="mask50_83_1500" style="mask-type:luminance" maskUnits="userSpaceOnUse" x="273" y="154" width="97" height="97">
<path d="M273.549 250.107H369.549V154.107H273.549V250.107Z" fill="white"/>
</mask>
<g mask="url(#mask50_83_1500)">
<path d="M291.397 236.188H313.782V235.227H291.397V236.188Z" fill="#4CA9B5"/>
</g>
<mask id="mask51_83_1500" style="mask-type:luminance" maskUnits="userSpaceOnUse" x="273" y="154" width="97" height="97">
<path d="M273.549 250.107H369.549V154.107H273.549V250.107Z" fill="white"/>
</mask>
<g mask="url(#mask51_83_1500)">
<path d="M291.397 216.987H313.782V216.027H291.397V216.987Z" fill="#4CA9B5"/>
</g>
<mask id="mask52_83_1500" style="mask-type:luminance" maskUnits="userSpaceOnUse" x="273" y="154" width="97" height="97">
<path d="M273.549 250.107H369.549V154.107H273.549V250.107Z" fill="white"/>
</mask>
<g mask="url(#mask52_83_1500)">
<path d="M313.781 197.787H291.397V197.279H296.133V196.827H307.827V197.279H313.781V197.787Z" fill="#4CA9B5"/>
</g>
<mask id="mask53_83_1500" style="mask-type:luminance" maskUnits="userSpaceOnUse" x="273" y="154" width="97" height="97">
<path d="M273.549 250.107H369.549V154.107H273.549V250.107Z" fill="white"/>
</mask>
<g mask="url(#mask53_83_1500)">
<path d="M369.549 178.588H346.483C347.053 178.292 347.611 177.971 348.152 177.628H368.985C369.172 177.747 369.359 177.861 369.549 177.973V178.588ZM325.873 178.588H301.7C302.272 178.292 302.828 177.971 303.369 177.628H324.203C324.744 177.971 325.301 178.292 325.873 178.588ZM281.091 178.588H273.883V177.628H273.549H279.42C279.961 177.971 280.519 178.292 281.091 178.588Z" fill="#4CA9B5"/>
</g>
<mask id="mask54_83_1500" style="mask-type:luminance" maskUnits="userSpaceOnUse" x="273" y="154" width="97" height="97">
<path d="M273.549 250.107H369.549V154.107H273.549V250.107Z" fill="white"/>
</mask>
<g mask="url(#mask54_83_1500)">
<path d="M358.573 159.389H358.553C358.56 159.162 358.563 158.937 358.563 158.709C358.563 158.937 358.567 159.162 358.573 159.389ZM313.791 159.389H313.771C313.777 159.162 313.781 158.937 313.781 158.709C313.781 158.937 313.784 159.162 313.791 159.389Z" fill="#4CA9B5"/>
</g>
<mask id="mask55_83_1500" style="mask-type:luminance" maskUnits="userSpaceOnUse" x="273" y="154" width="97" height="97">
<path d="M273.549 250.107H369.549V154.107H273.549V250.107Z" fill="white"/>
</mask>
<g mask="url(#mask55_83_1500)">
<path d="M273.549 187.29H273.883V187.227H273.549V187.29Z" fill="#4CA9B5"/>
</g>
<mask id="mask56_83_1500" style="mask-type:luminance" maskUnits="userSpaceOnUse" x="273" y="154" width="97" height="97">
<path d="M273.549 250.107H369.549V154.107H273.549V250.107Z" fill="white"/>
</mask>
<g mask="url(#mask56_83_1500)">
<path d="M273.549 178.588H273.883V177.627H273.549V178.588Z" fill="#4CA9B5"/>
</g>
<path d="M140.606 341.213H29.9297V336.218H140.606V341.213Z" fill="#B4C0C7"/>
<path d="M29.9297 341.768H81.5494V341.213H29.9297V341.768Z" fill="#787CA0"/>
<path d="M140.605 341.768H81.8828V341.213H140.605V340.808V341.768Z" fill="#787CA0"/>
<path d="M81.5493 341.768H81.8826V341.213H81.5493V341.768Z" fill="#787CA0"/>
<path d="M418.503 341.213H307.827V336.218H418.503V341.213Z" fill="#B4C0C7"/>
<path d="M307.827 341.768H369.549V341.213H307.827V341.768Z" fill="#787CA0"/>
<path d="M418.503 341.768H369.883V341.213H418.503V340.808V341.768Z" fill="#787CA0"/>
<path d="M369.549 341.768H369.883V341.213H369.549V341.768Z" fill="#787CA0"/>
<path d="M140.606 331.224V341.213H29.9297V331.224H35.883H134.651H140.606Z" fill="#1D5466"/>
<path d="M418.503 331.224V341.213H307.827V331.224H313.781H412.549H418.503Z" fill="#1D5466"/>
<path d="M402.529 321.205V207.281H323.8V321.205H402.529ZM412.548 197.261V331.224H313.781V197.261H412.548Z" fill="#085E69"/>
<path d="M323.132 321.871H403.196V206.614H323.132V321.871Z" fill="#BEE1F4"/>
<mask id="mask57_83_1500" style="mask-type:luminance" maskUnits="userSpaceOnUse" x="323" y="209" width="81" height="113">
<path d="M323.016 321.955V209.955H403.283V321.955H323.016Z" fill="white"/>
</mask>
<g mask="url(#mask57_83_1500)">
<path d="M323.8 316.95V298.862L386.147 236.516V254.602L338.753 301.997H328.124V312.625L323.8 316.95ZM323.8 244.602V210.042H358.359L323.8 244.602ZM402.529 230.977H391.687L402.529 220.133V230.977Z" fill="#C5E8F7"/>
</g>
<mask id="mask58_83_1500" style="mask-type:luminance" maskUnits="userSpaceOnUse" x="323" y="206" width="81" height="5">
<path d="M323.016 210.107V206.507H403.283V210.107H323.016Z" fill="white"/>
</mask>
<g mask="url(#mask58_83_1500)">
<path d="M358.359 210.06H323.8V207.3H361.12L358.359 210.06Z" fill="#C5E8F7"/>
</g>
<path d="M403.863 205.947H322.465V322.538H403.863V321.205V207.281V205.947ZM402.529 207.281V321.205H323.8V207.281H402.529Z" fill="#93B9C6"/>
<mask id="mask59_83_1500" style="mask-type:luminance" maskUnits="userSpaceOnUse" x="313" y="152" width="46" height="30">
<path d="M358.563 152.841V158.709C358.563 171.075 348.545 181.093 336.18 181.093C323.813 181.093 313.781 171.075 313.781 158.709V152.841H358.563Z" fill="white"/>
</mask>
<g mask="url(#mask59_83_1500)">
<path d="M358.563 152.841V158.709C358.563 171.075 348.545 181.093 336.18 181.093C323.813 181.093 313.781 171.075 313.781 158.709V152.841H358.563Z" fill="#317B93"/>
</g>
<path d="M168 422.996H281V206.996H168V422.996Z" fill="#BEE1F4"/>
<mask id="mask60_83_1500" style="mask-type:luminance" maskUnits="userSpaceOnUse" x="167" y="283" width="5" height="141">
<path d="M167.683 423.995V283.429H171.816V423.995H167.683Z" fill="white"/>
</mask>
<g mask="url(#mask60_83_1500)">
<path d="M167.732 395.333V341.416L171.741 337.432L171.743 391.348L167.732 395.333Z" fill="#C5E8F7"/>
</g>
<mask id="mask61_83_1500" style="mask-type:luminance" maskUnits="userSpaceOnUse" x="171" y="283" width="110" height="141">
<path d="M171.683 423.995V283.429H280.749V423.995H171.683Z" fill="white"/>
</mask>
<g mask="url(#mask61_83_1500)">
<path d="M211.249 423.981H193.161L280.7 337.002V354.973L211.249 423.981ZM171.744 391.348V337.432L226.004 283.517H280.264L171.744 391.348Z" fill="#C5E8F7"/>
</g>
<mask id="mask62_83_1500" style="mask-type:luminance" maskUnits="userSpaceOnUse" x="167" y="206" width="5" height="78">
<path d="M167.683 283.556V206.622H171.816V283.556H167.683Z" fill="white"/>
</mask>
<g mask="url(#mask62_83_1500)">
<path d="M167.732 251.348V233.26L171.741 229.252L171.743 247.337L167.732 251.348Z" fill="#C5E8F7"/>
</g>
<mask id="mask63_83_1500" style="mask-type:luminance" maskUnits="userSpaceOnUse" x="171" y="206" width="110" height="78">
<path d="M171.683 283.556V206.622H280.749V283.556H171.683Z" fill="white"/>
</mask>
<g mask="url(#mask63_83_1500)">
<path d="M280.264 283.511H226.004L280.7 228.816V283.076L280.264 283.511ZM171.743 247.339V229.252L194.353 206.643H212.44L171.743 247.339Z" fill="#C5E8F7"/>
</g>
<path d="M281 205.988H167V423.988H281V422.664V207.312V205.988ZM279.67 207.312V422.664H168.33V207.312H279.67Z" fill="#348AA8"/>
<mask id="mask64_83_1500" style="mask-type:luminance" maskUnits="userSpaceOnUse" x="181" y="243" width="86" height="43">
<path d="M262.591 285.889H185.841C183.649 285.889 181.872 284.635 181.872 283.089V246.782C181.872 245.235 183.649 243.981 185.841 243.981H262.591C264.783 243.981 266.56 245.235 266.56 246.782V283.089C266.56 284.635 264.783 285.889 262.591 285.889Z" fill="white"/>
</mask>
<g mask="url(#mask64_83_1500)">
<path d="M262.591 285.889H185.841C183.649 285.889 181.872 284.635 181.872 283.089V246.782C181.872 245.235 183.649 243.981 185.841 243.981H262.591C264.783 243.981 266.56 245.235 266.56 246.782V283.089C266.56 284.635 264.783 285.889 262.591 285.889Z" fill="#4CA9B5"/>
</g>
<mask id="mask65_83_1500" style="mask-type:luminance" maskUnits="userSpaceOnUse" x="186" y="249" width="77" height="33">
<path d="M186.166 280.537V251.039C186.166 250.455 186.927 249.981 187.866 249.981H260.567C261.506 249.981 262.267 250.455 262.267 251.039V280.537C262.267 281.121 261.506 281.594 260.567 281.594H187.866C186.927 281.594 186.166 281.121 186.166 280.537Z" fill="white"/>
</mask>
<g mask="url(#mask65_83_1500)">
<path d="M186.166 280.537V251.039C186.166 250.455 186.927 249.981 187.866 249.981H260.567C261.506 249.981 262.267 250.455 262.267 251.039V280.537C262.267 281.121 261.506 281.594 260.567 281.594H187.866C186.927 281.594 186.166 281.121 186.166 280.537Z" fill="#2E8691"/>
</g>
<path d="M185.888 280.809H186.559V251.712C186.561 251.363 187.025 251.079 187.6 251.079H260.832C261.407 251.079 261.872 251.363 261.873 251.712V280.809C261.872 281.159 261.407 281.442 260.832 281.443H187.6C187.025 281.442 186.561 281.159 186.559 280.809H185.888H185.216C185.216 281.611 186.284 282.261 187.6 282.261H260.832C262.149 282.261 263.216 281.611 263.216 280.809V251.712C263.216 250.911 262.15 250.261 260.832 250.261H187.6C186.283 250.261 185.216 250.911 185.216 251.712V280.809H185.888Z" fill="#F0F5F7"/>
<mask id="mask66_83_1500" style="mask-type:luminance" maskUnits="userSpaceOnUse" x="224" y="152" width="45" height="30">
<path d="M268.999 152.841V158.709C268.999 171.075 258.98 181.093 246.615 181.093C234.235 181.093 224.216 171.075 224.216 158.709V152.841H268.999Z" fill="white"/>
</mask>
<g mask="url(#mask66_83_1500)">
<path d="M268.999 152.841V158.709C268.999 171.075 258.98 181.093 246.615 181.093C234.235 181.093 224.216 171.075 224.216 158.709V152.841H268.999Z" fill="#3889A2"/>
</g>
<mask id="mask67_83_1500" style="mask-type:luminance" maskUnits="userSpaceOnUse" x="134" y="152" width="46" height="30">
<path d="M179.434 152.841V158.709C179.434 171.075 169.402 181.093 157.035 181.093C144.67 181.093 134.651 171.075 134.651 158.709V152.841H179.434Z" fill="white"/>
</mask>
<g mask="url(#mask67_83_1500)">
<path d="M179.434 152.841V158.709C179.434 171.075 169.402 181.093 157.035 181.093C144.67 181.093 134.651 171.075 134.651 158.709V152.841H179.434Z" fill="#3889A2"/>
</g>
<path d="M124.633 321.205V207.281H45.9015V321.205H124.633ZM134.651 197.261V331.224H35.8828V197.261H134.651Z" fill="#085E69"/>
<path d="M45.2363 321.871H125.299V206.614H45.2363V321.871Z" fill="#BEE1F4"/>
<mask id="mask68_83_1500" style="mask-type:luminance" maskUnits="userSpaceOnUse" x="45" y="209" width="49" height="113">
<path d="M45.1494 321.955V209.955H93.6827V321.955H45.1494Z" fill="white"/>
</mask>
<g mask="url(#mask68_83_1500)">
<path d="M53.7335 321.204H45.9028V312.044L53.7335 304.213V321.204ZM45.9028 221.612V210.041H57.4708H57.4735L45.9028 221.612Z" fill="#C5E8F7"/>
</g>
<mask id="mask69_83_1500" style="mask-type:luminance" maskUnits="userSpaceOnUse" x="93" y="209" width="33" height="113">
<path d="M93.5493 321.955V209.955H125.416V321.955H93.5493Z" fill="white"/>
</mask>
<g mask="url(#mask69_83_1500)">
<path d="M107.527 304.685V278.365H98.9746V259.425H98.5266L124.633 233.318V287.578L107.527 304.685Z" fill="#C5E8F7"/>
</g>
<mask id="mask70_83_1500" style="mask-type:luminance" maskUnits="userSpaceOnUse" x="45" y="206" width="49" height="5">
<path d="M45.1494 210.107V206.507H93.6827V210.107H45.1494Z" fill="white"/>
</mask>
<g mask="url(#mask70_83_1500)">
<path d="M57.4708 210.061L45.9028 210.059V207.299H60.2322L57.4708 210.061Z" fill="#C5E8F7"/>
</g>
<path d="M125.965 205.947H44.5693V322.538H125.965V321.205V207.281V205.947ZM124.633 207.281V321.205H45.9027V207.281H124.633Z" fill="#93B9C6"/>
<path d="M99.9589 115.73L89.8683 152.841H45.0723L58.5403 115.73H99.9589Z" fill="#489DB7"/>
<mask id="mask71_83_1500" style="mask-type:luminance" maskUnits="userSpaceOnUse" x="45" y="152" width="45" height="30">
<path d="M89.8683 152.841V158.709C89.8683 171.075 79.8363 181.093 67.4709 181.093C55.1056 181.093 45.0723 171.075 45.0723 158.709V152.841H89.8683Z" fill="white"/>
</mask>
<g mask="url(#mask71_83_1500)">
<path d="M89.8683 152.841V158.709C89.8683 171.075 79.8363 181.093 67.4709 181.093C55.1056 181.093 45.0723 171.075 45.0723 158.709V152.841H89.8683Z" fill="#3889A2"/>
</g>
<path d="M185.085 297.226C185.085 299.06 183.599 300.547 181.763 300.547C179.928 300.547 178.441 299.06 178.441 297.226C178.441 295.391 179.928 293.902 181.763 293.902C183.599 293.902 185.085 295.391 185.085 297.226Z" fill="#93B9C6"/>
<path d="M185.085 334.545C185.085 336.38 183.599 337.866 181.763 337.866C179.928 337.866 178.441 336.38 178.441 334.545C178.441 332.71 179.928 331.224 181.763 331.224C183.599 331.224 185.085 332.71 185.085 334.545Z" fill="#93B9C6"/>
<path d="M181.763 336.54C180.476 336.54 179.434 335.497 179.434 334.211V297.305C179.434 296.019 180.476 294.976 181.763 294.976C183.05 294.976 184.094 296.019 184.094 297.305V334.211C184.094 335.497 183.05 336.54 181.763 336.54Z" fill="#8E8E8E"/>
<path d="M182.759 319.146H182.527C182.221 319.146 181.976 318.899 181.976 318.595V297.155C181.976 296.85 182.221 296.604 182.527 296.604H182.759C183.063 296.604 183.309 296.85 183.309 297.155V318.595C183.309 318.899 183.063 319.146 182.759 319.146Z" fill="#F9FBFC"/>
<path d="M402.53 321.204H365.562V276.089H386.147V254.601L402.53 238.219V321.204ZM386.147 236.515V230.976H391.687L386.147 236.515Z" fill="#A4CDE5"/>
<path d="M386.147 254.62V236.533L391.687 230.995H402.53V238.237L386.147 254.62Z" fill="#AAD3E8"/>
<path d="M347.331 321.204H328.124V312.624L338.753 301.996H347.331V321.204Z" fill="#A4CDE5"/>
<path d="M328.124 312.624V301.996H338.753L328.124 312.624Z" fill="#AAD3E8"/>
<path d="M107.527 321.204H91.0054L93.6481 318.561L93.6454 264.301L53.7334 304.213V278.364H62.2854V259.424H98.5267L93.6494 264.301V318.561L107.527 304.684V321.204Z" fill="#A4CDE5"/>
<path d="M91.0054 321.204H53.7334V304.213L93.6454 264.301L93.6481 318.561L91.0054 321.204Z" fill="#AAD3E8"/>
<path d="M93.6494 318.562V264.302L98.5267 259.424H98.9747V278.364H107.527V304.684L93.6494 318.562Z" fill="#AAD3E8"/>
<path d="M208.028 263.928H206.036C206 263.67 205.926 263.441 205.813 263.241C205.701 263.038 205.557 262.865 205.381 262.722C205.205 262.58 205.002 262.471 204.772 262.395C204.544 262.319 204.297 262.281 204.03 262.281C203.548 262.281 203.128 262.401 202.771 262.64C202.413 262.877 202.135 263.223 201.938 263.677C201.741 264.129 201.643 264.678 201.643 265.324C201.643 265.988 201.741 266.546 201.938 266.998C202.138 267.45 202.417 267.791 202.775 268.021C203.133 268.252 203.547 268.367 204.017 268.367C204.281 268.367 204.525 268.332 204.749 268.262C204.976 268.192 205.178 268.091 205.354 267.957C205.53 267.821 205.675 267.656 205.791 267.462C205.909 267.268 205.991 267.046 206.036 266.798L208.028 266.807C207.977 267.234 207.848 267.647 207.642 268.044C207.439 268.438 207.164 268.791 206.819 269.104C206.476 269.413 206.067 269.659 205.59 269.84C205.117 270.019 204.582 270.109 203.985 270.109C203.154 270.109 202.411 269.921 201.756 269.545C201.104 269.169 200.589 268.625 200.21 267.912C199.834 267.199 199.646 266.337 199.646 265.324C199.646 264.308 199.837 263.444 200.219 262.731C200.601 262.019 201.12 261.476 201.774 261.103C202.429 260.727 203.166 260.539 203.985 260.539C204.525 260.539 205.025 260.615 205.486 260.767C205.95 260.918 206.361 261.14 206.718 261.431C207.076 261.719 207.367 262.072 207.592 262.49C207.819 262.909 207.965 263.388 208.028 263.928ZM209.441 269.981V260.667H211.41V268.358H215.403V269.981H209.441ZM224.905 265.324C224.905 266.34 224.712 267.204 224.327 267.917C223.945 268.629 223.424 269.173 222.763 269.549C222.105 269.922 221.365 270.109 220.543 270.109C219.715 270.109 218.972 269.921 218.314 269.545C217.656 269.169 217.136 268.625 216.754 267.912C216.372 267.199 216.181 266.337 216.181 265.324C216.181 264.308 216.372 263.444 216.754 262.731C217.136 262.019 217.656 261.476 218.314 261.103C218.972 260.727 219.715 260.539 220.543 260.539C221.365 260.539 222.105 260.727 222.763 261.103C223.424 261.476 223.945 262.019 224.327 262.731C224.712 263.444 224.905 264.308 224.905 265.324ZM222.908 265.324C222.908 264.666 222.81 264.111 222.613 263.659C222.418 263.208 222.144 262.865 221.789 262.631C221.435 262.398 221.019 262.281 220.543 262.281C220.067 262.281 219.652 262.398 219.297 262.631C218.942 262.865 218.666 263.208 218.469 263.659C218.275 264.111 218.178 264.666 218.178 265.324C218.178 265.982 218.275 266.537 218.469 266.989C218.666 267.44 218.942 267.783 219.297 268.017C219.652 268.25 220.067 268.367 220.543 268.367C221.019 268.367 221.435 268.25 221.789 268.017C222.144 267.783 222.418 267.44 222.613 266.989C222.81 266.537 222.908 265.982 222.908 265.324ZM231.417 263.345C231.381 262.979 231.224 262.694 230.948 262.49C230.673 262.287 230.298 262.186 229.825 262.186C229.504 262.186 229.232 262.231 229.011 262.322C228.79 262.41 228.62 262.533 228.501 262.691C228.386 262.848 228.329 263.027 228.329 263.227C228.323 263.394 228.357 263.54 228.433 263.664C228.512 263.788 228.62 263.896 228.756 263.987C228.893 264.075 229.05 264.152 229.229 264.219C229.408 264.282 229.599 264.337 229.802 264.382L230.639 264.583C231.045 264.674 231.418 264.795 231.758 264.946C232.098 265.098 232.392 265.285 232.64 265.506C232.889 265.727 233.082 265.988 233.218 266.288C233.358 266.588 233.429 266.933 233.432 267.321C233.429 267.891 233.283 268.385 232.995 268.803C232.71 269.219 232.298 269.542 231.758 269.772C231.221 270 230.574 270.113 229.816 270.113C229.064 270.113 228.409 269.998 227.851 269.768C227.296 269.537 226.863 269.196 226.55 268.744C226.241 268.289 226.079 267.727 226.064 267.057H227.969C227.991 267.369 228.08 267.63 228.238 267.839C228.398 268.045 228.612 268.202 228.879 268.308C229.149 268.411 229.454 268.462 229.793 268.462C230.127 268.462 230.416 268.414 230.662 268.317C230.911 268.22 231.103 268.085 231.24 267.912C231.376 267.739 231.444 267.541 231.444 267.316C231.444 267.107 231.382 266.931 231.258 266.789C231.136 266.646 230.958 266.525 230.721 266.425C230.488 266.325 230.201 266.234 229.861 266.152L228.847 265.897C228.062 265.706 227.442 265.407 226.987 265.001C226.532 264.595 226.306 264.047 226.309 263.359C226.306 262.795 226.456 262.302 226.759 261.881C227.066 261.459 227.486 261.13 228.019 260.894C228.553 260.657 229.159 260.539 229.839 260.539C230.53 260.539 231.133 260.657 231.649 260.894C232.167 261.13 232.571 261.459 232.859 261.881C233.147 262.302 233.295 262.791 233.304 263.345H231.417ZM234.757 269.981V260.667H241.033V262.29H236.726V264.51H240.71V266.134H236.726V268.358H241.051V269.981H234.757ZM245.901 269.981H242.599V260.667H245.928C246.865 260.667 247.672 260.853 248.348 261.226C249.024 261.596 249.544 262.128 249.908 262.822C250.275 263.517 250.458 264.348 250.458 265.315C250.458 266.285 250.275 267.119 249.908 267.816C249.544 268.514 249.021 269.049 248.339 269.422C247.66 269.795 246.847 269.981 245.901 269.981ZM244.568 268.294H245.819C246.401 268.294 246.891 268.191 247.288 267.985C247.688 267.776 247.989 267.453 248.189 267.016C248.392 266.576 248.494 266.009 248.494 265.315C248.494 264.627 248.392 264.064 248.189 263.627C247.989 263.191 247.69 262.869 247.293 262.663C246.896 262.457 246.406 262.354 245.824 262.354H244.568V268.294Z" fill="#F9FBFC"/>
<g filter="url(#filter0_d_83_1500)">
<path d="M187.445 26.7819C187.361 25.9405 187.003 25.2869 186.371 24.821C185.738 24.3551 184.879 24.1221 183.794 24.1221C183.057 24.1221 182.435 24.2264 181.927 24.4351C181.42 24.6367 181.03 24.9183 180.759 25.2799C180.495 25.6415 180.363 26.0518 180.363 26.5107C180.349 26.8932 180.429 27.2269 180.603 27.512C180.783 27.7971 181.03 28.044 181.343 28.2526C181.656 28.4543 182.018 28.6316 182.428 28.7846C182.838 28.9306 183.276 29.0558 183.742 29.1601L185.661 29.619C186.593 29.8276 187.448 30.1058 188.227 30.4534C189.006 30.8011 189.681 31.2288 190.251 31.7364C190.821 32.244 191.262 32.842 191.575 33.5304C191.895 34.2189 192.059 35.0081 192.066 35.8982C192.059 37.2055 191.725 38.3389 191.064 39.2985C190.411 40.2512 189.465 40.9917 188.227 41.5202C186.996 42.0417 185.512 42.3025 183.773 42.3025C182.049 42.3025 180.547 42.0382 179.267 41.5098C177.995 40.9813 177.001 40.199 176.284 39.1629C175.575 38.1199 175.203 36.83 175.168 35.2932H179.539C179.587 36.0094 179.792 36.6074 180.154 37.0872C180.523 37.5601 181.013 37.9182 181.625 38.1616C182.244 38.398 182.942 38.5162 183.721 38.5162C184.486 38.5162 185.15 38.405 185.713 38.1824C186.284 37.9599 186.725 37.6505 187.038 37.2541C187.351 36.8578 187.507 36.4023 187.507 35.8877C187.507 35.4079 187.365 35.0046 187.08 34.6778C186.802 34.351 186.391 34.0728 185.849 33.8434C185.314 33.6139 184.656 33.4053 183.878 33.2175L181.552 32.6334C179.751 32.1953 178.329 31.5104 177.286 30.5786C176.243 29.6468 175.725 28.3917 175.731 26.8132C175.725 25.5198 176.069 24.3899 176.764 23.4233C177.466 22.4567 178.429 21.7023 179.653 21.1599C180.877 20.6175 182.268 20.3463 183.826 20.3463C185.411 20.3463 186.795 20.6175 187.977 21.1599C189.166 21.7023 190.091 22.4567 190.751 23.4233C191.412 24.3899 191.753 25.5094 191.774 26.7819H187.445ZM194.29 24.362V20.6384H211.834V24.362H205.294V42H200.83V24.362H194.29ZM233.378 31.3192C233.378 33.6487 232.937 35.6304 232.054 37.2646C231.177 38.8987 229.981 40.1468 228.465 41.0091C226.956 41.8644 225.26 42.2921 223.375 42.2921C221.477 42.2921 219.773 41.8609 218.264 40.9987C216.755 40.1364 215.563 38.8882 214.687 37.2541C213.811 35.62 213.372 33.6417 213.372 31.3192C213.372 28.9897 213.811 27.0079 214.687 25.3738C215.563 23.7397 216.755 22.495 218.264 21.6397C219.773 20.7774 221.477 20.3463 223.375 20.3463C225.26 20.3463 226.956 20.7774 228.465 21.6397C229.981 22.495 231.177 23.7397 232.054 25.3738C232.937 27.0079 233.378 28.9897 233.378 31.3192ZM228.799 31.3192C228.799 29.8102 228.573 28.5377 228.121 27.5016C227.676 26.4655 227.047 25.6798 226.233 25.1443C225.42 24.6089 224.467 24.3412 223.375 24.3412C222.284 24.3412 221.331 24.6089 220.517 25.1443C219.704 25.6798 219.071 26.4655 218.619 27.5016C218.174 28.5377 217.951 29.8102 217.951 31.3192C217.951 32.8281 218.174 34.1006 218.619 35.1367C219.071 36.1728 219.704 36.9586 220.517 37.494C221.331 38.0295 222.284 38.2972 223.375 38.2972C224.467 38.2972 225.42 38.0295 226.233 37.494C227.047 36.9586 227.676 36.1728 228.121 35.1367C228.573 34.1006 228.799 32.8281 228.799 31.3192ZM236.724 42V20.6384H245.152C246.765 20.6384 248.142 20.9269 249.282 21.5041C250.429 22.0743 251.302 22.8844 251.9 23.9344C252.505 24.9774 252.808 26.2048 252.808 27.6164C252.808 29.0349 252.502 30.2553 251.89 31.2775C251.278 32.2927 250.391 33.0715 249.23 33.6139C248.076 34.1563 246.678 34.4275 245.037 34.4275H239.394V30.7977H244.307C245.169 30.7977 245.885 30.6794 246.455 30.443C247.026 30.2066 247.45 29.852 247.728 29.3791C248.013 28.9063 248.156 28.3187 248.156 27.6164C248.156 26.9071 248.013 26.3091 247.728 25.8223C247.45 25.3356 247.022 24.967 246.445 24.7167C245.875 24.4594 245.155 24.3307 244.286 24.3307H241.24V42H236.724ZM248.26 32.2788L253.569 42H248.583L243.389 32.2788H248.26ZM255.999 42V20.6384H270.393V24.362H260.516V29.4521H269.653V33.1758H260.516V38.2763H270.435V42H255.999Z" fill="white"/>
</g>
<defs>
<filter id="filter0_d_83_1500" x="173.168" y="20.3467" width="99.2668" height="25.9561" filterUnits="userSpaceOnUse" color-interpolation-filters="sRGB">
<feFlood flood-opacity="0" result="BackgroundImageFix"/>
<feColorMatrix in="SourceAlpha" type="matrix" values="0 0 0 0 0 0 0 0 0 0 0 0 0 0 0 0 0 0 127 0" result="hardAlpha"/>
<feOffset dy="2"/>
<feGaussianBlur stdDeviation="1"/>
<feComposite in2="hardAlpha" operator="out"/>
<feColorMatrix type="matrix" values="0 0 0 0 0 0 0 0 0 0 0 0 0 0 0 0 0 0 0.25 0"/>
<feBlend mode="normal" in2="BackgroundImageFix" result="effect1_dropShadow_83_1500"/>
<feBlend mode="normal" in="SourceGraphic" in2="effect1_dropShadow_83_1500" result="shape"/>
</filter>
<linearGradient id="paint0_linear_83_1500" x1="190.713" y1="-27.3321" x2="257.719" y2="88.7255" gradientUnits="userSpaceOnUse">
<stop stop-color="#489DB7"/>
<stop offset="0.454688" stop-color="#1D5466"/>
<stop offset="1" stop-color="#317B93"/>
</linearGradient>
</defs>
</svg>
