<svg width="26" height="28" viewBox="0 0 26 28" fill="none" xmlns="http://www.w3.org/2000/svg">
<path d="M23.1192 11.5743H23.0499V9.87624C23.0499 4.42175 18.6282 0 13.1737 0C7.7191 0 3.29742 4.42175 3.29742 9.87624V11.5743H2.8816C1.35684 11.5743 0.178635 12.9257 0.178635 14.4852V18.8168C0.140231 20.3283 1.33442 21.5847 2.84585 21.6231C2.85779 21.6234 2.86966 21.6236 2.8816 21.6237H5.44594C5.80916 21.6067 6.0898 21.2983 6.07268 20.9351C6.07209 20.922 6.07109 20.909 6.0697 20.896V12.4059C6.0697 11.9901 5.82714 11.5742 5.44594 11.5742H4.68356V9.87617C4.68356 5.18725 8.48473 1.38607 13.1737 1.38607C17.8626 1.38607 21.6637 5.18725 21.6637 9.87617V11.5742H20.9014C20.5202 11.5742 20.2776 11.99 20.2776 12.4059V20.896C20.2389 21.2575 20.5007 21.582 20.8622 21.6207C20.8752 21.6221 20.8883 21.6231 20.9014 21.6237H21.6984L21.6291 21.7276C20.5892 23.1096 18.9575 23.919 17.2281 23.9108C16.8495 22.0543 15.0375 20.8562 13.181 21.2349C11.5934 21.5586 10.4488 22.949 10.436 24.5692C10.455 26.4695 12.001 28 13.9013 27.9999C14.8421 27.9846 15.7388 27.5986 16.3964 26.9256C16.84 26.4713 17.1308 25.8897 17.2281 25.2622C19.3938 25.2704 21.4363 24.2556 22.7379 22.5246L23.3964 21.5543C24.8865 21.4504 25.8221 20.5147 25.8221 19.1632V14.8315C25.8222 13.3416 24.7133 11.5743 23.1192 11.5743ZM4.68356 20.2376H2.8816C2.1354 20.2194 1.54521 19.5998 1.56338 18.8536C1.56371 18.8414 1.56418 18.8291 1.56478 18.8168V14.4851C1.56478 13.6881 2.11922 12.9603 2.8816 12.9603H4.68356V20.2376ZM15.3915 25.9554C15.0074 26.3718 14.4679 26.6103 13.9014 26.6139C12.774 26.596 11.859 25.6963 11.8222 24.5693C11.8217 23.4401 12.7367 22.5244 13.8659 22.5239C14.9951 22.5234 15.9108 23.4384 15.9113 24.5676V24.5693C15.9402 25.0838 15.7515 25.5868 15.3915 25.9554ZM24.436 19.1633C24.436 20.099 23.535 20.2376 23.1192 20.2376H21.6637V12.9604H23.1192C23.8816 12.9604 24.436 14.0347 24.436 14.8317V19.1633Z" fill="black"/>
</svg>
