<svg width="44" height="44" viewBox="0 0 44 44" fill="none" xmlns="http://www.w3.org/2000/svg">
<circle cx="22" cy="22" r="22" fill="url(#paint0_linear_786_644)"/>
<path d="M22.3076 27.8176C22.3077 26.7464 22.6346 25.6985 23.2482 24.802C23.8618 23.9055 24.7356 23.1994 25.7626 22.77C26.7896 22.3406 27.9254 22.2065 29.0309 22.3842C30.1364 22.5619 31.1637 23.0436 31.9872 23.7705C32.0145 21.8874 31.9981 20.0044 31.9382 18.1214C31.9055 16.8277 31.141 15.5289 29.8603 14.8871C29.2022 14.5547 28.5203 14.2348 27.8307 13.9317C25.1057 14.7738 21.9143 15.8848 18.6955 17.2601C18.386 17.3908 18.1209 17.6015 17.93 17.8685C17.7391 18.1354 17.6301 18.448 17.6151 18.771C17.5648 20.2553 17.5493 21.7873 17.5697 23.3021C17.5714 23.3465 17.5581 23.3903 17.5318 23.427C17.5055 23.4636 17.4675 23.4913 17.4236 23.5058C17.3796 23.5204 17.3319 23.5211 17.2875 23.5078C17.2431 23.4946 17.2043 23.4681 17.1769 23.4322C16.8362 23.0155 16.5035 22.6036 16.1786 22.1963C16.1546 22.1644 16.119 22.1424 16.0788 22.1345C16.0386 22.1266 15.9967 22.1335 15.9616 22.1537C15.7089 22.2975 15.4608 22.4392 15.2172 22.5791C15.0806 22.6572 14.9126 22.5529 14.9118 22.3924C14.9036 20.8834 14.9429 19.3706 15.0275 17.9042C15.063 17.2859 15.469 16.7035 16.0695 16.4199C19.1566 14.9629 22.4502 13.7727 25.2606 12.8919C24.6066 12.6473 23.9562 12.4231 23.3214 12.2106C22.4654 11.9298 21.5358 11.9298 20.6798 12.2106C18.5614 12.9091 16.2481 13.8208 14.1404 14.8871C12.8601 15.5289 12.0965 16.8277 12.0625 18.1214C11.9792 20.7073 11.9792 23.2931 12.0625 25.879C12.0952 27.1727 11.988 27.6382 13.2683 28.28C15.376 29.3463 18.5614 31.0913 20.681 31.7894C21.537 32.0702 22.4666 32.0702 23.3226 31.7894C23.5076 31.7284 23.6944 31.6655 23.883 31.6007C22.8681 30.5803 22.3038 29.2253 22.3076 27.8176Z" fill="white"/>
<path d="M27.9996 24C27.2085 24.0001 26.4352 24.2347 25.7774 24.6743C25.1197 25.1139 24.607 25.7387 24.3043 26.4696C24.0017 27.2005 23.9225 28.0048 24.0769 28.7807C24.2313 29.5566 24.6124 30.2693 25.1718 30.8287C25.7313 31.388 26.4441 31.7689 27.22 31.9232C27.9959 32.0775 28.8002 31.9982 29.5311 31.6954C30.262 31.3926 30.8866 30.8798 31.3261 30.222C31.7655 29.5641 32.0001 28.7908 32 27.9996C32 27.4743 31.8964 26.9542 31.6954 26.4689C31.4943 25.9836 31.1996 25.5427 30.8282 25.1713C30.4567 24.7999 30.0157 24.5053 29.5304 24.3043C29.0451 24.1034 28.5249 24 27.9996 24ZM30.2811 27.3376L27.8767 29.8623C27.8113 29.9312 27.7326 29.986 27.6454 30.0237C27.5582 30.0613 27.4643 30.0809 27.3694 30.0813H27.366C27.2716 30.0812 27.1782 30.0622 27.0912 30.0255C27.0043 29.9887 26.9256 29.9349 26.8598 29.8672L25.584 28.5529C25.4537 28.4187 25.3821 28.2381 25.3849 28.0511C25.3877 27.864 25.4647 27.6857 25.599 27.5554C25.7332 27.4251 25.9137 27.3535 26.1008 27.3563C26.2879 27.3591 26.4661 27.4361 26.5964 27.5704L27.3619 28.3583L29.2601 26.3648C29.3906 26.2369 29.5657 26.1647 29.7484 26.1633C29.9311 26.1619 30.1073 26.2315 30.2397 26.3574C30.3722 26.4833 30.4506 26.6557 30.4584 26.8383C30.4663 27.0208 30.403 27.1993 30.2819 27.3361L30.2811 27.3376Z" fill="white"/>
<defs>
<linearGradient id="paint0_linear_786_644" x1="-0.0273136" y1="21.9887" x2="44.0664" y2="21.9887" gradientUnits="userSpaceOnUse">
<stop stop-color="#00D0BB"/>
<stop offset="1" stop-color="#007EA9"/>
</linearGradient>
</defs>
</svg>
