<svg width="28" height="28" viewBox="0 0 28 28" fill="none" xmlns="http://www.w3.org/2000/svg">
<path d="M5.51562 26H13.3438V17.4688H10.5312V14.6562H13.3438V11.1406C13.3438 9.20209 14.9208 7.625 16.8594 7.625H20.375V10.4375H17.5625C16.787 10.4375 16.1562 11.0683 16.1562 11.8438V14.6562H20.2481L19.7794 17.4688H16.1562V26H22.4844C24.4229 26 26 24.4229 26 22.4844V5.51562C26 3.57709 24.4229 2 22.4844 2H5.51562C3.57709 2 2 3.57709 2 5.51562V22.4844C2 24.4229 3.57709 26 5.51562 26ZM3.40625 5.51562C3.40625 4.35254 4.35254 3.40625 5.51562 3.40625H22.4844C23.6475 3.40625 24.5938 4.35254 24.5938 5.51562V22.4844C24.5938 23.6475 23.6475 24.5938 22.4844 24.5938H17.5625V18.875H20.9706L21.9081 13.25H17.5625V11.8438H21.7812V6.21875H16.8594C14.1454 6.21875 11.9375 8.42664 11.9375 11.1406V13.25H9.125V18.875H11.9375V24.5938H5.51562C4.35254 24.5938 3.40625 23.6475 3.40625 22.4844V5.51562Z" fill="black"/>
</svg>
