<svg width="25" height="24" viewBox="0 0 25 24" fill="none" xmlns="http://www.w3.org/2000/svg">
<path d="M22.2668 21.6756H2.46604C2.09703 21.6756 1.79102 21.3696 1.79102 21.0006C1.79102 20.6316 2.09703 20.3256 2.46604 20.3256H22.2668C22.6358 20.3256 22.9418 20.6316 22.9418 21.0006C22.9418 21.3696 22.6358 21.6756 22.2668 21.6756Z" fill="black"/>
<path d="M19.3684 21.6851C18.9994 21.6851 18.6934 21.3791 18.6934 21.0101V16.9959C18.6934 16.6269 18.9994 16.3209 19.3684 16.3209C19.7374 16.3209 20.0434 16.6269 20.0434 16.9959V21.0101C20.0434 21.3791 19.7464 21.6851 19.3684 21.6851Z" fill="black"/>
<path d="M19.3856 17.6711C17.9185 17.6711 16.7305 16.4831 16.7305 15.016V12.973C16.7305 11.5059 17.9185 10.3179 19.3856 10.3179C20.8526 10.3179 22.0407 11.5059 22.0407 12.973V15.016C22.0407 16.4831 20.8526 17.6711 19.3856 17.6711ZM19.3856 11.6769C18.6655 11.6769 18.0805 12.262 18.0805 12.982V15.025C18.0805 15.745 18.6655 16.3301 19.3856 16.3301C20.1056 16.3301 20.6906 15.745 20.6906 15.025V12.982C20.6906 12.262 20.1056 11.6769 19.3856 11.6769Z" fill="black"/>
<path d="M14.4359 21.6755C14.0669 21.6755 13.7608 21.3695 13.7608 21.0005V6.62703C13.7608 5.19598 13.1578 4.58394 11.7538 4.58394H6.14661C4.73356 4.58394 4.12153 5.19598 4.12153 6.62703V21.0005C4.12153 21.3695 3.81552 21.6755 3.44651 21.6755C3.0775 21.6755 2.77148 21.3695 2.77148 21.0005V6.62703C2.77148 4.43995 3.96853 3.23389 6.14661 3.23389H11.7538C13.9229 3.23389 15.1109 4.43995 15.1109 6.62703V21.0005C15.1109 21.3695 14.8049 21.6755 14.4359 21.6755Z" fill="black"/>
<path d="M11.2405 9.29988H6.78538C6.41636 9.29988 6.11035 8.99387 6.11035 8.62485C6.11035 8.25584 6.41636 7.94983 6.78538 7.94983H11.2405C11.6096 7.94983 11.9156 8.25584 11.9156 8.62485C11.9156 8.99387 11.6096 9.29988 11.2405 9.29988Z" fill="black"/>
<path d="M11.2405 12.6754H6.78538C6.41636 12.6754 6.11035 12.3694 6.11035 12.0003C6.11035 11.6313 6.41636 11.3253 6.78538 11.3253H11.2405C11.6096 11.3253 11.9156 11.6313 11.9156 12.0003C11.9156 12.3694 11.6096 12.6754 11.2405 12.6754Z" fill="black"/>
<path d="M8.99045 21.6751C8.62144 21.6751 8.31543 21.3691 8.31543 21.0001V17.625C8.31543 17.256 8.62144 16.95 8.99045 16.95C9.35947 16.95 9.66548 17.256 9.66548 17.625V21.0001C9.66548 21.3691 9.35947 21.6751 8.99045 21.6751Z" fill="black"/>
</svg>
