<svg width="26" height="26" viewBox="0 0 26 26" fill="none" xmlns="http://www.w3.org/2000/svg">
<path d="M20.2309 24.9599C18.8362 26.3275 17.2974 26.1143 15.8307 25.4695C14.2713 24.8117 12.8457 24.7701 11.1989 25.4695C9.148 26.3639 8.05952 26.1039 6.82436 24.9599C-0.149115 17.7059 0.88018 6.65598 8.80576 6.23998C10.728 6.34398 12.0738 7.31378 13.206 7.39438C14.8889 7.04858 16.4997 6.05798 18.301 6.18798C20.4651 6.36478 22.0837 7.22798 23.1644 8.78018C18.7127 11.4842 19.7678 17.4121 23.8566 19.0761C23.0383 21.2471 21.9885 23.3921 20.2284 24.9781L20.2309 24.9599ZM13.0516 6.16198C12.8432 2.93799 15.4293 0.286 18.4039 0.026001C18.8131 3.74399 15.0587 6.52598 13.0516 6.16198Z" fill="black"/>
</svg>
