<svg width="14" height="15" viewBox="0 0 14 15" fill="none" xmlns="http://www.w3.org/2000/svg">
<path d="M2.1875 9.87462V11.1674C2.512 11.1126 2.80404 10.9378 3.00577 10.6778C3.20749 10.4178 3.30418 10.0915 3.27665 9.76353C3.24913 9.43559 3.09942 9.12995 2.85718 8.90719C2.61494 8.68442 2.29785 8.56079 1.96875 8.56079C1.63966 8.56079 1.32257 8.68442 1.08033 8.90719C0.838087 9.12995 0.688371 9.43559 0.66085 9.76353C0.633329 10.0915 0.730011 10.4178 0.931737 10.6778C1.13346 10.9378 1.42551 11.1126 1.75 11.1674V9.87462H2.1875Z" fill="black"/>
<path d="M12.25 9.87462V11.1674C12.5745 11.1126 12.8665 10.9378 13.0683 10.6778C13.27 10.4178 13.3667 10.0915 13.3392 9.76353C13.3116 9.43559 13.1619 9.12995 12.9197 8.90719C12.6774 8.68442 12.3603 8.56079 12.0313 8.56079C11.7022 8.56079 11.3851 8.68442 11.1428 8.90719C10.9006 9.12995 10.7509 9.43559 10.7234 9.76353C10.6958 10.0915 10.7925 10.4178 10.9942 10.6778C11.196 10.9378 11.488 11.1126 11.8125 11.1674V9.87462H12.25Z" fill="black"/>
<path d="M13.3438 12.0621H12.25V11.1674C12.1053 11.1937 11.9572 11.1937 11.8125 11.1674V12.0621H10.2812V2.65588H10.9375V2.21838H3.0625V2.65588H3.71875V12.0621H2.1875V11.1674C2.04285 11.1937 1.89465 11.1937 1.75 11.1674V12.0621H0.65625V12.4996H13.3438V12.0621ZM7.21875 3.53088H8.09375V3.96838H7.21875V3.53088ZM7.21875 4.62463H8.09375V5.06213H7.21875V4.62463ZM7.21875 5.71838H8.09375V6.15588H7.21875V5.71838ZM7.21875 6.81213H8.09375V7.24963H7.21875V6.81213ZM7.21875 7.90588H8.09375V8.34338H7.21875V7.90588ZM4.59375 3.53088H5.46875V3.96838H4.59375V3.53088ZM4.59375 4.62463H5.46875V5.06213H4.59375V4.62463ZM4.59375 5.71838H5.46875V6.15588H4.59375V5.71838ZM4.59375 6.81213H5.46875V7.24963H4.59375V6.81213ZM4.59375 7.90588H5.46875V8.34338H4.59375V7.90588ZM6.78125 12.0621H5.46875V10.0934C5.46875 10.0354 5.4918 9.97973 5.53282 9.9387C5.57384 9.89768 5.62948 9.87463 5.6875 9.87463H6.78125V12.0621ZM6.78125 8.34338H5.90625V7.90588H6.78125V8.34338ZM6.78125 7.24963H5.90625V6.81213H6.78125V7.24963ZM6.78125 6.15588H5.90625V5.71838H6.78125V6.15588ZM6.78125 5.06213H5.90625V4.62463H6.78125V5.06213ZM6.78125 3.96838H5.90625V3.53088H6.78125V3.96838ZM8.53125 12.0621H7.21875V9.87463H8.3125C8.37052 9.87463 8.42616 9.89768 8.46718 9.9387C8.5082 9.97973 8.53125 10.0354 8.53125 10.0934V12.0621ZM9.40625 8.34338H8.53125V7.90588H9.40625V8.34338ZM9.40625 7.24963H8.53125V6.81213H9.40625V7.24963ZM9.40625 6.15588H8.53125V5.71838H9.40625V6.15588ZM9.40625 5.06213H8.53125V4.62463H9.40625V5.06213ZM9.40625 3.96838H8.53125V3.53088H9.40625V3.96838Z" fill="black"/>
</svg>
