<svg width="25" height="24" viewBox="0 0 25 24" fill="none" xmlns="http://www.w3.org/2000/svg">
<path fill-rule="evenodd" clip-rule="evenodd" d="M13.1152 13.9395V17.9765H11.6152V13.9395H13.1152Z" fill="black"/>
<path fill-rule="evenodd" clip-rule="evenodd" d="M2.37012 5.12988H22.3601V12.8099L21.989 13.0271C19.4005 14.5424 16.0166 15.4399 12.3601 15.4399C8.70324 15.4399 5.32946 14.5422 2.74123 13.0271L2.37012 12.8099V5.12988ZM3.87012 6.62988V11.9419C6.15567 13.1831 9.11554 13.9399 12.3601 13.9399C15.6051 13.9399 18.5739 13.183 20.8601 11.9418V6.62988H3.87012Z" fill="black"/>
<path fill-rule="evenodd" clip-rule="evenodd" d="M9.37249 2.5498H15.3579L16.8512 6.00172L15.4745 6.59728L14.3724 4.0498H10.3578L9.25556 6.59731L7.87891 6.00164L9.37249 2.5498Z" fill="black"/>
<path fill-rule="evenodd" clip-rule="evenodd" d="M3.86826 14.418L4.05813 19.9503H20.6717L20.8616 14.418L22.3607 14.4694L22.1211 21.4503H2.60872L2.36914 14.4694L3.86826 14.418Z" fill="black"/>
</svg>
