<svg width="17" height="17" viewBox="0 0 17 17" fill="none" xmlns="http://www.w3.org/2000/svg">
<path d="M10.0684 7.86974H11.8495" stroke="white" stroke-linecap="square"/>
<path fill-rule="evenodd" clip-rule="evenodd" d="M5.5916 13.9122C5.78494 13.9122 5.94102 14.069 5.94102 14.2616C5.94102 14.455 5.78494 14.6117 5.5916 14.6117C5.39827 14.6117 5.24219 14.455 5.24219 14.2616C5.24219 14.069 5.39827 13.9122 5.5916 13.9122Z" fill="white" stroke="white" stroke-linecap="square"/>
<path fill-rule="evenodd" clip-rule="evenodd" d="M12.8357 13.9122C13.0291 13.9122 13.1858 14.069 13.1858 14.2616C13.1858 14.455 13.0291 14.6117 12.8357 14.6117C12.6424 14.6117 12.4863 14.455 12.4863 14.2616C12.4863 14.069 12.6424 13.9122 12.8357 13.9122Z" fill="white" stroke="white" stroke-linecap="square"/>
<path d="M4.23513 5.26255H14.6517L13.8054 11.6856H4.81406L3.96271 3.22241H2.31836" stroke="white" stroke-linecap="square"/>
</svg>
