<?xml version="1.0" encoding="UTF-8"?>
<svg version="1.1" xmlns="http://www.w3.org/2000/svg" width="512" height="512">
<path d="M0 0 C3.94518085 3.31355783 7.59220397 6.89207267 11.18164062 10.58349609 C12.014375 11.41880859 12.84710938 12.25412109 13.70507812 13.11474609 C31.59721507 31.92286275 39.60394262 57.34048951 39.33007812 82.91943359 C38.38545381 106.23673901 30.16552201 128.41853973 14.18164062 145.58349609 C13.30378906 146.52966797 12.4259375 147.47583984 11.52148438 148.45068359 C-7.35188279 168.28343021 -32.343799 178.14149442 -59.50585938 178.89599609 C-86.55022996 178.38115365 -110.70781077 168.72269619 -129.81835938 149.58349609 C-130.54410156 148.92865234 -131.26984375 148.27380859 -132.01757812 147.59912109 C-149.30351877 131.70556466 -157.70579995 106.61411777 -159.04101562 83.77490234 C-159.60237658 59.14824121 -152.30738443 33.43785413 -135.25585938 15.08349609 C-133.46458727 13.2275715 -131.64384901 11.40625296 -129.81835938 9.58349609 C-129.16351563 8.85775391 -128.50867188 8.13201172 -127.83398438 7.38427734 C-96.31932675 -26.89127977 -35.7993527 -27.88773421 0 0 Z M-100.81835938 37.58349609 C-103.32339552 41.05822364 -103.80499985 43.16935077 -103.94335938 47.45849609 C-102.37252917 56.27047039 -91.93028852 63.59387119 -85.88085938 69.58349609 C-85.00623047 70.45361328 -84.13160156 71.32373047 -83.23046875 72.22021484 C-81.09538488 74.34363159 -78.95798732 76.46465987 -76.81835938 78.58349609 C-80.18841945 82.68043187 -83.67555691 86.48839467 -87.49023438 90.17724609 C-88.31910156 90.98033203 -89.14796875 91.78341797 -90.00195312 92.61083984 C-91.72101145 94.26710152 -93.44767978 95.91549881 -95.18164062 97.55615234 C-101.41055802 103.56011642 -101.41055802 103.56011642 -103.81835938 111.58349609 C-102.38744936 116.27370113 -100.57777776 119.43043551 -96.81835938 122.58349609 C-93.53569839 124.22482659 -90.35427688 124.22176118 -86.81835938 123.58349609 C-79.65706366 119.66054488 -73.96840471 112.96530101 -68.31835938 107.20849609 C-67.40054688 106.28166016 -66.48273438 105.35482422 -65.53710938 104.39990234 C-63.29286952 102.13228499 -61.05346515 99.86011098 -58.81835938 97.58349609 C-52.43065287 102.87568566 -46.70378842 108.68191343 -40.95898438 114.65771484 C-39.88003906 115.75792969 -39.88003906 115.75792969 -38.77929688 116.88037109 C-38.13782715 117.54391602 -37.49635742 118.20746094 -36.83544922 118.89111328 C-34.08117141 121.20201304 -31.35518967 122.46998022 -27.75585938 122.73583984 C-24.00960598 122.32042868 -22.03939715 121.73869283 -18.88085938 119.52099609 C-16.37782708 115.9560713 -15.31315737 112.94875718 -15.81835938 108.58349609 C-17.828691 103.88315124 -20.29050504 100.75537608 -23.92382812 97.18505859 C-24.40789627 96.70523529 -24.89196442 96.22541199 -25.39070129 95.73104858 C-26.92212604 94.21627261 -28.46369526 92.7123291 -30.00585938 91.20849609 C-31.05277493 90.17664524 -32.09900601 89.14409942 -33.14453125 88.11083984 C-35.69461237 85.59364419 -38.25389551 83.08604706 -40.81835938 80.58349609 C-35.53616845 74.21799416 -29.75936405 68.48526699 -23.83203125 62.72412109 C-23.10177734 62.00482422 -22.37152344 61.28552734 -21.61914062 60.54443359 C-20.96083252 59.90296387 -20.30252441 59.26149414 -19.62426758 58.60058594 C-15.8477643 54.38246101 -14.29163292 51.08639817 -14.53320312 45.50927734 C-14.96533006 42.59094063 -15.94482522 40.844658 -17.81835938 38.58349609 C-21.00698452 36.23398283 -23.83882131 34.77299791 -27.81835938 34.58349609 C-33.23377399 36.46758986 -36.77344074 38.97992884 -40.75195312 43.12646484 C-41.27475357 43.65492508 -41.79755402 44.18338531 -42.3361969 44.7278595 C-43.98580909 46.39966537 -45.62087436 48.08489519 -47.25585938 49.77099609 C-48.37927158 50.91449527 -49.50361237 52.05708295 -50.62890625 53.19873047 C-53.3695682 55.98323352 -56.09728247 58.77985647 -58.81835938 61.58349609 C-65.68096422 55.92323442 -71.79259208 49.61424426 -77.96679688 43.22021484 C-78.77632812 42.39650391 -79.58585937 41.57279297 -80.41992188 40.72412109 C-81.14518066 39.97678711 -81.87043945 39.22945312 -82.61767578 38.45947266 C-85.60719793 35.91104929 -88.3769601 34.76829087 -92.25585938 34.27099609 C-95.71548142 34.69290122 -97.89614981 35.67770725 -100.81835938 37.58349609 Z " fill="#85B6FF" transform="translate(353.818359375,103.41650390625)"/>
<path d="M0 0 C0.85247314 -0.00700928 1.70494629 -0.01401855 2.58325195 -0.02124023 C5.3995832 -0.03883756 8.21490864 -0.02719147 11.03125 -0.01367188 C12.98893425 -0.01636629 14.9466172 -0.02024829 16.90429688 -0.02526855 C21.00664007 -0.03116595 25.10863482 -0.02259281 29.2109375 -0.00390625 C34.47045628 0.01888337 39.72915864 0.00576159 44.98864746 -0.01819611 C49.0309871 -0.03264751 53.07313305 -0.0280511 57.11547852 -0.01768494 C59.05476986 -0.01501583 60.99407877 -0.01829385 62.93334961 -0.02760315 C65.6435405 -0.03775789 68.35240775 -0.02228315 71.0625 0 C71.86469971 -0.00809692 72.66689941 -0.01619385 73.4934082 -0.02453613 C77.02559317 0.02929057 79.10699012 0.20000315 81.97479248 2.34666443 C84.03866353 5.22530768 85.08521581 8.23359884 86.109375 11.58398438 C86.32567566 12.25928696 86.54197632 12.93458954 86.76483154 13.63035583 C87.21748891 15.05146626 87.66426853 16.47446086 88.10546875 17.89916992 C88.78132585 20.0803229 89.47493626 22.25518954 90.171875 24.4296875 C93.53125 35.03487099 93.53125 35.03487099 93.53125 38.51757812 C94.32416443 38.50869568 95.11707886 38.49981323 95.934021 38.49066162 C103.40854184 38.41049478 110.88285408 38.34960351 118.35769272 38.31032944 C122.20056252 38.28945929 126.04307693 38.26115306 129.88574219 38.21582031 C133.59456115 38.17234067 137.30303842 38.14843671 141.01209259 38.13806915 C142.42671335 38.13068145 143.84131552 38.11625469 145.25579071 38.0946579 C147.23772423 38.06560197 149.220002 38.06394404 151.20214844 38.06347656 C152.33021912 38.05459412 153.45828979 38.04571167 154.62054443 38.03656006 C158.1800342 38.62479506 159.33946517 39.71149558 161.53125 42.51757812 C162.0625 44.51757812 162.0625 44.51757812 162.03125 46.51757812 C162.04671875 47.50757813 162.04671875 47.50757813 162.0625 48.51757812 C161.28456112 51.44628919 159.85955735 52.61389797 157.53125 54.51757812 C154.84832764 54.99859619 154.84832764 54.99859619 151.75292969 54.97167969 C150.5920282 54.97137756 149.43112671 54.97107544 148.23504639 54.97076416 C146.98701233 54.95011902 145.73897827 54.92947388 144.453125 54.90820312 C142.53055878 54.89971344 142.53055878 54.89971344 140.56915283 54.89105225 C137.16911372 54.8758128 133.76976306 54.83654728 130.36999512 54.79223633 C126.89779981 54.75124612 123.42549276 54.73303334 119.953125 54.71289062 C113.14555134 54.67005012 106.33843376 54.60182025 99.53125 54.51757812 C99.90351212 55.68074806 99.90351212 55.68074806 100.28329468 56.86741638 C112.80037507 95.98182497 125.28925544 135.10441681 137.6204834 174.27789307 C139.48811929 180.21034979 141.36032043 186.14132458 143.2388916 192.07032776 C144.30470226 195.43470065 145.36843944 198.79972672 146.4317627 202.16488647 C146.90792612 203.67009643 147.3850303 205.17500916 147.86315918 206.67959595 C148.49729535 208.67556506 149.12800951 210.67258209 149.7578125 212.66992188 C150.10408691 213.76296631 150.45036133 214.85601074 150.80712891 215.98217773 C151.53125 218.51757812 151.53125 218.51757812 151.53125 220.51757812 C224.13125 220.51757812 296.73125 220.51757812 371.53125 220.51757812 C373.01625 215.07257813 373.01625 215.07257813 374.53125 209.51757812 C375.1295563 207.63413338 375.7484396 205.75680726 376.40625 203.89331055 C376.74585251 202.92515411 377.08545502 201.95699768 377.43534851 200.95950317 C377.796996 199.9409726 378.15864349 198.92244202 378.53125 197.87304688 C378.91920242 196.77040497 379.30715485 195.66776306 379.7068634 194.53170776 C380.97801529 190.92153516 382.25459251 187.31330707 383.53125 183.70507812 C384.42877063 181.16100488 385.32512148 178.61652003 386.22143555 176.07202148 C387.84049989 171.47694573 389.46097928 166.88237349 391.08324337 162.2884264 C393.91423871 154.27142806 396.73508289 146.25090133 399.55078125 138.22851562 C407.04114942 116.89223839 414.55833116 95.56582249 422.15625 74.26757812 C422.47888824 73.36210236 422.80152649 72.45662659 423.13394165 71.52371216 C424.02793485 69.01593328 424.92374395 66.50881225 425.8203125 64.00195312 C426.08286331 63.26522873 426.34541412 62.52850433 426.61592102 61.76945496 C428.41576358 56.74855097 428.41576358 56.74855097 429.53125 54.51757812 C428.63811096 54.52646057 427.74497192 54.53534302 426.82476807 54.54449463 C418.40843257 54.62463746 409.99222519 54.68554095 401.57559586 54.72482681 C397.24847386 54.74570316 392.92166712 54.77402125 388.59472656 54.81933594 C384.41907401 54.86279264 380.2437247 54.88671488 376.06786346 54.8970871 C374.4746193 54.90447885 372.88139176 54.91891333 371.28827667 54.94049835 C369.05672831 54.9695314 366.82643336 54.97353438 364.59472656 54.97167969 C363.32453674 54.98056213 362.05434692 54.98944458 360.7456665 54.99859619 C356.97073323 54.43370017 355.8087612 53.51749328 353.53125 50.51757812 C353 48.51757813 353 48.51757813 353.03125 46.51757812 C353.01578125 45.52757812 353.01578125 45.52757812 353 44.51757812 C353.80516083 41.48638441 355.03671283 40.42373732 357.53125 38.51757812 C360.4791027 38.12302025 363.05302283 37.97025498 366 38 C367.27870972 37.98948608 367.27870972 37.98948608 368.58325195 37.97875977 C371.3995832 37.96116244 374.21490864 37.97280853 377.03125 37.98632812 C378.98893425 37.98363371 380.9466172 37.97975171 382.90429688 37.97473145 C387.00664007 37.96883405 391.10863482 37.97740719 395.2109375 37.99609375 C400.47045628 38.01888337 405.72915864 38.00576159 410.98864746 37.98180389 C415.0309871 37.96735249 419.07313305 37.9719489 423.11547852 37.98231506 C425.05476986 37.98498417 426.99407877 37.98170615 428.93334961 37.97239685 C431.6435405 37.96224211 434.35240775 37.97771685 437.0625 38 C437.86469971 37.99190308 438.66689941 37.98380615 439.4934082 37.97546387 C443.00345654 38.02895323 445.13325391 38.23575778 448.03327942 40.28926086 C450.52597316 43.99728595 450.10189358 47.20604286 449.53125 51.51757812 C448.77506324 54.70567124 447.70141239 57.72190548 446.55078125 60.78710938 C446.23095779 61.67545975 445.91113434 62.56381012 445.58161926 63.4790802 C444.8834452 65.41331162 444.17876206 67.34520324 443.46832275 69.27496338 C441.9105717 73.50688896 440.38472403 77.75013345 438.85583496 81.99255371 C438.03371397 84.27221693 437.20986355 86.55125711 436.38439941 88.82971191 C431.98692094 100.97514872 427.72674422 113.16765393 423.47402954 125.36437988 C421.48973624 131.05512169 419.49918959 136.74367687 417.50900841 142.4323616 C416.84435193 144.33226377 416.17983297 146.23221399 415.51533508 148.13217163 C411.14646526 160.62274782 406.76847679 173.11010858 402.38104248 185.59417725 C401.57944796 187.87560785 400.77836177 190.15721715 399.97784424 192.43902588 C397.83904211 198.53483457 395.68979108 204.6267313 393.52453613 210.7131958 C392.53377924 213.51043723 391.55727056 216.3124025 390.58105469 219.11474609 C389.96879078 220.84171678 389.35587113 222.56845518 388.7421875 224.29492188 C388.47491852 225.07396378 388.20764954 225.85300568 387.93228149 226.65565491 C387.67409637 227.373134 387.41591125 228.0906131 387.14990234 228.82983398 C386.93248383 229.44934433 386.71506531 230.06885468 386.49105835 230.70713806 C385.10138434 233.32841294 383.91792992 234.68644139 381.53125 236.51757812 C378.54208076 237.12398235 375.58783491 237.06400837 372.54632568 237.03656006 C371.16912554 237.04781194 371.16912554 237.04781194 369.76410317 237.05929112 C366.68072359 237.07962704 363.59807523 237.07145395 360.51464844 237.06347656 C358.30718251 237.07220835 356.09972292 237.08269274 353.89227295 237.09480286 C347.89265107 237.12273163 341.89323501 237.12606602 335.89355755 237.12508297 C329.62611435 237.12820615 323.35876466 237.15381195 317.09136963 237.17706299 C306.56970744 237.21305529 296.04808099 237.23513635 285.52636719 237.24658203 C274.68909185 237.25840904 263.85188535 237.27860286 253.01464844 237.31005859 C252.01259426 237.31296275 252.01259426 237.31296275 250.99029657 237.31592557 C247.63894674 237.3256901 244.28759741 237.33561921 240.9362483 237.34563017 C213.13461366 237.42809635 185.33298154 237.48214649 157.53125 237.51757812 C157.89476562 238.65300049 158.25828125 239.78842285 158.6328125 240.95825195 C159.97897037 245.16682921 161.31944625 249.37719797 162.65820312 253.58813477 C163.23868183 255.41122098 163.82070518 257.23381611 164.40429688 259.0559082 C165.24234022 261.67336842 166.07483267 264.29253807 166.90625 266.91210938 C167.16873535 267.72782913 167.4312207 268.54354889 167.70166016 269.38398743 C168.69412936 272.52587051 169.53125 275.20147036 169.53125 278.51757812 C170.62015408 278.51389095 171.70905815 278.51020378 172.83095932 278.50640488 C199.30330826 278.41768109 225.77563797 278.35191052 252.2481041 278.31032944 C265.04989652 278.28968764 277.85159085 278.26153607 290.65332031 278.21582031 C301.8088507 278.17600216 312.96431005 278.15015709 324.11990952 278.14122415 C330.02896049 278.13600091 335.93780819 278.12369068 341.84679413 278.0946579 C347.40517645 278.06756824 352.9632712 278.05912011 358.52171326 278.0651474 C360.56477164 278.06404427 362.60783934 278.05605222 364.65084076 278.04075623 C367.43488108 278.02092933 370.21782782 278.02561223 373.00189209 278.03656006 C373.81512176 278.02490869 374.62835144 278.01325733 375.46622443 278.00125289 C379.07922879 278.03980188 381.11442405 278.19993112 384.03113174 280.42264175 C385.65548412 282.69107283 386.07435004 283.75917576 386.03125 286.51757812 C386.0415625 287.17757813 386.051875 287.83757812 386.0625 288.51757812 C385.25260835 291.56658199 384.05433822 292.60995417 381.53125 294.51757812 C378.45107603 294.91028867 375.7292139 295.05786793 372.64916992 295.0255127 C371.74202586 295.03175266 370.8348818 295.03799262 369.90024853 295.04442167 C366.85380928 295.06040477 363.80816425 295.04772652 360.76171875 295.03515625 C358.58044975 295.040575 356.39918441 295.04769626 354.21792603 295.05639648 C348.28824042 295.07466207 342.35883258 295.06754884 336.429142 295.05488014 C330.23034148 295.04476928 324.0315651 295.05414049 317.83276367 295.0604248 C306.75471212 295.06817352 295.67678374 295.05572493 284.5987519 295.03538746 C274.55307655 295.01751622 264.50758608 295.02062027 254.46191406 295.0390625 C242.79798923 295.06039049 231.13418011 295.06843829 219.47023869 295.05661345 C213.29524864 295.05036988 207.12038597 295.04956664 200.94540405 295.0627594 C195.14068264 295.0742943 189.33631117 295.0663351 183.53162766 295.04318237 C181.39828447 295.03788269 179.26491196 295.03943046 177.13158035 295.04823303 C174.22509618 295.0591222 171.31974176 295.045505 168.41333008 295.0255127 C167.13921406 295.03889703 167.13921406 295.03889703 165.83935833 295.05255175 C162.20054949 295.00381545 160.00957644 294.87581618 157.0518322 292.66064167 C155.1705244 290.00918214 154.27224166 287.56701965 153.30908203 284.4597168 C152.7301973 282.62694939 152.7301973 282.62694939 152.13961792 280.75715637 C151.73096528 279.42082756 151.32245083 278.08445648 150.9140625 276.74804688 C150.4767674 275.35029005 150.03819573 273.95293205 149.59841919 272.55595398 C148.6850758 269.64987724 147.77799415 266.74195643 146.87561035 263.8324585 C145.62012403 259.79177542 144.33910976 255.75970699 143.04589844 251.73095703 C142.84359808 251.10071247 142.64129772 250.47046791 142.43286705 249.82112503 C142.02343672 248.54603359 141.61392824 247.27096724 141.20434189 245.9959259 C140.1489935 242.70640491 139.09965675 239.41496922 138.05029297 236.12353516 C137.83669947 235.45367458 137.62310596 234.78381401 137.40303993 234.09365463 C136.96317946 232.7140632 136.52336007 231.33445868 136.08358002 229.95484161 C135.38936915 227.7771234 134.69496432 225.59946709 134.00054932 223.42181396 C125.66587956 197.28128999 117.39246336 171.12160175 109.13916397 144.95528889 C107.88977484 140.99424205 106.64025918 137.03323515 105.390625 133.07226562 C105.14544884 132.29511892 104.90027267 131.51797222 104.64766693 130.71727562 C99.76357758 115.23787558 94.85353071 99.76677422 89.93695068 84.29766846 C86.79846722 74.42244664 83.66445835 64.54580315 80.53112793 54.66894531 C79.88559066 52.63437198 79.23985317 50.59986215 78.59387207 48.56542969 C77.03267205 43.64841334 75.47466421 38.7304307 73.92523193 33.80969238 C73.50407679 32.47417834 73.08148716 31.1391156 72.6572876 29.80456543 C72.10605497 28.06954747 71.5606171 26.33269142 71.015625 24.59570312 C70.72397461 23.67176758 70.43232422 22.74783203 70.13183594 21.79589844 C69.53125 19.51757812 69.53125 19.51757812 69.53125 16.51757812 C68.5629425 16.52646057 67.59463501 16.53534302 66.59698486 16.54449463 C57.47428746 16.62556017 48.35166307 16.68553368 39.22868729 16.72482681 C34.53837327 16.74570698 29.84834987 16.77403234 25.15820312 16.81933594 C20.63242484 16.86277857 16.10692619 16.886712 11.58095551 16.8970871 C9.85374295 16.90448134 8.1265458 16.91892058 6.39945221 16.94049835 C3.98113361 16.96951206 1.56397229 16.9735351 -0.85449219 16.97167969 C-1.56946869 16.98606079 -2.28444519 17.00044189 -3.02108765 17.01525879 C-6.44532428 16.98680816 -8.174085 16.74718578 -10.91143799 14.61419678 C-12.59992972 12.34097007 -13.01242604 11.31284494 -12.96875 8.51757812 C-12.98421875 7.52757813 -12.98421875 7.52757813 -13 6.51757812 C-11.24883612 -0.07503884 -5.81974348 -0.05874101 0 0 Z " fill="#000000" transform="translate(36.46875,87.482421875)"/>
<path d="M0 0 C9.2885078 6.04644574 16.30704248 13.66242586 19.23828125 24.45703125 C20.46037108 35.51909764 20.10526593 45.98365476 13.25 55.1015625 C7.15310061 62.29358717 -0.02143748 68.60191805 -9.76831055 69.67871094 C-22.17165 70.3332112 -31.31823533 69.47747693 -41.07421875 61.20703125 C-47.77198818 54.80366927 -52.59619898 47.78820009 -53.09765625 38.28515625 C-53.36515737 24.97083003 -51.61687307 16.57635933 -42.1328125 6.65625 C-31.30988012 -3.38215351 -13.59314718 -6.64397349 0 0 Z " fill="#030507" transform="translate(428.76171875,400.54296875)"/>
<path d="M0 0 C9.2885078 6.04644574 16.30704248 13.66242586 19.23828125 24.45703125 C20.46037108 35.51909764 20.10526593 45.98365476 13.25 55.1015625 C7.15310061 62.29358717 -0.02143748 68.60191805 -9.76831055 69.67871094 C-22.17165 70.3332112 -31.31823533 69.47747693 -41.07421875 61.20703125 C-47.77198818 54.80366927 -52.59619898 47.78820009 -53.09765625 38.28515625 C-53.36515737 24.97083003 -51.61687307 16.57635933 -42.1328125 6.65625 C-31.30988012 -3.38215351 -13.59314718 -6.64397349 0 0 Z " fill="#030507" transform="translate(220.76171875,400.54296875)"/>
<path d="M0 0 C4.46341087 3.02306065 7.39332313 7.3440319 9.08203125 12.41015625 C9.90641126 19.14034058 8.69770022 24.6630281 5.08203125 30.41015625 C1.25577221 34.82755081 -3.25203526 36.96642128 -9.015625 37.6640625 C-14.81749896 37.97256695 -19.16336961 36.7736718 -23.91796875 33.41015625 C-28.95929958 28.85504514 -30.93799345 23.71098206 -31.29296875 17.03515625 C-31.14415928 12.1161764 -29.90051826 8.34282541 -26.91796875 4.41015625 C-18.78875211 -3.1138672 -10.14292961 -4.95600238 0 0 Z " fill="#82B3FB" transform="translate(422.91796875,416.58984375)"/>
<path d="M0 0 C4.46341087 3.02306065 7.39332313 7.3440319 9.08203125 12.41015625 C9.90641126 19.14034058 8.69770022 24.6630281 5.08203125 30.41015625 C1.25577221 34.82755081 -3.25203526 36.96642128 -9.015625 37.6640625 C-14.81749896 37.97256695 -19.16336961 36.7736718 -23.91796875 33.41015625 C-28.95929958 28.85504514 -30.93799345 23.71098206 -31.29296875 17.03515625 C-31.14415928 12.1161764 -29.90051826 8.34282541 -26.91796875 4.41015625 C-18.78875211 -3.1138672 -10.14292961 -4.95600238 0 0 Z " fill="#82B3FB" transform="translate(214.91796875,416.58984375)"/>
</svg>
