<svg width="46" height="46" viewBox="0 0 46 46" fill="none" xmlns="http://www.w3.org/2000/svg">
<path fill-rule="evenodd" clip-rule="evenodd" d="M18.5115 28.9224L16.4779 26.9406L27.0885 16.6019L29.1202 18.5837L18.5115 28.9224ZM28.413 28.2257H25.538L25.5226 25.4239H28.413V28.2257ZM20.0697 17.293V20.0948H17.1947L17.1832 17.293H20.0697ZM41.3083 22.2111C37.7203 19.5587 35.8745 15.2122 36.486 10.8656L36.6585 9.64592L35.405 9.81403C30.9583 10.4118 26.4848 8.60925 23.7631 5.11259L23.0003 4.13196L22.2355 5.11259C19.5139 8.60925 15.0423 10.4136 10.5937 9.81403L9.34212 9.64592L9.51462 10.8656C10.126 15.2122 8.27837 19.5587 4.69229 22.2111L3.68604 22.9545L4.69229 23.6998C8.27837 26.3503 10.126 30.6969 9.51462 35.0453L9.34212 36.265L10.5937 36.0969C15.0404 35.5029 19.5139 37.2998 22.2355 40.7965L23.0003 41.7771L23.7631 40.7965C26.4848 37.2998 30.9602 35.5048 35.405 36.0969L36.6585 36.265L36.486 35.0453C35.8745 30.6969 37.7203 26.3503 41.3083 23.6998L42.3145 22.9545L41.3083 22.2111Z" fill="#00D0BB"/>
</svg>
