<svg width="114" height="25" viewBox="0 0 114 25" fill="none" xmlns="http://www.w3.org/2000/svg">
<path d="M22.6667 9.97474L14.9167 9.45533L11.9917 1.8335L9.06664 9.45533L1.33334 9.97474L7.26664 15.2204L5.31664 23.1668L11.9917 18.7781L18.6667 23.1668L16.7167 15.2204L22.6667 9.97474Z" fill="#FFD400"/>
<path d="M16.7213 15.2204L18.6698 23.1668L12 18.7781V1.8335L14.9227 9.45533L22.6667 9.97474L16.7213 15.2204Z" fill="#FDBF00"/>
<path d="M52.6667 9.97474L44.9167 9.45533L41.9917 1.8335L39.0666 9.45533L31.3333 9.97474L37.2666 15.2204L35.3166 23.1668L41.9917 18.7781L48.6667 23.1668L46.7167 15.2204L52.6667 9.97474Z" fill="#FFD400"/>
<path d="M46.7213 15.2204L48.6698 23.1668L42 18.7781V1.8335L44.9227 9.45533L52.6667 9.97474L46.7213 15.2204Z" fill="#FDBF00"/>
<path d="M82.6667 9.97474L74.9167 9.45533L71.9917 1.8335L69.0666 9.45533L61.3333 9.97474L67.2666 15.2204L65.3166 23.1668L71.9917 18.7781L78.6667 23.1668L76.7167 15.2204L82.6667 9.97474Z" fill="#FFD400"/>
<path d="M76.7213 15.2204L78.6698 23.1668L72 18.7781V1.8335L74.9227 9.45533L82.6667 9.97474L76.7213 15.2204Z" fill="#FDBF00"/>
<path d="M112.667 9.97474L104.917 9.45533L101.992 1.8335L99.0666 9.45533L91.3333 9.97474L97.2666 15.2204L95.3166 23.1668L101.992 18.7781L108.667 23.1668L106.717 15.2204L112.667 9.97474Z" fill="#FFD400"/>
<path d="M106.721 15.2204L108.67 23.1668L102 18.7781V1.8335L104.923 9.45533L112.667 9.97474L106.721 15.2204Z" fill="#FDBF00"/>
</svg>
