<svg width="25" height="24" viewBox="0 0 25 24" fill="none" xmlns="http://www.w3.org/2000/svg">
<path d="M6.5127 10C5.4127 10 4.5127 10.9 4.5127 12C4.5127 13.1 5.4127 14 6.5127 14C7.6127 14 8.5127 13.1 8.5127 12C8.5127 10.9 7.6127 10 6.5127 10ZM18.5127 10C17.4127 10 16.5127 10.9 16.5127 12C16.5127 13.1 17.4127 14 18.5127 14C19.6127 14 20.5127 13.1 20.5127 12C20.5127 10.9 19.6127 10 18.5127 10ZM12.5127 10C11.4127 10 10.5127 10.9 10.5127 12C10.5127 13.1 11.4127 14 12.5127 14C13.6127 14 14.5127 13.1 14.5127 12C14.5127 10.9 13.6127 10 12.5127 10Z" fill="url(#paint0_linear_275_2126)"/>
<defs>
<linearGradient id="paint0_linear_275_2126" x1="4.5127" y1="12" x2="20.5127" y2="12" gradientUnits="userSpaceOnUse">
<stop stop-color="#00D0BB"/>
<stop offset="1" stop-color="#007EA9"/>
</linearGradient>
</defs>
</svg>
