<svg width="24" height="24" viewBox="0 0 24 24" fill="none" xmlns="http://www.w3.org/2000/svg">
<path d="M12.3076 17.8176C12.3077 16.7464 12.6346 15.6985 13.2482 14.802C13.8618 13.9055 14.7356 13.1994 15.7626 12.77C16.7896 12.3406 17.9254 12.2065 19.0309 12.3842C20.1364 12.5619 21.1637 13.0436 21.9872 13.7705C22.0145 11.8874 21.9981 10.0044 21.9382 8.1214C21.9055 6.82769 21.141 5.5289 19.8603 4.88712C19.2022 4.55471 18.5203 4.2348 17.8307 3.93168C15.1057 4.77385 11.9143 5.88475 8.69552 7.2601C8.38605 7.39081 8.12093 7.60151 7.93004 7.86846C7.73914 8.13541 7.63007 8.448 7.6151 8.77099C7.56482 10.2553 7.54928 11.7873 7.56972 13.3021C7.57137 13.3465 7.55806 13.3903 7.53176 13.427C7.50546 13.4636 7.46754 13.4913 7.42359 13.5058C7.37963 13.5204 7.33195 13.5211 7.28754 13.5078C7.24314 13.4946 7.20435 13.4681 7.17688 13.4322C6.83622 13.0155 6.50347 12.6036 6.17862 12.1963C6.15464 12.1644 6.119 12.1424 6.07878 12.1345C6.03857 12.1266 5.99672 12.1335 5.96155 12.1537C5.70892 12.2975 5.46079 12.4392 5.21715 12.5791C5.08062 12.6572 4.91261 12.5529 4.91179 12.3924C4.90361 10.8834 4.94286 9.37059 5.02748 7.90422C5.06304 7.28588 5.46897 6.70348 6.06947 6.41989C9.15663 4.9629 12.4502 3.7727 15.2606 2.89187C14.6066 2.64735 13.9562 2.42314 13.3214 2.21064C12.4654 1.92979 11.5358 1.92979 10.6798 2.21064C8.56144 2.90906 6.24811 3.82075 4.14041 4.88712C2.86009 5.5289 2.09647 6.82769 2.06254 8.1214C1.97915 10.7073 1.97915 13.2931 2.06254 15.879C2.09525 17.1727 1.98801 17.6382 3.26833 18.28C5.37603 19.3463 8.56144 21.0913 10.681 21.7894C11.537 22.0702 12.4666 22.0702 13.3226 21.7894C13.5076 21.7284 13.6944 21.6655 13.883 21.6007C12.8681 20.5803 12.3038 19.2253 12.3076 17.8176Z" fill="white"/>
<path d="M17.9996 14C17.2085 14.0001 16.4352 14.2347 15.7774 14.6743C15.1197 15.1139 14.607 15.7387 14.3043 16.4696C14.0017 17.2005 13.9225 18.0048 14.0769 18.7807C14.2313 19.5566 14.6124 20.2693 15.1718 20.8287C15.7313 21.388 16.4441 21.7689 17.22 21.9232C17.9959 22.0775 18.8002 21.9982 19.5311 21.6954C20.262 21.3926 20.8866 20.8798 21.3261 20.222C21.7655 19.5641 22.0001 18.7908 22 17.9996C22 17.4743 21.8964 16.9542 21.6954 16.4689C21.4943 15.9836 21.1996 15.5427 20.8282 15.1713C20.4567 14.7999 20.0157 14.5053 19.5304 14.3043C19.0451 14.1034 18.5249 14 17.9996 14ZM20.2811 17.3376L17.8767 19.8623C17.8113 19.9312 17.7326 19.986 17.6454 20.0237C17.5582 20.0613 17.4643 20.0809 17.3694 20.0813H17.366C17.2716 20.0812 17.1782 20.0622 17.0912 20.0255C17.0043 19.9887 16.9256 19.9349 16.8598 19.8672L15.584 18.5529C15.4537 18.4187 15.3821 18.2381 15.3849 18.0511C15.3877 17.864 15.4647 17.6857 15.599 17.5554C15.7332 17.4251 15.9137 17.3535 16.1008 17.3563C16.2879 17.3591 16.4661 17.4361 16.5964 17.5704L17.3619 18.3583L19.2601 16.3648C19.3906 16.2369 19.5657 16.1647 19.7484 16.1633C19.9311 16.1619 20.1073 16.2315 20.2397 16.3574C20.3722 16.4833 20.4506 16.6557 20.4584 16.8383C20.4663 17.0208 20.403 17.1993 20.2819 17.3361L20.2811 17.3376Z" fill="white"/>
</svg>
