<?xml version="1.0" encoding="UTF-8"?>
<svg version="1.1" xmlns="http://www.w3.org/2000/svg" width="512" height="512">
<path d="M0 0 C0.67627441 0.20898926 1.35254883 0.41797852 2.04931641 0.63330078 C29.5907549 9.33162593 52.73370372 29.45407167 66.21289062 54.84545898 C80.24151457 82.29836644 82.68366962 112.85942291 73.73144531 142.34375 C69.32126966 155.80693568 62.5355827 168.48640881 53 179 C52.31550781 179.81339844 51.63101563 180.62679687 50.92578125 181.46484375 C32.42814981 203.01773927 5.26886324 216.51271147 -23 219 C-51.31683803 220.59258794 -80.91112074 213.99598894 -102.8125 194.984375 C-103.8953125 194.00210938 -103.8953125 194.00210938 -105 193 C-105.825 192.30390625 -106.65 191.6078125 -107.5 190.890625 C-130.10797396 171.45328153 -142.66766808 143.41653634 -145 114 C-146.17161396 91.51965717 -141.0131411 70.4948385 -130 51 C-129.44441406 50.00355469 -128.88882813 49.00710937 -128.31640625 47.98046875 C-123.81335475 40.43218818 -118.07389582 34.28516176 -112 28 C-110.94425781 26.86691406 -110.94425781 26.86691406 -109.8671875 25.7109375 C-105.06706589 20.6776116 -99.84241626 16.75522802 -94 13 C-93.12988281 12.42378906 -92.25976562 11.84757812 -91.36328125 11.25390625 C-64.92045035 -5.30513291 -29.68247792 -9.57617644 0 0 Z M-92 48 C-93.84812764 50.46417018 -94.0166461 51.73080722 -93.82545471 54.82266235 C-92.81172985 58.72468884 -91.33791658 60.26701706 -88.48022461 63.08740234 C-88.0119072 63.55644989 -87.54358978 64.02549744 -87.06108093 64.50875854 C-85.51972776 66.04664545 -83.96146856 67.56608851 -82.40234375 69.0859375 C-81.32651265 70.15243707 -80.25178471 71.2200505 -79.17811584 72.28872681 C-76.35644421 75.09135559 -73.52008045 77.87864128 -70.68035889 80.66296387 C-67.78241302 83.50965907 -64.89866166 86.37065449 -62.01367188 89.23046875 C-56.35621916 94.83438167 -50.68316025 100.42216041 -45 106 C-46.51311729 109.559604 -48.58978194 111.826829 -51.32617188 114.53735352 C-52.22049927 115.42830215 -53.11482666 116.31925079 -54.03625488 117.23719788 C-55.01372291 118.20113144 -55.99122203 119.16503348 -56.96875 120.12890625 C-57.97051996 121.12440202 -58.971774 122.12041722 -59.97253418 123.1169281 C-62.60448247 125.73559257 -65.24194238 128.34862844 -67.88104248 130.96008301 C-72.10623153 135.14210425 -76.32469784 139.33087971 -80.53993225 143.52293205 C-82.01216488 144.9849535 -83.48776942 146.44350734 -84.96374512 147.90174866 C-86.30523621 149.23344337 -86.30523621 149.23344337 -87.67382812 150.59204102 C-88.46277466 151.37273453 -89.25172119 152.15342804 -90.0645752 152.95777893 C-92.1532401 155.04598896 -92.1532401 155.04598896 -94 158 C-93.8684799 161.68256285 -93.73329557 164.09748237 -91.375 167 C-87.90557986 168.46080848 -85.63634345 167.83572922 -82 167 C-79.23442616 165.09398884 -79.23442616 165.09398884 -76.79907227 162.48022461 C-76.32987869 162.0119072 -75.86068512 161.54358978 -75.37727356 161.06108093 C-73.8423138 159.5219677 -72.329665 157.96277292 -70.81640625 156.40234375 C-69.75155745 155.32629484 -68.68536904 154.2515701 -67.61790466 153.17811584 C-64.82122144 150.35859864 -62.04303039 147.52153041 -59.26837158 144.68035889 C-56.43014677 141.78059469 -53.57471406 138.89788531 -50.72070312 136.01367188 C-45.13020046 130.3589525 -39.55912774 124.68556604 -34 119 C-30.39382278 120.52034462 -28.14938055 122.64104727 -25.43432617 125.43383789 C-24.08723824 126.81020164 -24.08723824 126.81020164 -22.7129364 128.21437073 C-22.23743536 128.7045978 -21.76193432 129.19482487 -21.27202415 129.6999073 C-19.7763507 131.23976522 -18.27274469 132.77143832 -16.76643372 134.30088806 C-12.48562414 138.64875478 -8.21314447 143.00453344 -3.96166992 147.38110352 C-1.35700507 150.06123951 1.26222141 152.72638733 3.89124107 155.38262749 C4.88754585 156.39499638 5.87827698 157.41288307 6.8631382 158.43638802 C8.24337429 159.86982126 9.64440206 161.2831452 11.04614258 162.69555664 C11.83571854 163.50448868 12.62529449 164.31342072 13.438797 165.14686584 C16.67818541 167.49069462 19.03116413 167.88453388 23 168 C26.06307631 166.02033737 26.06307631 166.02033737 28 163 C28.51332686 159.71281582 28.29179432 158.4177308 26.36976624 155.66616821 C25.62133957 154.88381805 24.8729129 154.1014679 24.10180664 153.29541016 C23.27641388 152.42378235 22.45102112 151.55215454 21.60061646 150.65411377 C20.74241302 149.77825623 19.88420959 148.90239868 19 148 C18.22212128 147.19906921 17.44424255 146.39813843 16.64279175 145.57293701 C14.23644188 143.12160893 11.80760682 140.69477188 9.37109375 138.2734375 C8.49598648 137.39974518 7.62087921 136.52605286 6.71925354 135.62588501 C3.96103631 132.8732043 1.19933863 130.12404675 -1.5625 127.375 C-3.44908713 125.4940096 -5.33486967 123.61221501 -7.22070312 121.73046875 C-11.8111435 117.15097302 -16.40443606 112.57435387 -21 108 C-19.47965538 104.39382278 -17.35895273 102.14938055 -14.56616211 99.43432617 C-13.18979836 98.08723824 -13.18979836 98.08723824 -11.78562927 96.7129364 C-11.2954022 96.23743536 -10.80517513 95.76193432 -10.3000927 95.27202415 C-8.76023478 93.7763507 -7.22856168 92.27274469 -5.69911194 90.76643372 C-1.35124522 86.48562414 3.00453344 82.21314447 7.38110352 77.96166992 C10.06123951 75.35700507 12.72638733 72.73777859 15.38262749 70.10875893 C16.39499638 69.11245415 17.41288307 68.12172302 18.43638802 67.1368618 C19.86982126 65.75662571 21.2831452 64.35559794 22.69555664 62.95385742 C23.9089547 61.76949348 23.9089547 61.76949348 25.14686584 60.561203 C27.47961404 57.33712898 27.84711841 54.94440276 28 51 C26.13477963 48.27390868 24.64793849 47.2728162 21.625 46 C17.02646863 46 13.87423789 49.21229325 10.57009888 52.18939209 C9.39095413 53.37519867 9.39095413 53.37519867 8.18798828 54.58496094 C7.28750763 55.48559265 6.38702698 56.38622437 5.45925903 57.31414795 C4.49616787 58.28744914 3.53318825 59.2608607 2.5703125 60.234375 C1.570416 61.23800692 0.5700731 62.24119429 -0.43069458 63.24395752 C-3.0490191 65.86987681 -5.66127845 68.5017485 -8.27227783 71.13494873 C-10.94347372 73.82669306 -13.6204208 76.51270462 -16.296875 79.19921875 C-21.53686336 84.4605836 -26.77045111 89.7282565 -32 95 C-35.55902531 93.4880024 -37.81703129 91.41466712 -40.52148438 88.67382812 C-41.40920532 87.77950073 -42.29692627 86.88517334 -43.21154785 85.96374512 C-43.68111404 85.48594101 -44.15068024 85.0081369 -44.63447571 84.51585388 C-46.10976932 83.01495262 -47.59129174 81.52045918 -49.07458496 80.02746582 C-52.75629279 76.31906496 -56.42704092 72.59987549 -60.09820557 68.88104248 C-63.2035956 65.73616758 -66.31306155 62.59543181 -69.42805481 59.46006775 C-70.88567787 57.98950476 -72.33713288 56.51303562 -73.78845215 55.03625488 C-74.6761731 54.14192749 -75.56389404 53.2476001 -76.47851562 52.32617188 C-77.64622498 51.14275208 -77.64622498 51.14275208 -78.83752441 49.9354248 C-83.1552739 46.07102074 -86.84636752 44.67507582 -92 48 Z " fill="#208CB7" transform="translate(289,28)"/>
<path d="M0 0 C0.66 0 1.32 0 2 0 C3.10644531 1.39501953 3.10644531 1.39501953 4.328125 3.3828125 C4.79081787 4.126521 5.25351074 4.87022949 5.73022461 5.63647461 C6.23175049 6.45768799 6.73327637 7.27890137 7.25 8.125 C8.33931218 9.87923645 9.42917777 11.63312934 10.51953125 13.38671875 C11.09010254 14.30888184 11.66067383 15.23104492 12.24853516 16.18115234 C17.41968068 24.50371245 22.72202029 32.74495717 28 41 C28.61182129 41.95874023 29.22364258 42.91748047 29.85400391 43.90527344 C31.64727526 46.71118788 33.44749553 49.51251025 35.25 52.3125 C35.79906006 53.17286865 36.34812012 54.0332373 36.91381836 54.91967773 C37.42178955 55.70544189 37.92976074 56.49120605 38.453125 57.30078125 C38.89817383 57.99341064 39.34322266 58.68604004 39.80175781 59.3996582 C40.9253404 61.14930951 40.9253404 61.14930951 43 62 C47.69355241 62.39468882 50.34235961 61.64520506 54.359375 59.24609375 C55.37902344 58.64667969 56.39867187 58.04726563 57.44921875 57.4296875 C59.08310547 56.44355469 59.08310547 56.44355469 60.75 55.4375 C61.90673576 54.75252583 63.06430424 54.06895615 64.22265625 53.38671875 C66.62761083 51.96879658 69.02887559 50.54490821 71.42773438 49.11669922 C76.91885359 45.85423443 82.46193204 42.68185642 88 39.5 C90.15129164 38.25954801 92.30233213 37.01866035 94.453125 35.77734375 C95.52369141 35.15972168 96.59425781 34.54209961 97.69726562 33.90576172 C101.10575693 31.93897556 104.51385956 29.9715168 107.921875 28.00390625 C113.34960383 24.87040779 118.77848732 21.73892087 124.20849609 18.609375 C125.96442369 17.59703682 127.72000799 16.5841027 129.47509766 15.5703125 C131.50308696 14.39903887 133.53249124 13.23026876 135.5625 12.0625 C136.61566406 11.45535156 137.66882813 10.84820312 138.75390625 10.22265625 C141 9 141 9 142 9 C142.20896154 16.45806861 142.36865359 23.91550198 142.46630955 31.37590981 C142.51319394 34.84069146 142.57671652 38.3034645 142.67895508 41.76708984 C142.7958773 45.75333183 142.83919763 49.73877429 142.87890625 53.7265625 C142.92535782 54.96427399 142.97180939 56.20198547 143.01966858 57.47720337 C143.02458977 65.88034433 143.02458977 65.88034433 140.12998962 69.04351807 C137.8187912 70.61214711 135.53457554 71.83299758 133 73 C132.03118896 73.57556641 131.06237793 74.15113281 130.06420898 74.74414062 C129.21673096 75.21013672 128.36925293 75.67613281 127.49609375 76.15625 C126.03345093 76.96630493 126.03345093 76.96630493 124.54125977 77.79272461 C123.00489868 78.63782593 123.00489868 78.63782593 121.4375 79.5 C112.92564082 84.22405984 104.46123888 89.01501639 96.0625 93.9375 C87.76612704 98.79924676 79.45656863 103.63626762 71.125 108.4375 C70.04484619 109.06003662 68.96469238 109.68257324 67.85180664 110.32397461 C65.66203666 111.58576826 63.47217645 112.84740534 61.28222656 114.10888672 C54.78663684 117.85143641 48.29393958 121.59900243 41.80102539 125.34619141 C36.71374968 128.28182759 31.62573896 131.21616612 26.5350647 134.14590454 C24.12456252 135.53328095 21.71448624 136.92139624 19.30444336 138.30957031 C17.59856032 139.29173815 15.89206014 140.27283385 14.18554688 141.25390625 C13.15623047 141.846875 12.12691406 142.43984375 11.06640625 143.05078125 C10.15834229 143.57325439 9.25027832 144.09572754 8.31469727 144.6340332 C6.50873799 145.69977966 4.74478871 146.83680752 3 148 C-1.82481629 147.75147483 -5.71813345 145.15695049 -9.8125 142.8125 C-10.98449951 142.15145264 -10.98449951 142.15145264 -12.18017578 141.47705078 C-19.63111697 137.25528676 -27.02075732 132.92644818 -34.40942383 128.59692383 C-42.24230937 124.01018748 -50.1130427 119.49275372 -58 115 C-67.71488083 109.46421752 -77.39652216 103.87485974 -87.04711914 98.22753906 C-94.49353217 93.87186775 -101.96159627 89.55483349 -109.4375 85.25 C-116.99215577 80.8970873 -124.54205551 76.53682045 -132.0625 72.125 C-132.7649585 71.71411133 -133.46741699 71.30322266 -134.19116211 70.87988281 C-138.87936946 68.12063054 -138.87936946 68.12063054 -140 67 C-140.09376053 65.18944975 -140.1174411 63.37522799 -140.11352539 61.56225586 C-140.11344986 60.40112778 -140.11337433 59.23999969 -140.11329651 58.04368591 C-140.10813522 56.780168 -140.10297394 55.51665009 -140.09765625 54.21484375 C-140.0962413 52.92888809 -140.09482635 51.64293243 -140.09336853 50.31800842 C-140.08954418 46.89356557 -140.07971462 43.46916491 -140.06866455 40.04473877 C-140.05844864 36.55261811 -140.05387053 33.06049066 -140.04882812 29.56835938 C-140.03809227 22.71222222 -140.02101684 15.85611313 -140 9 C-125.14903188 16.30852684 -125.14903188 16.30852684 -118.25 20.5 C-116.80669256 21.36185541 -115.36262956 22.22244631 -113.91796875 23.08203125 C-113.1398584 23.54561035 -112.36174805 24.00918945 -111.56005859 24.48681641 C-106.58450849 27.42773378 -101.57125762 30.30363607 -96.5625 33.1875 C-95.46776367 33.81841553 -94.37302734 34.44933105 -93.24511719 35.09936523 C-88.64833759 37.74814779 -84.05059299 40.39525289 -79.45263672 43.04199219 C-77.10089062 44.39578072 -74.74941488 45.75003694 -72.39819336 47.10473633 C-70.20025566 48.37100994 -68.00188 49.6365238 -65.80297852 50.90112305 C-60.1787413 54.14163717 -54.60038125 57.43441708 -49.08911133 60.86425781 C-46.13245164 62.47164134 -44.2711309 62.83680093 -41 62 C-35.79765121 57.65866712 -32.67493324 51.9866483 -29.1875 46.25 C-27.86198542 44.09815187 -26.53511596 41.94713785 -25.20703125 39.796875 C-24.17763428 38.1272168 -24.17763428 38.1272168 -23.12744141 36.42382812 C-19.60841697 30.74123426 -15.9881634 25.12299341 -12.375 19.5 C-11.07008431 17.46889659 -9.7653849 15.4376542 -8.4609375 13.40625 C-7.86764648 12.48585938 -7.27435547 11.56546875 -6.66308594 10.6171875 C-5.12322657 8.19392086 -3.64192614 5.74255686 -2.1640625 3.28125 C-1.44992188 2.1984375 -0.73578125 1.115625 0 0 Z " fill="#073B5F" transform="translate(255,339)"/>
<path d="M0 0 C18.13896433 9.85403177 36.10106911 19.99969016 53.91015625 30.4375 C60.2157051 34.13213364 66.54300634 37.78841797 72.875 41.4375 C74.49088013 42.36912964 74.49088013 42.36912964 76.1394043 43.31958008 C81.6408535 46.49051155 87.14413881 49.65823667 92.6484375 52.82421875 C98.04688105 55.9303414 103.43996797 59.04558956 108.82958984 62.16699219 C110.97128634 63.40523778 113.11489379 64.64018314 115.26025391 65.87207031 C118.36596133 67.65629007 121.46487719 69.45179077 124.5625 71.25 C125.50319336 71.78705566 126.44388672 72.32411133 127.41308594 72.87744141 C128.26805664 73.37679199 129.12302734 73.87614258 130.00390625 74.390625 C130.75486572 74.82407227 131.5058252 75.25751953 132.27954102 75.70410156 C134 77 134 77 135 80 C134.23413086 81.7355957 134.23413086 81.7355957 132.96484375 83.67578125 C132.25593994 84.77744629 132.25593994 84.77744629 131.53271484 85.90136719 C131.00629395 86.69704102 130.47987305 87.49271484 129.9375 88.3125 C128.8240347 90.03243295 127.71076119 91.75249007 126.59765625 93.47265625 C126.00871582 94.37516113 125.41977539 95.27766602 124.81298828 96.20751953 C122.39448004 99.93266056 120.02377404 103.68720073 117.65112305 107.44165039 C111.57133076 117.05482574 105.37014572 126.57688122 99 136 C91.73662223 132.05959354 84.50573017 128.06703696 77.3125 124 C76.32483643 123.4416748 75.33717285 122.88334961 74.31958008 122.30810547 C66.23837404 117.72690555 58.20742938 113.06286696 50.19018555 108.37084961 C42.85002106 104.07533638 35.49334045 99.80949506 28.125 95.5625 C26.50718628 94.62990356 26.50718628 94.62990356 24.85668945 93.6784668 C21.57139224 91.78518248 18.28576011 89.89248083 15 88 C8.48567337 84.24797982 1.97232491 80.49435176 -4.53515625 76.73046875 C-8.41614945 74.48644567 -12.30348033 72.25438193 -16.20031738 70.03797913 C-18.99134493 68.44833277 -21.77618154 66.84788199 -24.5625 65.25 C-25.59842285 64.66532959 -26.6343457 64.08065918 -27.70166016 63.47827148 C-28.64702637 62.93372314 -29.59239258 62.3891748 -30.56640625 61.828125 C-31.40115479 61.3527832 -32.23590332 60.87744141 -33.09594727 60.38769531 C-35 59 -35 59 -36 56 C-35.23413086 54.2644043 -35.23413086 54.2644043 -33.96484375 52.32421875 C-33.49216064 51.58969482 -33.01947754 50.8551709 -32.5324707 50.09838867 C-32.00613037 49.30279541 -31.47979004 48.50720215 -30.9375 47.6875 C-29.82538526 45.96883772 -28.71341183 44.25008399 -27.6015625 42.53125 C-27.0127832 41.62890625 -26.42400391 40.7265625 -25.81738281 39.796875 C-23.38369688 36.05153565 -20.99208813 32.28017662 -18.60058594 28.5078125 C-15.74241146 23.99967056 -12.87107094 19.49993568 -10 15 C-9.26861816 13.85337891 -9.26861816 13.85337891 -8.52246094 12.68359375 C-7.24582885 10.68380902 -5.96722517 8.68530637 -4.6875 6.6875 C-3.99011719 5.59824219 -3.29273438 4.50898438 -2.57421875 3.38671875 C-1 1 -1 1 0 0 Z " fill="#073A5D" transform="translate(110,249)"/>
<path d="M0 0 C2.76545268 2.62558045 4.93848827 5.20074505 6.9609375 8.4296875 C7.5082251 9.29706543 8.0555127 10.16444336 8.61938477 11.05810547 C9.19873779 11.98768066 9.77809082 12.91725586 10.375 13.875 C11.62093093 15.85426917 12.86702971 17.83343269 14.11328125 19.8125 C14.75217285 20.83085937 15.39106445 21.84921875 16.04931641 22.8984375 C19.19803362 27.90485846 22.38177287 32.88888023 25.5625 37.875 C27.21129901 40.46198101 28.85914705 43.04936414 30.49658203 45.64355469 C31.49480783 47.20816583 32.51140517 48.76121376 33.54638672 50.30175781 C34.01447754 51.00913086 34.48256836 51.71650391 34.96484375 52.4453125 C35.38241943 53.06164551 35.79999512 53.67797852 36.23022461 54.31298828 C37 56 37 56 36 59 C33.91235352 60.47949219 33.91235352 60.47949219 31.12890625 62.046875 C29.57502197 62.93161499 29.57502197 62.93161499 27.98974609 63.83422852 C26.85875488 64.46643311 25.72776367 65.0986377 24.5625 65.75 C23.3830752 66.41821767 22.20420942 67.08742291 21.02587891 67.75756836 C18.57330286 69.15134847 16.11836121 70.54081977 13.66162109 71.92724609 C8.04447558 75.1014138 2.46092061 78.33380823 -3.125 81.5625 C-4.20209229 82.18358643 -5.27918457 82.80467285 -6.38891602 83.44458008 C-13.56542779 87.58431579 -20.72381412 91.75420463 -27.875 95.9375 C-37.13821513 101.35524483 -46.44361178 106.69625977 -55.76831055 112.00714111 C-65.34086862 117.45996906 -74.87014509 122.98186322 -84.36328125 128.57226562 C-88.84573175 131.20326918 -93.30697925 133.76335967 -98 136 C-103.88909282 127.28362147 -109.6524274 118.49985956 -115.22412109 109.57666016 C-118.07144733 105.02222034 -120.97276739 100.51300946 -123.9453125 96.0390625 C-124.59918945 95.04398682 -125.25306641 94.04891113 -125.92675781 93.02368164 C-127.20759866 91.07689986 -128.5009134 89.13825773 -129.80761719 87.20874023 C-130.38415039 86.32645752 -130.96068359 85.4441748 -131.5546875 84.53515625 C-132.33561768 83.36545288 -132.33561768 83.36545288 -133.13232422 82.17211914 C-134 80 -134 80 -133.35839844 77.84692383 C-131.0911709 74.76432564 -127.70168437 73.35448971 -124.375 71.625 C-122.72516851 70.73826583 -121.07680445 69.84879758 -119.4296875 68.95703125 C-118.10662598 68.24281006 -118.10662598 68.24281006 -116.75683594 67.51416016 C-111.9500372 64.87408171 -107.22837466 62.08985758 -102.5 59.3125 C-94.05793545 54.36726439 -85.60195656 49.4477094 -77.125 44.5625 C-76.04541016 43.94028564 -74.96582031 43.31807129 -73.85351562 42.67700195 C-71.6631748 41.41488483 -69.47274498 40.15292215 -67.28222656 38.89111328 C-61.8534006 35.76319853 -56.42679331 32.63143954 -51 29.5 C-44.92283836 25.99355517 -38.84559527 22.48725299 -32.76715088 18.98303223 C-31.01658759 17.97380896 -29.26609589 16.96446164 -27.515625 15.95507812 C-25.33607835 14.6983234 -23.15640168 13.44179414 -20.9765625 12.18554688 C-13.97138717 8.14583558 -6.98141493 4.0806316 0 0 Z " fill="#177098" transform="translate(401,249)"/>
<path d="M0 0 C2.409006 0.90070686 3.20242418 2.02933873 4.74707031 4.07495117 C24.04395044 27.08276978 56.56689989 40.00688709 85.87207031 42.69995117 C123.25738075 45.23293077 155.93184021 31.78204887 183.87597656 7.49682617 C186.52312017 5.1184491 188.73945328 2.55734515 190.87207031 -0.30004883 C194.92862035 0.28836173 197.78365337 1.59238358 201.29394531 3.68432617 C202.32003906 4.29018555 203.34613281 4.89604492 204.40332031 5.52026367 C205.99660156 6.47545898 205.99660156 6.47545898 207.62207031 7.44995117 C209.72052767 8.69558719 211.81947859 9.94039214 213.91894531 11.18432617 C215.42424805 12.07861328 215.42424805 12.07861328 216.95996094 12.9909668 C220.89200714 15.29850565 224.86971681 17.51708028 228.87207031 19.69995117 C228.87207031 20.35995117 228.87207031 21.01995117 228.87207031 21.69995117 C227.80400146 22.30915405 227.80400146 22.30915405 226.71435547 22.93066406 C210.48445123 32.1902488 194.27726886 41.48770141 178.09863281 50.83666992 C174.83683024 52.72030167 171.57345187 54.60117438 168.30957031 56.48120117 C158.83779921 61.93810171 149.36896922 67.39907171 139.93457031 72.92041016 C137.00552418 74.63250968 134.07173755 76.33627486 131.13769531 78.03979492 C127.16969392 80.34678735 123.22192427 82.68396539 119.2875061 85.04750061 C116.73862734 86.57381885 114.17999721 88.08327487 111.61956787 89.59011841 C110.38101507 90.32421094 109.14672938 91.06555585 107.91705322 91.81442261 C106.20237795 92.85749863 104.47107664 93.87309303 102.73925781 94.88745117 C101.75038574 95.47913086 100.76151367 96.07081055 99.74267578 96.68041992 C95.98715305 98.01424055 94.44641452 97.33638719 90.87207031 95.69995117 C89.20443985 94.84027482 87.56300152 93.92807041 85.95019531 92.96948242 C85.02094238 92.42171143 84.09168945 91.87394043 83.13427734 91.30957031 C82.14024902 90.716521 81.1462207 90.12347168 80.12207031 89.51245117 C77.95839483 88.23575339 75.79431866 86.95973447 73.62988281 85.68432617 C72.51387695 85.0249707 71.39787109 84.36561523 70.24804688 83.6862793 C64.85080702 80.51069762 59.42443031 77.38618557 53.99707031 74.26245117 C51.81215656 73.00336769 49.62726082 71.74425294 47.44238281 70.48510742 C45.81478027 69.54755615 45.81478027 69.54755615 44.15429688 68.59106445 C38.72547089 65.46314969 33.2988775 62.33136669 27.87207031 59.19995117 C25.70541449 57.94993238 23.53874782 56.69993239 21.37207031 55.44995117 C1.87207031 44.19995117 -17.62792969 32.94995117 -37.12792969 21.69995117 C-37.12792969 21.03995117 -37.12792969 20.37995117 -37.12792969 19.69995117 C-36.02578125 19.0940918 -34.92363281 18.48823242 -33.78808594 17.86401367 C-32.2553483 17.01799559 -30.72281167 16.17161327 -29.19042969 15.32495117 C-28.38589355 14.88175537 -27.58135742 14.43855957 -26.75244141 13.98193359 C-22.54982723 11.65274924 -18.38970233 9.27749204 -14.28808594 6.77416992 C-13.5255249 6.31123535 -12.76296387 5.84830078 -11.97729492 5.37133789 C-10.51589154 4.47855211 -9.06070335 3.57549662 -7.61254883 2.66137695 C-2.63365625 -0.37135883 -2.63365625 -0.37135883 0 0 Z " fill="#136389" transform="translate(160.1279296875,218.300048828125)"/>
</svg>
