<svg width="26" height="26" viewBox="0 0 26 26" fill="none" xmlns="http://www.w3.org/2000/svg">
<path d="M10.1007 14.5695C10.01 14.5695 8.01526 14.5695 7.10856 14.5695C6.62499 14.5695 6.47388 14.3881 6.47388 13.9348C6.47388 12.7259 6.47388 11.4867 6.47388 10.2778C6.47388 9.79422 6.65522 9.64311 7.10856 9.64311H10.1007C10.1007 9.55244 10.1007 7.7995 10.1007 6.98347C10.1007 5.77455 10.3122 4.62607 10.9167 3.56826C11.5514 2.48022 12.4581 1.75487 13.6065 1.33174C14.3621 1.05974 15.1177 0.938843 15.9337 0.938843H18.8956C19.3187 0.938843 19.5001 1.12018 19.5001 1.54331V4.98874C19.5001 5.41187 19.3187 5.59321 18.8956 5.59321C18.0796 5.59321 17.2635 5.59321 16.4475 5.62343C15.6315 5.62343 15.2084 6.01633 15.2084 6.86258C15.1781 7.76927 15.2084 8.64574 15.2084 9.58266H18.7142C19.1978 9.58266 19.3792 9.764 19.3792 10.2476V13.9046C19.3792 14.3881 19.228 14.5393 18.7142 14.5393C17.6262 14.5393 15.299 14.5393 15.2084 14.5393V24.392C15.2084 24.9058 15.0573 25.0871 14.5132 25.0871C13.2439 25.0871 12.0047 25.0871 10.7353 25.0871C10.282 25.0871 10.1007 24.9058 10.1007 24.4524C10.1007 21.279 10.1007 14.6601 10.1007 14.5695Z" fill="#444BD3"/>
</svg>
