<svg width="121" height="79" viewBox="0 0 121 79" fill="none" xmlns="http://www.w3.org/2000/svg">
<g clip-path="url(#clip0_547_2431)">
<path d="M17.1429 78.5314C18.579 67.0842 20.0152 55.637 21.3982 44.1898L5.54713 49.5424L2.67479 42.1759C2.14287 40.904 1.45138 39.1022 0.972658 36.8233C0.493935 34.5975 -0.623086 29.6158 0.759892 24.2632C2.72798 16.6847 8.41947 12.604 9.96202 11.4381C10.9195 10.7491 13.1535 9.10626 16.3982 8.04633C18.0471 7.51637 19.5897 7.25139 19.8024 7.19839C20.9727 6.9864 21.5578 6.9864 23.6322 6.77442C25.7599 6.56243 26.8237 6.45644 27.2493 6.35045C28.3663 6.08547 30.7599 5.55551 32.8344 3.80663C33.845 2.90569 34.6961 1.79277 34.962 1.47479C35.3344 0.944829 35.6003 0.520859 35.8131 0.202881C35.9195 0.78584 36.079 1.58078 36.2386 2.53472C36.2918 2.90569 36.3982 3.43565 36.4514 4.01861C36.611 5.29052 36.7173 6.08547 36.6641 6.9864C36.6641 7.67536 36.5578 8.84127 36.0258 10.1662C35.7599 10.8021 35.3344 11.8091 34.3237 12.71C34.1641 12.869 33.7386 13.24 32.6216 13.7699C31.5046 14.3529 30.4939 14.6709 29.2173 15.0418C28.7918 15.1478 27.3024 15.5718 24.4833 16.1018C22.3556 16.5257 22.3556 16.4197 20.8663 16.7377C18.6854 17.2147 17.5684 17.4267 16.345 18.0096C14.6961 18.8046 13.6322 19.8645 13.1535 20.3415C10.8663 22.6203 10.1216 25.1111 9.96202 25.6941C9.74925 26.383 9.69606 26.913 9.53649 28.0259C9.32372 29.4038 9.11095 31.1527 9.32372 33.3786C9.48329 34.8625 9.74925 35.9754 9.96202 36.7703C10.3344 38.2012 10.6535 38.9962 10.8131 39.3141C11.0258 39.8441 11.2918 40.2681 11.4514 40.5861C12.462 40.0561 13.6854 39.5261 15.0684 39.1022C15.9195 38.8372 16.611 38.6782 17.4088 38.4662C18.2067 38.2542 19.1641 38.0422 20.3876 37.8302C21.1322 37.7243 21.079 37.7243 23.3663 37.4063C24.6429 37.2473 24.962 37.1413 25.4939 36.9823C25.9727 36.8233 26.7173 36.5583 27.4088 35.9224C27.7812 35.6044 28.2599 35.1804 28.4727 34.4385C28.579 34.1735 28.7386 33.5905 28.4727 32.9546C28.2599 32.4246 27.8344 32.1596 27.4088 31.8947C26.7705 31.4707 26.1322 31.3647 25.7067 31.2587C24.2173 30.9407 23.1535 30.7287 22.5152 30.6227C21.9833 30.5168 21.1322 30.3578 19.5365 29.9868C17.9407 29.6158 17.6216 29.6158 17.6216 29.5628C17.6216 29.4038 20.5471 29.6158 25.3344 29.5628C26.7705 29.5628 28.2067 29.6158 29.6429 29.5628C31.2386 29.5098 32.0897 29.4568 33.2599 29.7748C33.9514 29.9868 34.9088 30.2518 35.8131 31.0467C36.9833 32.1066 37.3024 33.3786 37.5152 34.2265C37.6216 34.5975 37.8875 35.7634 37.728 37.1943C37.5684 38.6252 37.0897 39.6851 36.8769 40.1621C35.9195 42.3879 28.0471 57.6508 17.1429 78.5314Z" fill="url(#paint0_linear_547_2431)"/>
<path d="M63.1003 41.593H48.4727C48.579 42.7589 48.8982 43.6068 49.4301 44.1898C50.1216 45.0377 51.079 45.4087 52.1961 45.4087C52.8875 45.4087 53.579 45.2497 54.2173 44.8787C54.5897 44.6668 55.0152 44.2428 55.4939 43.6598L62.6748 44.2958C61.5578 46.2036 60.228 47.5816 58.6854 48.3765C57.1429 49.2244 54.9088 49.5954 51.9833 49.5954C49.4833 49.5954 47.462 49.2244 46.0258 48.5355C44.5897 47.8465 43.3663 46.6806 42.4088 45.1437C41.4514 43.6068 40.9727 41.805 40.9727 39.6851C40.9727 36.7173 41.9301 34.3325 43.845 32.4776C45.7599 30.6227 48.3663 29.7218 51.7705 29.7218C54.4833 29.7218 56.6641 30.1458 58.2067 30.9407C59.8024 31.7887 60.9727 32.9546 61.8237 34.4915C62.6748 36.0284 63.0471 38.0952 63.0471 40.586V41.593H63.1003ZM55.7067 38.0952C55.5471 36.6643 55.1748 35.6574 54.5897 35.0744C53.9514 34.4915 53.1535 34.1735 52.1429 34.1735C50.9727 34.1735 50.0684 34.6505 49.3769 35.5514C48.9514 36.1344 48.6322 36.9823 48.5258 38.0952H55.7067Z" fill="url(#paint1_linear_547_2431)"/>
<path d="M75.2812 23.0443V30.2518H79.3238V35.6044H75.2812V42.335C75.2812 43.1299 75.3344 43.6599 75.494 43.9248C75.7599 44.3488 76.1323 44.5078 76.7706 44.5078C77.3025 44.5078 78.0472 44.3488 79.0578 44.0308L79.5897 49.0655C77.7812 49.4365 76.0791 49.6484 74.5365 49.6484C72.728 49.6484 71.3982 49.4365 70.494 48.9595C69.6429 48.4825 69.0046 47.7936 68.5791 46.8396C68.1536 45.8857 67.9408 44.3488 67.9408 42.229V35.6044H65.228V30.3048H67.9408V26.807L75.2812 23.0443Z" fill="url(#paint2_linear_547_2431)"/>
<path d="M91.5576 23.0443V30.2518H95.6001V35.6044H91.5576V42.335C91.5576 43.1299 91.6108 43.6599 91.7703 43.9248C92.0363 44.3488 92.4086 44.5078 93.0469 44.5078C93.5789 44.5078 94.3235 44.3488 95.3342 44.0308L95.8661 49.0655C94.0576 49.4365 92.3555 49.6484 90.8129 49.6484C89.0044 49.6484 87.6746 49.4365 86.7703 48.9595C85.9193 48.4825 85.281 47.7936 84.8555 46.8396C84.4299 45.8857 84.2172 44.3488 84.2172 42.229V35.6044H81.5044V30.3048H84.2172V26.807L91.5576 23.0443Z" fill="url(#paint3_linear_547_2431)"/>
<path d="M98.2065 39.8442C98.2065 36.9294 99.164 34.5445 101.132 32.6897C103.1 30.8348 105.76 29.8809 109.058 29.8809C112.887 29.8809 115.76 30.9938 117.728 33.1666C119.27 34.9685 120.068 37.1413 120.068 39.7382C120.068 42.653 119.111 45.0378 117.143 46.8927C115.175 48.7475 112.515 49.7015 109.058 49.7015C105.972 49.7015 103.526 48.9065 101.611 47.3696C99.3236 45.4618 98.2065 42.9179 98.2065 39.8442ZM105.494 39.7912C105.494 41.487 105.813 42.759 106.504 43.5539C107.196 44.3488 108.047 44.7728 109.111 44.7728C110.175 44.7728 111.026 44.3488 111.717 43.5539C112.409 42.759 112.728 41.487 112.728 39.6852C112.728 38.0423 112.409 36.8234 111.717 36.0284C111.026 35.2335 110.175 34.8095 109.164 34.8095C108.1 34.8095 107.196 35.2335 106.504 36.0284C105.866 36.9294 105.494 38.1483 105.494 39.7912Z" fill="url(#paint4_linear_547_2431)"/>
</g>
<defs>
<linearGradient id="paint0_linear_547_2431" x1="0.0684028" y1="39.347" x2="37.8346" y2="39.347" gradientUnits="userSpaceOnUse">
<stop stop-color="#00D0BB"/>
<stop offset="1" stop-color="#007EA9"/>
</linearGradient>
<linearGradient id="paint1_linear_547_2431" x1="40.9589" y1="39.6535" x2="63.1337" y2="39.6535" gradientUnits="userSpaceOnUse">
<stop stop-color="#00D0BB"/>
<stop offset="1" stop-color="#007EA9"/>
</linearGradient>
<linearGradient id="paint2_linear_547_2431" x1="65.2191" y1="36.3395" x2="79.6114" y2="36.3395" gradientUnits="userSpaceOnUse">
<stop stop-color="#00D0BB"/>
<stop offset="1" stop-color="#007EA9"/>
</linearGradient>
<linearGradient id="paint3_linear_547_2431" x1="81.4955" y1="36.3395" x2="95.8878" y2="36.3395" gradientUnits="userSpaceOnUse">
<stop stop-color="#00D0BB"/>
<stop offset="1" stop-color="#007EA9"/>
</linearGradient>
<linearGradient id="paint4_linear_547_2431" x1="98.193" y1="39.7861" x2="120.101" y2="39.7861" gradientUnits="userSpaceOnUse">
<stop stop-color="#00D0BB"/>
<stop offset="1" stop-color="#007EA9"/>
</linearGradient>
<clipPath id="clip0_547_2431">
<rect width="120" height="78.3815" fill="white" transform="translate(0.0683594 0.149902)"/>
</clipPath>
</defs>
</svg>
