<svg width="85" height="157" viewBox="0 0 85 157" fill="none" xmlns="http://www.w3.org/2000/svg">
<path d="M39.5382 157C42.7774 136.686 44.9369 98.3721 48.0562 78.0582L12.3044 87.5568L5.82589 74.4845C4.62616 72.2273 3.06652 69.0298 1.98677 64.9858C0.907015 61.0359 -1.61241 52.1955 1.50688 42.6969C5.94586 29.2483 18.7829 22.0068 22.2621 19.9378C24.4216 18.7152 29.4605 15.7997 36.7788 13.9188C40.4979 12.9783 43.9771 12.5081 44.457 12.4141C47.0964 12.0379 48.4161 12.0379 53.0951 11.6617C57.894 11.2855 60.2934 11.0974 61.2532 10.9093C63.7726 10.4391 69.1714 9.49865 73.8503 6.39513C76.1298 4.79635 78.0493 2.82138 78.6492 2.2571C79.489 1.31664 80.0889 0.564276 80.5687 0C80.8087 1.03451 81.1686 2.4452 81.5285 4.13802C81.6485 4.79635 81.8884 5.73681 82.0084 6.77131C82.3683 9.02842 82.6083 10.4391 82.4883 12.0379C82.4883 13.2605 82.2484 15.3295 81.0486 17.6807C80.4488 18.8092 79.489 20.5961 77.2095 22.1949C76.8496 22.477 75.8898 23.1353 73.3704 24.0758C70.851 25.1103 68.5715 25.6746 65.6922 26.3329C64.7324 26.521 61.3732 27.2733 55.0146 28.2138C50.2157 28.9662 50.2157 28.7781 46.8565 29.3424C41.9376 30.1888 39.4182 30.565 36.6588 31.5995C32.9397 33.0102 30.5402 34.8911 29.4605 35.7375C24.3017 39.7815 22.622 44.2016 22.2621 45.2361C21.7822 46.4587 21.6623 47.3992 21.3023 49.3742C20.8224 51.8194 20.3426 54.9229 20.8224 58.8728C21.1824 61.5061 21.7822 63.4811 22.2621 64.8917C23.1019 67.431 23.8218 68.8417 24.1817 69.406C24.6616 70.3464 25.2614 71.0988 25.6213 71.6631C27.9008 70.7226 30.6602 69.7821 33.7795 69.0298C35.699 68.5595 37.2587 68.2774 39.0583 67.9012C40.8579 67.525 43.0174 67.1488 45.7767 66.7727C47.4563 66.5846 47.3364 66.5846 52.4952 66.0203C55.3745 65.7382 56.0944 65.5501 57.2941 65.2679C58.3738 64.9858 60.0535 64.5156 61.6131 63.387C62.4529 62.8227 63.5327 62.0704 64.0126 60.7537C64.2525 60.2835 64.6124 59.249 64.0126 58.1204C63.5327 57.18 62.5729 56.7098 61.6131 56.2395C60.1734 55.4872 58.7338 55.2991 57.774 55.111C54.4147 54.5467 52.0153 54.1705 50.5756 53.9824C49.3759 53.7943 47.4563 53.5122 43.8572 52.8539C40.258 52.1955 39.5382 52.1955 39.5382 52.1015C39.5382 51.8194 46.1367 52.1955 56.9342 52.1015C60.1734 52.1015 63.4127 52.1955 66.6519 52.1015C70.2511 52.0074 72.1707 51.9134 74.8101 52.4777C76.3697 52.8539 78.5292 53.3241 80.5687 54.7348C83.2081 56.6157 83.928 58.8728 84.4079 60.3775C84.6478 61.0359 85.2477 63.1049 84.8878 65.6441C84.5278 68.1834 83.4481 70.0643 82.9682 70.9107C80.8087 74.8606 64.1325 119.946 39.5382 157Z" fill="#00ACB3"/>
</svg>
