<svg width="24" height="25" viewBox="0 0 24 25" fill="none" xmlns="http://www.w3.org/2000/svg">
<path fill-rule="evenodd" clip-rule="evenodd" d="M22 12.4047C22 6.8825 17.5233 2.40466 12 2.40466C6.47779 2.40466 2 6.88245 2 12.4047C2 17.9269 6.47779 22.4047 12 22.4047C17.5233 22.4047 22 17.9268 22 12.4047ZM12 3.90466C16.6947 3.90466 20.5 7.71082 20.5 12.4047C20.5 17.0985 16.6947 20.9047 12 20.9047C7.30621 20.9047 3.5 17.0984 3.5 12.4047C3.5 7.71088 7.30621 3.90466 12 3.90466Z" fill="url(#paint0_linear_902_2478)"/>
<path fill-rule="evenodd" clip-rule="evenodd" d="M15.4688 9.90173L12.0001 13.3854L8.53137 9.90173L7.46842 10.9601L12.0001 15.5113L16.5317 10.9601L15.4688 9.90173Z" fill="url(#paint1_linear_902_2478)"/>
<defs>
<linearGradient id="paint0_linear_902_2478" x1="12" y1="2.40466" x2="12" y2="22.4047" gradientUnits="userSpaceOnUse">
<stop stop-color="#01BFB8"/>
<stop offset="1" stop-color="#0185AB"/>
</linearGradient>
<linearGradient id="paint1_linear_902_2478" x1="12.0001" y1="9.90173" x2="12.0001" y2="15.5113" gradientUnits="userSpaceOnUse">
<stop stop-color="#01BFB8"/>
<stop offset="1" stop-color="#0185AB"/>
</linearGradient>
</defs>
</svg>
