<svg width="24" height="24" viewBox="0 0 24 24" fill="none" xmlns="http://www.w3.org/2000/svg">
<path fill-rule="evenodd" clip-rule="evenodd" d="M7.60451 18.7441C6.90151 18.7441 6.33051 19.3151 6.33051 20.0181C6.33051 20.7211 6.90151 21.2931 7.60451 21.2931C8.30651 21.2931 8.87751 20.7211 8.87751 20.0181C8.87751 19.3151 8.30651 18.7441 7.60451 18.7441Z" fill="url(#paint0_linear_264_4779)"/>
<path fill-rule="evenodd" clip-rule="evenodd" d="M18.4717 18.7441C17.7687 18.7441 17.1977 19.3151 17.1977 20.0181C17.1977 20.7211 17.7687 21.2931 18.4717 21.2931C19.1747 21.2931 19.7457 20.7211 19.7457 20.0181C19.7457 19.3151 19.1747 18.7441 18.4717 18.7441Z" fill="url(#paint1_linear_264_4779)"/>
<path fill-rule="evenodd" clip-rule="evenodd" d="M13.5753 11.1768H17.7453V9.67679H13.5753V11.1768ZM6.14531 5.76679L5.84531 2.70679H1.94531V4.20679H4.48531L5.76531 16.9068H20.5853L22.0553 5.76679H6.14531Z" fill="url(#paint2_linear_264_4779)"/>
<defs>
<linearGradient id="paint0_linear_264_4779" x1="1.93283" y1="11.9952" x2="22.0856" y2="11.9952" gradientUnits="userSpaceOnUse">
<stop stop-color="#00D0BB"/>
<stop offset="1" stop-color="#007EA9"/>
</linearGradient>
<linearGradient id="paint1_linear_264_4779" x1="1.93283" y1="11.9952" x2="22.0856" y2="11.9952" gradientUnits="userSpaceOnUse">
<stop stop-color="#00D0BB"/>
<stop offset="1" stop-color="#007EA9"/>
</linearGradient>
<linearGradient id="paint2_linear_264_4779" x1="1.93283" y1="11.9952" x2="22.0856" y2="11.9952" gradientUnits="userSpaceOnUse">
<stop stop-color="#00D0BB"/>
<stop offset="1" stop-color="#007EA9"/>
</linearGradient>
</defs>
</svg>
