<svg width="17" height="17" viewBox="0 0 17 17" fill="none" xmlns="http://www.w3.org/2000/svg">
<path fill-rule="evenodd" clip-rule="evenodd" d="M8.49996 9.55905C7.43109 9.55905 6.56125 8.68992 6.56125 7.62105C6.56125 6.55217 7.43109 5.68234 8.49996 5.68234C9.56884 5.68234 10.438 6.55217 10.438 7.62105C10.438 8.68992 9.56884 9.55905 8.49996 9.55905ZM12.4765 3.29525C11.3921 2.1768 9.97967 1.56055 8.49996 1.56055C7.01884 1.56055 5.60642 2.1768 4.52125 3.29596C3.4198 4.43213 2.81488 5.95859 2.86234 7.48434C2.99621 11.808 8.08913 15.1747 8.30659 15.3157L8.49713 15.4396L8.6898 15.3178C8.90655 15.1804 14.003 11.8951 14.1376 7.48363C14.1843 5.95859 13.5787 4.43142 12.4765 3.29525Z" fill="url(#paint0_linear_264_3080)"/>
<defs>
<linearGradient id="paint0_linear_264_3080" x1="2.85274" y1="8.49652" x2="14.1571" y2="8.49652" gradientUnits="userSpaceOnUse">
<stop stop-color="#00D0BB"/>
<stop offset="1" stop-color="#007EA9"/>
</linearGradient>
</defs>
</svg>
