<svg width="26" height="26" viewBox="0 0 26 26" fill="none" xmlns="http://www.w3.org/2000/svg">
<path d="M26 13.2925C26 12.4367 25.9225 11.6242 25.7897 10.8334H13.2823V15.7192H20.4436C20.1226 17.3225 19.1818 18.6767 17.7872 19.5975V22.8475H22.0596C24.5611 20.5833 26 17.2467 26 13.2925Z" fill="#4285F4"/>
<path d="M13.2825 26C16.8687 26 19.8682 24.83 22.0598 22.8475L17.7874 19.5975C16.592 20.3775 15.0756 20.8542 13.2825 20.8542C9.8181 20.8542 6.88497 18.5683 5.83346 15.4808H1.42822V18.8283C3.60871 23.075 8.09143 26 13.2825 26Z" fill="#34A853"/>
<path d="M5.83307 15.4809C5.55636 14.7009 5.41247 13.8667 5.41247 13.0001C5.41247 12.1334 5.56743 11.2992 5.83307 10.5192V7.17175H1.42783C0.520216 8.92675 0 10.8984 0 13.0001C0 15.1017 0.520216 17.0734 1.42783 18.8284L5.83307 15.4809Z" fill="#FBBC05"/>
<path d="M13.2825 5.14582C15.2416 5.14582 16.9905 5.80665 18.374 7.09582L22.1594 3.39082C19.8682 1.28916 16.8687 0 13.2825 0C8.09143 0 3.60871 2.92499 1.42822 7.17165L5.83346 10.5191C6.88497 7.43165 9.8181 5.14582 13.2825 5.14582Z" fill="#EA4335"/>
</svg>
