<svg width="21" height="20" viewBox="0 0 21 20" fill="none" xmlns="http://www.w3.org/2000/svg">
<g clip-path="url(#clip0_275_2715)">
<path d="M2.87633 9.73889C2.2236 9.73889 1.62305 10.1044 1.62305 10.7311V13.9947C1.65053 14.6709 2.19976 15.2086 2.87633 15.2219H4.49513V9.73889H3.32021H2.87633Z" fill="black"/>
<path d="M11.1522 16.6578C10.2293 16.665 9.487 17.419 9.49419 18.3419C9.50139 19.2648 10.2554 20.0071 11.1783 19.9999C11.6365 20.0016 12.0771 19.8235 12.4054 19.5038C12.6972 19.1948 12.8483 18.7791 12.8232 18.355C12.8233 17.4278 12.0792 16.6721 11.1522 16.6578Z" fill="black"/>
<path d="M18.1253 9.73889H16.7676V15.2219H18.1253C18.4125 15.2219 19.3785 15.1174 19.3785 14.2558V10.9921C19.3286 10.3218 18.7957 9.78877 18.1253 9.73889Z" fill="black"/>
<path d="M17.0275 7.3107V9.21671H17.8108V7.3107C17.8108 3.27309 14.5377 0 10.5001 0C6.46249 0 3.18945 3.27309 3.18945 7.3107V9.21671H3.97272V7.3107C3.97272 3.70572 6.89513 0.783314 10.5001 0.783314C14.1051 0.783314 17.0275 3.70572 17.0275 7.3107Z" fill="black"/>
<path d="M17.1052 16.2663C16.2001 17.4509 14.7524 18.091 13.2671 17.9634L13.2148 18.7206H13.6848C15.2765 18.7309 16.7785 17.9847 17.7318 16.7101L18.4107 15.7702L17.784 15.3263L17.1052 16.2663Z" fill="black"/>
</g>
<defs>
<clipPath id="clip0_275_2715">
<rect width="20" height="20" fill="white" transform="translate(0.5)"/>
</clipPath>
</defs>
</svg>
