<svg width="244" height="160" viewBox="0 0 244 160" fill="none" xmlns="http://www.w3.org/2000/svg">
<g clip-path="url(#clip0_264_2632)">
<path d="M34.7184 160C37.6386 136.633 40.5588 113.266 43.3708 89.8986L11.1404 100.825L5.29993 85.7877C4.21837 83.1913 2.81234 79.5132 1.83894 74.8614C0.865532 70.3178 -1.40574 60.1487 1.40631 49.2224C5.40808 33.7525 16.9808 25.4226 20.1173 23.0426C22.0641 21.6362 26.6067 18.2826 33.2042 16.119C36.557 15.0372 39.6935 14.4963 40.1262 14.3881C42.5056 13.9553 43.6953 13.9553 47.9134 13.5226C52.2396 13.0899 54.4028 12.8735 55.268 12.6572C57.5393 12.1163 62.4063 11.0345 66.6244 7.46448C68.6794 5.6254 70.4099 3.35359 70.9506 2.7045C71.7077 1.62269 72.2485 0.757242 72.6811 0.108154C72.8974 1.29815 73.2219 2.92087 73.5464 4.86813C73.6545 5.6254 73.8708 6.70721 73.979 7.8972C74.3035 10.4936 74.5198 12.1163 74.4116 13.9553C74.4116 15.3617 74.1953 17.7417 73.1138 20.4462C72.573 21.7444 71.7077 23.7998 69.6528 25.6389C69.3283 25.9635 68.4631 26.7207 66.1918 27.8025C63.9205 28.9925 61.8655 29.6416 59.2698 30.3989C58.4045 30.6153 55.3762 31.4807 49.6439 32.5625C45.3177 33.428 45.3177 33.2116 42.2893 33.8607C37.8549 34.8343 35.5836 35.2671 33.096 36.457C29.7432 38.0798 27.5801 40.2434 26.6067 41.217C21.956 45.8688 20.4418 50.9533 20.1173 52.1433C19.6847 53.5497 19.5765 54.6315 19.2521 56.9033C18.8194 59.716 18.3868 63.286 18.8194 67.8296C19.1439 70.8587 19.6847 73.1305 20.1173 74.7532C20.8744 77.6741 21.5233 79.2968 21.8478 79.9459C22.2804 81.0277 22.8212 81.8932 23.1457 82.5422C25.2006 81.4604 27.6882 80.3786 30.5003 79.5132C32.2308 78.9723 33.6368 78.6477 35.2591 78.215C36.8815 77.7823 38.8283 77.3495 41.3159 76.9168C42.8301 76.7005 42.7219 76.7005 47.3726 76.0514C49.9684 75.7268 50.6173 75.5105 51.6989 75.1859C52.6723 74.8614 54.1865 74.3205 55.5925 73.0223C56.3496 72.3732 57.323 71.5078 57.7556 69.9932C57.9719 69.4523 58.2964 68.2623 57.7556 66.9641C57.323 65.8823 56.4577 65.3414 55.5925 64.8005C54.2946 63.9351 52.9967 63.7187 52.1315 63.5023C49.1031 62.8533 46.94 62.4205 45.6421 62.2042C44.5606 61.9878 42.8301 61.6633 39.5854 60.906C36.3407 60.1487 35.6918 60.1487 35.6918 60.0406C35.6918 59.716 41.6404 60.1487 51.3744 60.0406C54.2946 60.0406 57.2148 60.1487 60.135 60.0406C63.3797 59.9324 65.1102 59.8242 67.4896 60.4733C68.8957 60.906 70.8425 61.4469 72.6811 63.0696C75.0606 65.2332 75.7095 67.8296 76.1421 69.5605C76.3584 70.3178 76.8992 72.6978 76.5748 75.6186C76.2503 78.5395 75.2769 80.7032 74.8442 81.6768C72.8974 86.2204 56.8904 117.377 34.7184 160Z" fill="white"/>
<path d="M34.7184 160C37.6386 136.633 40.5588 113.266 43.3708 89.8986L11.1404 100.825L5.29993 85.7877C4.21837 83.1913 2.81234 79.5132 1.83894 74.8614C0.865532 70.3178 -1.40574 60.1487 1.40631 49.2224C5.40808 33.7525 16.9808 25.4226 20.1173 23.0426C22.0641 21.6362 26.6067 18.2826 33.2042 16.119C36.557 15.0372 39.6935 14.4963 40.1262 14.3881C42.5056 13.9553 43.6953 13.9553 47.9134 13.5226C52.2396 13.0899 54.4028 12.8735 55.268 12.6572C57.5393 12.1163 62.4063 11.0345 66.6244 7.46448C68.6794 5.6254 70.4099 3.35359 70.9506 2.7045C71.7077 1.62269 72.2485 0.757242 72.6811 0.108154C72.8974 1.29815 73.2219 2.92087 73.5464 4.86813C73.6545 5.6254 73.8708 6.70721 73.979 7.8972C74.3035 10.4936 74.5198 12.1163 74.4116 13.9553C74.4116 15.3617 74.1953 17.7417 73.1138 20.4462C72.573 21.7444 71.7077 23.7998 69.6528 25.6389C69.3283 25.9635 68.4631 26.7207 66.1918 27.8025C63.9205 28.9925 61.8655 29.6416 59.2698 30.3989C58.4045 30.6153 55.3762 31.4807 49.6439 32.5625C45.3177 33.428 45.3177 33.2116 42.2893 33.8607C37.8549 34.8343 35.5836 35.2671 33.096 36.457C29.7432 38.0798 27.5801 40.2434 26.6067 41.217C21.956 45.8688 20.4418 50.9533 20.1173 52.1433C19.6847 53.5497 19.5765 54.6315 19.2521 56.9033C18.8194 59.716 18.3868 63.286 18.8194 67.8296C19.1439 70.8587 19.6847 73.1305 20.1173 74.7532C20.8744 77.6741 21.5233 79.2968 21.8478 79.9459C22.2804 81.0277 22.8212 81.8932 23.1457 82.5422C25.2006 81.4604 27.6882 80.3786 30.5003 79.5132C32.2308 78.9723 33.6368 78.6477 35.2591 78.215C36.8815 77.7823 38.8283 77.3495 41.3159 76.9168C42.8301 76.7005 42.7219 76.7005 47.3726 76.0514C49.9684 75.7268 50.6173 75.5105 51.6989 75.1859C52.6723 74.8614 54.1865 74.3205 55.5925 73.0223C56.3496 72.3732 57.323 71.5078 57.7556 69.9932C57.9719 69.4523 58.2964 68.2623 57.7556 66.9641C57.323 65.8823 56.4577 65.3414 55.5925 64.8005C54.2946 63.9351 52.9967 63.7187 52.1315 63.5023C49.1031 62.8533 46.94 62.4205 45.6421 62.2042C44.5606 61.9878 42.8301 61.6633 39.5854 60.906C36.3407 60.1487 35.6918 60.1487 35.6918 60.0406C35.6918 59.716 41.6404 60.1487 51.3744 60.0406C54.2946 60.0406 57.2148 60.1487 60.135 60.0406C63.3797 59.9324 65.1102 59.8242 67.4896 60.4733C68.8957 60.906 70.8425 61.4469 72.6811 63.0696C75.0606 65.2332 75.7095 67.8296 76.1421 69.5605C76.3584 70.3178 76.8992 72.6978 76.5748 75.6186C76.2503 78.5395 75.2769 80.7032 74.8442 81.6768C72.8974 86.2204 56.8904 117.377 34.7184 160Z" fill="white"/>
<path d="M128.165 84.5978H98.4219C98.6382 86.9778 99.2871 88.7087 100.369 89.8987C101.775 91.6296 103.722 92.3869 105.993 92.3869C107.399 92.3869 108.805 92.0623 110.103 91.3051C110.86 90.8723 111.725 90.0069 112.698 88.8169L127.3 90.1151C125.028 94.0096 122.324 96.8223 119.188 98.445C116.051 100.176 111.509 100.933 105.56 100.933C100.477 100.933 96.3669 100.176 93.4467 98.7696C90.5265 97.3632 88.0389 94.9832 86.0921 91.846C84.1453 88.7087 83.1719 85.0306 83.1719 80.7033C83.1719 74.6452 85.1187 69.777 89.0123 65.9907C92.9059 62.2043 98.2056 60.3652 105.128 60.3652C110.644 60.3652 115.078 61.2307 118.214 62.8534C121.459 64.5843 123.839 66.9643 125.569 70.1015C127.3 73.2388 128.057 77.4579 128.057 82.5424V84.5978H128.165ZM113.131 77.4579C112.807 74.537 112.05 72.4815 110.86 71.2915C109.562 70.1015 107.94 69.4525 105.885 69.4525C103.505 69.4525 101.667 70.4261 100.261 72.2652C99.3953 73.4552 98.7463 75.1861 98.53 77.4579H113.131Z" fill="white"/>
<path d="M152.932 46.7344V61.447H161.152V72.3733H152.932V86.1123C152.932 87.7351 153.041 88.8169 153.365 89.3578C153.906 90.2232 154.663 90.5478 155.961 90.5478C157.042 90.5478 158.557 90.2232 160.612 89.5741L161.693 99.8514C158.016 100.609 154.555 101.041 151.418 101.041C147.741 101.041 145.037 100.609 143.198 99.635C141.468 98.6614 140.17 97.255 139.305 95.3077C138.44 93.3605 138.007 90.2232 138.007 85.896V72.3733H132.491V61.5552H138.007V54.4152L152.932 46.7344Z" fill="white"/>
<path d="M186.028 46.7344V61.447H194.248V72.3733H186.028V86.1123C186.028 87.7351 186.136 88.8169 186.461 89.3578C187.002 90.2232 187.759 90.5478 189.057 90.5478C190.138 90.5478 191.652 90.2232 193.707 89.5741L194.789 99.8514C191.111 100.609 187.65 101.041 184.514 101.041C180.837 101.041 178.133 100.609 176.294 99.635C174.564 98.6614 173.266 97.255 172.4 95.3077C171.535 93.3605 171.103 90.2232 171.103 85.896V72.3733H165.587V61.5552H171.103V54.4152L186.028 46.7344Z" fill="white"/>
<path d="M199.548 81.0278C199.548 75.0778 201.495 70.2096 205.496 66.4233C209.498 62.637 214.906 60.6897 221.612 60.6897C229.399 60.6897 235.239 62.9615 239.241 67.3969C242.378 71.0751 244 75.5105 244 80.8114C244 86.7614 242.053 91.6295 238.051 95.4159C234.05 99.2022 228.642 101.149 221.612 101.149C215.339 101.149 210.363 99.5268 206.47 96.3895C201.819 92.495 199.548 87.3023 199.548 81.0278ZM214.365 80.9196C214.365 84.3814 215.014 86.9777 216.42 88.6005C217.826 90.2232 219.557 91.0886 221.72 91.0886C223.883 91.0886 225.613 90.2232 227.019 88.6005C228.426 86.9777 229.074 84.3814 229.074 80.7032C229.074 77.3496 228.426 74.8614 227.019 73.2387C225.613 71.616 223.883 70.7506 221.828 70.7506C219.665 70.7506 217.826 71.616 216.42 73.2387C215.122 75.0778 214.365 77.566 214.365 80.9196Z" fill="white"/>
</g>
<defs>
<clipPath id="clip0_264_2632">
<rect width="244" height="160" fill="white"/>
</clipPath>
</defs>
</svg>
