<svg width="254" height="193" viewBox="0 0 254 193" fill="none" xmlns="http://www.w3.org/2000/svg">
<path d="M251.677 177.362L194.747 102.684C191.345 98.2221 186.061 95.606 180.452 95.606H73.1907C67.581 95.606 62.297 98.2221 58.895 102.684L1.97104 177.362C-2.81658 183.644 1.66083 192.692 9.5609 192.692H244.087C251.987 192.687 256.464 183.639 251.677 177.362Z" fill="url(#paint0_linear_2283_501)"/>
<path d="M5.17636 177.518C3.67183 177.518 2.27588 177.962 1.10224 178.722C-2.16533 184.87 2.219 192.687 9.5607 192.687H244.086C251.428 192.687 255.813 184.87 252.545 178.722C251.371 177.962 249.975 177.518 248.471 177.518H5.17636Z" fill="#C9CDD3"/>
<path d="M102.387 134.01L143.118 177.518H126.47L90.4229 139.248L102.387 134.01Z" fill="white"/>
<path d="M187.116 96.8985C185.022 96.0609 182.768 95.6111 180.457 95.6111H159.766L16.4321 158.393L1.971 177.362C1.74868 177.657 1.55222 177.957 1.36609 178.257L187.116 96.8985Z" fill="#FEE379"/>
<path d="M1.37119 178.257L90.4229 139.248L126.47 177.517L1.37119 178.257Z" fill="#86ADFF"/>
<path d="M16.432 158.393L159.766 95.6111H73.1906C67.5809 95.6111 62.2969 98.2272 58.8949 102.689L16.432 158.393Z" fill="#69CA9F"/>
<path d="M215.071 129.347L210.671 123.577L183.869 135.292L159.321 109.069L147.517 114.239L172.055 140.452L126.821 160.223L132.002 165.647L177.163 145.912L206.752 177.517H223.395L188.977 140.747L215.071 129.347Z" fill="#C9CDD3"/>
<path opacity="0.3" d="M197.234 105.946L194.747 102.684C191.345 98.2221 186.061 95.606 180.452 95.606H126.821V136.616L197.234 105.946Z" fill="url(#paint1_linear_2283_501)"/>
<path d="M120.695 0.412025C100.21 3.15224 84.5496 19.5677 82.6418 40.1451C81.3286 54.3011 86.6746 67.237 95.9086 76.2021C99.4657 79.6558 102.769 83.3422 105.799 87.2302C114.397 98.2582 120.286 111.153 123.331 124.797L125.782 135.778C125.891 136.27 126.325 136.616 126.826 136.616C127.328 136.616 127.762 136.27 127.871 135.778L130.471 124.104C133.429 110.837 139.101 98.2892 147.404 87.53C150.366 83.6937 153.613 80.0798 157.165 76.7553C165.805 68.6639 171.208 57.1551 171.208 44.3795C171.202 17.8511 147.936 -3.23814 120.695 0.412025Z" fill="#D02376"/>
<path d="M136.55 57.5996C141.923 52.2268 141.923 43.5159 136.55 38.1431C131.177 32.7704 122.466 32.7704 117.093 38.1431C111.721 43.5159 111.721 52.2268 117.093 57.5996C122.466 62.9723 131.177 62.9723 136.55 57.5996Z" fill="white"/>
<defs>
<linearGradient id="paint0_linear_2283_501" x1="19.7929" y1="80.3716" x2="202.925" y2="232.596" gradientUnits="userSpaceOnUse">
<stop stop-color="#F6F8FF"/>
<stop offset="1" stop-color="#DEE0ED"/>
</linearGradient>
<linearGradient id="paint1_linear_2283_501" x1="210.813" y1="71.0113" x2="118.347" y2="127.431" gradientUnits="userSpaceOnUse">
<stop/>
<stop offset="1"/>
</linearGradient>
</defs>
</svg>
