<svg width="20" height="20" viewBox="0 0 20 20" fill="none" xmlns="http://www.w3.org/2000/svg">
<path d="M10.3538 1.7085C10.7631 1.7085 11.0949 2.04029 11.0949 2.44956C11.0949 2.85884 10.7631 3.19063 10.3538 3.19063C6.39742 3.19063 3.19014 6.39791 3.19014 10.3543C3.19014 14.3107 6.39742 17.5179 10.3538 17.5179C10.7631 17.5179 11.0949 17.8497 11.0949 18.259C11.0949 18.6683 10.7631 19.0001 10.3538 19.0001C5.57886 19.0001 1.70801 15.1292 1.70801 10.3543C1.70801 5.57935 5.57886 1.7085 10.3538 1.7085Z" fill="black"/>
<path d="M14.7704 7.914C14.481 7.6246 14.481 7.15538 14.7704 6.86598C15.0598 6.57658 15.529 6.57658 15.8184 6.86598L18.7827 9.83027C19.0721 10.1197 19.0721 10.5888 18.7827 10.8782L15.8184 13.8425C15.529 14.1319 15.0598 14.1319 14.7704 13.8425C14.481 13.5531 14.481 13.084 14.7704 12.7945L16.4695 11.0953L8.37779 11.0953C7.96851 11.0953 7.63672 10.7635 7.63672 10.3543C7.63672 9.94499 7.96851 9.61319 8.37779 9.61319L16.4695 9.61319L14.7704 7.914Z" fill="black"/>
</svg>
