<svg width="21" height="20" viewBox="0 0 21 20" fill="none" xmlns="http://www.w3.org/2000/svg">
<path fill-rule="evenodd" clip-rule="evenodd" d="M7.82214 9.00529C7.82214 7.51524 9.02965 6.30774 10.5197 6.30774C12.0091 6.30774 13.2164 7.51541 13.2164 9.00529C13.2164 10.4945 12.0089 11.702 10.5197 11.702C9.02981 11.702 7.82214 10.4947 7.82214 9.00529ZM10.5197 7.55774C9.72 7.55774 9.07214 8.2056 9.07214 9.00529C9.07214 9.80397 9.71984 10.452 10.5197 10.452C11.3185 10.452 11.9664 9.80414 11.9664 9.00529C11.9664 8.20543 11.3184 7.55774 10.5197 7.55774Z" fill="black"/>
<path fill-rule="evenodd" clip-rule="evenodd" d="M10.5188 2.91675C7.45226 2.91675 4.83073 5.68986 4.92752 8.81172C4.99654 11.038 6.41453 13.1133 7.91957 14.6855C8.66134 15.4603 9.40042 16.0882 9.95451 16.5223C10.1793 16.6985 10.3729 16.8421 10.5228 16.9501C10.672 16.8448 10.8642 16.7049 11.0873 16.5332C11.6407 16.1073 12.3789 15.4894 13.1198 14.7216C14.6214 13.1656 16.0413 11.09 16.1109 8.812C16.2063 5.68973 13.5852 2.91675 10.5188 2.91675ZM10.5188 17.7083C10.1777 18.232 10.1775 18.2319 10.1773 18.2318L10.1768 18.2315L10.1754 18.2306L10.171 18.2277L10.1556 18.2175C10.1425 18.2088 10.1239 18.1963 10.1 18.1801C10.0522 18.1477 9.98348 18.1005 9.89677 18.0391C9.72342 17.9163 9.4778 17.7368 9.18356 17.5062C8.59602 17.0459 7.80975 16.3784 7.01663 15.5499C5.45187 13.9154 3.76187 11.5521 3.67812 8.85046C3.56036 5.052 6.71845 1.66675 10.5188 1.66675C14.3193 1.66675 17.4763 5.05203 17.3603 8.85018C17.2762 11.6012 15.5878 13.9642 14.0193 15.5896C13.2252 16.4125 12.4381 17.071 11.8498 17.5238C11.5552 17.7505 11.3092 17.9266 11.1355 18.0469C11.0486 18.1071 10.9798 18.1534 10.9319 18.1851C10.9079 18.201 10.8891 18.2132 10.876 18.2217L10.8605 18.2317L10.856 18.2346L10.8546 18.2355L10.8541 18.2358C10.8539 18.2359 10.8537 18.236 10.5188 17.7083ZM10.5188 17.7083L10.8537 18.236L10.5144 18.4514L10.1777 18.232L10.5188 17.7083Z" fill="black"/>
</svg>
