<svg width="212" height="53" viewBox="0 0 212 53" fill="none" xmlns="http://www.w3.org/2000/svg">
<path d="M210.031 44.6019L162.67 4.37012C159.839 1.96635 155.435 0.547277 150.754 0.530777L61.2547 0.215282C56.5739 0.198781 52.16 1.58677 49.3129 3.97052L1.67363 43.8674C-2.33308 47.2235 1.3858 52.0907 7.97771 52.114L203.669 52.8038C210.26 52.8243 214.014 47.9833 210.031 44.6019Z" fill="url(#paint0_linear_2283_514)"/>
<path d="M4.34788 43.9601C3.09248 43.9557 1.92684 44.1901 0.946108 44.5944C-1.79201 47.8828 1.85154 52.0896 7.97753 52.1112L203.668 52.8011C209.794 52.8227 213.467 48.6416 210.753 45.334C209.775 44.9228 208.611 44.6801 207.355 44.6757L4.34788 43.9601Z" fill="#C9CDD3"/>
<path d="M85.5436 20.9048L119.448 44.3658L105.556 44.3169L75.5509 23.6794L85.5436 20.9048Z" fill="white"/>
<path d="M156.313 1.24381C154.567 0.788297 152.687 0.540347 150.759 0.533549L133.494 0.472689L13.776 33.733L1.67363 43.8674C1.48756 44.0249 1.32306 44.1852 1.16719 44.3455L156.313 1.24381Z" fill="#FEE379"/>
<path d="M1.17147 44.3455L75.5509 23.6794L105.556 44.3168L1.17147 44.3455Z" fill="#86ADFF"/>
<path d="M13.7759 33.733L133.494 0.472685L61.2546 0.218035C56.5738 0.201535 52.1599 1.58952 49.3128 3.97328L13.7759 33.733Z" fill="#69CA9F"/>
<path d="M179.578 18.7342L175.917 15.6258L153.531 21.8323L133.097 7.69154L123.238 10.4306L143.663 24.5658L105.882 35.0396L110.195 37.9646L147.915 27.5099L172.545 44.553L186.432 44.6019L157.783 24.7737L179.578 18.7342Z" fill="#C9CDD3"/>
<defs>
<linearGradient id="paint0_linear_2283_514" x1="16.7278" y1="-8.11489" x2="113.012" y2="117.273" gradientUnits="userSpaceOnUse">
<stop stop-color="#F6F8FF"/>
<stop offset="1" stop-color="#DEE0ED"/>
</linearGradient>
</defs>
</svg>
