<svg width="32" height="33" viewBox="0 0 32 33" fill="none" xmlns="http://www.w3.org/2000/svg">
<path d="M28.6844 10.3755L28.6626 10.3379C28.6325 10.2753 28.5977 10.2154 28.5589 10.1586L24.4692 3.08808C24.1746 2.57881 23.6262 2.26245 23.0379 2.26245H8.96326C8.374 2.26245 7.82511 2.57956 7.53063 3.09021L3.37434 10.3008C3.3369 10.3658 3.30992 10.4337 3.29085 10.5028C3.23235 10.6608 3.2002 10.8315 3.2002 11.0096V29.6331C3.2002 30.7502 4.10902 31.659 5.22609 31.659H26.7743C27.8914 31.659 28.8002 30.7502 28.8002 29.6331V10.9413C28.8002 10.9163 28.7994 10.8915 28.7981 10.8668C28.8098 10.7011 28.7739 10.5301 28.6844 10.3755ZM16.8912 3.98554H22.9978L26.2149 9.54754H16.8912V3.98554ZM9.00339 3.98554H15.1681V9.54754H5.79732L9.00339 3.98554ZM27.0771 29.6331C27.0771 29.8001 26.9413 29.9359 26.7743 29.9359H5.22609C5.05913 29.9359 4.92329 29.8001 4.92329 29.6331V11.2706H27.0771V29.6331Z" fill="black"/>
<path d="M19.9109 17.766C19.5745 17.4296 19.0289 17.4296 18.6924 17.766L14.8455 21.6129L13.3663 20.1337C13.0299 19.7973 12.4843 19.7973 12.1478 20.1337C11.8114 20.4701 11.8114 21.0156 12.1478 21.3521L14.2364 23.4405C14.4046 23.6087 14.6251 23.6929 14.8456 23.6929C15.066 23.6929 15.2866 23.6087 15.4547 23.4405L19.9109 18.9844C20.2473 18.6479 20.2473 18.1024 19.9109 17.766Z" fill="black"/>
</svg>
