<svg width="20" height="20" viewBox="0 0 20 20" fill="none" xmlns="http://www.w3.org/2000/svg">
<path fill-rule="evenodd" clip-rule="evenodd" d="M4.21852 7.44395C4.21852 4.25093 6.80698 1.66248 10 1.66248C13.193 1.66248 15.7815 4.25093 15.7815 7.44395V11.1487L17.3994 15.5018H2.60059L4.21852 11.1487V7.44395ZM10 2.91248C7.49733 2.91248 5.46852 4.94129 5.46852 7.44395V11.3735L4.39873 14.2518H15.6013L14.5315 11.3735V7.44395C14.5315 4.94129 12.5027 2.91248 10 2.91248Z" fill="black"/>
<path fill-rule="evenodd" clip-rule="evenodd" d="M6.73696 15.0653V14.877H7.98696V15.0653C7.98696 16.1776 8.88861 17.0792 10.0008 17.0792C11.1131 17.0792 12.0147 16.1776 12.0147 15.0653V14.877H13.2647V15.0653C13.2647 16.8679 11.8034 18.3292 10.0008 18.3292C8.19825 18.3292 6.73696 16.8679 6.73696 15.0653Z" fill="black"/>
</svg>
