<?xml version="1.0" encoding="UTF-8"?>
<svg version="1.1" xmlns="http://www.w3.org/2000/svg" width="512" height="512">
<path d="M0 0 C0.78080933 0.00215515 1.56161865 0.0043103 2.36608887 0.00653076 C51.12002131 0.22115823 98.54227601 16.27491894 136.375 47.3125 C136.94460449 47.77914062 137.51420898 48.24578125 138.10107422 48.7265625 C150.38795749 58.86790174 161.64459407 69.65628473 171.375 82.3125 C171.80135742 82.86244629 172.22771484 83.41239258 172.66699219 83.97900391 C202.11963026 122.17837575 217.92965467 168.72670594 217.6875 216.9375 C217.68534485 217.71830933 217.6831897 218.49911865 217.68096924 219.30358887 C217.42420885 277.62826961 194.28740118 329.38876522 154.375 371.3125 C153.34826172 372.40111328 153.34826172 372.40111328 152.30078125 373.51171875 C147.04972565 378.93319401 141.32158726 383.67401158 135.375 388.3125 C134.8298877 388.73934082 134.28477539 389.16618164 133.72314453 389.60595703 C107.97894615 409.60322558 78.22452292 423.14396743 46.4375 430.1875 C45.57608398 430.37860352 44.71466797 430.56970703 43.82714844 430.76660156 C29.54669721 433.71693101 15.29580621 434.69806113 0.75 434.625 C-0.03080933 434.62284485 -0.81161865 434.6206897 -1.61608887 434.61846924 C-59.94076961 434.36170885 -111.70126522 411.22490118 -153.625 371.3125 C-154.35074219 370.62800781 -155.07648438 369.94351562 -155.82421875 369.23828125 C-161.24569401 363.98722565 -165.98651158 358.25908726 -170.625 352.3125 C-171.26526123 351.49483154 -171.26526123 351.49483154 -171.91845703 350.66064453 C-191.91572558 324.91644615 -205.45646743 295.16202292 -212.5 263.375 C-212.69110352 262.51358398 -212.88220703 261.65216797 -213.07910156 260.76464844 C-216.02943101 246.48419721 -217.01056113 232.23330621 -216.9375 217.6875 C-216.93534485 216.90669067 -216.9331897 216.12588135 -216.93096924 215.32141113 C-216.71634177 166.56747869 -200.66258106 119.14522399 -169.625 81.3125 C-169.15835938 80.74289551 -168.69171875 80.17329102 -168.2109375 79.58642578 C-158.06959826 67.29954251 -147.28121527 56.04290593 -134.625 46.3125 C-134.07505371 45.88614258 -133.52510742 45.45978516 -132.95849609 45.02050781 C-94.75912425 15.56786974 -48.21079406 -0.24215467 0 0 Z " fill="#D7543B" transform="translate(255.625,38.6875)"/>
<path d="M0 0 C8.94224339 3.96775038 15.09943786 13.54562316 21 21 C21.7940625 21.97710937 22.588125 22.95421875 23.40625 23.9609375 C42.08006107 47.42139002 54.55471425 74.56363986 61.75 103.5625 C61.94899902 104.35221191 62.14799805 105.14192383 62.35302734 105.95556641 C65.54873538 119.56955694 66.33593006 133.33370991 66.26074219 147.26660156 C66.24997213 149.63111801 66.26074616 151.99488049 66.2734375 154.359375 C66.32361325 209.18617097 41.67626415 260.20915833 3.43701172 298.56787109 C-33.67463139 335.00833388 -84.97849949 355.19053177 -136.70410156 355.18530273 C-139.09979362 355.18747712 -141.49501462 355.20566299 -143.890625 355.22460938 C-157.89544555 355.27690009 -171.68067134 354.21484043 -185.3125 350.8125 C-186.18874023 350.59601807 -187.06498047 350.37953613 -187.96777344 350.15649414 C-219.15068366 342.19305642 -248.91160965 327.51945846 -273 306 C-273.74805908 305.34016113 -273.74805908 305.34016113 -274.51123047 304.66699219 C-280.85849944 299.04936075 -286.91029233 293.20387825 -292.6875 287 C-293.19273193 286.46020508 -293.69796387 285.92041016 -294.21850586 285.36425781 C-296.64730914 282.70674815 -298.48110476 280.25098402 -300 277 C-291.74522494 269.23552957 -283.47427097 261.49314466 -275.10546875 253.8515625 C-269.02461647 248.28398971 -263.01984715 242.63332691 -257 237 C-249.84095991 240.45752396 -242.96426286 244.26354533 -236.125 248.3125 C-227.11940883 253.60625089 -218.07765603 258.83125681 -209 264 C-199.29225716 269.5310554 -189.61854261 275.11708194 -179.97485352 280.75927734 C-172.31115156 285.2413721 -164.62877938 289.69046822 -156.9375 294.125 C-155.84872559 294.752854 -154.75995117 295.38070801 -153.63818359 296.02758789 C-151.63083886 297.18438685 -149.62122948 298.33726911 -147.60888672 299.48535156 C-146.01482661 300.41081936 -144.43409299 301.36041879 -142.87939453 302.35058594 C-140.34853305 303.94421754 -138.55130984 304.99739539 -135.51953125 305.01171875 C-132.03127822 303.61100939 -128.88228588 301.77048385 -125.6875 299.8125 C-124.19048499 298.91472926 -122.69306356 298.01763599 -121.1953125 297.12109375 C-120.37708008 296.62851074 -119.55884766 296.13592773 -118.71582031 295.62841797 C-113.51723046 292.51132031 -108.29050503 289.44241405 -103.0625 286.375 C-102.00184326 285.74698486 -100.94118652 285.11896973 -99.84838867 284.47192383 C-98.85814697 283.89079834 -97.86790527 283.30967285 -96.84765625 282.7109375 C-95.96086182 282.18806152 -95.07406738 281.66518555 -94.16040039 281.12646484 C-92 280 -92 280 -90 280 C-90 227.86 -90 175.72 -90 122 C-91.65 121.34 -93.3 120.68 -95 120 C-96.71009756 119.08948724 -98.40372345 118.14754599 -100.08203125 117.1796875 C-101.01337891 116.64472656 -101.94472656 116.10976562 -102.90429688 115.55859375 C-103.86400391 115.00300781 -104.82371094 114.44742188 -105.8125 113.875 C-106.79154297 113.31167969 -107.77058594 112.74835938 -108.77929688 112.16796875 C-111.18789555 110.78155585 -113.59471395 109.39214945 -116 108 C-113.12644328 104.04885951 -109.85250602 101.0268109 -106.16699219 97.87353516 C-102.55486299 94.75056541 -99.09882645 91.46254276 -95.625 88.1875 C-94.55958984 87.18686523 -94.55958984 87.18686523 -93.47265625 86.16601562 C-89.69936626 82.62124093 -89.69936626 82.62124093 -86 79 C-81.93863103 79.33515519 -79.01019249 80.93226479 -75.54296875 82.984375 C-74.51236328 83.59023437 -73.48175781 84.19609375 -72.41992188 84.8203125 C-71.35322266 85.45710938 -70.28652344 86.09390625 -69.1875 86.75 C-68.13240234 87.37132812 -67.07730469 87.99265625 -65.99023438 88.6328125 C-62.98464595 90.40807594 -59.98554727 92.19121849 -57 94 C-56.3353262 94.24741157 -55.67065241 94.49482313 -54.98583698 94.74973202 C-52.41576232 95.88348447 -50.87174384 96.885761 -49 99 C-47.78675382 103.9230523 -47.98876426 108.85123441 -48.09179688 113.88793945 C-48.09405428 115.42560203 -48.09278519 116.96327322 -48.08825684 118.50093079 C-48.08596214 122.6706801 -48.13297886 126.83858694 -48.1888485 131.00790811 C-48.23887355 135.36668306 -48.24355939 139.72550071 -48.25305176 144.08451843 C-48.27791289 152.33667956 -48.34355581 160.5879924 -48.42384768 168.83978003 C-48.51328012 178.23500225 -48.55725599 187.63026509 -48.59741116 197.02580702 C-48.68102287 216.35101889 -48.82172791 235.67544123 -49 255 C-46.1418336 253.41618448 -43.28436082 251.83112148 -40.42700195 250.24584961 C-39.62573128 249.8018557 -38.8244606 249.35786179 -37.998909 248.90041351 C-31.34354417 245.20673534 -24.75116418 241.41707386 -18.1875 237.5625 C-17.16591797 236.96501953 -16.14433594 236.36753906 -15.09179688 235.75195312 C-12.39224685 234.17177178 -9.6936791 232.59016777 -7 231 C-6.13850531 230.60294389 -5.27701061 230.20588778 -4.38941002 229.79679966 C-1.73527285 228.19863112 -1.73527285 228.19863112 -1.33727455 225.22247982 C-1.31106812 223.5205137 -1.31106812 223.5205137 -1.28433228 221.78416443 C-1.25289124 220.481884 -1.2214502 219.17960358 -1.1890564 217.83786011 C-1.17963968 216.39117808 -1.17084095 214.94449192 -1.16259766 213.49780273 C-1.13618013 211.9766249 -1.1078121 210.45547987 -1.07763672 208.93437195 C-1.00344784 204.79770529 -0.96300713 200.66139824 -0.93319368 196.52419543 C-0.91409157 193.9375296 -0.88962506 191.35096579 -0.86365891 188.76436043 C-0.78451415 180.66564052 -0.72706796 172.56716571 -0.69882929 164.46810669 C-0.66587508 155.12916788 -0.56075418 145.79474149 -0.39282572 136.45727581 C-0.26742624 129.23412088 -0.2077635 122.01224229 -0.19714391 114.78801495 C-0.18931305 110.47551294 -0.15398362 106.16751002 -0.04976273 101.85616875 C1.14191142 85.04467161 1.14191142 85.04467161 -3.64074326 69.61883736 C-7.54461607 66.02486223 -11.81267803 64.19775231 -16.85128784 62.70877838 C-20.29536761 61.57270752 -23.15312758 59.73585606 -26.2421875 57.84765625 C-29.60026844 55.92959252 -32.95983587 54.01441353 -36.32421875 52.10742188 C-37.41089844 51.48544922 -38.49757813 50.86347656 -39.6171875 50.22265625 C-41.06520752 49.39906616 -41.06520752 49.39906616 -42.54248047 48.55883789 C-44.69686316 47.1922838 -46.30681976 45.88964031 -48 44 C-47.28457031 43.34515625 -46.56914062 42.6903125 -45.83203125 42.015625 C-40.39977828 37.04105803 -34.97403608 32.05960206 -29.5625 27.0625 C-29.02560547 26.5667749 -28.48871094 26.0710498 -27.93554688 25.56030273 C-25.16911791 23.00531269 -22.40416221 20.44874249 -19.640625 17.890625 C-13.13889515 11.87552886 -6.60383471 5.90320213 0 0 Z " fill="#FEFDFD" transform="translate(395,106)"/>
<path d="M0 0 C0.9017395 0.00054382 1.803479 0.00108765 2.73254395 0.00164795 C47.81332111 0.12623555 89.96700763 13.55735178 126.375 40.375 C127.28636719 41.04273438 128.19773437 41.71046875 129.13671875 42.3984375 C130.89600955 43.70639192 132.63873573 45.03662963 134.375 46.375 C132.80106763 50.35125021 130.22378576 52.56124632 127.0625 55.375 C125.97101881 56.35509541 124.87988475 57.33557751 123.7890625 58.31640625 C123.22477539 58.82059082 122.66048828 59.32477539 122.07910156 59.84423828 C119.33915938 62.30547574 116.63930646 64.80956683 113.9375 67.3125 C112.84517823 68.32175113 111.75272961 69.33086499 110.66015625 70.33984375 C110.11762207 70.84112793 109.57508789 71.34241211 109.01611328 71.85888672 C106.84409558 73.86546659 104.67123927 75.87113692 102.49829102 77.87670898 C101.41406892 78.87744158 100.32992206 79.87825569 99.24584961 80.87915039 C96.56351745 83.35561326 93.88034524 85.83115272 91.1953125 88.3046875 C85.33871312 93.70215675 79.5029906 99.12074245 73.6875 104.5625 C69.63760489 108.35134182 65.57513016 112.11917912 61.4375 115.8125 C57.06004198 119.72380608 52.77653352 123.72919939 48.5 127.75 C42.76973027 133.13760469 37.02420194 138.50421418 31.1953125 143.78515625 C29.217595 145.60125972 27.28319107 147.4303653 25.3671875 149.30859375 C24.87516846 149.78127686 24.38314941 150.25395996 23.8762207 150.7409668 C22.524093 152.04169851 21.18538576 153.3563401 19.84765625 154.671875 C17.375 156.375 17.375 156.375 15.03564453 156.15966797 C12.11410356 155.29805734 9.92373406 154.12174777 7.33203125 152.5234375 C6.35419678 151.92716553 5.3763623 151.33089355 4.36889648 150.71655273 C2.79410522 149.74310913 2.79410522 149.74310913 1.1875 148.75 C-1.07438155 147.37177186 -3.33718119 145.99519664 -5.6015625 144.62109375 C-6.18206863 144.26803665 -6.76257477 143.91497955 -7.360672 143.55122375 C-13.41517059 139.87716031 -19.54470828 136.33664958 -25.6875 132.8125 C-27.85421902 131.56779946 -30.02088576 130.32300792 -32.1875 129.078125 C-33.25226563 128.46646484 -34.31703125 127.85480469 -35.4140625 127.22460938 C-40.68295101 124.18955012 -45.93578566 121.1271509 -51.1875 118.0625 C-52.17339111 117.48862549 -53.15928223 116.91475098 -54.17504883 116.32348633 C-58.72315432 113.67223914 -63.25768999 111.00289004 -67.76171875 108.27734375 C-68.54667725 107.80530518 -69.33163574 107.3332666 -70.14038086 106.84692383 C-71.5819669 105.97800324 -73.01933833 105.10203301 -74.45141602 104.2175293 C-77.8839904 102.15359238 -79.51163973 101.375 -83.625 101.375 C-86.28975458 102.67152857 -88.81421835 104.02105193 -91.375 105.5 C-92.52657593 106.15258789 -92.52657593 106.15258789 -93.70141602 106.81835938 C-96.34955067 108.32545762 -98.98800918 109.84848898 -101.625 111.375 C-102.66188965 111.9740918 -103.6987793 112.57318359 -104.76708984 113.19042969 C-116.84953458 120.03307689 -116.84953458 120.03307689 -128.625 127.375 C-129.09037168 130.1967659 -129.09037168 130.1967659 -129.02372742 133.57583618 C-129.03037424 134.21866275 -129.03702107 134.86148932 -129.04386932 135.52379549 C-129.06258822 137.68740928 -129.05988823 139.85047439 -129.05737305 142.01416016 C-129.06638484 143.56124152 -129.07671061 145.10831572 -129.08825684 146.65538025 C-129.11592169 150.86382394 -129.12512414 155.07213251 -129.13111091 159.28065538 C-129.14047002 163.67563298 -129.16667129 168.07050867 -129.19111633 172.46542358 C-129.23485307 180.79163076 -129.26335588 189.11781825 -129.28643972 197.44410551 C-129.31345304 206.92165994 -129.35736684 216.39911221 -129.40272844 225.87659383 C-129.49567742 245.37600869 -129.56731109 264.87545056 -129.625 284.375 C-127.975 285.035 -126.325 285.695 -124.625 286.375 C-128.61607005 291.31132348 -132.88728558 295.51896746 -137.64453125 299.71484375 C-141.23483285 302.9192938 -144.74200053 306.20604059 -148.25 309.5 C-153.29067395 314.22500175 -158.35907779 318.89980732 -163.625 323.375 C-167.77287708 319.56542495 -170.575462 315.61944816 -173.375 310.75 C-173.80401611 310.00782227 -174.23303223 309.26564453 -174.67504883 308.50097656 C-192.39232506 277.34356924 -202.2586315 242.96313867 -202.01611328 207.07666016 C-201.99996939 204.24463068 -202.01610372 201.41401919 -202.03515625 198.58203125 C-202.04799033 187.16440862 -201.03534573 176.54315376 -198.625 165.375 C-198.33163403 163.95027927 -198.03907693 162.52539176 -197.74731445 161.1003418 C-190.79368469 128.03863094 -175.11097858 96.63157237 -152.625 71.375 C-151.8 70.43011719 -150.975 69.48523438 -150.125 68.51171875 C-135.52981205 52.02520968 -118.82583453 38.20849838 -99.625 27.375 C-98.82094727 26.9197998 -98.01689453 26.46459961 -97.18847656 25.99560547 C-76.75629103 14.56623538 -55.61549068 6.83635816 -32.625 2.375 C-31.6954248 2.18953613 -30.76584961 2.00407227 -29.80810547 1.81298828 C-19.8906112 0.04690233 -10.04106751 -0.02277356 0 0 Z " fill="#FEFDFD" transform="translate(252.625,50.625)"/>
<path d="M0 0 C9.2993994 2.55654705 18.50217651 5.94436745 24.65397072 13.72961712 C28.44294338 24.14987901 27.2867617 36.04536552 26.88463736 46.95253491 C26.74619411 51.34531021 26.73411802 55.73848526 26.70807838 60.13310528 C26.63994932 68.43726562 26.45981645 76.73498132 26.23838961 85.03631467 C25.99165387 94.4938038 25.87132734 103.95161711 25.76109004 113.41152823 C25.5317126 132.85453281 25.14529563 152.2915554 24.65397072 171.72961712 C23.99327646 172.10170111 23.33258221 172.4737851 22.65186691 172.85714436 C19.62869926 174.5604907 16.60641704 176.26540222 13.5841465 177.97033978 C12.54482475 178.55561947 11.50550301 179.14089916 10.43468666 179.7439146 C2.43590112 184.25841449 -5.4392748 188.93195595 -13.20931053 193.83117962 C-14.5183535 194.62782024 -14.5183535 194.62782024 -15.85384178 195.44055462 C-16.60294823 195.90767864 -17.35205467 196.37480267 -18.12386131 196.85608196 C-21.02054142 197.99476812 -22.40067455 197.67984969 -25.34602928 196.72961712 C-27.91951561 195.46130657 -27.91951561 195.46130657 -30.67806053 193.84289837 C-31.71108299 193.24163128 -32.74410545 192.64036419 -33.80843163 192.02087688 C-35.46672997 191.0413908 -35.46672997 191.0413908 -37.15852928 190.04211712 C-38.32691808 189.35907009 -39.49570725 188.67670751 -40.66487694 187.99499798 C-43.65833149 186.24763912 -46.64714693 184.49251021 -49.63478661 182.73523235 C-54.15759649 180.07739394 -58.69037822 177.43655665 -63.22102928 174.79211712 C-64.19145164 174.22468792 -65.16187401 173.65725872 -66.16170311 173.0726347 C-74.4507028 168.23247634 -82.7827044 163.46940884 -91.12239647 158.71744061 C-100.51502303 153.36431048 -109.8683071 147.94648031 -119.19954491 142.48694134 C-126.55404617 138.18508593 -133.93395857 133.93153045 -141.34602928 129.72961712 C-141.34602928 129.06961712 -141.34602928 128.40961712 -141.34602928 127.72961712 C-139.88606834 126.27551556 -139.88606834 126.27551556 -137.86165428 124.58899212 C-133.46990954 120.85388467 -129.27685132 116.94782222 -125.09602928 112.97961712 C-119.18489432 107.39245041 -113.24052882 101.84956281 -107.23274803 96.36633587 C-104.11501672 93.51861106 -101.01004776 90.65747001 -97.90852928 87.79211712 C-97.36808983 87.29292767 -96.82765038 86.79373821 -96.27083397 86.27942181 C-95.1762145 85.26825159 -94.08165085 84.25702095 -92.98714256 83.2457304 C-90.27425342 80.73947607 -87.56008069 78.23461266 -84.84602928 75.72961712 C-83.76268971 74.72962388 -82.67935638 73.72962388 -81.59602928 72.72961712 C-62.09602928 54.72961712 -62.09602928 54.72961712 -60.47151756 53.2301054 C-59.38650672 52.22853186 -58.3015459 51.22690412 -57.21663475 50.22522259 C-54.53437171 47.7488544 -51.85128994 45.27338648 -49.16634178 42.79992962 C-43.30974165 37.40245967 -37.47411384 31.98377485 -31.65852928 26.54211712 C-26.76266316 21.96327179 -21.84382125 17.4175677 -16.82259178 12.97571087 C-14.92000406 11.25017784 -13.07656884 9.5001986 -11.24446678 7.70227337 C-10.71103661 7.18817913 -10.17760643 6.67408489 -9.6280117 6.14441204 C-8.58768633 5.13976771 -7.55852689 4.12339233 -6.54256248 3.09411907 C-2.9518302 -0.34020221 -2.9518302 -0.34020221 0 0 Z " fill="#0F7C79" transform="translate(280.3460292816162,214.27038288116455)"/>
<path d="M0 0 C2.81106567 1.35426995 5.46291334 2.84129957 8.13793945 4.44824219 C9.2057666 5.08624756 10.27359375 5.72425293 11.3737793 6.3815918 C11.93828796 6.72092743 12.50279663 7.06026306 13.08441162 7.40988159 C16.12073663 9.23436081 19.1646081 11.04616365 22.20825195 12.85839844 C22.8323999 13.23028793 23.45654785 13.60217743 24.09960938 13.9853363 C30.21059532 17.62078512 36.36633348 21.17676198 42.5324707 24.71777344 C55.52383173 32.18374031 68.44796842 39.7612109 81.36743164 47.35058594 C86.4585683 50.33666075 91.55735661 53.30955852 96.6574707 56.28027344 C94.26321266 59.38737643 91.89395873 62.11651381 88.8918457 64.63964844 C84.78279316 68.15572023 80.83671217 71.81550489 76.9074707 75.53027344 C71.16932733 80.93264248 65.39811661 86.29287258 59.5793457 91.60839844 C56.45103085 94.46904999 53.3337935 97.34137093 50.2199707 100.21777344 C49.67961182 100.71688232 49.13925293 101.21599121 48.58251953 101.73022461 C47.48782179 102.74147956 46.39317674 103.75279156 45.29858398 104.76416016 C43.12656629 106.77074003 40.95370997 108.77641035 38.78076172 110.78198242 C37.69653962 111.78271501 36.61239276 112.78352913 35.52832031 113.78442383 C32.84598815 116.2608867 30.16281595 118.73642616 27.4777832 121.20996094 C21.62118363 126.60743036 15.78548478 132.02604083 9.9699707 137.46777344 C5.12881636 141.99651651 0.24465354 146.46768381 -4.69799805 150.88574219 C-8.04949834 153.92040936 -11.35324865 157.00419896 -14.6550293 160.09277344 C-26.98815174 171.62870377 -26.98815174 171.62870377 -32.4675293 176.62792969 C-34.2477318 178.27026325 -36.00346438 179.94012146 -37.7175293 181.65136719 C-38.3981543 182.31265625 -39.0787793 182.97394531 -39.7800293 183.65527344 C-40.33561523 184.21988281 -40.89120117 184.78449219 -41.46362305 185.36621094 C-43.3425293 186.28027344 -43.3425293 186.28027344 -46.45996094 185.33740234 C-47.88683228 184.81412354 -47.88683228 184.81412354 -49.3425293 184.28027344 C-49.55278504 163.91385305 -49.71148496 143.54765291 -49.80883884 123.18037224 C-49.85524403 113.72339471 -49.91850701 104.26709154 -50.02148438 94.81054688 C-50.11119886 86.56801948 -50.16925504 78.32598043 -50.18932575 70.08297837 C-50.20105848 65.71817516 -50.22861987 61.35476896 -50.29409981 56.99041367 C-50.35525341 52.88107172 -50.37402291 48.77369991 -50.36049843 44.66394615 C-50.36297186 43.15700375 -50.38084367 41.64999463 -50.41537857 40.14344597 C-50.66360182 28.75508734 -50.66360182 28.75508734 -47.37199402 25.08041477 C-45.08058586 23.52717892 -42.88136321 22.37002714 -40.3425293 21.28027344 C-39.38717285 20.70881592 -38.43181641 20.1373584 -37.44750977 19.54858398 C-36.62653809 19.09265869 -35.80556641 18.6367334 -34.9597168 18.16699219 C-34.02691895 17.64500244 -33.09412109 17.1230127 -32.13305664 16.58520508 C-31.17093262 16.05145264 -30.20880859 15.5177002 -29.2175293 14.96777344 C-20.856432 10.3291029 -20.856432 10.3291029 -12.6862793 5.36621094 C-11.6655835 4.72099487 -11.6655835 4.72099487 -10.62426758 4.06274414 C-9.38859693 3.27213643 -8.16220329 2.46676029 -6.94750977 1.64428711 C-2.94641564 -0.90526663 -2.94641564 -0.90526663 0 0 Z " fill="#0F7C79" transform="translate(172.342529296875,150.7197265625)"/>
<path d="M0 0 C4.25790765 1.29386544 7.90413406 2.92188103 11.74609375 5.16015625 C12.8244751 5.78519043 13.90285645 6.41022461 15.01391602 7.05419922 C16.70859009 8.04830811 16.70859009 8.04830811 18.4375 9.0625 C19.60517969 9.74270691 20.77306805 10.42255571 21.94116211 11.10205078 C46.2866692 25.2866692 46.2866692 25.2866692 48 27 C48.12522263 28.99353315 48.17974398 30.99151872 48.20773315 32.98878479 C48.2278949 34.29120621 48.24805664 35.59362762 48.26882935 36.93551636 C48.28602586 38.39263683 48.30301719 39.84975974 48.31982422 41.30688477 C48.34080959 42.83098192 48.36205591 44.35507551 48.38354492 45.87916565 C48.57156393 59.81446838 48.67415962 73.75096913 48.75568962 87.68725681 C48.81724811 97.99047944 48.92071826 108.29151647 49.07838428 118.59372479 C49.18548513 125.8353724 49.24274229 133.0764189 49.26382077 140.31882137 C49.27788905 144.64517835 49.31428212 148.96867652 49.405056 153.29416084 C49.48968103 157.36886346 49.5124566 161.43933964 49.48869324 165.51480675 C49.49066635 167.00649296 49.51476406 168.49834695 49.56312943 169.98925018 C49.70404703 174.56841942 49.60804973 178.64088581 48 183 C44.02112643 186.66491475 39.93511722 188.76170266 35 191 C33.7382889 191.72127318 32.48453821 192.45718878 31.24853516 193.22167969 C29.78359619 194.06327637 29.78359619 194.06327637 28.2890625 194.921875 C26.63970703 195.87126953 26.63970703 195.87126953 24.95703125 196.83984375 C23.85746094 197.47019531 22.75789063 198.10054687 21.625 198.75 C20.50222656 199.39582031 19.37945312 200.04164063 18.22265625 200.70703125 C16.08228172 201.93768343 13.94075511 203.16633498 11.79785156 204.39257812 C10.10201972 205.36686755 8.41007617 206.34802719 6.72558594 207.34179688 C2.20570628 210 2.20570628 210 0 210 C-0.33 158.52 -0.66 107.04 -1 54 C-8.59 49.71 -16.18 45.42 -24 41 C-27.63 38.69 -31.26 36.38 -35 34 C-30.60787269 28.68538827 -25.92852825 23.93395294 -20.875 19.25 C-20.13451416 18.55841797 -19.39402832 17.86683594 -18.63110352 17.15429688 C-12.45689237 11.39694669 -6.24550099 5.67991612 0 0 Z " fill="#168C8C" transform="translate(346,151)"/>
<path d="M0 0 C9.29012952 2.6351779 18.46776549 5.94174935 24.63590431 13.74768353 C28.42487698 24.16794541 27.2686953 36.06343193 26.86657095 46.97060132 C26.72812771 51.36337661 26.71605161 55.75655167 26.69001198 60.15117168 C26.62188291 68.45533202 26.44175004 76.75304772 26.2203232 85.05438107 C25.97358747 94.51187021 25.85326094 103.96968352 25.74302363 113.42959464 C25.5136462 132.87259922 25.12722922 152.30962181 24.63590431 171.74768353 C23.97557827 172.11976751 23.31525223 172.4918515 22.63491631 172.87521076 C19.6129328 174.57871878 16.59169866 176.28355161 13.57047462 177.98840618 C12.53174202 178.57368587 11.49300941 179.15896557 10.42280006 179.76198101 C2.38093113 184.30181006 -5.55079315 188.98825815 -13.40315819 193.84924603 C-14.28229881 194.38033978 -15.16143944 194.91143353 -16.06722069 195.45862103 C-16.82680077 195.92574505 -17.58638084 196.39286907 -18.3689785 196.87414837 C-20.36409569 197.74768353 -20.36409569 197.74768353 -23.36409569 196.74768353 C-23.36409569 145.26768353 -23.36409569 93.78768353 -23.36409569 40.74768353 C-30.29409569 36.78768353 -30.29409569 36.78768353 -37.36409569 32.74768353 C-35.71409569 31.09768353 -34.06409569 29.44768353 -32.36409569 27.74768353 C-31.64608788 27.01807415 -30.92808006 26.28846478 -30.18831444 25.53674603 C-26.14879136 21.44552887 -22.05969159 17.50680501 -17.67268944 13.79065228 C-15.77157035 12.10827447 -13.95887285 10.38903171 -12.14925194 8.61096478 C-11.57723045 8.05771526 -11.00520897 7.50446575 -10.4158535 6.9344511 C-9.27200302 5.82512166 -8.13938899 4.70406643 -7.01936913 3.57068157 C-2.97313971 -0.31731885 -2.97313971 -0.31731885 0 0 Z " fill="#158B8B" transform="translate(280.3640956878662,214.25231647491455)"/>
<path d="M0 0 C4.06136897 0.33515519 6.98980751 1.93226479 10.45703125 3.984375 C11.48763672 4.59023437 12.51824219 5.19609375 13.58007812 5.8203125 C14.64677734 6.45710937 15.71347656 7.09390625 16.8125 7.75 C18.39514648 8.68199219 18.39514648 8.68199219 20.00976562 9.6328125 C23.01535405 11.40807594 26.01445273 13.19121849 29 15 C29.66360881 15.24634658 30.32721762 15.49269316 31.01093578 15.74650478 C33.58422945 16.87997135 35.12586986 17.88384651 37 20 C38.24203334 24.95809953 38.07039273 29.90604493 38 34.97973633 C38.00760849 36.52727282 38.01872939 38.07479543 38.03309631 39.62228394 C38.06211029 43.81865382 38.04200029 48.01352035 38.0130806 52.2098372 C37.99119649 56.59682231 38.01447103 60.9835619 38.03295898 65.37052917 C38.06109565 73.67560497 38.0486092 81.98010333 38.02153492 90.28516263 C37.99268633 99.74104524 38.00911302 109.19667951 38.02934647 118.65256464 C38.06994903 138.10186285 38.05368277 157.55074503 38 177 C37.32500961 177.39333527 36.65001923 177.78667053 35.95457458 178.19192505 C32.84322822 180.00523512 29.73215956 181.81902114 26.62109375 183.6328125 C25.55967163 184.2513208 24.49824951 184.8698291 23.40466309 185.50708008 C16.22791153 189.69179893 9.06262617 193.89509508 1.92614746 198.14819336 C-2.89097959 201 -2.89097959 201 -4 201 C-4 148.86 -4 96.72 -4 43 C-5.65 42.34 -7.3 41.68 -9 41 C-10.71009756 40.08948724 -12.40372345 39.14754599 -14.08203125 38.1796875 C-15.01337891 37.64472656 -15.94472656 37.10976562 -16.90429688 36.55859375 C-17.86400391 36.00300781 -18.82371094 35.44742188 -19.8125 34.875 C-20.79154297 34.31167969 -21.77058594 33.74835938 -22.77929688 33.16796875 C-25.18789555 31.78155585 -27.59471395 30.39214945 -30 29 C-27.12644328 25.04885951 -23.85250602 22.0268109 -20.16699219 18.87353516 C-16.55486299 15.75056541 -13.09882645 12.46254276 -9.625 9.1875 C-8.91472656 8.52041016 -8.20445312 7.85332031 -7.47265625 7.16601562 C-3.69936626 3.62124093 -3.69936626 3.62124093 0 0 Z " fill="#DDF0F8" transform="translate(309,185)"/>
<path d="M0 0 C2.82004844 1.34603776 5.4700366 2.83238715 8.14892578 4.44165039 C9.21675293 5.07965576 10.28458008 5.71766113 11.38476562 6.375 C11.94927429 6.71433563 12.51378296 7.05367126 13.09539795 7.40328979 C16.13172296 9.22776902 19.17559442 11.03957185 22.21923828 12.85180664 C22.84338623 13.22369614 23.46753418 13.59558563 24.1105957 13.97874451 C30.22158165 17.61419332 36.37731981 21.17017019 42.54345703 24.71118164 C55.53481806 32.17714851 68.45895474 39.75461911 81.37841797 47.34399414 C86.46955462 50.33006895 91.56834294 53.30296672 96.66845703 56.27368164 C94.2785946 59.37468677 91.91567459 62.10014044 88.91845703 64.61743164 C84.71404789 68.21453724 80.68488146 71.96906084 76.66845703 75.77368164 C71.43627403 80.72994874 66.12485756 85.56463384 60.66845703 90.27368164 C59.86666016 89.81219727 59.06486328 89.35071289 58.23876953 88.87524414 C52.33768257 85.4898133 46.42600203 82.13001667 40.46728516 78.84692383 C31.64987208 73.98665166 22.93956495 68.95959525 14.25463867 63.86669922 C7.0330652 59.63726832 -0.22489778 55.47526364 -7.50115967 51.34088135 C-21.24268233 43.53148364 -34.81904352 35.47387919 -48.33154297 27.27368164 C-45.75846213 24.35759736 -42.81440023 22.6947669 -39.44091797 20.79711914 C-38.86364456 20.47001953 -38.28637115 20.14291992 -37.69160461 19.8059082 C-35.82422057 18.74874896 -33.95315966 17.69832652 -32.08154297 16.64868164 C-29.53181637 15.21391528 -26.98373304 13.77627544 -24.43701172 12.33618164 C-23.81503403 11.98478119 -23.19305634 11.63338074 -22.55223083 11.27133179 C-19.0905062 9.30553224 -15.68049 7.28243769 -12.31982422 5.14868164 C-11.63629883 4.7163623 -10.95277344 4.28404297 -10.24853516 3.83862305 C-8.52859897 2.73501997 -6.8220271 1.61066401 -5.11669922 0.48461914 C-2.33154297 -0.72631836 -2.33154297 -0.72631836 0 0 Z " fill="#3DC8C8" transform="translate(172.33154296875,150.726318359375)"/>
<path d="M0 0 C2.54174805 1.25244141 2.54174805 1.25244141 5.26171875 2.8515625 C6.28491211 3.44791504 7.30810547 4.04426758 8.36230469 4.65869141 C9.45961914 5.30757324 10.55693359 5.95645508 11.6875 6.625 C12.84624759 7.3033103 14.0054353 7.98086925 15.16503906 8.65771484 C17.57637168 10.06586562 19.98577349 11.47724269 22.39404297 12.890625 C26.9159803 15.54060446 31.46097223 18.15019082 36.00561523 20.76098633 C48.73099537 28.07216681 61.38490859 35.50032624 74 43 C72.6737226 45.97325963 71.26966888 47.94079346 68.875 50.13671875 C68.25568604 50.70962646 67.63637207 51.28253418 66.99829102 51.87280273 C66.33885498 52.47165283 65.67941895 53.07050293 65 53.6875 C64.32445068 54.30890869 63.64890137 54.93031738 62.95288086 55.57055664 C60.9744512 57.38692419 58.98866341 59.19484985 57 61 C56.03191406 61.88171875 55.06382812 62.7634375 54.06640625 63.671875 C52.45548148 65.12949803 50.83751132 66.57939197 49.2109375 68.01953125 C47.71081615 69.36327953 46.23724476 70.73715038 44.7890625 72.13671875 C44.09554687 72.79285156 43.40203125 73.44898438 42.6875 74.125 C42.09324219 74.70507812 41.49898438 75.28515625 40.88671875 75.8828125 C39 77 39 77 36.7109375 76.74804688 C33.70385173 75.91828185 31.42680958 74.72907304 28.73828125 73.1484375 C27.20397461 72.25415039 27.20397461 72.25415039 25.63867188 71.34179688 C24.54103516 70.69275391 23.44339844 70.04371094 22.3125 69.375 C21.15083078 68.69521082 19.98871307 68.01618752 18.82617188 67.33789062 C16.41182554 65.92841697 13.99944078 64.51567013 11.58837891 63.10058594 C6.07681434 59.86944489 0.5370176 56.68724998 -5 53.5 C-7.14206304 52.26455861 -9.28398931 51.02888006 -11.42578125 49.79296875 C-12.49521973 49.17599121 -13.5646582 48.55901367 -14.66650391 47.92333984 C-17.56503518 46.25096329 -20.46344956 44.57838453 -23.36178589 42.90567017 C-25.15066918 41.87326522 -26.93958717 40.84092044 -28.72851562 39.80859375 C-30.97337636 38.51314052 -33.2181719 37.2175743 -35.46289062 35.921875 C-40.63571774 32.93692086 -45.81145009 29.95754683 -51 27 C-48.16001025 23.93057061 -45.40137415 21.90081258 -41.73828125 19.8984375 C-40.70928711 19.3300415 -39.68029297 18.76164551 -38.62011719 18.17602539 C-37.52860352 17.58168701 -36.43708984 16.98734863 -35.3125 16.375 C-25.9444773 11.24706524 -25.9444773 11.24706524 -16.74609375 5.82421875 C-15.97676514 5.35387207 -15.20743652 4.88352539 -14.41479492 4.39892578 C-13.00778669 3.53031598 -11.60770893 2.65034203 -10.21606445 1.75732422 C-6.26805882 -0.66774067 -4.41612536 -1.3110565 0 0 Z " fill="#3EC9C9" transform="translate(262,101)"/>
<path d="M0 0 C4.83672448 2.25940885 9.37276546 4.94344657 13.953125 7.6796875 C16.11125961 8.95434407 18.27014456 10.2277309 20.4296875 11.5 C22.12206543 12.49821777 22.12206543 12.49821777 23.84863281 13.51660156 C29.6420357 16.9201494 35.48806784 20.23210718 41.328125 23.5546875 C51.39890646 29.28965319 61.4324144 35.08537377 71.42773438 40.95117188 C77.02039108 44.2290791 82.64510941 47.43588488 88.328125 50.5546875 C83.15954991 57.05232476 77.14771453 62.46264871 71.00634766 68.01171875 C69.37884527 69.50805495 67.79289295 71.03770095 66.21484375 72.5859375 C65.72717529 73.05539795 65.23950684 73.5248584 64.73706055 74.00854492 C63.4051441 75.29291765 62.08500064 76.58946679 60.765625 77.88671875 C58.328125 79.5546875 58.328125 79.5546875 55.9909668 79.3371582 C53.06676089 78.47788618 50.87842761 77.3024026 48.28515625 75.703125 C46.81840454 74.80871704 46.81840454 74.80871704 45.32202148 73.89624023 C44.27216064 73.24727783 43.2222998 72.59831543 42.140625 71.9296875 C39.87874345 70.55145936 37.61594381 69.17488414 35.3515625 67.80078125 C34.4808033 67.2711956 34.4808033 67.2711956 33.592453 66.73091125 C27.53795441 63.05684781 21.40841672 59.51633708 15.265625 55.9921875 C13.09890598 54.74748696 10.93223924 53.50269542 8.765625 52.2578125 C7.70085937 51.64615234 6.63609375 51.03449219 5.5390625 50.40429688 C-0.72733823 46.7946366 -6.9758635 43.15413602 -13.21313477 39.49438477 C-17.7700712 36.82098717 -22.33525861 34.17161363 -26.94921875 31.59765625 C-28.15372681 30.9166687 -28.15372681 30.9166687 -29.38256836 30.22192383 C-30.86479541 29.38525669 -32.35358235 28.56006319 -33.84985352 27.7487793 C-35.796875 26.640625 -35.796875 26.640625 -38.671875 24.5546875 C-38.671875 23.2346875 -38.671875 21.9146875 -38.671875 20.5546875 C-35.28268825 18.56397115 -31.8844734 16.5891998 -28.484375 14.6171875 C-27.52466797 14.05322266 -26.56496094 13.48925781 -25.57617188 12.90820312 C-24.64482422 12.37001953 -23.71347656 11.83183594 -22.75390625 11.27734375 C-21.90030518 10.77984619 -21.0467041 10.28234863 -20.16723633 9.76977539 C-17.64402843 8.54112793 -15.43608445 7.9724576 -12.671875 7.5546875 C-12.671875 6.8946875 -12.671875 6.2346875 -12.671875 5.5546875 C-10.6953125 3.9765625 -10.6953125 3.9765625 -8.046875 2.3046875 C-7.18835938 1.74265625 -6.32984375 1.180625 -5.4453125 0.6015625 C-2.671875 -0.4453125 -2.671875 -0.4453125 0 0 Z " fill="#FDFEFE" transform="translate(211.671875,127.4453125)"/>
<path d="M0 0 C2.91641403 1.87483759 4.99081885 4.2667313 7.1875 6.90625 C7.66388916 7.47811035 8.14027832 8.0499707 8.63110352 8.63916016 C37.42629781 43.9631426 52.67924919 87.52023794 52.5625 132.96875 C52.56268127 134.06919144 52.56268127 134.06919144 52.56286621 135.19186401 C52.53443131 147.4084569 51.43553674 159.05803075 48.72558594 171.00146484 C48.22683889 173.23043873 47.79430081 175.46059826 47.3828125 177.70703125 C40.62201645 212.55559799 20.34398007 244.07053348 -3.8125 269.40625 C-4.53953125 270.18613281 -5.2665625 270.96601563 -6.015625 271.76953125 C-19.39215865 285.71580615 -36.65340391 297.57823123 -53.8125 306.40625 C-54.4725 306.40625 -55.1325 306.40625 -55.8125 306.40625 C-57.4625 302.77625 -59.1125 299.14625 -60.8125 295.40625 C-59.74773437 294.80039062 -58.68296875 294.19453125 -57.5859375 293.5703125 C-15.82542173 269.57023864 14.57019582 235.36390133 30.1875 189.40625 C30.43725586 188.68937012 30.68701172 187.97249023 30.94433594 187.23388672 C46.08388036 143.14862526 41.22984696 93.43194705 20.93261719 51.83447266 C12.62990731 35.44786967 2.1133852 21.29822474 -9.8125 7.40625 C-8.85828192 6.25698734 -7.89897955 5.11194459 -6.9375 3.96875 C-6.40382813 3.33066406 -5.87015625 2.69257812 -5.3203125 2.03515625 C-2.63686548 -0.86380076 -2.63686548 -0.86380076 0 0 Z " fill="#FFB0A1" transform="translate(397.8125,123.59375)"/>
<path d="M0 0 C-1.47930193 3.96479572 -3.23647057 6.77588233 -6 10 C-10.5794893 8.64336934 -14.34697794 6.76488602 -18.4375 4.3125 C-35.20009701 -5.45585614 -53.02366659 -12.28460608 -72 -16.375 C-73.07362793 -16.6083606 -73.07362793 -16.6083606 -74.16894531 -16.84643555 C-118.58796223 -25.69482514 -165.49350263 -16.05424576 -204 7 C-205.31615213 7.92795943 -206.62194478 8.87088769 -207.9140625 9.83203125 C-211 12 -211 12 -214 12 C-215.60546875 9.8125 -215.60546875 9.8125 -217.1875 7 C-217.98220703 5.6078125 -217.98220703 5.6078125 -218.79296875 4.1875 C-219.19128906 3.465625 -219.58960938 2.74375 -220 2 C-151.58774933 -41.87014235 -69.00613304 -45.32300528 0 0 Z " fill="#FFB1A1" transform="translate(364,94)"/>
<path d="M0 0 C4.15546335 3.20564315 7.84381249 6.67703556 11.4140625 10.5234375 C40.19488675 40.72203634 86.18496483 58.16191078 127.23828125 59.24609375 C148.1332805 59.54756792 166.8103389 57.14786135 187 52 C188.33301437 51.66798758 189.66631621 51.33712559 191 51.0078125 C193.66889402 50.34688356 196.3355394 49.67852723 199 49 C199.50833591 50.24663331 200.00631145 51.49749387 200.5 52.75 C200.7784375 53.44609375 201.056875 54.1421875 201.34375 54.859375 C202 57 202 57 202 61 C196.65825179 63.45992153 191.39257434 65.09970464 185.6875 66.5 C184.91599609 66.69980469 184.14449219 66.89960938 183.34960938 67.10546875 C168.47780165 70.8086786 154.0041519 72.49992704 138.68652344 72.39111328 C136.00143681 72.37500862 133.31785454 72.39108218 130.6328125 72.41015625 C119.1306307 72.42429178 108.2659442 71.29032153 97 69 C95.544729 68.70996094 95.544729 68.70996094 94.06005859 68.4140625 C53.92832813 59.91989874 19.36600293 38.21134739 -9 9 C-6.21000549 5.51250686 -3.74764169 2.49842779 0 0 Z " fill="#FFB0A1" transform="translate(120,378)"/>
<path d="M0 0 C4.10958767 1.45044271 7.43258745 3.51110752 11 6 C10.6596875 6.6084375 10.319375 7.216875 9.96875 7.84375 C-14.42313224 51.95672853 -26.36959118 101.61210651 -12.75146484 151.45800781 C-8.80448679 164.80951381 -4.15869879 178.12185447 2.78808594 190.23095703 C5.13886544 194.47391362 5.13886544 194.47391362 4.390625 197.30859375 C2.32357939 199.82272507 -0.02033296 200.78380937 -3 202 C-3.99 202 -4.98 202 -6 202 C-31.5616032 156.98502085 -37.84153881 103.44698911 -24.53564453 53.52270508 C-19.23112448 34.69245536 -11.16147726 16.12782265 0 0 Z " fill="#FFB0A1" transform="translate(92,150)"/>
<path d="M0 0 C4.25790765 1.29386544 7.90413406 2.92188103 11.74609375 5.16015625 C12.82455566 5.785271 13.90301758 6.41038574 15.01416016 7.05444336 C16.1438623 7.71710205 17.27356445 8.37976074 18.4375 9.0625 C19.60443651 9.74199312 20.77159248 10.42110947 21.93896484 11.09985352 C30.33759664 15.99128947 38.69863846 20.94521055 47 26 C43.97211088 29.30927791 40.87732552 31.41331105 36.9765625 33.609375 C36.39393646 33.93987854 35.81131042 34.27038208 35.21102905 34.61090088 C33.35242396 35.6634345 31.48891532 36.70690476 29.625 37.75 C27.80631965 38.77632135 25.98867968 39.80446198 24.17132568 40.83312988 C22.95807157 41.51733766 21.74276911 42.1979259 20.52545166 42.87487793 C17.3615613 44.63817819 14.24742697 46.45058892 11.17480469 48.36914062 C10.24019913 48.93982269 10.24019913 48.93982269 9.28671265 49.52203369 C7.56077639 50.57945706 5.84710349 51.65682167 4.13427734 52.73535156 C1 54 1 54 -2.05224609 53.40478516 C-4.99388585 52.00291377 -7.81609614 50.53536493 -10.625 48.8828125 C-11.66140625 48.27566406 -12.6978125 47.66851562 -13.765625 47.04296875 C-14.83296875 46.41003906 -15.9003125 45.77710938 -17 45.125 C-18.06734375 44.49980469 -19.1346875 43.87460938 -20.234375 43.23046875 C-25.24919729 40.28020638 -30.21249955 37.30802982 -35 34 C-30.60787269 28.68538827 -25.92852825 23.93395294 -20.875 19.25 C-20.13451416 18.55841797 -19.39402832 17.86683594 -18.63110352 17.15429688 C-12.45689237 11.39694669 -6.24550099 5.67991612 0 0 Z " fill="#3EC8C8" transform="translate(346,151)"/>
<path d="M0 0 C4.08086095 0.33315824 7.01362115 1.95104054 10.4921875 4.01953125 C12.04486328 4.93508789 12.04486328 4.93508789 13.62890625 5.86914062 C15.23572266 6.83110352 15.23572266 6.83110352 16.875 7.8125 C18.99730589 9.06916233 21.11969949 10.32567655 23.2421875 11.58203125 C24.73250488 12.46882568 24.73250488 12.46882568 26.25292969 13.37353516 C29.48217714 15.28548384 32.73344974 17.15267742 36 19 C34.63823825 23.08528525 32.78559446 23.53901427 29.05859375 25.6171875 C28.45749283 25.95622101 27.85639191 26.29525452 27.23707581 26.64456177 C25.30862811 27.73009992 23.37345578 28.80291905 21.4375 29.875 C19.53259918 30.93985139 17.62918988 32.00729776 15.72671509 33.07647705 C14.49487589 33.76734426 13.2611383 34.45483799 12.02548218 35.13885498 C8.73810551 36.96884355 5.61825766 38.9177201 2.53515625 41.0703125 C-0.10490066 42.70888402 -1.03878807 43.00262892 -4.28515625 43.22265625 C-9.81083911 41.40400353 -14.50453915 38.4832904 -19.4375 35.4375 C-20.45521484 34.82197266 -21.47292969 34.20644531 -22.52148438 33.57226562 C-25.02088975 32.05854124 -27.51320619 30.53432347 -30 29 C-27.12644328 25.04885951 -23.85250602 22.0268109 -20.16699219 18.87353516 C-16.55486299 15.75056541 -13.09882645 12.46254276 -9.625 9.1875 C-8.91472656 8.52041016 -8.20445312 7.85332031 -7.47265625 7.16601562 C-3.69936626 3.62124093 -3.69936626 3.62124093 0 0 Z " fill="#FDFEFD" transform="translate(309,185)"/>
<path d="M0 0 C2.95178582 0.92379762 5.29202123 2.17199386 7.94140625 3.76782227 C8.91787109 4.35112305 9.89433594 4.93442383 10.90039062 5.53540039 C11.90779297 6.14706055 12.91519531 6.7587207 13.953125 7.38891602 C14.97986328 8.00444336 16.00660156 8.6199707 17.06445312 9.25415039 C19.59383006 10.77177655 22.11895712 12.29602666 24.640625 13.82641602 C22.27072128 16.31575872 20.12317441 18.33317833 17.0859375 19.94750977 C16.05581543 20.50571411 16.05581543 20.50571411 15.00488281 21.07519531 C13.8964502 21.66361206 13.8964502 21.66361206 12.765625 22.26391602 C7.34845103 25.18141896 2.01265769 28.17589957 -3.2265625 31.40454102 C-4.20512207 32.00339111 -5.18368164 32.60224121 -6.19189453 33.21923828 C-8.10997008 34.39913563 -10.02013121 35.59201453 -11.92138672 36.79882812 C-18.47379193 40.80294273 -18.47379193 40.80294273 -22.6015625 40.91235352 C-25.86119711 39.62881468 -28.74417918 38.09125791 -31.734375 36.26391602 C-33.32378906 35.30291992 -33.32378906 35.30291992 -34.9453125 34.32250977 C-35.74195313 33.82879883 -36.53859375 33.33508789 -37.359375 32.82641602 C-36.25325502 31.72029603 -35.1467459 30.61456412 -34.0390625 29.51000977 C-32.78919766 28.25723826 -31.54534749 26.99846028 -30.3046875 25.73657227 C-26.22348611 21.60594456 -22.09880767 17.62267086 -17.66796875 13.86938477 C-15.76684966 12.18700696 -13.95415217 10.4677642 -12.14453125 8.68969727 C-11.57250977 8.13644775 -11.00048828 7.58319824 -10.41113281 7.01318359 C-9.26728233 5.90385415 -8.1346683 4.78279892 -7.01464844 3.64941406 C-2.98793997 -0.21982878 -2.98793997 -0.21982878 0 0 Z " fill="#3EC8C7" transform="translate(280.359375,214.173583984375)"/>
<path d="M0 0 C1.13199353 0.9080162 2.25532363 1.82683826 3.375 2.75 C4.00148437 3.26046875 4.62796875 3.7709375 5.2734375 4.296875 C7.08312318 6.08199481 8.00117455 7.67949644 9 10 C8.3709375 10.54527344 7.741875 11.09054688 7.09375 11.65234375 C1.28489688 16.77008332 -3.99918696 22.09121811 -9 28 C-12.92300272 26.17495091 -15.73787272 23.81729174 -19 21 C-13.57499556 13.09499354 -6.84261278 6.65987238 0 0 Z " fill="#FFB0A1" transform="translate(125,111)"/>
</svg>
