<svg width="158" height="168" viewBox="0 0 158 168" fill="none" xmlns="http://www.w3.org/2000/svg">
<path d="M57.6419 67.5351C57.6206 67.6765 57.649 67.821 57.7222 67.9438C57.7955 68.0667 57.9091 68.1603 58.0437 68.2088C58.6927 68.3077 59.4839 68.4128 60.3617 68.5364C62.9763 62.8621 65.6466 58.3931 64.8925 60.1609C63.7406 62.9382 62.9853 65.8638 62.6487 68.8517C63.6686 68.9876 66.0484 69.2782 67.2352 69.4203C69.9672 59.2955 72.9775 51.8534 72.6252 54.1899C71.1911 63.6162 71.4445 66.6944 71.7721 69.989C82.855 71.3365 97.4117 72.9313 107.963 73.8399C109.688 68.2768 111.301 62.1945 111.449 62.6396C112.605 65.9465 112.58 70.6195 112.29 74.2046C115.652 74.4704 118.347 74.6125 119.998 74.6125C119.998 74.6125 121.234 69.9025 121.457 68.3448C122.118 64.3592 122.081 60.2888 121.345 56.3162C120.585 52.2613 118.966 48.6144 117.451 44.8872C117.447 44.8641 117.44 44.8414 117.433 44.8192C116.428 42.3773 115.707 39.8285 115.282 37.2225C115.277 37.2021 115.277 37.1811 115.282 37.1607C114.999 35.2602 114.877 33.3393 114.917 31.4183C115.053 24.3841 111.9 18.0608 105.911 15.7737C95.681 5.32133 81.6312 10.1179 77.6628 18.9571C76.1113 22.9192 74.5722 28.0929 73.2309 32.0797C73.2347 32.0863 73.2367 32.0938 73.2367 32.1014C73.2367 32.109 73.2347 32.1164 73.2309 32.123C72.7248 33.6868 72.1241 35.2185 71.4322 36.7094C67.7544 43.8302 60.6707 47.5018 57.6419 67.5351Z" fill="#263238"/>
<path d="M108.377 17.8503C112.216 20.3908 114.404 23.8585 114.559 29.0136C114.657 32.0176 114.559 34.9413 115.405 37.828C116.252 40.8073 117.785 43.3169 119.374 45.8202C121.889 49.8009 123.546 53.7074 123.54 58.7513C123.534 63.7952 122.773 69.8775 120.74 74.5072C120.74 74.5381 120.69 74.5072 120.703 74.5072C122.433 69.7786 123.064 63.1152 122.712 58.0096C122.322 52.397 119.701 48.7007 117.068 44.2688C114.946 40.7506 113.773 36.7426 113.662 32.6357C113.588 30.0891 113.86 27.4621 113.118 25.0143C112.241 22.0968 110.139 20.125 108.037 18.3634C107.759 18.1099 108.087 17.6587 108.377 17.8503Z" fill="#263238"/>
<path d="M63.8789 44.0838C67.0808 40.3194 70.3506 37.1485 72.4646 32.3395C74.3869 27.957 75.6788 23.2779 77.6259 18.9078C77.6259 18.8336 77.7557 18.8707 77.7248 18.951C74.6342 26.7393 73.4474 34.7378 68.045 41.0859C65.1028 44.535 62.1914 47.7183 60.0775 51.9524C57.9158 56.4178 56.5638 61.2314 56.0844 66.1692C56.0844 66.3423 55.8557 66.3175 55.8557 66.1692C55.8527 58.0935 58.6932 50.2745 63.8789 44.0838Z" fill="#263238"/>
<path d="M32.7503 140.01C32.7503 140.01 62.5869 148.045 67.5195 147.18C72.4521 146.314 89.1043 123.901 92.8006 115.773C96.497 107.645 102.635 67.2075 101.454 62.7571C100.274 58.3066 94.0987 58.2448 88.8879 69.7171C83.6772 81.1894 71.3581 106.409 69.1637 108.486C66.9694 110.562 30.3458 137.859 32.7503 140.01Z" fill="#F1AEA6"/>
<path d="M64.9298 144.522C60.3557 142.13 54.7864 136.326 50.9912 135.72C50.0628 135.538 49.1006 135.66 48.2468 136.067C47.393 136.475 46.693 137.146 46.2502 137.982C46.2502 137.982 44.5071 134.107 40.9715 134.125C39.1604 134.125 37.578 137.043 37.578 137.043C37.578 137.043 36.0389 133.995 32.905 134.205C30.4016 134.372 29.1963 137.265 29.1963 137.265C29.1963 137.265 26.3653 135.028 23.8681 136.029C18.8119 138.025 17.9712 159.517 25.7595 163.152C29.3879 164.846 29.3075 159.585 29.3075 159.585C29.3075 159.585 31.2484 167.126 35.6742 167.411C40.0999 167.695 39.5869 160.871 39.5869 160.871C39.5869 160.871 41.5339 168.159 46.1513 167.992C50.9603 167.825 49.279 161.081 49.279 161.081C49.279 161.081 52.3325 165.989 55.8372 165.05C61.629 163.504 55.4045 151.871 56.715 147.192H63.9902L64.9298 144.522Z" fill="#F1AEA6"/>
<path d="M58.3282 139.948C62.859 141.839 68.0265 134.687 72.6871 136.35C78.7323 138.507 73.1445 145.968 63.984 147.18H56.7087L58.3282 139.948Z" fill="#F1AEA6"/>
<path d="M28.9304 137.692C28.9304 137.677 28.9245 137.663 28.9141 137.653C28.9037 137.642 28.8895 137.636 28.8748 137.636C28.86 137.636 28.8459 137.642 28.8354 137.653C28.825 137.663 28.8191 137.677 28.8191 137.692C26.8226 144.695 26.767 153.003 29.2703 159.889C29.3507 160.111 29.7587 160.08 29.7154 159.814C28.4915 152.199 28.0094 145.363 28.9304 137.692Z" fill="#263238"/>
<path d="M37.5346 136.919C37.5346 136.832 37.4048 136.814 37.3801 136.919C35.3588 144.151 35.5257 153.503 39.3766 161.106C39.5064 161.365 39.8896 161.464 39.7598 161.155C37.6026 155.914 36.6692 143.835 37.5346 136.919Z" fill="#263238"/>
<path d="M49.7239 161.533C46.3428 154.115 45.6814 146.345 46.1512 138.273C46.1512 138.168 46.0091 138.168 45.9781 138.273C44.6739 142.161 44.915 147.334 45.4404 151.346C45.8514 155.069 47.2303 158.619 49.4396 161.644C49.5509 161.774 49.7981 161.693 49.7239 161.533Z" fill="#263238"/>
<path d="M73.0456 135.782C70.0786 134.793 67.0313 137.166 64.5341 138.495C63.7348 138.971 62.8925 139.37 62.0183 139.688C60.0404 140.306 58.5754 139.911 57.6915 139.36C56.3069 138.477 51.9863 134.162 48.8647 135.596C47.7879 136.1 46.8658 136.883 46.1945 137.865C45.2426 136.134 44.0249 134.249 41.9171 133.902C41.4527 133.824 40.9768 133.844 40.5209 133.962C40.0649 134.081 39.6391 134.294 39.2715 134.589C38.8787 134.892 38.5293 135.247 38.2331 135.646C37.9395 136.003 37.6982 136.401 37.5161 136.826C37.5153 136.812 37.5153 136.797 37.5161 136.783L37.4481 136.653L37.3183 136.387C37.1419 136.031 36.891 135.717 36.5827 135.466C36.524 135.406 36.4537 135.359 36.3762 135.327C36.2986 135.295 36.2153 135.28 36.1315 135.281C36.1184 135.281 36.1058 135.286 36.0965 135.295C36.0872 135.305 36.082 135.317 36.082 135.33C36.082 135.343 36.0872 135.356 36.0965 135.365C36.1058 135.375 36.1184 135.38 36.1315 135.38C36.2762 135.449 36.3937 135.564 36.4653 135.707C36.5642 135.856 36.6569 136.01 36.762 136.152C36.867 136.295 36.9659 136.443 37.071 136.585L37.2256 136.814L37.2935 136.931C37.3233 136.969 37.3564 137.004 37.3924 137.036C37.4011 137.048 37.4123 137.057 37.4252 137.064C37.438 137.07 37.4522 137.073 37.4666 137.073C37.481 137.073 37.4952 137.07 37.5081 137.064C37.521 137.057 37.5322 137.048 37.5408 137.036C37.8588 136.754 38.1467 136.439 38.4 136.097C38.7114 135.735 39.0571 135.403 39.4322 135.108C39.7886 134.832 40.1989 134.635 40.6366 134.528C41.0744 134.422 41.5296 134.409 41.9727 134.49C43.8642 134.861 45.0633 136.542 46.0708 138.044C46.0708 138.044 46.0708 138.044 46.1018 138.044C46.0708 138.093 46.1388 138.137 46.1759 138.1C47.2144 137.191 48.2034 136.171 49.6374 135.961C51.1827 135.732 52.6476 136.474 53.9272 137.253C54.568 137.63 55.1871 138.042 55.7815 138.489C56.3069 138.897 56.8076 139.354 57.3701 139.725C59.7745 141.24 62.4078 140.065 63.063 139.787C64.3551 139.205 65.6083 138.54 66.8149 137.797C68.0277 136.983 69.3956 136.43 70.8327 136.171C71.4925 136.074 72.1662 136.145 72.7909 136.379C73.4156 136.612 73.9711 137 74.4055 137.506C74.8567 138.087 75.4315 139.175 74.2509 141.654C74.2509 141.654 74.2509 141.703 74.288 141.685C74.9061 141.042 76.8717 137.061 73.0456 135.782Z" fill="#263238"/>
<path d="M99.1116 100.314L70.9563 95.8138C70.9563 95.8138 84.4066 69.1791 92.4854 61.4526C100.459 53.825 104.341 61.638 103.167 73.4194C101.868 86.4802 99.1116 100.314 99.1116 100.314Z" fill="#72C0CE"/>
<path d="M98.1968 95.0722C97.4056 94.8867 96.5959 94.7693 95.8047 94.59C95.0135 94.4108 94.2532 94.2995 93.4744 94.1821C91.8858 93.9348 90.2911 93.7123 88.7025 93.496C85.5625 93.0633 82.4224 92.5873 79.27 92.2597C77.4775 92.0619 75.6973 91.79 73.8986 91.6416C73.8429 91.6416 73.8368 91.7281 73.8986 91.7405C77.0201 92.4699 80.1972 92.9767 83.362 93.5269C86.5267 94.077 89.6421 94.522 92.7945 94.862C93.6784 94.9609 94.5685 95.0722 95.4524 95.1154C96.3363 95.1587 97.2758 95.2452 98.1845 95.2576C98.2091 95.2592 98.2333 95.251 98.2518 95.2348C98.2704 95.2186 98.2817 95.1956 98.2834 95.1711C98.285 95.1465 98.2768 95.1222 98.2606 95.1037C98.2444 95.0852 98.2214 95.0738 98.1968 95.0722Z" fill="#263238"/>
<path d="M83.4364 147.427H158C158 147.427 127.008 70.5082 111.252 59.2708C106.523 55.8958 98.9883 55.5188 93.9073 62.2934C89.7412 67.8565 78.1762 89.9542 77.6508 97.9032C77.1254 105.852 83.3622 113.709 83.3622 113.709L83.4364 147.427Z" fill="#72C0CE"/>
<path d="M108.124 95.3069C108.316 95.2574 108.501 95.2327 108.687 95.1956C108.85 95.1586 109.02 95.1587 109.183 95.1961C109.347 95.2335 109.5 95.3071 109.631 95.4116C109.762 95.516 109.868 95.6486 109.941 95.7996C110.014 95.9505 110.052 96.1159 110.053 96.2835C110.048 96.4327 110.082 96.5805 110.151 96.7126C110.22 96.8447 110.323 96.9567 110.448 97.0376C110.588 97.1258 110.747 97.1808 110.912 97.1983C111.101 97.2259 111.289 97.263 111.474 97.3096C111.289 97.3591 111.103 97.3838 110.912 97.4209C110.705 97.462 110.49 97.4427 110.294 97.3652C110.085 97.276 109.907 97.1268 109.782 96.9365C109.658 96.7461 109.593 96.5232 109.595 96.2959C109.592 96.1473 109.551 96.002 109.476 95.8735C109.402 95.7449 109.296 95.6372 109.169 95.5603C109.022 95.4802 108.86 95.4318 108.693 95.4181C108.501 95.3811 108.316 95.3563 108.124 95.3069Z" fill="white"/>
<path d="M79.6038 95.3069C79.7892 95.2574 79.9746 95.2327 80.1601 95.1956C80.3236 95.1586 80.4933 95.1587 80.6568 95.1961C80.8202 95.2335 80.9731 95.3071 81.1043 95.4116C81.2354 95.516 81.3415 95.6486 81.4145 95.7996C81.4875 95.9505 81.5256 96.1159 81.5261 96.2835C81.5227 96.4331 81.5579 96.5811 81.6282 96.7132C81.6986 96.8453 81.8018 96.957 81.9279 97.0376C82.0673 97.1277 82.2263 97.1828 82.3915 97.1983C82.5769 97.2354 82.7624 97.254 82.9478 97.3096C82.7624 97.3591 82.5769 97.3838 82.3915 97.4209C82.1843 97.461 81.97 97.4417 81.7734 97.3652C81.5657 97.274 81.3891 97.1244 81.2651 96.9345C81.141 96.7446 81.0749 96.5227 81.0749 96.2959C81.0714 96.1473 81.0304 96.002 80.9559 95.8735C80.8813 95.7449 80.7756 95.6372 80.6484 95.5603C80.5018 95.4794 80.3394 95.4309 80.1724 95.4181C79.9746 95.3811 79.7892 95.3563 79.6038 95.3069Z" fill="white"/>
<path d="M118.484 132.357C118.669 132.308 118.861 132.283 119.046 132.246C119.21 132.211 119.379 132.213 119.541 132.252C119.704 132.29 119.856 132.365 119.986 132.47C120.116 132.574 120.222 132.707 120.294 132.857C120.367 133.008 120.405 133.173 120.406 133.34C120.404 133.489 120.44 133.637 120.51 133.768C120.581 133.9 120.683 134.012 120.808 134.094C120.948 134.18 121.107 134.233 121.271 134.249C121.457 134.286 121.648 134.31 121.834 134.36C121.648 134.416 121.457 134.44 121.271 134.477C121.064 134.516 120.849 134.495 120.653 134.416C120.444 134.326 120.266 134.177 120.14 133.987C120.015 133.797 119.948 133.574 119.949 133.346C119.948 133.198 119.908 133.053 119.833 132.925C119.758 132.797 119.651 132.69 119.522 132.617C119.379 132.533 119.218 132.484 119.052 132.475C118.861 132.438 118.669 132.413 118.484 132.357Z" fill="white"/>
<path d="M131.378 97.3095C131.563 97.2539 131.755 97.2353 131.94 97.1982C132.103 97.161 132.273 97.1611 132.436 97.1985C132.599 97.2359 132.752 97.3097 132.882 97.4142C133.013 97.5188 133.119 97.6515 133.191 97.8024C133.263 97.9534 133.301 98.1187 133.3 98.2861C133.298 98.4355 133.333 98.5831 133.404 98.715C133.474 98.8468 133.577 98.9587 133.702 99.0402C133.841 99.13 134 99.1831 134.165 99.1948C134.351 99.238 134.542 99.2566 134.728 99.3122C134.542 99.3617 134.351 99.3864 134.165 99.4235C133.958 99.465 133.744 99.4457 133.547 99.3678C133.338 99.2782 133.16 99.1291 133.034 98.939C132.909 98.7489 132.842 98.5262 132.843 98.2985C132.841 98.1494 132.802 98.0032 132.727 97.8742C132.652 97.7453 132.545 97.638 132.416 97.5629C132.272 97.4819 132.111 97.4334 131.946 97.4208C131.755 97.359 131.563 97.359 131.378 97.3095Z" fill="white"/>
<path d="M98.4131 78.4634C98.6047 78.4139 98.7901 78.3892 98.9756 78.3521C99.1815 78.307 99.3961 78.3221 99.5937 78.3954C99.8083 78.4755 99.9935 78.6188 100.125 78.8065C100.256 78.9941 100.327 79.2172 100.329 79.4462C100.329 79.5953 100.365 79.7422 100.435 79.8738C100.505 80.0054 100.607 80.1176 100.731 80.2003C100.873 80.2837 101.031 80.3364 101.195 80.3548C101.386 80.3919 101.572 80.4167 101.757 80.4661C101.572 80.5217 101.386 80.5403 101.195 80.5835C100.987 80.6194 100.773 80.598 100.577 80.5217C100.364 80.4313 100.184 80.2792 100.06 80.0852C99.9353 79.8912 99.872 79.6643 99.878 79.4338C99.8752 79.2859 99.8345 79.1412 99.7598 79.0136C99.6852 78.8859 99.579 78.7794 99.4515 78.7045C99.3062 78.6194 99.1434 78.5687 98.9756 78.5561C98.7901 78.5376 98.6047 78.519 98.4131 78.4634Z" fill="white"/>
<path d="M118.706 78.0369C118.891 77.9875 119.077 77.9627 119.269 77.9256C119.475 77.8823 119.689 77.8972 119.887 77.9689C120.101 78.0502 120.286 78.1936 120.418 78.3809C120.55 78.5681 120.624 78.7906 120.628 79.0197C120.626 79.1692 120.661 79.317 120.731 79.449C120.802 79.5809 120.905 79.6928 121.03 79.7738C121.171 79.8608 121.329 79.9138 121.494 79.9283C121.679 79.9654 121.865 79.9902 122.056 80.0396C121.865 80.0953 121.679 80.12 121.494 80.1571C121.286 80.1963 121.071 80.1748 120.876 80.0952C120.666 80.0056 120.488 79.8565 120.363 79.6664C120.237 79.4763 120.171 79.2536 120.171 79.0259C120.169 78.8779 120.128 78.733 120.054 78.6052C119.979 78.4774 119.872 78.3711 119.744 78.2965C119.601 78.2127 119.44 78.164 119.275 78.1543C119.083 78.1249 118.893 78.0857 118.706 78.0369Z" fill="white"/>
<path d="M105.571 58.56C105.756 58.5105 105.948 58.4858 106.134 58.4487C106.297 58.4115 106.466 58.4116 106.629 58.449C106.793 58.4864 106.945 58.5601 107.076 58.6647C107.207 58.7693 107.312 58.902 107.384 59.0529C107.457 59.2039 107.494 59.3692 107.493 59.5366C107.49 59.6862 107.525 59.8342 107.596 59.9663C107.666 60.0984 107.769 60.2101 107.895 60.2907C108.035 60.3799 108.194 60.435 108.359 60.4514C108.544 60.4885 108.736 60.5071 108.921 60.5627C108.736 60.6121 108.544 60.6369 108.359 60.6739C108.152 60.7155 107.937 60.6961 107.741 60.6183C107.531 60.5287 107.353 60.3796 107.228 60.1895C107.102 59.9994 107.036 59.7766 107.036 59.549C107.035 59.3999 106.995 59.2537 106.92 59.1247C106.845 58.9958 106.738 58.8885 106.609 58.8134C106.465 58.7324 106.305 58.6839 106.14 58.6712C105.948 58.6342 105.756 58.6094 105.571 58.56Z" fill="white"/>
<path d="M93.4375 110.81C93.6229 110.76 93.8084 110.736 93.9938 110.699C94.1997 110.653 94.4144 110.668 94.6119 110.742C94.8267 110.821 95.0125 110.963 95.1449 111.149C95.2774 111.336 95.3501 111.558 95.3537 111.786C95.3503 111.936 95.3854 112.084 95.4558 112.216C95.5262 112.348 95.6294 112.46 95.7554 112.541C95.8948 112.631 96.0538 112.686 96.219 112.701C96.4045 112.738 96.5899 112.763 96.7753 112.813C96.5899 112.868 96.4045 112.887 96.219 112.924C96.0119 112.964 95.7976 112.945 95.6009 112.868C95.3933 112.777 95.2166 112.627 95.0926 112.437C94.9686 112.248 94.9025 112.026 94.9024 111.799C94.8989 111.65 94.858 111.505 94.7834 111.376C94.7089 111.248 94.6031 111.14 94.4759 111.063C94.3289 110.983 94.1668 110.935 94 110.921C93.8084 110.884 93.6229 110.865 93.4375 110.81Z" fill="white"/>
<path d="M115.578 144.763C115.764 144.707 115.955 144.682 116.141 144.645C116.304 144.61 116.474 144.612 116.636 144.651C116.799 144.69 116.951 144.764 117.081 144.869C117.211 144.974 117.316 145.106 117.389 145.257C117.462 145.407 117.5 145.572 117.501 145.739C117.499 145.889 117.535 146.036 117.605 146.168C117.675 146.3 117.778 146.412 117.903 146.494C118.042 146.582 118.201 146.635 118.366 146.648C118.552 146.685 118.743 146.71 118.929 146.759C118.743 146.815 118.552 146.84 118.366 146.877C118.158 146.916 117.944 146.894 117.748 146.815C117.538 146.726 117.359 146.577 117.234 146.387C117.109 146.197 117.042 145.974 117.043 145.746C117.042 145.597 117.002 145.452 116.928 145.324C116.853 145.196 116.746 145.09 116.617 145.016C116.474 144.932 116.313 144.884 116.147 144.874C115.937 144.837 115.745 144.812 115.578 144.763Z" fill="white"/>
<path d="M104.669 126.516C104.854 126.466 105.04 126.442 105.225 126.404C105.431 126.362 105.645 126.377 105.843 126.448C106.058 126.528 106.244 126.671 106.377 126.858C106.509 127.046 106.582 127.269 106.585 127.499C106.582 127.648 106.617 127.796 106.688 127.928C106.758 128.06 106.861 128.172 106.987 128.253C107.126 128.341 107.286 128.394 107.45 128.407C107.636 128.444 107.821 128.469 108.013 128.518C107.821 128.574 107.636 128.593 107.45 128.636C107.242 128.671 107.029 128.649 106.832 128.574C106.624 128.483 106.448 128.333 106.324 128.143C106.2 127.953 106.134 127.732 106.134 127.505C106.13 127.357 106.088 127.213 106.014 127.085C105.939 126.958 105.834 126.851 105.707 126.775C105.563 126.688 105.399 126.639 105.231 126.633C105.07 126.59 104.854 126.571 104.669 126.516Z" fill="white"/>
<path d="M84.5117 129.836C84.7033 129.78 84.8888 129.755 85.0742 129.718C85.2377 129.683 85.4069 129.685 85.5695 129.724C85.7321 129.763 85.8841 129.837 86.0143 129.942C86.1445 130.047 86.2498 130.179 86.3224 130.33C86.395 130.48 86.4332 130.645 86.4341 130.812C86.4324 130.962 86.4684 131.109 86.5386 131.241C86.6088 131.372 86.711 131.484 86.8359 131.566C86.9754 131.655 87.1346 131.708 87.2994 131.721C87.4911 131.758 87.6765 131.783 87.8619 131.832C87.6765 131.881 87.4888 131.92 87.2994 131.95C87.0917 131.988 86.8772 131.967 86.6813 131.888C86.4715 131.799 86.2927 131.65 86.1674 131.46C86.042 131.269 85.9756 131.046 85.9767 130.818C85.9757 130.671 85.9364 130.526 85.8627 130.398C85.7891 130.27 85.6835 130.164 85.5563 130.089C85.4105 130.006 85.2478 129.958 85.0804 129.947C84.8888 129.91 84.7033 129.885 84.5117 129.836Z" fill="white"/>
<path d="M113.947 111.255C114.132 111.205 114.317 111.18 114.503 111.143C114.667 111.109 114.836 111.111 114.999 111.149C115.162 111.188 115.314 111.262 115.445 111.367C115.576 111.472 115.681 111.604 115.755 111.755C115.828 111.905 115.867 112.07 115.869 112.237C115.866 112.387 115.902 112.535 115.972 112.667C116.042 112.799 116.145 112.91 116.271 112.992C116.41 113.08 116.57 113.133 116.734 113.146C116.92 113.183 117.105 113.208 117.291 113.257C117.105 113.313 116.92 113.331 116.734 113.375C116.527 113.413 116.312 113.391 116.116 113.313C115.908 113.222 115.732 113.072 115.608 112.882C115.484 112.692 115.418 112.47 115.418 112.244C115.414 112.096 115.373 111.952 115.298 111.824C115.223 111.697 115.118 111.59 114.991 111.514C114.847 111.429 114.683 111.38 114.515 111.372C114.342 111.329 114.132 111.31 113.947 111.255Z" fill="white"/>
<path d="M139.716 136.233C139.902 136.183 140.093 136.159 140.279 136.122C140.484 136.077 140.699 136.092 140.897 136.165C141.111 136.245 141.296 136.388 141.428 136.576C141.559 136.764 141.63 136.987 141.632 137.216C141.632 137.365 141.668 137.512 141.738 137.643C141.808 137.775 141.91 137.887 142.034 137.97C142.176 138.053 142.334 138.106 142.498 138.124C142.689 138.161 142.875 138.186 143.06 138.236C142.875 138.291 142.689 138.31 142.498 138.353C142.333 138.383 142.164 138.377 142.003 138.334C141.841 138.29 141.691 138.212 141.564 138.103C141.437 137.995 141.335 137.86 141.267 137.707C141.199 137.555 141.165 137.389 141.169 137.222C141.168 137.074 141.128 136.928 141.053 136.8C140.978 136.672 140.871 136.566 140.742 136.493C140.6 136.407 140.439 136.356 140.272 136.344C140.093 136.301 139.902 136.301 139.716 136.233Z" fill="white"/>
<path d="M129.486 120.984C129.672 120.934 129.863 120.91 130.049 120.872C130.212 120.838 130.381 120.84 130.544 120.878C130.706 120.917 130.858 120.991 130.989 121.096C131.119 121.201 131.224 121.333 131.297 121.484C131.369 121.635 131.408 121.799 131.408 121.967C131.406 122.116 131.441 122.264 131.511 122.396C131.582 122.528 131.685 122.64 131.81 122.721C131.949 122.81 132.109 122.863 132.274 122.875C132.459 122.912 132.651 122.937 132.836 122.986C132.651 123.042 132.459 123.067 132.274 123.104C132.066 123.143 131.852 123.122 131.656 123.042C131.446 122.953 131.267 122.804 131.142 122.614C131.016 122.424 130.95 122.201 130.951 121.973C130.95 121.824 130.91 121.679 130.835 121.551C130.76 121.423 130.653 121.317 130.525 121.243C130.381 121.16 130.22 121.111 130.055 121.101C129.863 121.064 129.672 121.039 129.486 120.984Z" fill="white"/>
<path d="M151.232 143.205C151.423 143.155 151.609 143.131 151.794 143.094C151.958 143.059 152.127 143.061 152.289 143.099C152.452 143.138 152.604 143.213 152.734 143.317C152.865 143.422 152.97 143.555 153.042 143.705C153.115 143.856 153.153 144.021 153.154 144.188C153.152 144.337 153.188 144.484 153.259 144.616C153.329 144.748 153.431 144.86 153.556 144.942C153.695 145.031 153.855 145.084 154.019 145.096C154.211 145.133 154.396 145.158 154.582 145.208C154.397 145.256 154.209 145.295 154.019 145.325C153.812 145.364 153.597 145.342 153.401 145.263C153.192 145.175 153.013 145.026 152.889 144.835C152.764 144.645 152.7 144.421 152.703 144.194C152.699 144.046 152.658 143.902 152.583 143.775C152.509 143.647 152.403 143.54 152.276 143.465C152.13 143.382 151.968 143.333 151.8 143.322C151.609 143.285 151.429 143.261 151.232 143.205Z" fill="white"/>
<path d="M100.125 88.9899C100.033 89.1568 99.9153 89.3052 99.8102 89.4659C99.7204 89.6076 99.5998 89.7274 99.4575 89.8162C99.3151 89.9051 99.1546 89.9608 98.9878 89.9792C98.821 89.9976 98.6522 89.9782 98.4939 89.9225C98.3356 89.8669 98.1918 89.7763 98.0733 89.6575C97.9702 89.5494 97.8408 89.4698 97.6979 89.4264C97.5549 89.3831 97.4031 89.3775 97.2573 89.4103C97.0959 89.4464 96.9454 89.5205 96.8185 89.6266C96.6656 89.7402 96.5067 89.8454 96.3425 89.9418C96.4414 89.7749 96.5527 89.6266 96.6578 89.4659C96.779 89.2883 96.9484 89.1489 97.1461 89.0641C97.355 88.982 97.5834 88.9628 97.8031 89.0089C98.0227 89.0551 98.2241 89.1645 98.3823 89.3237C98.4895 89.427 98.6213 89.501 98.7652 89.5389C98.9091 89.5768 99.0603 89.5772 99.2044 89.5401C99.3649 89.4963 99.513 89.4159 99.6371 89.3052C99.8349 89.2001 99.9833 89.0826 100.125 88.9899Z" fill="white"/>
<path d="M92.6647 76.4733C92.572 76.6402 92.4546 76.7886 92.3495 76.9493C92.2597 77.091 92.1391 77.2108 91.9968 77.2996C91.8544 77.3885 91.6939 77.4442 91.5271 77.4626C91.3603 77.481 91.1915 77.4616 91.0332 77.4059C90.8749 77.3503 90.7311 77.2597 90.6126 77.1409C90.5098 77.0323 90.3805 76.9523 90.2374 76.9089C90.0943 76.8656 89.9424 76.8603 89.7967 76.8937C89.6352 76.9298 89.4847 77.0039 89.3578 77.11C89.2049 77.2236 89.046 77.3288 88.8818 77.4252C88.9807 77.2583 89.092 77.11 89.1971 76.9493C89.3183 76.7717 89.4877 76.6323 89.6854 76.5475C89.8943 76.4654 90.1227 76.4462 90.3424 76.4923C90.562 76.5385 90.7634 76.6479 90.9216 76.8071C91.0285 76.9109 91.1603 76.9853 91.3043 77.0232C91.4483 77.0611 91.5997 77.0612 91.7437 77.0235C91.9042 76.9797 92.0523 76.8993 92.1764 76.7886C92.3495 76.6835 92.4978 76.566 92.6647 76.4733Z" fill="white"/>
<path d="M130.413 110.779C130.315 110.952 130.203 111.1 130.098 111.255C129.981 111.434 129.816 111.577 129.622 111.669C129.417 111.758 129.19 111.785 128.97 111.745C128.75 111.705 128.547 111.602 128.386 111.446C128.282 111.34 128.152 111.261 128.01 111.218C127.867 111.175 127.716 111.168 127.57 111.199C127.409 111.236 127.258 111.31 127.131 111.415C126.971 111.521 126.822 111.638 126.655 111.731C126.748 111.564 126.865 111.415 126.971 111.255C127.089 111.077 127.257 110.938 127.453 110.853C127.662 110.773 127.89 110.755 128.109 110.801C128.328 110.847 128.529 110.955 128.689 111.113C128.794 111.216 128.925 111.291 129.068 111.329C129.211 111.367 129.362 111.367 129.505 111.329C129.666 111.287 129.816 111.208 129.944 111.1C130.117 110.995 130.265 110.878 130.413 110.779Z" fill="white"/>
<path d="M111.536 70.2116C111.443 70.3785 111.326 70.5269 111.221 70.6876C111.105 70.8646 110.943 71.0058 110.751 71.0955C110.542 71.1898 110.31 71.2195 110.084 71.181C109.859 71.1425 109.65 71.0374 109.484 70.8792C109.38 70.7714 109.251 70.6916 109.109 70.6473C108.966 70.603 108.814 70.5956 108.668 70.6257C108.507 70.6632 108.357 70.7372 108.229 70.8421C108.068 70.9472 107.92 71.0646 107.753 71.1635C107.846 70.9904 107.963 70.8421 108.068 70.6814C108.188 70.5038 108.358 70.3661 108.557 70.2858C108.766 70.2037 108.994 70.1845 109.214 70.2306C109.433 70.2767 109.635 70.3862 109.793 70.5454C109.901 70.6534 110.035 70.7318 110.183 70.773C110.33 70.8141 110.485 70.8166 110.634 70.7803C110.793 70.734 110.941 70.6538 111.066 70.5454C111.252 70.4218 111.369 70.3043 111.536 70.2116Z" fill="white"/>
<path d="M98.4443 60.9641C98.3515 61.1309 98.2341 61.2793 98.129 61.44C98.0123 61.6176 97.8501 61.7606 97.6593 61.8541C97.4499 61.9476 97.2174 61.9764 96.9916 61.9367C96.7659 61.8971 96.5571 61.7908 96.3921 61.6316C96.289 61.5235 96.1597 61.4439 96.0167 61.4006C95.8737 61.3572 95.722 61.3517 95.5762 61.3844C95.4144 61.4193 95.2636 61.4936 95.1373 61.6007C94.9766 61.7058 94.8283 61.8232 94.6614 61.916C94.7541 61.7491 94.8715 61.6007 94.9766 61.44C95.0963 61.2609 95.2662 61.1212 95.4649 61.0382C95.6738 60.9561 95.9022 60.9369 96.1219 60.983C96.3416 61.0292 96.5429 61.1386 96.7012 61.2978C96.8077 61.4021 96.9395 61.4769 97.0836 61.5148C97.2277 61.5527 97.3792 61.5525 97.5233 61.5142C97.6837 61.4704 97.8318 61.39 97.9559 61.2793C98.129 61.1742 98.2712 61.0568 98.4443 60.9641Z" fill="white"/>
<path d="M110.801 81.9805C110.856 82.1659 110.875 82.3575 110.918 82.543C110.956 82.7493 110.941 82.9621 110.875 83.1611C110.793 83.3747 110.649 83.559 110.462 83.6901C110.275 83.8212 110.053 83.8931 109.824 83.8966C109.674 83.8944 109.527 83.9301 109.395 84.0004C109.263 84.0706 109.151 84.1732 109.07 84.2984C108.98 84.4375 108.927 84.5969 108.915 84.762C108.872 84.9474 108.853 85.1391 108.798 85.3245C108.748 85.1391 108.724 84.9474 108.687 84.762C108.644 84.5544 108.666 84.339 108.748 84.1439C108.837 83.9336 108.985 83.7544 109.176 83.6289C109.366 83.5034 109.59 83.4374 109.818 83.4392C109.966 83.4376 110.111 83.3974 110.239 83.3226C110.367 83.2478 110.473 83.141 110.547 83.0127C110.628 82.8684 110.677 82.708 110.689 82.543C110.726 82.3575 110.751 82.1659 110.801 81.9805Z" fill="white"/>
<path d="M106.344 114.908C106.393 115.093 106.418 115.285 106.455 115.47C106.49 115.634 106.488 115.803 106.449 115.965C106.41 116.128 106.336 116.28 106.231 116.41C106.126 116.541 105.994 116.646 105.843 116.718C105.693 116.791 105.528 116.829 105.361 116.83C105.211 116.827 105.064 116.863 104.932 116.933C104.8 117.003 104.688 117.106 104.607 117.232C104.52 117.372 104.467 117.531 104.452 117.695C104.415 117.881 104.39 118.072 104.341 118.258C104.285 118.072 104.261 117.881 104.223 117.695C104.184 117.488 104.206 117.273 104.285 117.077C104.375 116.868 104.524 116.69 104.714 116.564C104.904 116.439 105.127 116.372 105.355 116.373C105.503 116.372 105.648 116.332 105.776 116.257C105.904 116.182 106.01 116.075 106.084 115.946C106.168 115.803 106.216 115.642 106.226 115.476C106.263 115.285 106.306 115.093 106.344 114.908Z" fill="white"/>
<path d="M149.575 130.163C149.631 130.348 149.655 130.533 149.692 130.719C149.727 130.883 149.725 131.052 149.687 131.215C149.648 131.378 149.574 131.53 149.469 131.661C149.364 131.792 149.232 131.897 149.081 131.971C148.931 132.044 148.766 132.083 148.598 132.085C148.449 132.082 148.301 132.118 148.169 132.188C148.037 132.258 147.925 132.361 147.844 132.487C147.754 132.625 147.7 132.785 147.69 132.95C147.653 133.136 147.628 133.321 147.579 133.507C147.523 133.321 147.498 133.136 147.461 132.95C147.423 132.743 147.445 132.528 147.523 132.332C147.613 132.124 147.763 131.947 147.953 131.823C148.143 131.699 148.365 131.633 148.592 131.634C148.74 131.63 148.884 131.589 149.012 131.514C149.139 131.439 149.246 131.334 149.322 131.207C149.404 131.061 149.453 130.899 149.464 130.731C149.507 130.533 149.532 130.348 149.575 130.163Z" fill="white"/>
<path d="M129.548 86.542C129.597 86.7274 129.622 86.9129 129.659 87.1045C129.703 87.3105 129.688 87.5246 129.616 87.7226C129.535 87.9369 129.391 88.122 129.204 88.2542C129.017 88.3863 128.794 88.4595 128.565 88.4643C128.416 88.4615 128.268 88.497 128.136 88.5673C128.004 88.6376 127.892 88.7405 127.811 88.8661C127.724 89.0065 127.671 89.1652 127.657 89.3297C127.619 89.5152 127.595 89.7006 127.545 89.8922C127.49 89.7006 127.471 89.5152 127.428 89.3297C127.398 89.1654 127.404 88.9963 127.447 88.8348C127.491 88.6734 127.569 88.5236 127.677 88.3963C127.786 88.269 127.921 88.1675 128.074 88.0991C128.226 88.0306 128.392 87.997 128.559 88.0007C128.707 87.9985 128.852 87.9581 128.98 87.8834C129.108 87.8086 129.214 87.7022 129.288 87.5743C129.375 87.4322 129.424 87.2706 129.431 87.1045C129.474 86.9129 129.492 86.7274 129.548 86.542Z" fill="white"/>
<path d="M129.548 139.392C129.597 139.577 129.622 139.762 129.659 139.948C129.694 140.112 129.692 140.281 129.653 140.444C129.615 140.607 129.54 140.759 129.436 140.89C129.331 141.021 129.198 141.127 129.048 141.2C128.897 141.273 128.732 141.312 128.565 141.314C128.416 141.311 128.268 141.347 128.136 141.417C128.004 141.487 127.892 141.59 127.811 141.716C127.723 141.856 127.67 142.015 127.656 142.179C127.619 142.365 127.595 142.55 127.545 142.736C127.49 142.55 127.471 142.365 127.428 142.179C127.393 141.971 127.414 141.758 127.49 141.561C127.581 141.354 127.73 141.177 127.92 141.053C128.11 140.929 128.332 140.863 128.559 140.863C128.707 140.859 128.851 140.818 128.978 140.743C129.106 140.668 129.212 140.563 129.288 140.436C129.376 140.292 129.425 140.128 129.43 139.96C129.474 139.781 129.492 139.596 129.548 139.392Z" fill="white"/>
<path d="M139.716 109.134C139.772 109.32 139.79 109.511 139.827 109.697C139.865 109.86 139.864 110.029 139.827 110.193C139.79 110.356 139.716 110.508 139.611 110.639C139.507 110.77 139.374 110.875 139.223 110.947C139.072 111.02 138.907 111.057 138.739 111.057C138.59 111.054 138.442 111.09 138.311 111.16C138.179 111.231 138.067 111.333 137.985 111.458C137.896 111.597 137.842 111.757 137.831 111.922C137.788 112.107 137.769 112.299 137.713 112.484C137.664 112.299 137.639 112.107 137.602 111.922C137.56 111.714 137.581 111.499 137.664 111.304C137.752 111.095 137.9 110.916 138.089 110.791C138.278 110.665 138.5 110.599 138.727 110.599C138.876 110.598 139.022 110.558 139.151 110.483C139.28 110.409 139.388 110.302 139.463 110.173C139.544 110.028 139.592 109.868 139.605 109.703C139.642 109.511 139.685 109.32 139.716 109.134Z" fill="white"/>
<path d="M88.1894 116.088C88.2451 116.274 88.2636 116.459 88.3007 116.645C88.3377 116.808 88.3376 116.978 88.3002 117.141C88.2628 117.305 88.1892 117.458 88.0847 117.589C87.9803 117.72 87.8477 117.826 87.6968 117.899C87.5459 117.972 87.3804 118.01 87.2128 118.011C87.0632 118.007 86.9152 118.042 86.7831 118.113C86.6511 118.183 86.5393 118.286 86.4587 118.413C86.368 118.551 86.3147 118.711 86.3042 118.876C86.2609 119.062 86.2424 119.247 86.1867 119.432C86.1373 119.247 86.1125 119.062 86.0754 118.876C86.0348 118.668 86.0563 118.453 86.1373 118.258C86.2261 118.05 86.3743 117.873 86.5634 117.748C86.7526 117.624 86.9741 117.558 87.2004 117.56C87.349 117.556 87.4943 117.515 87.6229 117.441C87.7514 117.366 87.8591 117.26 87.936 117.133C88.0179 116.987 88.0664 116.824 88.0782 116.657C88.1153 116.459 88.14 116.274 88.1894 116.088Z" fill="white"/>
<path d="M89.191 86.542C89.2375 86.7275 89.2747 86.9152 89.3022 87.1045C89.3479 87.3099 89.3351 87.5241 89.2651 87.7226C89.1839 87.9369 89.0404 88.122 88.8532 88.2542C88.6659 88.3863 88.4435 88.4595 88.2143 88.4643C88.0647 88.4609 87.9167 88.4961 87.7847 88.5665C87.6526 88.6369 87.5409 88.74 87.4602 88.8661C87.3705 89.0052 87.3174 89.1646 87.3057 89.3297C87.2624 89.5152 87.2439 89.7006 87.1883 89.8922C87.1388 89.7006 87.1141 89.5152 87.077 89.3297C87.0355 89.1226 87.0548 88.9079 87.1326 88.7116C87.2222 88.5023 87.3714 88.3239 87.5615 88.1987C87.7516 88.0734 87.9743 88.0067 88.202 88.0069C88.3508 88.0046 88.4965 87.9641 88.6253 87.8895C88.754 87.8148 88.8615 87.7084 88.9375 87.5804C89.0185 87.4361 89.0671 87.2757 89.0797 87.1107C89.1168 86.9129 89.1415 86.7274 89.191 86.542Z" fill="white"/>
<path d="M99.9711 67.3374C100.021 67.5228 100.045 67.7083 100.082 67.8999C100.126 68.1059 100.111 68.32 100.039 68.518C99.9578 68.7323 99.8144 68.9174 99.6271 69.0496C99.4399 69.1817 99.2174 69.2549 98.9883 69.2598C98.8388 69.2569 98.691 69.2924 98.559 69.3627C98.4271 69.433 98.3152 69.5359 98.2342 69.6615C98.1472 69.8019 98.0942 69.9606 98.0797 70.1251C98.0426 70.3106 98.0178 70.496 97.9684 70.6876C97.9128 70.496 97.8942 70.3106 97.851 70.1251C97.8131 69.9174 97.8346 69.7032 97.9128 69.507C98.004 69.2993 98.1536 69.1227 98.3435 68.9987C98.5334 68.8747 98.7553 68.8086 98.9821 68.8085C99.1301 68.8063 99.2751 68.7659 99.4029 68.6911C99.5306 68.6164 99.6369 68.5099 99.7115 68.382C99.7978 68.24 99.8468 68.0784 99.8537 67.9123C99.8969 67.6897 99.9155 67.5228 99.9711 67.3374Z" fill="white"/>
<path d="M97.078 97.0254C97.1275 97.217 97.1522 97.4024 97.1893 97.5879C97.2241 97.7517 97.2221 97.9211 97.1834 98.084C97.1447 98.247 97.0704 98.3993 96.9657 98.53C96.861 98.6607 96.7286 98.7665 96.5781 98.8398C96.4276 98.9131 96.2627 98.9521 96.0952 98.9539C95.9457 98.9511 95.7979 98.9865 95.666 99.0569C95.534 99.1272 95.4222 99.2301 95.3411 99.3557C95.253 99.4955 95.2 99.6546 95.1866 99.8193C95.1495 100.005 95.1248 100.19 95.0753 100.376C95.0197 100.19 94.995 100.005 94.9579 99.8193C94.9201 99.6115 94.9415 99.3973 95.0197 99.2012C95.1109 98.9935 95.2606 98.8169 95.4505 98.6929C95.6403 98.5688 95.8622 98.5028 96.089 98.5027C96.2367 98.4987 96.3809 98.4576 96.5084 98.383C96.6359 98.3084 96.7425 98.2029 96.8184 98.0762C96.9013 97.9304 96.9499 97.7676 96.9606 97.6003C96.9977 97.4025 97.0348 97.217 97.078 97.0254Z" fill="white"/>
<path d="M123.058 101.019C123.107 101.204 123.132 101.396 123.169 101.581C123.204 101.744 123.202 101.914 123.163 102.076C123.125 102.239 123.05 102.391 122.945 102.521C122.841 102.651 122.708 102.757 122.557 102.829C122.407 102.902 122.242 102.94 122.075 102.941C121.926 102.939 121.778 102.975 121.646 103.045C121.515 103.116 121.403 103.218 121.321 103.343C121.235 103.483 121.182 103.642 121.166 103.806C121.129 103.992 121.104 104.183 121.055 104.369C120.999 104.183 120.981 103.992 120.938 103.806C120.899 103.599 120.92 103.384 120.999 103.188C121.089 102.979 121.238 102.8 121.428 102.675C121.618 102.55 121.841 102.483 122.069 102.483C122.217 102.482 122.362 102.443 122.49 102.368C122.618 102.293 122.724 102.186 122.798 102.057C122.884 101.915 122.933 101.753 122.94 101.587C122.996 101.396 122.996 101.204 123.058 101.019Z" fill="white"/>
<path d="M99.0438 134.36C99.0932 134.551 99.1179 134.737 99.155 134.922C99.1921 135.086 99.1919 135.256 99.1545 135.419C99.1172 135.582 99.0435 135.735 98.9391 135.867C98.8346 135.998 98.702 136.104 98.5511 136.177C98.4002 136.25 98.2348 136.288 98.0671 136.288C97.9173 136.284 97.7689 136.318 97.6366 136.389C97.5043 136.459 97.3928 136.563 97.313 136.69C97.2239 136.828 97.1688 136.985 97.1523 137.148C97.1248 137.337 97.0876 137.525 97.0411 137.71C96.9916 137.525 96.9669 137.339 96.9298 137.148C96.8886 136.94 96.908 136.726 96.9854 136.529C97.0746 136.32 97.2238 136.142 97.4142 136.018C97.6045 135.894 97.8274 135.829 98.0548 135.831C98.2033 135.827 98.3486 135.787 98.4772 135.712C98.6058 135.637 98.7135 135.532 98.7903 135.404C98.8704 135.257 98.9189 135.095 98.9325 134.929C98.9696 134.737 98.9943 134.551 99.0438 134.36Z" fill="white"/>
<path d="M118.601 91.592C118.7 91.4251 118.817 91.2768 118.922 91.116C119.036 90.9375 119.199 90.7957 119.392 90.7081C119.597 90.6189 119.823 90.5918 120.043 90.6303C120.263 90.6688 120.466 90.7711 120.629 90.9244C120.733 91.0322 120.863 91.1119 121.007 91.1562C121.151 91.2005 121.303 91.208 121.451 91.1779C121.61 91.1402 121.758 91.0661 121.883 90.9615C122.044 90.8503 122.192 90.739 122.365 90.6401C122.267 90.8132 122.149 90.9615 122.044 91.1222C121.925 91.2978 121.757 91.4352 121.562 91.5178C121.353 91.5984 121.125 91.6167 120.905 91.5707C120.686 91.5246 120.485 91.4161 120.326 91.2582C120.219 91.1565 120.088 91.0833 119.945 91.0455C119.803 91.0077 119.653 91.0065 119.51 91.0419C119.35 91.0882 119.203 91.1683 119.077 91.2768C118.922 91.3818 118.774 91.4993 118.601 91.592Z" fill="white"/>
<path d="M103.451 105.321C103.544 105.154 103.661 105.005 103.766 104.845C103.856 104.703 103.977 104.583 104.119 104.494C104.261 104.406 104.422 104.35 104.589 104.331C104.755 104.313 104.924 104.332 105.082 104.388C105.241 104.444 105.385 104.534 105.503 104.653C105.606 104.762 105.735 104.842 105.878 104.885C106.021 104.928 106.173 104.934 106.319 104.9C106.48 104.864 106.631 104.79 106.758 104.684C106.911 104.57 107.07 104.465 107.234 104.369C107.135 104.536 107.024 104.684 106.919 104.845C106.824 104.983 106.7 105.099 106.555 105.183C106.41 105.267 106.248 105.318 106.081 105.332C105.914 105.345 105.746 105.321 105.589 105.262C105.433 105.202 105.291 105.108 105.175 104.987C105.07 104.884 104.939 104.81 104.796 104.772C104.653 104.734 104.503 104.733 104.36 104.771C104.2 104.817 104.053 104.897 103.927 105.005C103.766 105.111 103.618 105.228 103.451 105.321Z" fill="white"/>
<path d="M93.1777 125.546C93.2766 125.373 93.3941 125.224 93.4991 125.07C93.589 124.928 93.7095 124.808 93.8519 124.719C93.9942 124.631 94.1548 124.575 94.3216 124.557C94.4884 124.538 94.6572 124.558 94.8155 124.613C94.9738 124.669 95.1175 124.759 95.2361 124.878C95.3398 124.985 95.4692 125.064 95.612 125.108C95.7548 125.151 95.9062 125.157 96.052 125.125C96.2134 125.089 96.3639 125.015 96.4908 124.909C96.6437 124.796 96.8026 124.69 96.9668 124.594C96.8679 124.761 96.7566 124.909 96.6516 125.07C96.5577 125.208 96.434 125.324 96.2896 125.408C96.1452 125.492 95.9837 125.543 95.8171 125.557C95.6505 125.57 95.483 125.546 95.3268 125.487C95.1706 125.427 95.0298 125.333 94.9146 125.212C94.8078 125.108 94.676 125.034 94.532 124.996C94.388 124.958 94.2366 124.958 94.0925 124.996C93.9324 125.037 93.7842 125.115 93.6599 125.224C93.4992 125.336 93.3261 125.447 93.1777 125.546Z" fill="white"/>
<path d="M97.616 146.556C97.7149 146.389 97.8323 146.24 97.9374 146.08C98.0512 145.901 98.2144 145.759 98.4072 145.672C98.612 145.584 98.8379 145.558 99.0574 145.596C99.2769 145.635 99.4805 145.736 99.6434 145.888C99.7466 145.996 99.8756 146.076 100.018 146.121C100.161 146.165 100.313 146.172 100.459 146.141C100.621 146.103 100.771 146.027 100.898 145.919C101.053 145.814 101.201 145.703 101.374 145.604C101.275 145.777 101.164 145.925 101.059 146.08C100.938 146.258 100.768 146.397 100.571 146.481C100.361 146.562 100.133 146.58 99.9141 146.534C99.6948 146.488 99.4934 146.38 99.3343 146.222C99.2275 146.12 99.0967 146.047 98.9541 146.009C98.8115 145.971 98.6616 145.97 98.5184 146.005C98.359 146.052 98.2114 146.132 98.0857 146.24C97.9374 146.345 97.789 146.463 97.616 146.556Z" fill="white"/>
<path d="M117.489 123.462C117.581 123.295 117.699 123.147 117.804 122.986C117.919 122.809 118.082 122.668 118.274 122.578C118.482 122.484 118.714 122.454 118.94 122.493C119.166 122.532 119.375 122.637 119.541 122.795C119.644 122.903 119.773 122.983 119.916 123.027C120.059 123.072 120.21 123.079 120.357 123.048C120.517 123.009 120.667 122.935 120.795 122.832C120.95 122.727 121.098 122.609 121.271 122.51C121.173 122.684 121.061 122.832 120.956 122.993C120.836 123.17 120.666 123.308 120.468 123.388C120.259 123.47 120.031 123.489 119.811 123.443C119.591 123.397 119.39 123.288 119.232 123.129C119.124 123.027 118.992 122.954 118.848 122.916C118.704 122.878 118.554 122.877 118.41 122.912C118.25 122.959 118.103 123.039 117.977 123.147C117.804 123.252 117.655 123.37 117.489 123.462Z" fill="white"/>
<path d="M131.161 131.832C131.254 131.665 131.371 131.517 131.476 131.356C131.593 131.18 131.756 131.039 131.946 130.948C132.151 130.86 132.377 130.834 132.596 130.873C132.816 130.911 133.019 131.012 133.182 131.164C133.286 131.272 133.415 131.352 133.558 131.396C133.7 131.441 133.852 131.448 133.998 131.418C134.159 131.38 134.309 131.306 134.437 131.202C134.598 131.096 134.746 130.979 134.913 130.88C134.82 131.053 134.703 131.202 134.598 131.362C134.48 131.541 134.309 131.679 134.11 131.758C133.901 131.84 133.672 131.859 133.453 131.813C133.233 131.767 133.032 131.657 132.873 131.498C132.765 131.396 132.633 131.323 132.49 131.286C132.346 131.248 132.195 131.246 132.051 131.282C131.892 131.328 131.744 131.408 131.619 131.517C131.476 131.622 131.328 131.739 131.161 131.832Z" fill="white"/>
<path d="M108.161 138.186C108.254 138.019 108.371 137.871 108.476 137.71C108.59 137.531 108.753 137.39 108.946 137.302C109.155 137.208 109.387 137.178 109.613 137.217C109.838 137.255 110.047 137.36 110.213 137.518C110.316 137.627 110.445 137.707 110.588 137.751C110.731 137.795 110.883 137.803 111.029 137.772C111.191 137.733 111.341 137.657 111.468 137.549C111.622 137.444 111.771 137.333 111.944 137.234C111.845 137.407 111.734 137.555 111.629 137.71C111.509 137.889 111.339 138.029 111.14 138.112C110.931 138.194 110.703 138.213 110.483 138.167C110.264 138.121 110.062 138.011 109.904 137.852C109.796 137.75 109.664 137.677 109.52 137.64C109.377 137.602 109.226 137.6 109.082 137.636C108.922 137.682 108.775 137.762 108.649 137.871C108.476 137.976 108.328 138.093 108.161 138.186Z" fill="white"/>
<path d="M137.831 146.555C137.93 146.388 138.041 146.24 138.146 146.079C138.261 145.902 138.424 145.761 138.616 145.671C138.825 145.577 139.057 145.547 139.282 145.586C139.508 145.624 139.717 145.729 139.883 145.888C139.986 145.995 140.116 146.075 140.258 146.119C140.401 146.164 140.553 146.171 140.699 146.141C140.86 146.104 141.01 146.03 141.138 145.925C141.298 145.813 141.447 145.702 141.614 145.603C141.521 145.776 141.404 145.925 141.298 146.085C141.179 146.261 141.012 146.398 140.816 146.481C140.607 146.562 140.379 146.581 140.16 146.535C139.94 146.489 139.739 146.38 139.58 146.221C139.473 146.12 139.342 146.047 139.2 146.009C139.057 145.972 138.907 145.97 138.764 146.005C138.602 146.05 138.452 146.13 138.325 146.24C138.14 146.345 137.992 146.462 137.831 146.555Z" fill="white"/>
<path d="M141.175 123.938C141.268 123.765 141.385 123.617 141.49 123.456C141.607 123.28 141.769 123.139 141.96 123.048C142.169 122.954 142.401 122.924 142.626 122.963C142.852 123.001 143.061 123.106 143.227 123.265C143.33 123.372 143.46 123.452 143.602 123.496C143.745 123.541 143.897 123.548 144.043 123.518C144.204 123.48 144.354 123.406 144.482 123.302C144.642 123.197 144.791 123.079 144.958 122.98C144.865 123.153 144.748 123.302 144.642 123.462C144.524 123.641 144.354 123.779 144.154 123.858C143.945 123.94 143.717 123.959 143.497 123.913C143.277 123.867 143.076 123.758 142.918 123.598C142.811 123.497 142.68 123.424 142.537 123.386C142.395 123.349 142.245 123.347 142.102 123.382C141.94 123.427 141.79 123.507 141.663 123.617C141.49 123.728 141.342 123.846 141.175 123.938Z" fill="white"/>
<path d="M86.9905 141.085C87.0894 140.912 87.2006 140.764 87.3057 140.603C87.4228 140.427 87.5851 140.286 87.7755 140.195C87.9842 140.101 88.2164 140.071 88.4421 140.11C88.6679 140.148 88.877 140.253 89.0426 140.411C89.1461 140.519 89.2753 140.599 89.4179 140.643C89.5606 140.688 89.7122 140.695 89.8586 140.665C90.0195 140.627 90.1697 140.553 90.2974 140.449C90.4581 140.343 90.6065 140.226 90.7734 140.127C90.6806 140.3 90.5632 140.449 90.4581 140.609C90.3406 140.786 90.1726 140.924 89.976 141.005C89.767 141.086 89.5388 141.105 89.3193 141.059C89.0998 141.013 88.8984 140.904 88.7397 140.745C88.6329 140.644 88.5019 140.571 88.3591 140.534C88.2163 140.497 88.0665 140.498 87.9238 140.535C87.7613 140.575 87.6107 140.653 87.485 140.764C87.3057 140.869 87.145 140.986 86.9905 141.085Z" fill="white"/>
<path d="M85.2905 105.797C85.3832 105.63 85.5007 105.481 85.6058 105.321C85.7225 105.143 85.8847 105 86.0755 104.907C86.2849 104.813 86.5174 104.784 86.7431 104.824C86.9689 104.864 87.1777 104.97 87.3427 105.129C87.4458 105.237 87.5751 105.317 87.7181 105.36C87.8611 105.403 88.0128 105.409 88.1586 105.376C88.3214 105.344 88.4729 105.27 88.5975 105.16C88.7582 105.055 88.9065 104.937 89.0734 104.845C88.977 105.009 88.8717 105.168 88.7582 105.321C88.6393 105.498 88.472 105.638 88.276 105.722C88.067 105.804 87.8388 105.823 87.6193 105.776C87.3998 105.73 87.1985 105.621 87.0398 105.463C86.9336 105.36 86.8028 105.286 86.66 105.248C86.5172 105.211 86.3671 105.21 86.2239 105.247C86.062 105.291 85.912 105.371 85.785 105.481C85.6119 105.586 85.4636 105.704 85.2905 105.797Z" fill="white"/>
<path d="M105.46 58.7144C105.231 59.8702 100.014 67.4793 94.7725 67.4113C93.0665 67.3804 92.7946 58.0592 92.7946 58.0592L92.6153 57.3792L90.1428 47.8107L101.226 40.1646L102.833 39.1509C102.833 39.1509 103.333 41.815 103.933 45.1343C103.933 45.2888 103.989 45.4433 104.013 45.6102C104.038 45.7771 104.094 45.9687 104.118 46.148C104.217 46.6425 104.31 47.1493 104.397 47.6562C104.465 48.0394 104.526 48.4103 104.582 48.8183C104.638 49.2262 104.7 49.6218 104.768 50.0545C105.195 52.922 105.427 55.8153 105.46 58.7144Z" fill="#F1AEA6"/>
<path d="M103.933 45.1343C103.048 47.8741 101.577 50.3884 99.6224 52.5029C97.6681 54.6174 95.2771 56.2813 92.6153 57.3792L90.1428 47.8107L101.226 40.1646L102.833 39.1509C102.833 39.1509 103.333 41.815 103.933 45.1343Z" fill="#263238"/>
<path d="M76.5564 33.6003C76.099 50.9447 86.4464 53.1761 90.1551 53.2688C93.5485 53.3554 105.12 53.2194 107.37 36.0171C109.62 18.8149 101.695 13.1467 93.9441 12.5286C86.1929 11.9105 77.0138 16.2559 76.5564 33.6003Z" fill="#F1AEA6"/>
<path d="M79.1898 28.3523C79.5978 28.2843 79.9563 28.1606 80.3519 28.0556C80.7743 28.004 81.1688 27.8176 81.4768 27.524C81.5557 27.4125 81.5955 27.2781 81.5899 27.1417C81.5843 27.0052 81.5337 26.8745 81.446 26.7699C81.2401 26.5903 80.9902 26.4688 80.7219 26.4178C80.4536 26.3667 80.1766 26.388 79.9192 26.4794C79.3715 26.5829 78.8822 26.887 78.547 27.3324C78.4768 27.4385 78.4387 27.5627 78.4373 27.6899C78.4359 27.8172 78.4713 27.9422 78.5391 28.0498C78.607 28.1575 78.7045 28.2433 78.8199 28.297C78.9353 28.3506 79.0638 28.3698 79.1898 28.3523Z" fill="#263238"/>
<path d="M90.7855 30.8867C90.3865 30.8429 89.9903 30.7769 89.5987 30.6889C89.1752 30.6774 88.767 30.5276 88.4366 30.2624C88.348 30.1585 88.2963 30.0281 88.2896 29.8917C88.2829 29.7553 88.3215 29.6204 88.3995 29.5083C88.5885 29.3108 88.8267 29.1672 89.0896 29.0922C89.3525 29.0172 89.6307 29.0136 89.8954 29.0818C90.4504 29.1389 90.964 29.4012 91.3356 29.8174C91.4167 29.9162 91.4671 30.0366 91.4806 30.1637C91.4941 30.2908 91.4702 30.419 91.4117 30.5327C91.3532 30.6464 91.2628 30.7404 91.1515 30.8033C91.0403 30.8662 90.913 30.8952 90.7855 30.8867Z" fill="#263238"/>
<path d="M81.7487 33.9961C81.7487 33.9528 81.6621 34.0579 81.6621 34.1073C81.7796 35.2817 81.7178 36.6478 80.6793 37.1114C80.6422 37.1114 80.6793 37.1856 80.6793 37.1794C81.9774 36.9074 82.0454 35.0901 81.7487 33.9961Z" fill="#263238"/>
<path d="M80.6114 32.8335C78.7076 32.8335 78.8127 36.6287 80.5805 36.6473C82.3484 36.6658 82.2 32.852 80.6114 32.8335Z" fill="#263238"/>
<path d="M79.8264 33.1121C79.5297 33.3223 79.2453 33.6932 78.8806 33.7303C78.5159 33.7673 78.1451 33.3656 77.8669 32.9761C77.8669 32.9391 77.8113 32.9762 77.8113 33.0194C77.8113 33.7488 78.0771 34.5029 78.7755 34.6203C79.474 34.7378 79.8696 34.0949 80.0118 33.3841C80.0551 33.2296 79.9438 33.0256 79.8264 33.1121Z" fill="#263238"/>
<path d="M89.5063 44.0895C89.2158 44.3553 88.9191 44.7076 88.4864 44.7509C88.0548 44.7222 87.6339 44.6044 87.2502 44.4047C87.2417 44.4006 87.2322 44.3994 87.223 44.4012C87.2137 44.403 87.2054 44.4077 87.1991 44.4147C87.1928 44.4217 87.189 44.4305 87.1882 44.4399C87.1873 44.4492 87.1896 44.4586 87.1945 44.4665C87.3557 44.7057 87.5789 44.8965 87.8402 45.0185C88.1016 45.1405 88.3912 45.189 88.678 45.1588C88.9223 45.107 89.1452 44.9825 89.3174 44.8015C89.4895 44.6206 89.6028 44.3917 89.6423 44.1451C89.6176 44.0771 89.5496 44.0524 89.5063 44.0895Z" fill="#263238"/>
<path d="M83.5969 39.3487C83.5969 39.3487 83.4609 41.1165 83.5041 41.9448C85.123 41.8559 86.7464 41.9975 88.3255 42.3651C88.6964 42.464 88.6716 42.1612 88.2513 41.9386C86.9992 41.2863 85.5805 41.0236 84.1779 41.1845C84.1037 40.9558 84.4437 38.4648 84.3139 38.4648C83.6749 38.5586 83.0512 38.7374 82.4595 38.9964C82.645 35.2877 83.4238 31.6778 83.5536 28C83.5554 27.9731 83.5473 27.9464 83.5309 27.925C83.5145 27.9035 83.4909 27.8888 83.4644 27.8835C83.4379 27.8782 83.4104 27.8827 83.387 27.8962C83.3636 27.9097 83.346 27.9312 83.3373 27.9568C82.2494 31.7088 81.9403 35.949 81.6498 39.7567C81.6127 40.2264 83.2755 39.5094 83.5969 39.3487Z" fill="#263238"/>
<path d="M91.8488 34.0575C91.1546 33.7853 90.3953 33.7251 89.6668 33.8844C89.2764 33.9732 88.9069 34.1369 88.579 34.3666C88.2409 34.619 87.9642 34.9444 87.7692 35.3185L87.4045 35.9922L88.1525 35.9119C88.6785 35.8562 89.2089 35.8562 89.7348 35.9119C90.2838 35.9598 90.8114 36.1471 91.2678 36.4558C90.969 35.9098 90.4671 35.5034 89.8708 35.3247C89.2898 35.1326 88.6752 35.0632 88.0659 35.1207L88.4491 35.7388C88.769 35.2024 89.2616 34.7905 89.8461 34.5706C90.4898 34.3171 91.1625 34.1447 91.8488 34.0575Z" fill="#263238"/>
<path d="M89.7041 37.1298C89.1446 36.9985 88.6058 36.7905 88.1032 36.5117C87.9857 36.4376 87.5345 36.0976 87.5592 35.9987C87.6231 35.7113 87.7227 35.433 87.8559 35.1704C87.6481 35.4038 87.4903 35.6773 87.3923 35.974C87.4269 36.1374 87.4968 36.2912 87.5972 36.4247C87.6976 36.5582 87.826 36.6681 87.9734 36.7466C88.5049 37.0289 89.1031 37.1614 89.7041 37.1298Z" fill="#263238"/>
<path d="M85.5996 41.8212C85.5996 41.8212 86.6751 43.3665 87.9114 43.552C89.333 43.7745 89.4999 42.495 87.9114 41.7656C87.1078 41.3886 85.5996 41.8212 85.5996 41.8212Z" fill="#263238"/>
<path d="M87.9054 43.5829C87.3666 43.4711 86.8711 43.2073 86.4775 42.8227C86.7742 42.3838 87.4542 41.8955 88.9809 42.7176C89.2034 43.2368 88.8078 43.6942 87.9054 43.5829Z" fill="#FF99BA"/>
<path d="M107.265 36.4312C104.409 36.7898 103.457 30.8125 103.457 30.8125C103.457 30.8125 97.6345 31.1092 95.3042 22.8264C95.5934 25.3288 96.6074 27.692 98.2217 29.6258C98.2217 29.6258 87.8929 29.0076 83.152 20.6445C83.152 20.6445 85.0929 24.9404 86.7865 26.4177C86.7865 26.4177 82.4164 25.4287 80.1479 22.0291C80.1479 22.0291 78.5902 27.0791 77.2736 28.5193C77.2736 28.5193 76.8224 10.5259 93.5673 11.6261C93.5673 11.6261 104.026 11.8115 108.173 19.8842C112.321 27.9568 107.265 36.4312 107.265 36.4312Z" fill="#263238"/>
<path d="M104.594 37.2718C104.594 37.2718 108.05 31.6408 110.584 32.8399C113.118 34.0391 110.745 42.0499 107.932 43.2923C107.583 43.4773 107.199 43.5896 106.805 43.6223C106.411 43.6551 106.014 43.6077 105.638 43.4829C105.263 43.3581 104.917 43.1586 104.62 42.8964C104.324 42.6342 104.084 42.3147 103.915 41.9572L104.594 37.2718Z" fill="#F1AEA6"/>
<path d="M109.849 35.1206C109.892 35.1206 109.904 35.1762 109.849 35.1948C107.877 36.1343 106.931 38.069 106.301 40.0594C106.857 39.2744 107.648 38.8231 108.693 39.4413C108.748 39.4722 108.693 39.5587 108.643 39.5525C108.282 39.4599 107.901 39.4821 107.553 39.6162C107.205 39.7502 106.908 39.9894 106.702 40.3005C106.356 40.8186 106.07 41.3743 105.849 41.957C105.763 42.1424 105.435 42.0683 105.491 41.8581C105.487 41.8418 105.487 41.825 105.491 41.8087C105.318 39.2558 107.098 35.5471 109.849 35.1206Z" fill="#263238"/>
<path d="M106.307 42.3896C106.316 42.5497 106.372 42.7035 106.468 42.8316C106.564 42.9597 106.697 43.0563 106.848 43.1092C106.999 43.1622 107.163 43.169 107.318 43.1288C107.473 43.0886 107.613 43.0033 107.72 42.8837C107.826 42.764 107.895 42.6154 107.917 42.4566C107.939 42.2978 107.914 42.1361 107.844 41.9918C107.774 41.8476 107.663 41.7273 107.525 41.6462C107.386 41.5652 107.227 41.527 107.067 41.5366C106.961 41.5421 106.857 41.5686 106.761 41.6146C106.665 41.6606 106.58 41.7251 106.509 41.8044C106.438 41.8837 106.384 41.9763 106.349 42.0768C106.314 42.1772 106.3 42.2835 106.307 42.3896Z" fill="white"/>
<path d="M108.248 41.0487C108.253 41.1515 108.288 41.2504 108.35 41.333C108.411 41.4156 108.495 41.478 108.592 41.5124C108.689 41.5469 108.794 41.5517 108.894 41.5263C108.994 41.501 109.084 41.4465 109.153 41.37C109.221 41.2934 109.266 41.1982 109.28 41.0963C109.295 40.9944 109.279 40.8905 109.234 40.7978C109.189 40.7051 109.118 40.6278 109.029 40.5756C108.941 40.5234 108.839 40.4988 108.736 40.5048C108.668 40.5079 108.601 40.5246 108.54 40.5537C108.478 40.5829 108.423 40.6239 108.378 40.6746C108.332 40.7252 108.297 40.7843 108.275 40.8486C108.253 40.9128 108.243 40.9808 108.248 41.0487Z" fill="white"/>
<path d="M51.9995 74.7824L43.0225 76.8682L49.4797 104.66L58.4567 102.575L51.9995 74.7824Z" fill="#EBEBEB"/>
<path d="M30.1172 1.013C22.6171 2.75795 15.8027 6.68734 10.5354 12.3045C5.26811 17.9216 1.7844 24.9742 0.524657 32.5709C-0.735087 40.1676 0.285686 47.9673 3.45795 54.9839C6.63022 62.0005 11.8116 67.9192 18.347 71.9916C24.8824 76.064 32.4785 78.1075 40.1751 77.8635C47.8716 77.6196 55.3231 75.0993 61.5875 70.6212C67.852 66.1431 72.6481 59.9083 75.3698 52.7049C78.0914 45.5014 78.6162 37.6528 76.878 30.1512C75.7229 25.1664 73.5969 20.4582 70.6212 16.2956C67.6456 12.1329 63.8788 8.59755 59.5361 5.89148C55.1935 3.18541 50.36 1.36171 45.3122 0.524629C40.2643 -0.312451 35.1009 -0.146495 30.1172 1.013ZM45.8916 68.9258C39.9658 70.3041 33.7642 69.8941 28.0714 67.7474C22.3786 65.6008 17.4503 61.814 13.9099 56.8662C10.3695 51.9183 8.37602 46.0316 8.18163 39.9506C7.98724 33.8696 9.60066 27.8676 12.8178 22.7037C16.035 17.5398 20.7114 13.446 26.2554 10.9402C31.7995 8.43434 37.9622 7.62901 43.964 8.62605C49.9659 9.6231 55.5372 12.3777 59.9733 16.5415C64.4093 20.7053 67.5109 26.0911 68.8857 32.0179C70.7282 39.9612 69.3411 48.3111 65.0293 55.232C60.7175 62.153 53.8338 67.0785 45.8916 68.9258Z" fill="#A6A6A6"/>
<path d="M55.063 94.7099L49.0421 96.1087C46.9572 96.5932 45.6598 98.676 46.1442 100.761L53.845 133.906C54.3294 135.99 56.4122 137.288 58.4971 136.804L64.518 135.405C66.6029 134.92 67.9003 132.837 67.4159 130.752L59.7151 97.6078C59.2307 95.5229 57.1479 94.2255 55.063 94.7099Z" fill="#263238"/>
<g opacity="0.3">
<path d="M68.8858 32.0053C70.2598 37.9297 69.8463 44.1284 67.6976 49.8178C65.5488 55.5072 61.7614 60.4317 56.8141 63.9687C51.8668 67.5057 45.9818 69.4963 39.9032 69.6889C33.8247 69.8815 27.8255 68.2674 22.6642 65.0507C17.5029 61.8339 13.4114 57.1591 10.9068 51.6171C8.40223 46.0752 7.59716 39.915 8.59338 33.9155C9.5896 27.9161 12.3424 22.3467 16.5036 17.9116C20.6649 13.4765 26.0478 10.3749 31.9717 8.9989C35.9062 8.08415 39.9824 7.9537 43.9674 8.61499C47.9523 9.27628 51.7679 10.7164 55.196 12.8529C58.6242 14.9895 61.5977 17.7807 63.9467 21.0669C66.2956 24.3532 67.974 28.0701 68.8858 32.0053Z" fill="white"/>
<path d="M69.6398 40.6714C69.1858 48.767 65.5548 56.3562 59.536 61.7893C53.5173 67.2224 45.5972 70.0602 37.4976 69.6859L69.6398 40.6714Z" fill="#EBEBEB"/>
<path d="M55.4909 13.0476L11.4623 52.7865C10.3669 50.6043 9.53681 48.2988 8.98979 45.9192C8.3491 43.1929 8.09114 40.3906 8.22332 37.5931L40.7302 8.25098C45.98 8.55984 51.0625 10.2114 55.4909 13.0476Z" fill="#EBEBEB"/>
<path d="M68.0388 29.0569L26.0994 66.9044C24.2667 66.0622 22.5213 65.0415 20.8887 63.8571L65.5478 23.5557C66.5626 25.3002 67.3972 27.1434 68.0388 29.0569Z" fill="#EBEBEB"/>
<path d="M58.872 15.5572L13.5886 56.4149C13.3784 56.1058 13.1683 55.7968 12.9705 55.4815L57.9943 14.8525C58.3033 15.0751 58.5939 15.3038 58.872 15.5572Z" fill="#EBEBEB"/>
<path d="M30.4758 9.38867L10.387 27.5119C10.7269 26.6528 11.1102 25.8121 11.5305 24.9962L27.8674 10.2479C28.7142 9.93263 29.5858 9.6421 30.4758 9.38867Z" fill="#EBEBEB"/>
</g>
<path d="M17.0996 44.2816C17.0967 44.2404 17.0967 44.1991 17.0996 44.158C16.9884 43.5398 17.18 44.7452 17.0996 44.3434C17.0193 43.9416 16.976 43.3915 16.9389 42.9155C16.7968 41.2373 16.7968 39.55 16.9389 37.8717C16.9389 37.6306 16.9822 37.3957 17.0007 37.1609C17.0007 37.0867 16.9328 37.7172 17.0007 37.2165L17.0564 36.7838C17.1305 36.2275 17.2233 35.6712 17.3345 35.1211C17.569 33.9082 17.8849 32.7125 18.2802 31.5422C18.373 31.264 18.4781 30.9858 18.577 30.7077C18.7068 30.3306 18.4039 31.1218 18.6079 30.6273L18.8118 30.139C19.0776 29.5209 19.3681 28.9028 19.6772 28.2847C19.9863 27.6665 20.388 27.0052 20.7775 26.3932C20.9629 26.1089 21.1483 25.8307 21.3399 25.5526C21.6675 25.0766 21.1854 25.7442 21.4388 25.4104L21.8035 24.9283C22.9291 23.5133 24.1876 22.2093 25.5617 21.0341C25.5617 21.0341 25.846 20.8054 25.6359 20.9785C25.4257 21.1516 25.7471 20.8858 25.7842 20.8549L26.4023 20.3665C26.8165 20.0575 27.2368 19.7484 27.6695 19.4765C28.5758 18.8707 29.5124 18.3116 30.4758 17.8013C30.7339 17.639 30.9575 17.4274 31.1339 17.1786C31.3102 16.9299 31.4358 16.6488 31.5036 16.3515C31.5713 16.0542 31.5798 15.7464 31.5286 15.4458C31.4774 15.1452 31.3675 14.8576 31.2051 14.5995C31.0428 14.3414 30.8312 14.1177 30.5824 13.9414C30.3337 13.765 30.0526 13.6394 29.7553 13.5717C29.4579 13.5039 29.1502 13.4954 28.8496 13.5466C28.549 13.5978 28.2614 13.7078 28.0033 13.8701C21.8963 17.1276 16.8771 22.2704 14.3552 28.7544C12.6478 33.1149 11.9198 37.7974 12.2227 42.4705C12.2844 43.5085 12.4166 44.541 12.6183 45.5611C12.7944 46.1494 13.1962 46.6442 13.7359 46.9372C14.2756 47.2302 14.9094 47.2977 15.4987 47.1249C16.0784 46.9341 16.5633 46.5289 16.854 45.9923C17.1447 45.4556 17.2193 44.8282 17.0626 44.2383L17.0996 44.2816Z" fill="white"/>
<path d="M19.1517 50.8579C19.2796 51.2891 19.2768 51.7485 19.1437 52.1781C19.0106 52.6076 18.7531 52.9881 18.4038 53.2714C18.0545 53.5547 17.6291 53.7281 17.1812 53.7697C16.7334 53.8112 16.2833 53.7191 15.8879 53.505C15.4924 53.2908 15.1693 52.9643 14.9593 52.5665C14.7494 52.1688 14.6621 51.7177 14.7084 51.2704C14.7547 50.8231 14.9326 50.3995 15.2196 50.0532C15.5066 49.7069 15.8898 49.4535 16.3208 49.3249C16.6073 49.2386 16.908 49.2098 17.2057 49.2403C17.5034 49.2707 17.7922 49.3597 18.0553 49.5022C18.3185 49.6447 18.5508 49.8378 18.739 50.0705C18.9272 50.3032 19.0674 50.5708 19.1517 50.8579Z" fill="white"/>
<path d="M117.513 70.3475C123.076 90.4611 125.747 110.655 122.668 121.07C120.703 127.709 115.962 132.197 112.945 133.68C105.893 137.166 82.4968 132.221 67.2539 129.155C63.5081 128.401 72.3411 98.2185 76.1054 99.8194C81.6685 102.174 98.6977 105.352 99.1674 105.506C100.175 105.852 102.258 84.0265 103.729 71.2314C105.763 53.4048 114.305 58.733 117.513 70.3475Z" fill="#F1AEA6"/>
<path d="M37.9613 94.0708C36.3048 96.772 38.4558 99.2445 38.4558 99.2445C37.0437 99.9507 35.9238 101.13 35.291 102.576C34.2959 105.172 37.9304 107.873 37.9304 107.873C36.6188 108.91 35.6513 110.319 35.1551 111.916C34.4504 114.5 37.7326 117.745 37.7326 117.745C37.0548 119.363 36.9824 121.171 37.5286 122.838C39.1667 127.233 46.1823 128.673 50.6328 129.637C55.0832 130.602 68.6077 129.143 71.2162 129.131L77.6137 100.617C77.6137 100.617 58.8785 90.6341 53.507 90.2509C48.9391 89.9418 39.8219 91.042 37.9613 94.0708Z" fill="#F1AEA6"/>
<path d="M38.7524 98.8305C43.6973 98.0207 48.5558 98.7007 53.4698 99.1024C53.4928 99.1024 53.5148 99.1115 53.531 99.1278C53.5472 99.144 53.5564 99.166 53.5564 99.189C53.5564 99.2119 53.5472 99.2339 53.531 99.2502C53.5148 99.2664 53.4928 99.2755 53.4698 99.2755C48.5805 98.8181 43.6664 99.3311 38.7771 99.0715C38.7487 99.0687 38.7222 99.0562 38.7019 99.0361C38.6817 99.016 38.6691 98.9895 38.6662 98.9611C38.6633 98.9327 38.6703 98.9042 38.686 98.8804C38.7017 98.8566 38.7252 98.8389 38.7524 98.8305Z" fill="#263238"/>
<path d="M38.1095 107.521C39.2432 107.442 40.3824 107.515 41.4968 107.737C42.6877 107.894 43.8766 108.071 45.0634 108.269C47.4411 108.681 49.8064 109.136 52.1594 109.635C52.2644 109.635 52.2583 109.821 52.1594 109.802C49.7858 109.413 47.4122 109.06 45.0324 108.77C43.8395 108.621 42.6465 108.492 41.4474 108.362C40.313 108.316 39.1873 108.144 38.091 107.849C38.0573 107.835 38.0287 107.812 38.0092 107.781C37.9898 107.75 37.9804 107.714 37.9825 107.678C37.9845 107.642 37.9979 107.607 38.0207 107.579C38.0435 107.551 38.0745 107.531 38.1095 107.521Z" fill="#263238"/>
<path d="M37.8314 117.757C38.7957 117.59 39.9206 117.936 40.8725 118.116C41.9543 118.32 43.0298 118.511 44.1115 118.703C46.2749 119.086 48.4383 119.463 50.6141 119.772C50.7192 119.772 50.7068 119.958 50.6141 119.939C48.4012 119.642 46.1884 119.37 43.9817 119.055C42.9 118.901 41.8121 118.734 40.7304 118.567C39.8094 118.425 38.6473 118.351 37.8252 117.868C37.815 117.863 37.8066 117.854 37.801 117.844C37.7953 117.834 37.7927 117.822 37.7933 117.811C37.794 117.799 37.7979 117.788 37.8046 117.778C37.8113 117.769 37.8206 117.762 37.8314 117.757Z" fill="#263238"/>
<path d="M44.0682 91.116C41.8245 91.4065 39.2531 91.901 37.8005 93.811C37.129 94.6212 36.7987 95.6608 36.8795 96.71C37.0073 97.6897 37.5021 98.5844 38.2641 99.2134C37.3673 99.5023 36.5702 100.038 35.9644 100.76C35.3586 101.482 34.9688 102.36 34.8397 103.293C34.8021 103.76 34.8611 104.23 35.0132 104.674C35.1653 105.117 35.4071 105.525 35.7236 105.87C36.0327 106.235 36.385 106.557 36.725 106.89C37.0649 107.224 37.442 107.509 37.7943 107.799C37.4133 108.097 37.0558 108.423 36.725 108.776C36.354 109.132 36.0205 109.526 35.7298 109.95C35.1282 110.791 34.7885 111.791 34.7532 112.824C34.8046 113.851 35.1619 114.839 35.7792 115.662C36.2811 116.512 36.989 117.222 37.8376 117.726C37.8482 117.731 37.8603 117.732 37.8717 117.729C37.8832 117.726 37.8931 117.719 37.8998 117.71C37.9066 117.7 37.9096 117.688 37.9084 117.676C37.9072 117.665 37.9018 117.654 37.8932 117.646C37.2262 117.037 36.6607 116.325 36.2181 115.538C35.6835 114.698 35.3905 113.727 35.3713 112.732C35.4532 111.788 35.7721 110.88 36.2985 110.092C36.5603 109.665 36.845 109.252 37.1515 108.856C37.4567 108.532 37.7416 108.189 38.0045 107.83C38.0045 107.83 37.2689 107.051 37.0093 106.717C36.7497 106.384 36.4963 106.025 36.2614 105.66C35.7637 104.968 35.5432 104.115 35.6433 103.268C35.7891 102.478 36.1482 101.743 36.6817 101.142C37.2009 100.524 37.8747 100.035 38.4186 99.4297C38.4381 99.3976 38.4509 99.3619 38.4562 99.3247C38.4615 99.2875 38.4592 99.2496 38.4495 99.2134C37.2133 97.2848 37.3678 95.4552 38.6906 94.0273C39.3645 93.3349 40.1528 92.7641 41.0209 92.3399C42.0199 91.8857 43.0533 91.5116 44.1115 91.2211C44.1548 91.2149 44.1362 91.1098 44.0682 91.116Z" fill="#263238"/>
<path d="M85.0496 132.647C83.733 132.24 82.3422 132.029 80.9947 131.733C79.6472 131.436 78.2874 131.158 76.9275 130.886C75.5677 130.614 74.1522 130.342 72.7676 130.082C71.383 129.823 70.0911 129.532 68.7436 129.371C67.4426 129.246 66.1313 129.275 64.8371 129.458C63.5308 129.606 62.2204 129.711 60.9059 129.773C58.2575 129.901 55.6034 129.843 52.963 129.6C49.9757 129.323 47.017 128.796 44.1177 128.024C44.0559 128.024 44.0374 128.098 44.1177 128.117C49.1443 129.795 54.4138 130.63 59.7129 130.589C61.0233 130.589 62.3399 130.509 63.6441 130.379C64.9472 130.194 66.2597 130.082 67.5754 130.045C68.9664 130.137 70.3475 130.344 71.7044 130.663C73.0705 130.917 74.4303 131.176 75.7964 131.417C77.3417 131.689 78.887 131.968 80.4384 132.209C81.9899 132.45 83.529 132.796 85.0496 132.907C85.1609 132.882 85.1671 132.678 85.0496 132.647Z" fill="#263238"/>
<path d="M104.248 106.755C102.27 106.081 100.181 105.661 98.1475 105.172C96.1139 104.684 94.0556 104.214 92.0096 103.751C88.1031 102.867 84.1471 102.119 80.2653 101.037C79.2454 100.753 78.2379 100.419 77.2427 100.085C76.742 99.9059 76.2537 99.7081 75.7654 99.467C75.2771 99.2259 74.7146 99.0776 74.2325 98.8489C74.1768 98.8118 74.1336 98.8983 74.1892 98.9354C74.5786 99.1765 74.9371 99.467 75.3389 99.7019C75.7407 99.9368 76.229 100.172 76.6864 100.382C77.5226 100.764 78.3789 101.1 79.2516 101.389C81.0689 102.007 82.9603 102.434 84.8147 102.867C88.8943 103.8 92.98 104.721 97.072 105.605C98.2217 105.852 99.3776 106.099 100.533 106.328C101.689 106.557 102.95 106.841 104.174 106.977C104.203 106.985 104.234 106.982 104.261 106.968C104.287 106.953 104.307 106.93 104.317 106.901C104.326 106.873 104.325 106.841 104.312 106.814C104.299 106.787 104.276 106.766 104.248 106.755Z" fill="#263238"/>
<path d="M97.8137 99.2756L126.087 103.12C126.087 103.12 120.919 73.7288 115.424 63.9934C110.003 54.3878 104.02 60.7359 101.739 72.3565C99.1797 85.2381 97.8137 99.2756 97.8137 99.2756Z" fill="#72C0CE"/>
<path d="M123.966 98.8612C123.175 98.6758 122.365 98.5583 121.574 98.3853C120.783 98.2122 120.023 98.0948 119.244 97.9711C117.655 97.7239 116.061 97.5014 114.466 97.285C111.326 96.8523 108.192 96.3764 105.04 96.0488C103.247 95.851 101.461 95.5852 99.6681 95.4307C99.655 95.4307 99.6424 95.4359 99.6331 95.4452C99.6239 95.4544 99.6187 95.467 99.6187 95.4801C99.6187 95.4932 99.6239 95.5058 99.6331 95.5151C99.6424 95.5244 99.655 95.5296 99.6681 95.5296C102.79 96.2589 105.973 96.8029 109.138 97.3159C112.302 97.829 115.418 98.3111 118.57 98.6572C119.454 98.75 120.338 98.8674 121.228 98.9107C122.118 98.9539 123.052 99.0343 123.96 99.0528C123.986 99.0537 124.01 99.0444 124.029 99.027C124.047 99.0096 124.058 98.9855 124.059 98.9601C124.06 98.9347 124.051 98.91 124.033 98.8915C124.016 98.8729 123.992 98.862 123.966 98.8612Z" fill="#263238"/>
</svg>
