<svg width="24" height="24" viewBox="0 0 24 24" fill="none" xmlns="http://www.w3.org/2000/svg">
<path fill-rule="evenodd" clip-rule="evenodd" d="M5.84531 2.70679L6.14531 5.76679H22.0553L20.5853 16.9068H5.76531L4.48531 4.20679H1.94531V2.70679H5.84531ZM7.60451 18.7441C6.90151 18.7441 6.33051 19.3151 6.33051 20.0181C6.33051 20.7211 6.90151 21.2931 7.60451 21.2931C8.30651 21.2931 8.87751 20.7211 8.87751 20.0181C8.87751 19.3151 8.30651 18.7441 7.60451 18.7441ZM18.4717 18.7441C17.7687 18.7441 17.1977 19.3151 17.1977 20.0181C17.1977 20.7211 17.7687 21.2931 18.4717 21.2931C19.1747 21.2931 19.7457 20.7211 19.7457 20.0181C19.7457 19.3151 19.1747 18.7441 18.4717 18.7441ZM12.1019 12.0341L16.0404 7.99994L17 8.98287L12.1019 13.9999L9 10.8227L9.95961 9.83983L12.1019 12.0341Z" fill="white"/>
</svg>
