<svg width="180" height="180" viewBox="0 0 180 180" fill="none" xmlns="http://www.w3.org/2000/svg">
<path fill-rule="evenodd" clip-rule="evenodd" d="M17.1015 51.1285V51.4511C17.1015 51.7736 17.1015 51.9349 16.9403 52.2575V52.4187V127.413C16.9403 129.349 18.0692 130.961 19.682 131.768L88.0641 165.636C88.1505 165.679 88.2254 165.723 88.2948 165.763C88.4846 165.872 88.6343 165.959 88.8705 165.959L89.193 166.12C90.322 166.443 91.4509 166.281 92.4186 165.798L104.506 159.768C101.408 155.308 99.2436 150.239 98.1745 144.864C96.6424 137.162 97.4287 129.178 100.434 121.923C103.439 114.667 108.528 108.466 115.058 104.103C121.588 99.7404 129.264 97.4117 137.117 97.4117C146.675 97.423 155.875 100.876 163.059 107.083V52.4187V52.2575C163.059 52.0962 163.018 51.9752 162.978 51.8543C162.938 51.7333 162.897 51.6124 162.897 51.4511V51.1285C162.897 50.806 162.736 50.4834 162.575 50.1608V49.9996C162.413 49.8383 162.293 49.677 162.172 49.5157C162.051 49.3545 161.93 49.1932 161.768 49.0319L161.607 48.8706C161.526 48.79 161.405 48.7093 161.285 48.6287C161.164 48.5481 161.043 48.4674 160.962 48.3868L160.801 48.2255H160.639L160.478 48.0642L132.577 34.1943L132.416 34.3556L62.7434 70.3207V106.931C62.7434 107.253 62.7434 107.576 62.5821 107.737C62.0982 108.544 61.1306 108.866 60.3242 108.382L46.4542 101.125C45.9704 100.802 45.6478 100.318 45.6478 99.6733V62.2567V62.0955V61.7729C45.7285 61.6923 45.7688 61.6116 45.8091 61.531C45.8494 61.4503 45.8898 61.3697 45.9704 61.2891C46.051 61.2891 46.0914 61.2487 46.1317 61.2084C46.172 61.1681 46.2123 61.1278 46.293 61.1278L46.4542 60.9665L115.32 25.6465L92.2573 14.1957C90.8058 13.5506 89.193 13.5506 87.9028 14.1957L19.3595 48.2255L19.1982 48.3868H19.0369L18.8756 48.5481C18.795 48.6287 18.674 48.7093 18.5531 48.79C18.4321 48.8706 18.3111 48.9513 18.2305 49.0319L18.0692 49.1932C17.9079 49.3545 17.5854 49.677 17.4241 49.9996V50.1608C17.3435 50.3221 17.3032 50.4834 17.2628 50.6447C17.2225 50.8059 17.1822 50.9672 17.1015 51.1285Z" fill="url(#paint0_linear_1363_2895)"/>
<path fill-rule="evenodd" clip-rule="evenodd" d="M169.412 137.118C169.412 119.282 154.954 104.823 137.118 104.823C119.283 104.823 104.823 119.282 104.823 137.118C104.823 154.953 119.283 169.412 137.118 169.412C154.953 169.412 169.412 154.953 169.412 137.118ZM133.031 141.773L150.953 123.613L155.32 128.038L133.031 150.622L118.915 136.32L123.282 131.895L133.031 141.773Z" fill="url(#paint1_linear_1363_2895)"/>
<defs>
<linearGradient id="paint0_linear_1363_2895" x1="178.202" y1="192.149" x2="34.3976" y2="39.4015" gradientUnits="userSpaceOnUse">
<stop stop-color="#1BA0DB"/>
<stop offset="1" stop-color="#57BF99"/>
</linearGradient>
<linearGradient id="paint1_linear_1363_2895" x1="-14.3737" y1="192.413" x2="107.901" y2="25.9851" gradientUnits="userSpaceOnUse">
<stop stop-color="#1BA0DB"/>
<stop offset="1" stop-color="#57BF99"/>
</linearGradient>
</defs>
</svg>
