<svg width="180" height="180" viewBox="0 0 180 180" fill="none" xmlns="http://www.w3.org/2000/svg">
<path d="M17.1015 51.4511C17.1015 51.2898 17.1015 51.2898 17.1015 51.1285C17.2628 50.806 17.2628 50.4834 17.4241 50.1608V49.9996C17.5854 49.677 17.9079 49.3545 18.0692 49.1932L18.2305 49.0319C18.3918 48.8706 18.7143 48.7093 18.8756 48.5481L19.0369 48.3868H19.1982L19.3595 48.2255L87.9028 14.1957C89.193 13.5506 90.8058 13.5506 92.2573 14.1957L115.32 25.6465L46.4542 60.9665L46.293 61.1278C46.1317 61.1278 46.1317 61.2891 45.9704 61.2891C45.8091 61.4503 45.8091 61.6116 45.6478 61.7729C45.6478 61.9342 45.6478 61.9342 45.6478 62.0955V62.2567V99.6733C45.6478 100.318 45.9704 100.802 46.4542 101.125L60.3242 108.382C61.1306 108.866 62.0982 108.544 62.5821 107.737C62.7434 107.576 62.7434 107.253 62.7434 106.931V70.3207L132.416 34.3556L132.577 34.1943L160.478 48.0642L160.639 48.2255H160.801L160.962 48.3868C161.123 48.5481 161.446 48.7093 161.607 48.8706L161.768 49.0319C162.091 49.3545 162.252 49.677 162.575 49.9996V50.1608C162.736 50.4834 162.897 50.806 162.897 51.1285C162.897 51.2898 162.897 51.2898 162.897 51.4511C162.897 51.7736 163.059 51.9349 163.059 52.2575V52.4187V127.575C163.059 129.349 162.091 131.123 160.317 131.929L92.4186 165.798C91.4509 166.281 90.322 166.443 89.193 166.12L88.8705 165.959C88.5479 165.959 88.3866 165.798 88.0641 165.636L19.682 131.768C18.0692 130.961 16.9403 129.349 16.9403 127.413V52.4187V52.2575C17.1015 51.9349 17.1015 51.7736 17.1015 51.4511Z" fill="url(#paint0_linear_1363_2841)"/>
<defs>
<linearGradient id="paint0_linear_1363_2841" x1="178.202" y1="192.149" x2="34.3976" y2="39.4015" gradientUnits="userSpaceOnUse">
<stop stop-color="#1BA0DB"/>
<stop offset="1" stop-color="#57BF99"/>
</linearGradient>
</defs>
</svg>
