<svg width="24" height="24" viewBox="0 0 24 24" fill="none" xmlns="http://www.w3.org/2000/svg">
<path fill-rule="evenodd" clip-rule="evenodd" d="M15.1935 9.65942L9.65819 15.1947L8.59753 14.134L14.1328 8.59875L15.1935 9.65942Z" fill="black"/>
<path fill-rule="evenodd" clip-rule="evenodd" d="M13.3162 13.3215H14.824V14.8215H13.3162V13.3215Z" fill="black"/>
<path fill-rule="evenodd" clip-rule="evenodd" d="M8.9646 8.96896H10.4724V10.469H8.9646V8.96896Z" fill="black"/>
<path fill-rule="evenodd" clip-rule="evenodd" d="M12 1.5087L12.5976 2.29686C13.9644 4.09945 16.1974 5.0244 18.4386 4.71626L19.4185 4.58153L19.2837 5.56143C18.9756 7.80254 19.9005 10.0356 21.7031 11.4024L22.4913 12L21.7031 12.5976C19.9005 13.9645 18.9756 16.1975 19.2837 18.4386L19.4185 19.4185L18.4386 19.2838C16.1974 18.9756 13.9644 19.9006 12.5976 21.7032L12 22.4913L11.4024 21.7032C10.0355 19.9006 7.80251 18.9756 5.5614 19.2838L4.5815 19.4185L4.71623 18.4386C5.02437 16.1975 4.09942 13.9645 2.29683 12.5976L1.50867 12L2.29683 11.4024C4.09943 10.0356 5.02437 7.80255 4.71623 5.56143L4.5815 4.58153L5.5614 4.71626C7.80252 5.0244 10.0355 4.09946 11.4024 2.29686L12 1.5087ZM6.27343 6.27346C6.31283 8.4277 5.45255 10.5046 3.90141 12C5.45255 13.4954 6.31283 15.5723 6.27343 17.7266C8.42767 17.6872 10.5046 18.5474 12 20.0986C13.4954 18.5474 15.5723 17.6872 17.7265 17.7266C17.6871 15.5723 18.5474 13.4954 20.0985 12C18.5474 10.5046 17.6871 8.4277 17.7265 6.27346C15.5723 6.31286 13.4954 5.45258 12 3.90144C10.5046 5.45258 8.42767 6.31286 6.27343 6.27346Z" fill="black"/>
</svg>
