<svg width="28" height="28" viewBox="0 0 28 28" fill="none" xmlns="http://www.w3.org/2000/svg">
<g clip-path="url(#clip0_1363_2975)">
<path d="M2 15H0V27H2C2.55231 27 3 26.5522 3 26V16C3 15.4477 2.55231 15 2 15Z" fill="#E3E3E3"/>
<path d="M26.854 16.3375C26.1318 15.906 25.2568 15.8874 24.5176 16.2868L17.9691 19.807C17.8162 21.0402 16.7737 22.0008 15.5 22.0008H11.48C11.2036 22.0008 10.98 21.7772 10.98 21.5009C10.98 21.2246 11.2036 21.0009 11.48 21.0009H15.5C16.3271 21.0009 17 20.3282 17 19.5012C17 18.6898 16.3514 18.0308 15.5459 18.006C15.2466 18.0025 10.4141 18.0014 10.4141 18.0014L8.70703 16.2946C8.51953 16.1071 8.26514 16.0017 8 16.0017H4V26.0022H5.76562L9 27.0001C10.3438 27.4322 11.781 28 13.3735 28C14.8135 28 16.2324 27.5225 17.457 26.5842L26.9805 20.2813C27.6187 19.8439 28 19.1213 28 18.3499C28 17.517 27.5718 16.7652 26.854 16.3375Z" fill="#E3E3E3"/>
<path d="M14.5 16.0002L21.3936 12.9191C21.7617 12.7619 22 12.4001 22 12.0002V4.00018C22 3.9975 21.9988 3.99512 21.9988 3.99243L14.5 7.32526V16.0002Z" fill="#E3E3E3"/>
<path d="M21.4741 3.13098C21.4461 3.11566 14.3933 0.0812988 14.3933 0.0812988C14.1433 -0.0270996 13.8562 -0.0270996 13.6062 0.0812988C13.6062 0.0812988 6.55341 3.11566 6.52539 3.13098L13.9998 6.45288L21.4741 3.13098Z" fill="#E3E3E3"/>
<path d="M6.60645 12.9191L13.5 16.0002V7.32526L6.00116 3.99243C6.00116 3.99512 6 3.9975 6 4.00018V12.0002C6 12.4001 6.23828 12.7619 6.60645 12.9191Z" fill="#E3E3E3"/>
</g>
<defs>
<clipPath id="clip0_1363_2975">
<rect width="28" height="28" fill="white"/>
</clipPath>
</defs>
</svg>
