<svg width="28" height="28" viewBox="0 0 28 28" fill="none" xmlns="http://www.w3.org/2000/svg">
<path d="M21.2779 2.07889C21.0247 1.6411 20.5533 1.36914 20.0479 1.36914H14.7656V7.61737H24.4813L21.2779 2.07889Z" fill="black"/>
<path d="M13.2849 1.36914H7.95279C7.44637 1.36914 6.97502 1.64159 6.72181 2.08037L3.53027 7.61737H13.2849V1.36914H13.2849Z" fill="black"/>
<path d="M3 9.09814V24.8903C3 25.8503 3.78134 26.6311 4.74135 26.6311H23.2585C24.2185 26.6311 24.9999 25.8503 24.9999 24.8903V9.09814H3ZM17.3607 15.7393L13.5315 19.5685C13.3869 19.7131 13.1973 19.7857 13.0078 19.7857C12.8183 19.7857 12.6287 19.7131 12.4846 19.5685L10.6895 17.7738C10.4008 17.4851 10.4008 17.0161 10.6895 16.7269C10.9787 16.4377 11.4476 16.4377 11.7369 16.7269L13.0079 17.9984L16.3139 14.6924C16.6031 14.4032 17.072 14.4032 17.3608 14.6924C17.65 14.9816 17.65 15.45 17.3607 15.7393Z" fill="black"/>
</svg>
