<svg width="171" height="170" viewBox="0 0 171 170" fill="none" xmlns="http://www.w3.org/2000/svg">
<path d="M85.4997 7.08325C70.0892 7.08325 55.0249 11.653 42.2115 20.2146C29.3982 28.7762 19.4114 40.9451 13.5141 55.1825C7.61677 69.4199 6.07376 85.0864 9.08019 100.201C12.0866 115.315 19.5075 129.198 30.4043 140.095C41.3012 150.992 55.1846 158.413 70.2989 161.419C85.4133 164.426 101.08 162.883 115.317 156.986C129.555 151.088 141.723 141.101 150.285 128.288C158.847 115.475 163.416 100.41 163.416 84.9999C163.392 64.3426 155.175 44.5384 140.568 29.9314C125.961 15.3245 106.157 7.10762 85.4997 7.08325ZM118.841 72.2995L83.4243 107.716C82.096 109.044 80.2946 109.79 78.4164 109.79C76.5381 109.79 74.7368 109.044 73.4085 107.716L52.1585 86.4662C51.4819 85.8128 50.9423 85.0312 50.5711 84.167C50.1998 83.3028 50.0044 82.3733 49.9963 81.4328C49.9881 80.4922 50.1673 79.5595 50.5235 78.689C50.8796 77.8185 51.4056 77.0276 52.0707 76.3625C52.7357 75.6975 53.5266 75.1715 54.3971 74.8154C55.2676 74.4592 56.2004 74.28 57.1409 74.2881C58.0814 74.2963 59.0109 74.4917 59.8751 74.863C60.7393 75.2342 61.5209 75.7738 62.1743 76.4503L78.4164 92.6924L108.825 62.2837C110.161 60.9934 111.95 60.2794 113.808 60.2956C115.665 60.3117 117.441 61.0567 118.755 62.37C120.068 63.6833 120.813 65.4599 120.829 67.3171C120.845 69.1743 120.131 70.9636 118.841 72.2995Z" fill="url(#paint0_linear_432_2464)"/>
<defs>
<linearGradient id="paint0_linear_432_2464" x1="-8.56696" y1="189.33" x2="137.789" y2="27.0016" gradientUnits="userSpaceOnUse">
<stop stop-color="#1BA0DB"/>
<stop offset="1" stop-color="#57BF99"/>
</linearGradient>
</defs>
</svg>
