<svg width="28" height="28" viewBox="0 0 28 28" fill="none" xmlns="http://www.w3.org/2000/svg">
<path d="M1.75 11.9788V16.618C1.75 18.1886 3.02313 19.4609 4.59288 19.4609H14.833C16.4036 19.4609 17.6759 18.1878 17.6759 16.618V11.9788H1.75ZM14.2214 16.702H10.7992C10.3162 16.702 9.92425 16.31 9.92425 15.827C9.92425 15.344 10.3162 14.952 10.7992 14.952H14.2214C14.7044 14.952 15.0964 15.344 15.0964 15.827C15.0964 16.31 14.7044 16.702 14.2214 16.702Z" fill="#E3E3E3"/>
<path d="M13.1298 1.67297C13.563 1.88735 13.7397 2.41235 13.5245 2.84547L13.0143 3.87447L14.0433 4.38547C14.4765 4.60072 14.6532 5.12485 14.438 5.55797C14.2236 5.9911 13.6977 6.16785 13.2655 5.9526L11.2538 4.95422C10.931 4.7941 10.7997 4.40297 10.9598 4.0801L11.9582 2.0676C12.1726 1.63447 12.6976 1.45772 13.1307 1.67297H13.1298Z" fill="#E3E3E3"/>
<path d="M15.4026 20.3359H4.02588C2.289 20.3359 0.875 18.9228 0.875 17.185V10.3583C0.875 8.6214 2.28813 7.2074 4.02588 7.2074H15.4026C17.1395 7.2074 18.5535 8.62052 18.5535 10.3583V17.185C18.5535 18.9219 17.1404 20.3359 15.4026 20.3359ZM4.02588 8.95827C3.25325 8.95827 2.625 9.58652 2.625 10.3591V17.1859C2.625 17.9576 3.25325 18.5868 4.02588 18.5868H15.4026C16.1753 18.5868 16.8035 17.9585 16.8035 17.1859V10.3591C16.8035 9.5874 16.1753 8.95827 15.4026 8.95827H4.02588Z" fill="#E3E3E3"/>
<path d="M1.74805 11.1038H17.6765V12.8538H1.74805V11.1038Z" fill="#E3E3E3"/>
<path d="M15.7497 25.375C12.745 25.375 9.91172 24.2138 7.76972 22.1068C6.98047 21.329 6.30934 20.4443 5.77734 19.4757L7.31034 18.6322C7.76184 19.4521 8.32884 20.2011 8.99734 20.86C10.8095 22.6432 13.2078 23.6258 15.7506 23.6258C21.0575 23.6258 25.3756 19.3077 25.3756 14.0008C25.3756 8.69396 21.0575 4.37583 15.7506 4.37583C14.7347 4.37583 13.7346 4.53333 12.78 4.84308L12.2401 3.17883C13.3697 2.81221 14.551 2.62671 15.7506 2.62671C22.0226 2.62671 27.1256 7.72971 27.1256 14.0017C27.1256 20.2737 22.0226 25.3767 15.7506 25.3767L15.7497 25.375Z" fill="#E3E3E3"/>
</svg>
