<svg width="18" height="18" viewBox="0 0 18 18" fill="none" xmlns="http://www.w3.org/2000/svg">
<path d="M16.5001 3.00002V6.75002C16.5001 6.94894 16.4211 7.1397 16.2805 7.28035C16.1398 7.42101 15.949 7.50002 15.7501 7.50002H12.0001C11.8012 7.50002 11.6105 7.42101 11.4698 7.28035C11.3291 7.1397 11.2501 6.94894 11.2501 6.75002C11.2501 6.55111 11.3291 6.36035 11.4698 6.21969C11.6105 6.07904 11.8012 6.00002 12.0001 6.00002H14.1826C13.512 4.84661 12.4756 3.95011 11.2376 3.45272C9.99956 2.95533 8.63093 2.88553 7.34875 3.25438C6.06657 3.62324 4.94425 4.40963 4.15981 5.48884C3.37536 6.56804 2.97369 7.87826 3.01852 9.21169C3.06335 10.5451 3.55211 11.8254 4.40727 12.8495C5.26243 13.8736 6.43504 14.5828 7.73909 14.8647C9.04315 15.1466 10.404 14.985 11.6058 14.4056C12.8076 13.8262 13.7815 12.8621 14.3731 11.6663C14.4165 11.5773 14.4771 11.4979 14.5513 11.4324C14.6255 11.367 14.712 11.3169 14.8057 11.285C14.8994 11.2531 14.9984 11.2401 15.0972 11.2467C15.1959 11.2533 15.2924 11.2794 15.381 11.3234C15.4696 11.3674 15.5486 11.4286 15.6135 11.5033C15.6784 11.578 15.7279 11.6648 15.759 11.7588C15.7902 11.8527 15.8025 11.9518 15.7952 12.0505C15.7878 12.1492 15.7611 12.2455 15.7164 12.3338C14.9909 13.7968 13.8077 14.9831 12.3466 15.7125C10.8854 16.4418 9.22619 16.6743 7.62087 16.3746C6.01554 16.075 4.55189 15.2595 3.45225 14.0522C2.35262 12.8449 1.67708 11.3116 1.52828 9.68536C1.37947 8.0591 1.76553 6.42872 2.6278 5.04187C3.49007 3.65502 4.78142 2.58751 6.30571 2.00149C7.82999 1.41547 9.50389 1.34297 11.0731 1.79501C12.6424 2.24705 14.0212 3.19892 15.0001 4.50602V3.00002C15.0001 2.80111 15.0791 2.61035 15.2198 2.46969C15.3604 2.32904 15.5512 2.25002 15.7501 2.25002C15.949 2.25002 16.1398 2.32904 16.2805 2.46969C16.4211 2.61035 16.5001 2.80111 16.5001 3.00002Z" fill="black"/>
</svg>
