<svg width="28" height="28" viewBox="0 0 28 28" fill="none" xmlns="http://www.w3.org/2000/svg">
<g clip-path="url(#clip0_1363_2961)">
<path d="M1.13262 21.059C1.445 20.7308 1.96431 20.718 2.29238 21.0305L2.42713 21.1588C2.79293 18.7104 4.64979 16.6328 7.21271 16.1121C8.79816 15.7902 10.4142 16.1046 11.7631 16.9979C13.112 17.8912 14.0322 19.2563 14.3543 20.8418C14.6765 22.4273 14.3619 24.0434 13.4686 25.3922C12.5752 26.7411 11.2101 27.6614 9.62459 27.9835C9.56947 27.9947 9.51456 28.0001 9.46042 28.0001C9.07843 28.0001 8.73641 27.7318 8.65739 27.3429C8.56721 26.899 8.85399 26.4659 9.29794 26.3757C10.454 26.1408 11.4493 25.4699 12.1007 24.4863C12.752 23.5028 12.9814 22.3245 12.7465 21.1684C12.5117 20.0124 11.8407 19.017 10.8572 18.3657C9.87364 17.7144 8.69534 17.485 7.53931 17.7199C5.74135 18.0851 4.42032 19.5013 4.08531 21.1981L4.21699 21.0727C4.54517 20.7605 5.06437 20.7733 5.37675 21.1014C5.68907 21.4296 5.67622 21.9489 5.34804 22.2612L3.85234 23.6846C3.84698 23.6897 3.84113 23.694 3.83566 23.6989C3.82412 23.7093 3.81252 23.7196 3.80033 23.7294C3.7912 23.7367 3.7819 23.7436 3.77255 23.7505C3.76079 23.7591 3.74903 23.7677 3.73678 23.7757C3.7259 23.7829 3.7148 23.7894 3.7037 23.7961C3.69249 23.8027 3.68133 23.8092 3.66973 23.8154C3.65661 23.8223 3.64327 23.8285 3.62987 23.8347C3.61964 23.8394 3.60947 23.8442 3.59897 23.8486C3.58317 23.8551 3.56714 23.8607 3.55106 23.8662C3.54226 23.8692 3.53356 23.8724 3.5246 23.8751C3.50556 23.8809 3.48631 23.8856 3.46696 23.8899C3.46127 23.8912 3.45591 23.893 3.45017 23.8942C3.44885 23.8945 3.44754 23.8946 3.44623 23.8948C3.4261 23.8988 3.40587 23.9016 3.38558 23.904C3.37864 23.9048 3.37169 23.9063 3.36474 23.9069C3.34872 23.9084 3.33264 23.9087 3.31657 23.9093C3.251 23.9117 3.1863 23.9072 3.12379 23.8944C2.9687 23.868 2.81946 23.7972 2.69696 23.6805L1.16123 22.2186C0.832992 21.9063 0.820249 21.3871 1.13262 21.059Z" fill="grey"/>
<path d="M27.0938 7.50732V21.8996C27.0938 23.0171 26.1846 23.9262 25.0672 23.9262H15.7101C15.8806 23.2885 15.972 22.6189 15.972 21.9283C15.9721 17.6606 12.5001 14.5714 8.2324 14.5714C7.5383 14.5714 6.86549 14.6638 6.22504 14.8359V7.50732H27.0938Z" fill="grey"/>
<path d="M9.72982 0.728217C9.98947 0.27907 10.4732 0 10.9921 0H15.8154V5.86664H6.80049L9.72982 0.728217Z" fill="grey"/>
<path d="M22.3265 0C22.8461 0 23.3301 0.279671 23.5897 0.729858L26.4893 5.8667H17.4562V0H22.3265Z" fill="grey"/>
</g>
<defs>
<clipPath id="clip0_1363_2961">
<rect width="28" height="28" fill="white" transform="matrix(-1 0 0 1 28 0)"/>
</clipPath>
</defs>
</svg>
