<svg width="29" height="29" viewBox="0 0 29 29" fill="none" xmlns="http://www.w3.org/2000/svg">
<g clip-path="url(#clip0_268_955)">
<path d="M23.8985 17.8306L23.8985 11.3066C23.8985 10.961 23.6192 10.6817 23.2736 10.6817H5.89732C5.55172 10.6817 5.27241 10.961 5.27241 11.3066L5.27153 17.8297C5.27153 17.9958 5.33693 18.1541 5.45449 18.2716C5.57205 18.3892 5.7307 18.455 5.89643 18.4546L23.2727 18.4555C23.4389 18.4555 23.5975 18.3896 23.7146 18.2725C23.8318 18.1554 23.898 17.9963 23.8985 17.8306ZM21.1691 17.2057L21.1673 14.5699C21.1668 14.2248 20.8875 13.9446 20.5415 13.945C20.1963 13.9454 19.9166 14.2252 19.917 14.5704L19.9188 17.2061H18.2509L18.2514 15.6589C18.2518 15.3128 17.972 15.0339 17.6269 15.0335C17.2817 15.0331 17.002 15.3128 17.002 15.6584L17.0011 17.2061H15.3341L15.3341 14.5695C15.3341 14.2239 15.0548 13.9446 14.7092 13.9446C14.3636 13.9446 14.0843 14.2239 14.0843 14.5695L14.0838 17.2057H12.4177L12.4164 15.6566C12.416 15.3115 12.1371 15.0317 11.7911 15.0322C11.4455 15.0322 11.1657 15.3119 11.1661 15.6571L11.167 17.2057L9.49958 17.2052L9.49958 14.5704C9.49958 14.2248 9.22028 13.9454 8.87468 13.9454C8.52908 13.9454 8.24977 14.2248 8.24977 14.5704L8.24977 17.2052H6.5209L6.52178 11.932L22.6482 11.932L22.6482 17.2061L21.1691 17.2057Z" fill="black"/>
</g>
<defs>
<clipPath id="clip0_268_955">
<rect width="20" height="20" fill="white" transform="translate(14.5854 0.426392) rotate(45)"/>
</clipPath>
</defs>
</svg>
