<svg width="20" height="20" viewBox="0 0 20 20" fill="none" xmlns="http://www.w3.org/2000/svg">
<path fill-rule="evenodd" clip-rule="evenodd" d="M9.99971 7.54382C8.64774 7.54382 7.55176 8.63981 7.55176 9.99178C7.55176 11.3437 8.64774 12.4397 9.99971 12.4397C11.3517 12.4397 12.4477 11.3437 12.4477 9.99178C12.4477 8.63981 11.3517 7.54382 9.99971 7.54382ZM6.30176 9.99178C6.30176 7.94945 7.95739 6.29382 9.99971 6.29382C12.042 6.29382 13.6977 7.94945 13.6977 9.99178C13.6977 12.0341 12.042 13.6897 9.99971 13.6897C7.95739 13.6897 6.30176 12.0341 6.30176 9.99178Z" fill="black"/>
<path fill-rule="evenodd" clip-rule="evenodd" d="M8.04219 1.53064L10.0004 3.07136L11.9585 1.53064L16.3495 4.06578L15.9943 6.53185L18.3062 7.45673V12.527L15.9935 13.4522L16.3486 15.9178L11.9576 18.453L10.0004 16.913L8.04309 18.453L3.6521 15.9178L4.00717 13.4526L1.69336 12.527V7.45673L4.00634 6.53143L3.6512 4.06578L8.04219 1.53064ZM5.00908 4.72518L5.38378 7.32669L2.94336 8.30298V11.6808L5.38461 12.6574L5.00998 15.2584L7.93521 16.9473L10.0004 15.3224L12.0655 16.9473L14.9908 15.2584L14.6161 12.657L17.0562 11.6808V8.30298L14.6169 7.32712L14.9917 4.72518L12.0664 3.0363L10.0004 4.6619L7.93431 3.0363L5.00908 4.72518Z" fill="black"/>
</svg>
