<svg width="17" height="17" viewBox="0 0 17 17" fill="none" xmlns="http://www.w3.org/2000/svg">
<g clip-path="url(#clip0_268_958)">
<path d="M15.6134 5.47482L11.9229 1.78432C11.7274 1.58882 11.4114 1.58882 11.2159 1.78432L1.38637 11.6138C1.19087 11.8093 1.19087 12.1253 1.38637 12.3208L5.07587 16.0113C5.16987 16.1053 5.29637 16.1578 5.42937 16.1578C5.56237 16.1578 5.68937 16.1053 5.78287 16.0113L15.6129 6.18232C15.7069 6.08832 15.7594 5.96132 15.7594 5.82882C15.7594 5.69632 15.7069 5.56882 15.6134 5.47482ZM13.7159 6.66532L12.2239 5.17532C12.0284 4.98032 11.7119 4.97982 11.5164 5.17582C11.3214 5.37132 11.3214 5.68782 11.5169 5.88282L13.0089 7.37282L12.0654 8.31632L11.1904 7.44082C10.9949 7.24482 10.6789 7.24532 10.4834 7.44032C10.2879 7.63532 10.2879 7.95182 10.4834 8.14732L11.3584 9.02332L10.4154 9.96632L8.92387 8.47482C8.72837 8.27932 8.41237 8.27932 8.21687 8.47482C8.02137 8.67032 8.02137 8.98632 8.21687 9.18182L9.70787 10.6733L8.76537 11.6158L7.88837 10.7403C7.69287 10.5453 7.37687 10.5448 7.18137 10.7408C6.98587 10.9363 6.98587 11.2528 7.18137 11.4478L8.05787 12.3233L7.11437 13.2663L5.62387 11.7758C5.42837 11.5803 5.11237 11.5803 4.91687 11.7758C4.72137 11.9713 4.72137 12.2873 4.91687 12.4828L6.40737 13.9733L5.42937 14.9513L2.44687 11.9678L11.5694 2.84532L14.5529 5.82882L13.7159 6.66532Z" fill="black"/>
</g>
<defs>
<clipPath id="clip0_268_958">
<rect width="16" height="16" fill="white" transform="translate(0.5 0.897827)"/>
</clipPath>
</defs>
</svg>
