<svg width="32" height="32" viewBox="0 0 32 32" fill="none" xmlns="http://www.w3.org/2000/svg">
<path fill-rule="evenodd" clip-rule="evenodd" d="M24.0239 7.99697C19.6154 3.58792 12.4516 3.58792 8.04305 7.99812C5.83075 10.2099 4.72909 13.1015 4.73124 15.9968C4.7329 18.2358 4.71682 21.3055 4.70034 23.8135C4.69209 25.068 4.68375 26.1826 4.67746 26.9837L4.67527 27.2562C4.75713 27.2557 4.84326 27.2551 4.9334 27.2546C5.72551 27.2496 6.82748 27.2439 8.06702 27.2412C10.5434 27.2359 13.5786 27.2423 15.7882 27.2901C18.7622 27.3544 21.7512 26.2542 24.0239 23.9813C28.433 19.5717 28.4408 12.4143 24.0239 7.99697ZM3.66699 28.2639L2.66702 28.2551L2.67752 26.968C2.6838 26.1676 2.69214 25.0538 2.70038 23.8004C2.71686 21.2928 2.7329 18.2294 2.73124 15.9983C2.72871 12.5936 4.02586 9.18639 6.62857 6.58417C6.6285 6.58424 6.62864 6.5841 6.62857 6.58417M6.62857 6.58417C11.8182 1.39281 20.2486 1.39267 25.4382 6.58284C30.6369 11.7821 30.6273 20.2057 25.4382 25.3954C22.7642 28.0697 19.2418 29.3652 15.745 29.2896C13.561 29.2424 10.5464 29.2359 8.07136 29.2412C6.8352 29.2439 5.73607 29.2496 4.946 29.2545C4.55099 29.257 4.2333 29.2593 4.01444 29.261L3.67727 29.2638L3.66699 28.2639L3.67594 29.2638L2.6582 29.2729L2.66702 28.2551L3.66699 28.2639" fill="black"/>
<path fill-rule="evenodd" clip-rule="evenodd" d="M9.95508 15.4995H12.0867V17.4995H9.95508V15.4995Z" fill="black"/>
<path fill-rule="evenodd" clip-rule="evenodd" d="M14.9336 15.4995H17.0652V17.4995H14.9336V15.4995Z" fill="black"/>
<path fill-rule="evenodd" clip-rule="evenodd" d="M19.9131 15.4995H22.0447V17.4995H19.9131V15.4995Z" fill="black"/>
</svg>
