<svg width="20" height="20" viewBox="0 0 20 20" fill="none" xmlns="http://www.w3.org/2000/svg">
<path d="M15 11.2418C13.7598 11.2418 12.6617 11.8495 11.9786 12.7798L8.58563 11.0882C8.69188 10.7412 8.75 10.3732 8.75 9.99182C8.75 9.61042 8.69188 9.24245 8.58563 8.89542L11.9786 7.20385C12.6617 8.13417 13.7598 8.74182 15 8.74182C17.0678 8.74182 18.75 7.05963 18.75 4.99182C18.75 2.92401 17.0678 1.24182 15 1.24182C12.9322 1.24182 11.25 2.92401 11.25 4.99182C11.25 5.37323 11.3081 5.7412 11.4144 6.08823L8.02141 7.77979C7.33828 6.84948 6.24016 6.24182 5 6.24182C2.93219 6.24182 1.25 7.92401 1.25 9.99182C1.25 12.0596 2.93219 13.7418 5 13.7418C6.24016 13.7418 7.33828 13.1342 8.02141 12.2039L11.4144 13.8954C11.3081 14.2424 11.25 14.6104 11.25 14.9918C11.25 17.0596 12.9322 18.7418 15 18.7418C17.0678 18.7418 18.75 17.0596 18.75 14.9918C18.75 12.924 17.0678 11.2418 15 11.2418ZM15 2.49182C16.3784 2.49182 17.5 3.61338 17.5 4.99182C17.5 6.37026 16.3784 7.49182 15 7.49182C13.6216 7.49182 12.5 6.37026 12.5 4.99182C12.5 3.61338 13.6216 2.49182 15 2.49182ZM5 12.4918C3.62156 12.4918 2.5 11.3703 2.5 9.99182C2.5 8.61338 3.62156 7.49182 5 7.49182C6.37844 7.49182 7.5 8.61338 7.5 9.99182C7.5 11.3703 6.37844 12.4918 5 12.4918ZM15 17.4918C13.6216 17.4918 12.5 16.3703 12.5 14.9918C12.5 13.6134 13.6216 12.4918 15 12.4918C16.3784 12.4918 17.5 13.6134 17.5 14.9918C17.5 16.3703 16.3784 17.4918 15 17.4918Z" fill="black"/>
</svg>
