<svg width="134" height="134" viewBox="0 0 134 134" fill="none" xmlns="http://www.w3.org/2000/svg">
<path d="M129.134 76.8525C131.262 77.2065 133.287 75.7685 133.515 73.6229C134.844 61.1467 132.616 48.5195 127.049 37.2162C120.905 24.7419 111.005 14.5083 98.7407 7.95546C86.4766 1.40266 72.4663 -1.13931 58.6818 0.687306C44.8974 2.51393 32.0327 8.61717 21.8985 18.138C11.7644 27.6589 4.87091 40.118 2.18842 53.7618C-0.494076 67.4055 1.16945 81.547 6.94486 94.1958C12.7203 106.845 22.3168 117.364 34.3837 124.273C45.3179 130.534 57.7817 133.545 70.3164 132.997C72.4721 132.903 74.0336 130.972 73.8129 128.825C73.5922 126.679 71.6726 125.131 69.5162 125.209C58.6099 125.6 47.7818 122.941 38.2664 117.492C27.6179 111.395 19.1494 102.112 14.0529 90.9503C8.95639 79.7883 7.48841 67.3092 9.85558 55.2692C12.2228 43.2292 18.3059 32.2347 27.2488 23.833C36.1917 15.4313 47.5442 10.0454 59.7083 8.43354C71.8724 6.82163 84.2358 9.0648 95.0583 14.8473C105.881 20.6299 114.618 29.6606 120.039 40.6685C124.883 50.5051 126.862 61.478 125.792 72.3386C125.58 74.486 127.005 76.4984 129.134 76.8525Z" fill="url(#paint0_linear_1363_2840)"/>
<defs>
<linearGradient id="paint0_linear_1363_2840" x1="1.76494" y1="55.6307" x2="133.191" y2="77.4927" gradientUnits="userSpaceOnUse">
<stop stop-color="#00D0BB"/>
<stop offset="1" stop-color="#007EA9"/>
</linearGradient>
</defs>
</svg>
