<svg width="136" height="167" viewBox="0 0 136 167" fill="none" xmlns="http://www.w3.org/2000/svg">
<path d="M111.789 69.0665H24.2104C19.9508 69.0665 16.4832 65.597 16.4832 61.335C16.4832 57.073 19.9508 53.6035 24.2104 53.6035H111.785C116.044 53.6035 119.512 57.073 119.512 61.335C119.512 65.597 116.044 69.0665 111.785 69.0665H111.789Z" fill="#007EA9" fill-opacity="0.16"/>
<path d="M54.3753 37.3958L43.3253 48.4518H36.0085L50.7151 33.7372C51.7196 32.7321 53.3665 32.7321 54.371 33.7372C55.3756 34.7423 55.3756 36.39 54.371 37.3951L54.3753 37.3958Z" fill="#007EA9" fill-opacity="0.16"/>
<path d="M99.9908 48.4526H92.674L81.624 37.3966C80.6195 36.3915 80.6195 34.7438 81.624 33.7387C82.6286 32.7336 84.2754 32.7336 85.2799 33.7387L99.9865 48.4532L99.9908 48.4526Z" fill="#007EA9" fill-opacity="0.16"/>
<path d="M111.79 74.2223H24.2105C23.7758 74.2223 23.3653 74.1353 22.9355 74.0918L30.6966 105.646C32.1164 111.421 37.2551 115.455 43.1999 115.455H92.7942C98.7393 115.455 103.878 111.421 105.298 105.646L113.059 74.0918C112.634 74.1353 112.223 74.2223 111.784 74.2223H111.79ZM76.3554 97.533L70.1494 103.742C68.9614 104.931 67.0392 104.931 65.8511 103.742L59.6452 97.533C57.3173 95.2039 56.9744 91.3719 59.1767 88.9221C61.5238 86.3127 65.5468 86.2306 68.0002 88.6853C70.4537 86.2305 74.4767 86.3127 76.8238 88.9221C79.026 91.3721 78.6832 95.2039 76.3554 97.533Z" fill="#007EA9" fill-opacity="0.16"/>
</svg>
