<svg width="28" height="28" viewBox="0 0 28 28" fill="none" xmlns="http://www.w3.org/2000/svg">
<path d="M19.4208 2H8.57923C4.95144 2 2 4.95144 2 8.57928V19.4208C2 23.0486 4.95144 26 8.57923 26H19.4208C23.0486 26 26 23.0486 26 19.4208V8.57928C26 4.95144 23.0486 2 19.4208 2ZM24.5827 19.4208C24.5827 22.2671 22.2671 24.5827 19.4208 24.5827H8.57923C5.73294 24.5827 3.41731 22.2671 3.41731 19.4208V8.57928C3.41731 5.73294 5.73294 3.41731 8.57923 3.41731H19.4208C22.2671 3.41731 24.5827 5.73294 24.5827 8.57928V19.4208Z" fill="black"/>
<path d="M14.0007 7.41724C10.371 7.41724 7.41797 10.3702 7.41797 13.9999C7.41797 17.6297 10.3709 20.5826 14.0007 20.5826C17.6304 20.5826 20.5834 17.6296 20.5834 13.9999C20.5834 10.3702 17.6304 7.41724 14.0007 7.41724ZM14.0007 19.1654C11.1525 19.1654 8.83523 16.8481 8.83523 13.9999C8.83523 11.1517 11.1525 8.83446 14.0007 8.83446C16.8489 8.83446 19.1662 11.1517 19.1662 13.9999C19.1662 16.8482 16.8489 19.1654 14.0007 19.1654Z" fill="black"/>
<path d="M20.9756 5.02368C19.8728 5.02368 18.9756 5.92092 18.9756 7.0237C18.9756 8.12648 19.8728 9.02367 20.9756 9.02367C22.0783 9.02367 22.9755 8.12643 22.9755 7.02365C22.9755 5.92087 22.0783 5.02368 20.9756 5.02368ZM20.9756 7.60631C20.6543 7.60631 20.3929 7.34493 20.3929 7.02365C20.3929 6.70237 20.6543 6.44099 20.9756 6.44099C21.2968 6.44099 21.5582 6.70242 21.5582 7.02365C21.5582 7.34488 21.2968 7.60631 20.9756 7.60631Z" fill="black"/>
</svg>
