<svg width="62" height="21" viewBox="0 0 62 21" fill="none" xmlns="http://www.w3.org/2000/svg">
<path d="M55.3333 4H0V18H55.3333L50.5796 11.4667L55.3333 4Z" fill="url(#paint0_linear_1380_1382)"/>
<path d="M7.21268 12.666V8.03935H7.65268L7.83935 8.76602V12.666H7.21268ZM10.4127 12.666L7.57268 8.87268L7.65268 8.03935L10.4993 11.826L10.4127 12.666ZM10.4127 12.666L10.226 11.9793V8.03935H10.8527V12.666H10.4127ZM13.4391 12.7327C13.1235 12.7327 12.8391 12.6616 12.5858 12.5193C12.3324 12.3727 12.1324 12.1749 11.9858 11.926C11.8391 11.6771 11.7658 11.3949 11.7658 11.0793C11.7658 10.7682 11.8369 10.4882 11.9791 10.2393C12.1258 9.99046 12.3213 9.7949 12.5658 9.65268C12.8146 9.50602 13.0924 9.43268 13.3991 9.43268C13.6924 9.43268 13.9502 9.49935 14.1724 9.63268C14.3991 9.76602 14.5746 9.95046 14.6991 10.186C14.828 10.4216 14.8924 10.6882 14.8924 10.986C14.8924 11.0305 14.8902 11.0793 14.8858 11.1327C14.8813 11.1816 14.8724 11.2393 14.8591 11.306H12.1858V10.806H14.5391L14.3191 10.9993C14.3191 10.786 14.2813 10.606 14.2058 10.4593C14.1302 10.3082 14.0235 10.1927 13.8858 10.1127C13.748 10.0282 13.5813 9.98602 13.3858 9.98602C13.1813 9.98602 13.0013 10.0305 12.8458 10.1193C12.6902 10.2082 12.5702 10.3327 12.4858 10.4927C12.4013 10.6527 12.3591 10.8416 12.3591 11.0593C12.3591 11.2816 12.4035 11.4771 12.4924 11.646C12.5813 11.8105 12.708 11.9393 12.8724 12.0327C13.0369 12.1216 13.2258 12.166 13.4391 12.166C13.6169 12.166 13.7791 12.1349 13.9258 12.0727C14.0769 12.0105 14.2058 11.9171 14.3124 11.7927L14.6991 12.186C14.548 12.3638 14.3613 12.4993 14.1391 12.5927C13.9213 12.686 13.688 12.7327 13.4391 12.7327ZM16.5476 12.666L15.2942 9.49935H15.9209L16.8276 11.966H16.6276L17.5276 9.49935H17.8742L18.7742 11.966H18.5742L19.4809 9.49935H20.1076L18.8609 12.666H18.5076L17.5942 10.2727H17.8142L16.8942 12.666H16.5476ZM21.8722 12.666L23.7655 8.03935H24.2188L26.1055 12.666H25.4255L23.8722 8.75268H24.1055L22.5388 12.666H21.8722ZM22.7722 11.6193V11.0727H25.2055V11.6193H22.7722ZM26.8808 12.666V9.49935H27.4808V12.666H26.8808ZM27.4808 10.8593L27.2541 10.7593C27.2541 10.3549 27.3474 10.0327 27.5341 9.79268C27.7208 9.55268 27.9896 9.43268 28.3408 9.43268C28.5008 9.43268 28.6452 9.46157 28.7741 9.51935C28.903 9.57268 29.023 9.66379 29.1341 9.79268L28.7408 10.1993C28.6741 10.1282 28.6008 10.0771 28.5208 10.046C28.4408 10.0149 28.3474 9.99935 28.2408 9.99935C28.0185 9.99935 27.8363 10.0705 27.6941 10.2127C27.5519 10.3549 27.4808 10.5705 27.4808 10.8593ZM29.7029 12.666V9.49935H30.3029V12.666H29.7029ZM30.3029 10.8593L30.0762 10.7593C30.0762 10.3549 30.1696 10.0327 30.3562 9.79268C30.5429 9.55268 30.8118 9.43268 31.1629 9.43268C31.3229 9.43268 31.4673 9.46157 31.5962 9.51935C31.7251 9.57268 31.8451 9.66379 31.9562 9.79268L31.5629 10.1993C31.4962 10.1282 31.4229 10.0771 31.3429 10.046C31.2629 10.0149 31.1696 9.99935 31.0629 9.99935C30.8407 9.99935 30.6584 10.0705 30.5162 10.2127C30.374 10.3549 30.3029 10.5705 30.3029 10.8593ZM32.5187 12.666V9.49935H33.1187V12.666H32.5187ZM32.8187 8.86602C32.7076 8.86602 32.6165 8.83046 32.5453 8.75935C32.4742 8.68379 32.4387 8.59046 32.4387 8.47935C32.4387 8.37268 32.4742 8.28379 32.5453 8.21268C32.6165 8.13713 32.7076 8.09935 32.8187 8.09935C32.9298 8.09935 33.0209 8.13713 33.092 8.21268C33.1631 8.28379 33.1987 8.37268 33.1987 8.47935C33.1987 8.59046 33.1631 8.68379 33.092 8.75935C33.0209 8.83046 32.9298 8.86602 32.8187 8.86602ZM35.2229 12.666L33.7696 9.49935H34.4362L35.6029 12.1727H35.2162L36.3896 9.49935H37.0296L35.5762 12.666H35.2229ZM38.8975 12.7327C38.6086 12.7327 38.3464 12.6616 38.1108 12.5193C37.8753 12.3727 37.6886 12.1749 37.5508 11.926C37.4175 11.6771 37.3508 11.3971 37.3508 11.086C37.3508 10.7749 37.4175 10.4949 37.5508 10.246C37.6886 9.99713 37.873 9.79935 38.1041 9.65268C38.3397 9.50602 38.6041 9.43268 38.8975 9.43268C39.1375 9.43268 39.3508 9.48379 39.5375 9.58602C39.7286 9.68379 39.8819 9.82157 39.9975 9.99935C40.113 10.1727 40.1775 10.3749 40.1908 10.606V11.5593C40.1775 11.786 40.113 11.9882 39.9975 12.166C39.8864 12.3438 39.7353 12.4838 39.5441 12.586C39.3575 12.6838 39.1419 12.7327 38.8975 12.7327ZM38.9975 12.166C39.2953 12.166 39.5353 12.066 39.7175 11.866C39.8997 11.6616 39.9908 11.4016 39.9908 11.086C39.9908 10.8682 39.9486 10.6793 39.8641 10.5193C39.7841 10.3549 39.6686 10.2282 39.5175 10.1393C39.3664 10.046 39.1908 9.99935 38.9908 9.99935C38.7908 9.99935 38.613 10.046 38.4575 10.1393C38.3064 10.2327 38.1864 10.3616 38.0975 10.526C38.013 10.686 37.9708 10.8705 37.9708 11.0793C37.9708 11.2927 38.013 11.4816 38.0975 11.646C38.1864 11.806 38.3086 11.9327 38.4641 12.026C38.6197 12.1193 38.7975 12.166 38.9975 12.166ZM39.9508 12.666V11.8127L40.0641 11.0393L39.9508 10.2727V9.49935H40.5575V12.666H39.9508ZM41.5644 12.666V7.90602H42.1644V12.666H41.5644ZM44.1822 12.7327C44.0044 12.7327 43.8355 12.7105 43.6755 12.666C43.52 12.6171 43.3755 12.5505 43.2422 12.466C43.1089 12.3771 42.9933 12.2727 42.8955 12.1527L43.2822 11.766C43.3978 11.9082 43.5311 12.0149 43.6822 12.086C43.8333 12.1527 44.0022 12.186 44.1889 12.186C44.3756 12.186 44.52 12.1549 44.6222 12.0927C44.7244 12.026 44.7756 11.9349 44.7756 11.8193C44.7756 11.7038 44.7333 11.6149 44.6489 11.5527C44.5689 11.486 44.4644 11.4327 44.3356 11.3927C44.2067 11.3482 44.0689 11.306 43.9222 11.266C43.78 11.2216 43.6444 11.166 43.5156 11.0993C43.3867 11.0327 43.28 10.9416 43.1955 10.826C43.1155 10.7105 43.0755 10.5571 43.0755 10.366C43.0755 10.1749 43.1222 10.0105 43.2155 9.87268C43.3089 9.73046 43.4378 9.62157 43.6022 9.54602C43.7711 9.47046 43.9733 9.43268 44.2089 9.43268C44.4578 9.43268 44.6778 9.47713 44.8689 9.56602C45.0644 9.65046 45.2244 9.77935 45.3489 9.95268L44.9622 10.3393C44.8733 10.2238 44.7622 10.1349 44.6289 10.0727C44.5 10.0105 44.3533 9.97935 44.1889 9.97935C44.0156 9.97935 43.8822 10.0105 43.7889 10.0727C43.7 10.1305 43.6556 10.2127 43.6556 10.3193C43.6556 10.426 43.6956 10.5082 43.7755 10.566C43.8556 10.6238 43.96 10.6727 44.0889 10.7127C44.2222 10.7527 44.36 10.7949 44.5022 10.8393C44.6444 10.8793 44.78 10.9349 44.9089 11.006C45.0378 11.0771 45.1422 11.1727 45.2222 11.2927C45.3067 11.4127 45.3489 11.5705 45.3489 11.766C45.3489 12.0638 45.2422 12.2993 45.0289 12.4727C44.82 12.646 44.5378 12.7327 44.1822 12.7327Z" fill="white"/>
<defs>
<linearGradient id="paint0_linear_1380_1382" x1="0" y1="11" x2="55.3333" y2="11" gradientUnits="userSpaceOnUse">
<stop stop-color="#25BCB4"/>
<stop offset="1" stop-color="#007EA9"/>
</linearGradient>
</defs>
</svg>
