<svg width="32" height="39" viewBox="0 0 32 39" fill="none" xmlns="http://www.w3.org/2000/svg">
<path d="M22.3542 0L0 27.1875V38.041L32 0H22.3542Z" fill="url(#paint0_linear_1381_1379)"/>
<path d="M11.8991 21.0243L8.92316 18.5757L9.20301 18.2356L9.8866 18.5486L12.3013 20.5354L11.8991 21.0243ZM13.5956 18.9625L9.80448 18.8303L9.20301 18.2356L12.9941 18.3678L13.5956 18.9625ZM13.5956 18.9625L12.9503 18.681L10.4973 16.6627L10.8995 16.1738L13.8754 18.6224L13.5956 18.9625ZM15.1765 17.1278C15.0086 17.3318 14.8117 17.4787 14.5857 17.5685C14.3593 17.6531 14.1256 17.6771 13.8848 17.6405C13.6463 17.6011 13.4264 17.4986 13.2252 17.3331C13.024 17.1675 12.8825 16.9727 12.8007 16.7485C12.7161 16.5221 12.6924 16.291 12.7294 16.0553C12.7688 15.8168 12.869 15.5998 13.0299 15.4043C13.1861 15.2144 13.3677 15.0833 13.5744 15.011C13.7836 14.936 13.9985 14.9203 14.2191 14.964C14.4421 15.0049 14.6514 15.1058 14.847 15.2667C14.881 15.2947 14.9141 15.3267 14.9463 15.3627C14.978 15.3935 15.0115 15.4307 15.0471 15.4741L13.6689 17.1491L13.2862 16.8343L14.4651 15.4016L14.4747 15.7019C14.3453 15.6049 14.2206 15.5427 14.1006 15.5153C13.9806 15.4878 13.8653 15.4951 13.7547 15.5372C13.6463 15.5764 13.5456 15.6527 13.4523 15.7661C13.3543 15.8851 13.2947 16.0095 13.2734 16.1394C13.2522 16.2692 13.2685 16.3967 13.3224 16.5218C13.3734 16.6446 13.4627 16.7585 13.5902 16.8634C13.7178 16.9684 13.8507 17.035 13.989 17.0633C14.1274 17.0915 14.262 17.0811 14.3928 17.0318C14.5207 16.9803 14.6349 16.8936 14.7351 16.7717C14.8214 16.6668 14.8823 16.5553 14.9177 16.4371C14.9555 16.3161 14.9646 16.1953 14.9451 16.0747L15.4918 16.0254C15.5264 16.2202 15.5151 16.413 15.458 16.6037C15.4009 16.7943 15.3071 16.969 15.1765 17.1278ZM16.6917 15.1996L13.976 14.341L14.3748 13.8564L16.3132 14.5245L16.1985 14.6726L15.1548 12.9084L15.3787 12.6363L17.3109 13.3207L17.1877 13.4617L16.1588 11.6883L16.5575 11.2036L17.923 13.7031L17.6992 13.9752L15.833 13.3666L15.9589 13.2135L16.9156 14.9275L16.6917 15.1996Z" fill="white"/>
<defs>
<linearGradient id="paint0_linear_1381_1379" x1="14.5" y1="0" x2="14.5" y2="33.8333" gradientUnits="userSpaceOnUse">
<stop stop-color="#00D0BB"/>
<stop offset="1" stop-color="#007EA9"/>
</linearGradient>
</defs>
</svg>
