<svg width="14" height="15" viewBox="0 0 14 15" fill="none" xmlns="http://www.w3.org/2000/svg">
<path fill-rule="evenodd" clip-rule="evenodd" d="M2.04163 6.26828C2.04163 3.58503 4.28389 1.41626 6.99614 1.41626C9.71603 1.41626 11.9583 3.58503 11.9583 6.26828C11.9583 7.62041 11.4665 8.87571 10.6572 9.93968C9.76426 11.1133 8.66372 12.1359 7.42494 12.9385C7.14142 13.124 6.88555 13.138 6.57439 12.9385C5.32855 12.1359 4.22801 11.1133 3.34275 9.93968C2.53278 8.87571 2.04163 7.62041 2.04163 6.26828ZM5.36326 6.41936C5.36326 7.31825 6.09676 8.02523 6.99614 8.02523C7.8961 8.02523 8.63666 7.31825 8.63666 6.41936C8.63666 5.52747 7.8961 4.78608 6.99614 4.78608C6.09676 4.78608 5.36326 5.52747 5.36326 6.41936Z" fill="#130F26"/>
</svg>
