<?xml version="1.0" encoding="UTF-8"?>
<svg version="1.1" xmlns="http://www.w3.org/2000/svg" width="512" height="512">
<path d="M0 0 C1.10756653 -0.00426498 2.21513306 -0.00852997 3.35626221 -0.01292419 C5.17974686 -0.01224442 5.17974686 -0.01224442 7.04006958 -0.0115509 C8.31994751 -0.01490952 9.59982544 -0.01826813 10.91848755 -0.02172852 C14.43093507 -0.03056809 17.94335823 -0.03290662 21.45581579 -0.0335443 C24.38818498 -0.03449375 27.3205485 -0.03817249 30.2529155 -0.0417164 C37.17187864 -0.04986093 44.09082876 -0.05230065 51.00979614 -0.05158997 C58.14604258 -0.05098928 65.2822134 -0.06153932 72.4184407 -0.07733363 C78.54592077 -0.09041185 84.67337614 -0.09577374 90.80087006 -0.09513456 C94.46021884 -0.09487964 98.11950043 -0.0977275 101.7788353 -0.10831261 C105.86075759 -0.11979753 109.94251061 -0.11524504 114.02444458 -0.10920715 C115.23605255 -0.11482666 116.44766052 -0.12044617 117.69598389 -0.12623596 C119.36579315 -0.11994423 119.36579315 -0.11994423 121.06933594 -0.11352539 C122.03424391 -0.11407016 122.99915188 -0.11461493 123.99329948 -0.1151762 C126.99993143 0.16526562 129.01560018 0.66575569 131.66165161 2.13371277 C134.41238758 5.63800025 135.03739054 8.27426281 135.04260254 12.67460632 C135.05106201 13.77650803 135.05952148 14.87840973 135.0682373 16.01370239 C135.05912827 17.81237511 135.05912827 17.81237511 135.04983521 19.64738464 C135.05772064 21.55300926 135.05772064 21.55300926 135.06576538 23.49713135 C135.0794205 26.97442048 135.07414795 30.45144203 135.06462812 33.92873573 C135.05702211 37.5712467 135.06407975 41.21373506 135.06878662 44.85624695 C135.07424144 50.97270309 135.0670598 57.08905049 135.05276489 63.20549011 C135.03643883 70.27253481 135.04172753 77.33931984 135.05824411 84.40635824 C135.07186683 90.47869635 135.07377482 96.55095639 135.0659281 102.62330484 C135.06125588 106.24798748 135.06061425 109.87254814 135.07053757 113.4972229 C135.08082853 117.53831817 135.06655709 121.57896718 135.04983521 125.62004089 C135.0559079 126.81915604 135.06198059 128.01827118 135.0682373 129.25372314 C135.0555481 130.9065757 135.0555481 130.9065757 135.04260254 132.59281921 C135.04147146 133.5477552 135.04034039 134.50269119 135.03917503 135.48656464 C134.5855236 138.66751311 133.52631809 140.53720442 131.66165161 143.13371277 C126.13481571 147.23167747 119.83043609 146.55594516 113.24978638 146.52189636 C112.00194366 146.52715332 110.75410095 146.53241028 109.46844482 146.53782654 C106.05708896 146.54874757 102.64628089 146.54621624 99.23495603 146.53668928 C95.65744897 146.52907243 92.07996468 146.53614406 88.50245667 146.54084778 C82.49452534 146.54630016 76.48670478 146.53912811 70.47879028 146.52482605 C63.54411545 146.50850788 56.60970536 146.51378393 49.67503697 146.53030527 C43.71050178 146.54394383 37.74604604 146.54582802 31.78150028 146.53798926 C28.22383758 146.53332477 24.66629908 146.53265384 21.10864449 146.54259872 C17.13996312 146.55291824 13.17157532 146.53859225 9.20291138 146.52189636 C8.03125931 146.52796906 6.85960724 146.53404175 5.65245056 146.54029846 C-0.42074338 146.49300734 -5.04182989 146.23432614 -10.33834839 143.13371277 C-12.58116417 139.7694891 -12.59230093 138.65439475 -12.60577393 134.71943665 C-12.61430389 133.59504181 -12.62283386 132.47064697 -12.63162231 131.31217957 C-12.63071594 130.07782166 -12.62980957 128.84346375 -12.62887573 127.57170105 C-12.63559296 126.27231598 -12.64231018 124.97293091 -12.64923096 123.63417053 C-12.6669111 120.0679917 -12.67158719 116.50190882 -12.67286253 112.9356904 C-12.67476134 109.9585776 -12.68211871 106.98148716 -12.68920672 104.00438297 C-12.70549615 96.97993581 -12.71037519 89.95553992 -12.70895386 82.93107605 C-12.70775245 75.68567362 -12.72885265 68.44056909 -12.76044118 61.19524205 C-12.78659661 54.97433385 -12.79732146 48.75352299 -12.79604304 42.53256023 C-12.79553316 38.81724065 -12.80123033 35.10218573 -12.82239914 31.38692093 C-12.84536762 27.24257818 -12.83626521 23.0989023 -12.82418823 18.95451355 C-12.83542725 17.7242041 -12.84666626 16.49389465 -12.85824585 15.2263031 C-12.84985687 14.09626862 -12.8414679 12.96623413 -12.83282471 11.80195618 C-12.83445901 10.33247119 -12.83445901 10.33247119 -12.83612633 8.83329964 C-12.19140501 5.33679833 -10.8007199 3.65504564 -8.33834839 1.13371277 C-5.27842293 0.11373762 -3.20370582 0.00556852 0 0 Z " fill="#25BCB4" transform="translate(24.338348388671875,133.8662872314453)"/>
<path d="M0 0 C0.67605071 -0.00297112 1.35210142 -0.00594224 2.04863852 -0.0090034 C4.32481172 -0.01770808 6.60093243 -0.01920014 8.87712097 -0.02069092 C10.50475172 -0.02531786 12.13238138 -0.03034236 13.76000977 -0.03573608 C18.18983743 -0.0488745 22.61964992 -0.05530791 27.04949403 -0.05974674 C29.81580132 -0.06267531 32.58210445 -0.06677971 35.34840965 -0.07125092 C43.99977754 -0.08493 52.65113594 -0.09459449 61.3025139 -0.09845281 C71.29612301 -0.10293392 81.28959537 -0.12048252 91.28316289 -0.1494534 C99.00296555 -0.17105738 106.72272971 -0.18115641 114.44256228 -0.18249393 C119.05545883 -0.18354293 123.66822691 -0.18947089 128.28109169 -0.20731354 C132.62064402 -0.22377193 136.959971 -0.22596064 141.29954338 -0.21717453 C142.89227018 -0.21640294 144.48500898 -0.22076294 146.07770538 -0.23063278 C148.25251231 -0.24331938 150.42651715 -0.23749409 152.60131836 -0.22705078 C153.81825284 -0.22851734 155.03518732 -0.2299839 156.2889986 -0.2314949 C159.79903012 0.17620479 161.6707031 1.05382578 164.49113464 3.14044189 C167.90858824 7.95265585 166.85999714 14.44064824 166.86613464 20.07794189 C166.89062683 21.25807861 166.91511902 22.43821533 166.94035339 23.65411377 C166.94422058 24.79300049 166.94808777 25.93188721 166.95207214 27.10528564 C166.96028992 28.14290039 166.96850769 29.18051514 166.97697449 30.24957275 C166.36992267 33.86168357 165.04071187 35.55849757 162.49113464 38.14044189 C161.83113464 38.14044189 161.17113464 38.14044189 160.49113464 38.14044189 C163.20342488 55.14610279 166.96201538 71.31662278 172.60905457 87.59283447 C173.59282789 90.43415046 174.54029888 93.28793461 175.49113464 96.14044189 C217.40113464 96.14044189 259.31113464 96.14044189 302.49113464 96.14044189 C302.82113464 104.72044189 303.15113464 113.30044189 303.49113464 122.14044189 C250.69113464 122.14044189 197.89113464 122.14044189 143.49113464 122.14044189 C143.49113464 113.89044189 143.49113464 105.64044189 143.49113464 97.14044189 C140.32463725 82.84322638 135.17915209 72.00992488 125.49113464 61.14044189 C125.49113464 60.48044189 125.49113464 59.82044189 125.49113464 59.14044189 C124.90074402 58.86587158 124.31035339 58.59130127 123.70207214 58.30841064 C121.58184291 57.18836022 119.95908288 55.97483354 118.11613464 54.45294189 C103.53109241 43.37156903 86.20446235 38.79048137 68.05363464 40.76544189 C54.67035621 42.82334539 41.85144674 47.6651608 31.90129089 57.00372314 C30.49113464 58.14044189 30.49113464 58.14044189 28.49113464 58.14044189 C28.24879089 58.68958252 28.00644714 59.23872314 27.75675964 59.80450439 C26.21045524 62.65848598 24.27740858 64.98741473 22.24113464 67.51544189 C9.4473431 84.14917611 9.21575302 102.03758368 9.49113464 122.14044189 C-2.38886536 122.14044189 -14.26886536 122.14044189 -26.50886536 122.14044189 C-25.17114424 100.73690406 -20.01749123 82.41343168 -13.50886536 62.14044189 C-13.24364075 61.31157471 -12.97841614 60.48270752 -12.70515442 59.62872314 C-10.57367815 53.00003441 -8.30899854 46.51896878 -5.50886536 40.14044189 C-6.47824036 39.52169189 -7.44761536 38.90294189 -8.44636536 38.26544189 C-11.50886536 36.14044189 -11.50886536 36.14044189 -12.50886536 34.14044189 C-12.76594595 30.03637186 -12.77982874 25.9306368 -12.80403137 21.81915283 C-12.82124474 19.77973197 -12.86513371 17.74193307 -12.90925598 15.70294189 C-12.91763489 14.41645752 -12.92601379 13.12997314 -12.93464661 11.80450439 C-12.94922913 10.62323975 -12.96381165 9.4419751 -12.97883606 8.22491455 C-12.41552278 4.52782369 -11.40816843 3.41468289 -8.50886536 1.14044189 C-5.6454512 -0.29126518 -3.20192458 0.00783403 0 0 Z " fill="#25BCB4" transform="translate(65.50886535644531,288.85955810546875)"/>
<path d="M0 0 C7.30298094 4.47853746 11.30454004 11.29268482 13.5 19.4375 C14.98526728 28.06722814 14.35658028 35.92178055 12.5 44.4375 C9.5 43.4375 9.5 43.4375 7.81640625 40.33984375 C7.22218936 39.02250933 6.63806615 37.70058941 6.0625 36.375 C5.44034342 35.00249569 4.81794964 33.63009887 4.1953125 32.2578125 C3.23817695 30.11236439 2.29573138 27.96275156 1.3671875 25.8046875 C-0.78539918 21.04729005 -2.64119406 18.48331303 -7.5 16.4375 C-13.45884382 15.70877515 -18.62926987 15.56664287 -24.125 18.125 C-28.01260993 21.91030441 -30.20299948 25.42075486 -30.6796875 30.96484375 C-29.60921926 45.69541752 -18.0240753 63.62337436 -8.5 74.4375 C-7.36201331 75.35186927 -6.20699683 76.24530024 -5.0390625 77.12109375 C4.09793227 84.27664476 4.09793227 84.27664476 4.88427734 90.45849609 C4.88965584 97.87329304 3.85858215 105.15968517 2.5 112.4375 C3.75731934 112.4060791 5.01463867 112.3746582 6.31005859 112.34228516 C51.27045034 111.31635602 51.27045034 111.31635602 72.15307617 117.80566406 C74.4672643 118.42868694 76.62792214 118.71527499 79.01171875 118.91796875 C82.5 119.4375 82.5 119.4375 84.12109375 120.9609375 C89.21933086 132.52344654 87.42359489 141.19461261 84.17578125 153.16796875 C83.82782501 154.48831381 83.48110614 155.80898549 83.13554382 157.12995911 C82.22561207 160.5975853 81.30201642 164.06140751 80.37445068 167.52435303 C78.72982767 173.67217429 77.10788754 179.8260184 75.48828125 185.98046875 C75.31293036 186.64493326 75.13757946 187.30939777 74.9569149 187.99399757 C71.97081156 199.32987828 69.39484924 210.72322784 66.98245239 222.19308472 C65.99294658 226.79636164 64.83623791 231.34321438 63.5625 235.875 C63.34916016 236.70580078 63.13582031 237.53660156 62.91601562 238.39257812 C60.87717858 245.68070268 57.3272272 251.03134919 51.5625 255.9375 C45.74529978 258.81371036 38.74986136 258.30184253 32.5 257.4375 C25.76656126 254.86073713 21.44262867 249.92704716 18.5 243.4375 C16.14795817 236.8811834 17.59102922 229.91417204 19.328125 223.4140625 C19.51840271 222.66901459 19.70868042 221.92396667 19.90472412 221.15634155 C20.51084551 218.78930693 21.12969839 216.42585398 21.75 214.0625 C22.55121636 210.97246477 23.34696665 207.88104687 24.140625 204.7890625 C24.34022827 204.01419495 24.53983154 203.23932739 24.7454834 202.440979 C26.28006982 196.43231008 27.6439907 190.39604549 28.95904541 184.33609009 C30.93237163 175.31937164 33.22206856 166.38118165 35.5 157.4375 C34.69535309 157.43163376 33.89070618 157.42576752 33.06167603 157.41972351 C25.44162479 157.36158005 17.82189248 157.28938142 10.20212746 157.20178509 C6.28565188 157.15724679 2.36927637 157.11795543 -1.54736328 157.09106445 C-5.33419095 157.06486485 -9.12063006 157.02434815 -12.90721512 156.97431374 C-14.34468338 156.95775667 -15.78221867 156.94617345 -17.21976852 156.93988609 C-29.05314092 156.88294376 -39.62438864 156.11167743 -48.5 147.49609375 C-55.50542547 140.09146205 -58.88297621 132.42979319 -60.25 122.375 C-60.37068848 121.497229 -60.49137695 120.61945801 -60.61572266 119.71508789 C-63.75705326 93.58694838 -61.21222735 68.37919831 -54.75 43 C-54.43933594 41.75524902 -54.12867188 40.51049805 -53.80859375 39.22802734 C-49.95200687 24.82536549 -43.50162541 11.41408104 -30.296875 3.5234375 C-20.99924846 -1.21520791 -10.1515115 -4.61253144 0 0 Z " fill="#25BCB4" transform="translate(227.5,121.5625)"/>
<path d="M0 0 C12.00404882 9.84564447 19.83340027 23.60772195 22 39 C23.1185756 57.77916345 18.49989818 73.15492301 6.2890625 87.65234375 C-4.77664575 99.00130392 -18.66643007 106.14854351 -34.54077148 106.38012695 C-53.28657008 106.34958449 -53.28657008 106.34958449 -62 102 C-62.77730469 101.63777344 -63.55460937 101.27554688 -64.35546875 100.90234375 C-79.74790265 93.08690829 -89.75886568 80.81537601 -96 65 C-100.51932104 49.87980244 -99.01199871 33.68878057 -92.1875 19.6875 C-91.85621094 19.00502197 -91.52492188 18.32254395 -91.18359375 17.61938477 C-88.99061205 13.33832601 -86.5737732 10.29281619 -83 7 C-82.35160156 6.28199219 -81.70320313 5.56398438 -81.03515625 4.82421875 C-59.33609827 -18.67951336 -24.61881202 -18.90466802 0 0 Z M-55.55859375 31.35546875 C-60.37031417 36.84526359 -60.60137876 42.64174396 -60.40625 49.70703125 C-59.66799778 55.6911334 -57.66504561 60.67345816 -53.0625 64.69140625 C-45.54462983 69.68908131 -37.71630052 69.70536314 -29 68 C-23.4854363 65.34676652 -19.93118071 61.27612529 -17 56 C-14.87019305 49.61057915 -14.80395736 41.59990967 -17.6875 35.4375 C-20.81801929 30.20898357 -25.40091148 27.21850677 -31 25 C-40.44261838 22.8891075 -48.47719061 24.602669 -55.55859375 31.35546875 Z " fill="#25BCB4" transform="translate(474,350)"/>
<path d="M0 0 C3.50173978 2.84252672 6.77649567 5.84728209 10 9 C10.9590625 9.88751953 10.9590625 9.88751953 11.9375 10.79296875 C21.73509636 20.69991328 25.80056854 35.76600599 26.3125 49.3125 C25.92347829 66.38082768 19.80063875 81.5715374 7.53125 93.375 C-7.71881125 106.65152392 -23.45594591 109.9445716 -43.24169922 109.19091797 C-48.68115769 108.81442155 -53.17072471 107.46570249 -58 105 C-58.99773437 104.50242187 -59.99546875 104.00484375 -61.0234375 103.4921875 C-76.65433318 95.02709286 -87.50545121 81.85267558 -92.6796875 64.75390625 C-96.93514838 47.00338794 -92.61956833 31.46110911 -84 16 C-83.61070313 15.29875 -83.22140625 14.5975 -82.8203125 13.875 C-75.87889361 2.93086511 -60.95073781 -6.6524447 -48.4375 -9.5625 C-30.97128215 -11.78547318 -14.58418028 -10.67770342 0 0 Z M-51 34 C-55.25302484 39.31628105 -57.35626558 44.60587646 -56.875 51.4375 C-55.77355703 58.79714167 -52.72142249 64.21652452 -46.8515625 68.8125 C-41.03508939 72.54289626 -34.35719733 72.76006378 -27.73828125 71.60546875 C-21.31231883 69.91442601 -17.52286958 66.58341594 -14 61 C-10.4813533 53.89209831 -10.51009639 47.46971083 -13 40 C-15.82661118 33.77207246 -20.75465789 30.46956338 -27 28 C-35.82336334 25.53554334 -44.00561346 28.30689468 -51 34 Z " fill="#25BCB4" transform="translate(176,347)"/>
<path d="M0 0 C4.38613941 2.95587656 5.45027213 6.11977617 7.01855469 11.01049805 C8.25566448 14.77875908 9.58517976 18.51079885 10.91796875 22.24609375 C11.4551328 23.75714202 11.99224129 25.26821005 12.52929688 26.77929688 C13.36405051 29.12575842 14.1997773 31.47185742 15.0378418 33.81713867 C15.85487169 36.10496433 16.66798755 38.39414946 17.48046875 40.68359375 C17.73354294 41.38874619 17.98661713 42.09389862 18.24736023 42.82041931 C20 47.7728161 20 47.7728161 20 50 C20.81726563 50.23460937 21.63453125 50.46921875 22.4765625 50.7109375 C42.90323359 58.18410985 59.96512135 75.09072045 69.1484375 94.5 C75.27308159 107.78695654 75.27308159 107.78695654 76 113 C76.93005859 112.94779297 76.93005859 112.94779297 77.87890625 112.89453125 C98.4903319 112.26448767 117.49904893 119.44695292 132.57421875 133.23828125 C147.98608283 147.75279659 147.98608283 147.75279659 149.34375 157.45703125 C149.375 159.6875 149.375 159.6875 149 163 C145.7734375 163.80859375 145.7734375 163.80859375 142 164 C139.6640625 161.97265625 139.6640625 161.97265625 137.625 159.0625 C126.39764797 144.29853208 111.08398208 136.28656941 92.8046875 133.515625 C74.61800614 131.86669922 56.56691304 136.51727441 41.8671875 147.609375 C39.10620532 149.94292479 36.54391257 152.43337392 34 155 C31.21655493 152.21655493 30.37932553 148.89719269 29.125 145.25 C28.88136719 144.56550781 28.63773437 143.88101563 28.38671875 143.17578125 C26.81670213 138.67723623 25.47529063 134.14841542 24.2109375 129.5546875 C21.75011169 120.83324858 18.6281359 112.37525398 15.5 103.875 C14.3622172 100.76909092 13.22709077 97.6622201 12.09375 94.5546875 C11.82055939 93.80574219 11.54736877 93.05679688 11.26589966 92.28515625 C9.06412575 86.22597651 6.99772586 80.12952387 5 74 C3.37888012 69.08205021 1.75368436 64.16544975 0.125 59.25 C-0.09210632 58.59446136 -0.30921265 57.93892273 -0.53289795 57.26351929 C-3.49411664 48.33780121 -6.57866889 39.48485625 -10.0390625 30.73828125 C-11 28 -11 28 -11 25 C-11.91523438 25.3609375 -12.83046875 25.721875 -13.7734375 26.09375 C-15.55621094 26.78984375 -15.55621094 26.78984375 -17.375 27.5 C-18.55835938 27.9640625 -19.74171875 28.428125 -20.9609375 28.90625 C-24 30 -24 30 -26 30 C-26.17015625 29.33613281 -26.3403125 28.67226562 -26.515625 27.98828125 C-27.91627221 22.88485924 -29.09260506 18.78528885 -33 15 C-33.99 14.67 -34.98 14.34 -36 14 C-36 13.01 -36 12.02 -36 11 C-32.32818771 9.4126042 -28.64783992 7.84710334 -24.95874023 6.30029297 C-23.70824388 5.77253102 -22.46011546 5.23911791 -21.21459961 4.69970703 C-13.9560098 1.56101477 -7.96409731 -0.97402629 0 0 Z " fill="#25BCB4" transform="translate(351,196)"/>
<path d="M0 0 C1.19044922 -0.03287109 2.38089844 -0.06574219 3.60742188 -0.09960938 C22.16721044 -0.21062497 37.97276291 10.27783244 51.3125 22.4375 C54.2325767 25.61536125 56.82164501 28.9176772 59.3125 32.4375 C60.15748047 33.47583984 60.15748047 33.47583984 61.01953125 34.53515625 C62.3125 36.4375 62.3125 36.4375 62.3125 39.4375 C48.7825 39.7675 35.2525 40.0975 21.3125 40.4375 C19.81924313 52.62632689 19.81924313 52.62632689 23.08203125 64.109375 C25.73699459 65.91080408 28.37317814 67.15177894 31.3125 68.4375 C33.72869929 69.85228819 36.07697463 71.36971388 38.4375 72.875 C40.3939555 74.06559128 42.35161983 75.25421024 44.3125 76.4375 C43.61901025 81.78020165 42.63110735 86.99721652 41.4375 92.25 C41.19580078 93.3937207 41.19580078 93.3937207 40.94921875 94.56054688 C39.66169187 100.20470542 39.66169187 100.20470542 36.3125 102.4375 C35.72871582 102.0751123 35.14493164 101.71272461 34.54345703 101.33935547 C31.84194251 99.66297637 29.1397249 97.98773376 26.4375 96.3125 C25.06078125 95.45785156 25.06078125 95.45785156 23.65625 94.5859375 C19.08519852 91.7531732 14.50649841 88.93358143 9.90625 86.1484375 C9.13216797 85.67970215 8.35808594 85.2109668 7.56054688 84.72802734 C5.31169625 83.43703859 3.03104229 82.29576193 0.6875 81.1875 C-6.13816407 77.86079622 -12.44525495 73.66179918 -18.84863281 69.60058594 C-25.29328156 65.52433705 -31.76436524 61.78708928 -38.65625 58.515625 C-40.6875 57.4375 -40.6875 57.4375 -42.6875 55.4375 C-43.64875973 48.56732016 -42.52555343 41.19985302 -41.9375 34.3125 C-41.87594727 33.47799316 -41.81439453 32.64348633 -41.75097656 31.78369141 C-40.81148631 21.8878574 -36.95489199 14.2164522 -29.6875 7.4375 C-20.66705291 0.31514298 -11.11544889 0.0532973 0 0 Z " fill="#25BCB4" transform="translate(255.6875,34.5625)"/>
<path d="M0 0 C2.48793422 2.20521442 3.31538 3.20118978 4.67578125 6.05078125 C5.01722168 6.76065186 5.35866211 7.47052246 5.71044922 8.2019043 C7.72707847 12.53874649 9.72142745 16.88641674 11.66210938 21.2578125 C13.83409573 25.98734491 16.35482825 29.50500541 19.75 33.4375 C19.75 34.0975 19.75 34.7575 19.75 35.4375 C20.34941406 35.69402344 20.94882813 35.95054687 21.56640625 36.21484375 C23.9708005 37.56113248 25.02837497 38.82157324 26.6875 41 C40.87266594 57.58434834 64.61854319 65.05317621 85.375 68.875 C91.08946803 70.06387208 95.39068751 71.45271372 98.75 76.4375 C100.82704877 80.99687535 101.22866084 84.96616549 99.6875 89.75 C98.08753895 93.31969087 96.09955056 95.3440309 92.75 97.4375 C75.73068197 103.11060601 52.79192929 92.47015282 37.87011719 85.109375 C35.48713339 83.90293851 33.11596349 82.67691708 30.75 81.4375 C29.73292969 80.91285156 28.71585938 80.38820313 27.66796875 79.84765625 C20.28305989 75.73167312 14.00394709 70.06862277 7.75 64.4375 C6.85925781 63.6434375 5.96851563 62.849375 5.05078125 62.03125 C-2.05579704 55.33745569 -7.1119013 47.65799441 -12.25 39.4375 C-12.83910156 38.52613281 -13.42820313 37.61476562 -14.03515625 36.67578125 C-19.62479196 27.79812453 -25.03933776 18.23317117 -23.25 7.4375 C-21.44139838 2.81551807 -18.47371384 0.90133307 -14.25 -1.5625 C-9.09195378 -3.28184874 -4.75934871 -2.28814842 0 0 Z " fill="#25BCB4" transform="translate(222.25,140.5625)"/>
<path d="M0 0 C2.38395513 0.06534716 4.76808431 0.12463829 7.15234375 0.17773438 C12.93875444 0.31960096 18.71854357 0.53590368 24.5 0.8125 C23.70713357 5.07831265 22.45351448 8.84783848 20.8125 12.875 C20.09513672 14.68677734 20.09513672 14.68677734 19.36328125 16.53515625 C17.11724994 20.48572285 15.52702343 21.71556675 11.5 23.8125 C8.23023536 24.33450618 5.03066768 24.27996553 1.7265625 24.203125 C0.3409462 24.19463531 0.3409462 24.19463531 -1.07266235 24.18597412 C-4.00731418 24.16368052 -6.94072061 24.11349748 -9.875 24.0625 C-11.87107605 24.04242592 -13.86717134 24.02417674 -15.86328125 24.0078125 C-20.74304694 23.96724919 -25.62013855 23.88894692 -30.5 23.8125 C-31.49 30.0825 -32.48 36.3525 -33.5 42.8125 C-31.086875 42.77125 -28.67375 42.73 -26.1875 42.6875 C-25.43170654 42.68991699 -24.67591309 42.69233398 -23.8972168 42.69482422 C-21.76084061 42.6580007 -21.76084061 42.6580007 -18.5 41.8125 C-17.51 39.8325 -16.52 37.8525 -15.5 35.8125 C-6.92 35.8125 1.66 35.8125 10.5 35.8125 C8.57298588 41.59354237 6.61694147 47.21666007 4.3125 52.8359375 C3.86382317 53.9398156 3.86382317 53.9398156 3.40608215 55.06599426 C2.44004426 57.44092118 1.47006446 59.81421531 0.5 62.1875 C-0.17253945 63.8388437 -0.84481883 65.49029334 -1.5168457 67.1418457 C-3.19402647 71.26188493 -4.87433945 75.38063768 -6.5557251 79.4989624 C-7.96977688 82.96348525 -9.38148317 86.42896227 -10.79296875 89.89453125 C-12.19367136 93.33357659 -13.59463504 96.77250854 -14.99804688 100.21044922 C-17.52432567 106.40103334 -20.02609922 112.60079271 -22.5 118.8125 C-22.83 118.8125 -23.16 118.8125 -23.5 118.8125 C-23.19052199 114.81226025 -22.87687011 110.81235802 -22.5625 106.8125 C-22.47548828 105.68714844 -22.38847656 104.56179687 -22.29882812 103.40234375 C-21.55415751 93.96984925 -21.55415751 93.96984925 -20.95703125 89.453125 C-20.49934868 85.80731171 -20.23016327 82.23512512 -20.125 78.5625 C-20.07601562 77.38171875 -20.02703125 76.2009375 -19.9765625 74.984375 C-20.21508501 71.71953704 -20.21508501 71.71953704 -22.51000977 69.65234375 C-26.30798917 67.3153165 -29.53279851 67.21011062 -33.86328125 67.203125 C-34.65526413 67.18658875 -35.44724701 67.17005249 -36.26322937 67.15301514 C-38.77973257 67.10463428 -41.29563196 67.08318725 -43.8125 67.0625 C-45.52411876 67.03433187 -47.23570951 67.00440325 -48.94726562 66.97265625 C-53.13146067 66.89887853 -57.3153225 66.84924382 -61.5 66.8125 C-61.56711767 63.31585599 -61.51327143 60.1624723 -60.65625 56.76953125 C-59.75644485 52.99050803 -58.98852118 49.20676651 -58.28125 45.38671875 C-57.96607422 43.69772461 -57.96607422 43.69772461 -57.64453125 41.97460938 C-57.21134078 39.63931895 -56.78170855 37.30336594 -56.35546875 34.96679688 C-56.04029297 33.2874707 -56.04029297 33.2874707 -55.71875 31.57421875 C-55.53248047 30.56319092 -55.34621094 29.55216309 -55.15429688 28.51049805 C-53.66780887 22.38095365 -50.65989486 20.06583058 -45.71289062 16.4050293 C-43.3849548 14.60996756 -41.37623196 12.68680897 -39.35791016 10.55175781 C-27.52172842 -1.34985969 -16.03013999 -0.76967014 0 0 Z " fill="#FAFDFD" transform="translate(101.5,149.1875)"/>
<path d="M0 0 C8.75241533 9.0956473 8.47273309 22.29439268 8.37890625 34.18359375 C7.95552145 42.86814528 6.4038646 50.87565436 0.96875 57.84375 C-2.3150497 60.24653027 -4.89886362 60.83660634 -8.953125 60.5546875 C-18.01144521 58.80814864 -24.71118031 55.46411295 -30.59765625 48.26953125 C-31.59375 46.71875 -31.59375 46.71875 -31.59375 44.71875 C-32.25375 44.71875 -32.91375 44.71875 -33.59375 44.71875 C-36.91746016 32.67030067 -37.20707854 24.52703795 -32.59375 12.71875 C-28.22868921 5.57592325 -19.8875096 0.24874394 -11.78125 -1.78125 C-7.38843252 -2.4612769 -3.67325962 -2.95301264 0 0 Z " fill="#25BCB4" transform="translate(410.59375,183.28125)"/>
<path d="M0 0 C1.58206057 0.00667536 3.16410534 0.0186375 4.74609375 0.03515625 C5.55240234 0.03966797 6.35871094 0.04417969 7.18945312 0.04882812 C9.18753131 0.06065107 11.18557158 0.07858711 13.18359375 0.09765625 C15.92467253 9.09318065 15.8351931 17.0298412 13.18359375 26.09765625 C12.52359375 27.08765625 11.86359375 28.07765625 11.18359375 29.09765625 C8.80859375 28.47265625 8.80859375 28.47265625 5.18359375 27.09765625 C4.31734375 26.845 3.45109375 26.59234375 2.55859375 26.33203125 C-0.84507842 24.95895896 -2.53794852 24.01954691 -4.81640625 21.09765625 C-6.15294943 14.68816413 -5.76429812 7.5543726 -4.81640625 1.09765625 C-3.81640625 0.09765625 -3.81640625 0.09765625 0 0 Z " fill="#25BCB4" transform="translate(282.81640625,74.90234375)"/>
<path d="M0 0 C3.46858339 0.66432531 6.05149138 2.04699707 9.078125 3.84375 C10.0673999 4.42664795 11.0566748 5.0095459 12.07592773 5.61010742 C13.12337158 6.23377197 14.17081543 6.85743652 15.25 7.5 C24.12049582 12.76199182 24.12049582 12.76199182 33.10546875 17.82421875 C33.84700195 18.23027344 34.58853516 18.63632813 35.35253906 19.0546875 C36.71104486 19.79279838 38.07352571 20.52365401 39.44042969 21.24609375 C43.89074118 23.67222354 43.89074118 23.67222354 45 27 C31.84827283 27.75105041 21.3764599 26.265084 10.74609375 17.66796875 C6.07383829 13.20476275 2.54366697 7.93522294 0 2 C0 1.34 0 0.68 0 0 Z " fill="#25BCB4" transform="translate(221,98)"/>
</svg>
