<svg width="28" height="28" viewBox="0 0 28 28" fill="none" xmlns="http://www.w3.org/2000/svg">
<path d="M13.9997 26.5416C7.08134 26.5416 1.45801 20.9183 1.45801 13.9999C1.45801 7.08159 7.08134 1.45825 13.9997 1.45825C20.918 1.45825 26.5413 7.08159 26.5413 13.9999C26.5413 20.9183 20.918 26.5416 13.9997 26.5416ZM13.9997 3.20825C8.04967 3.20825 3.20801 8.04992 3.20801 13.9999C3.20801 19.9499 8.04967 24.7916 13.9997 24.7916C19.9497 24.7916 24.7913 19.9499 24.7913 13.9999C24.7913 8.04992 19.9497 3.20825 13.9997 3.20825Z" fill="#292D32"/>
<path d="M10.5003 25.375H9.33361C8.85527 25.375 8.45861 24.9783 8.45861 24.5C8.45861 24.0217 8.83194 23.6367 9.31027 23.625C7.47861 17.3717 7.47861 10.6283 9.31027 4.375C8.83194 4.36333 8.45861 3.97833 8.45861 3.5C8.45861 3.02167 8.85527 2.625 9.33361 2.625H10.5003C10.7803 2.625 11.0486 2.765 11.2119 2.98667C11.3753 3.22 11.4219 3.51167 11.3286 3.78C9.13527 10.3717 9.13527 17.6283 11.3286 24.2317C11.4219 24.5 11.3753 24.7917 11.2119 25.025C11.0486 25.235 10.7803 25.375 10.5003 25.375Z" fill="#292D32"/>
<path d="M17.4998 25.3749C17.4065 25.3749 17.3131 25.3632 17.2198 25.3282C16.7648 25.1765 16.5081 24.6749 16.6715 24.2199C18.8648 17.6282 18.8648 10.3716 16.6715 3.76822C16.5198 3.31322 16.7648 2.81155 17.2198 2.65988C17.6865 2.50822 18.1765 2.75322 18.3281 3.20822C20.6498 10.1616 20.6498 17.8149 18.3281 24.7565C18.2115 25.1415 17.8615 25.3749 17.4998 25.3749Z" fill="#292D32"/>
<path d="M14 20.0666C10.745 20.0666 7.50167 19.6116 4.375 18.6899C4.36333 19.1566 3.97833 19.5416 3.5 19.5416C3.02167 19.5416 2.625 19.1449 2.625 18.6666V17.4999C2.625 17.2199 2.765 16.9516 2.98667 16.7883C3.22 16.6249 3.51167 16.5783 3.78 16.6716C10.3717 18.8649 17.64 18.8649 24.2317 16.6716C24.5 16.5783 24.7917 16.6249 25.025 16.7883C25.2583 16.9516 25.3867 17.2199 25.3867 17.4999V18.6666C25.3867 19.1449 24.99 19.5416 24.5117 19.5416C24.0333 19.5416 23.6483 19.1683 23.6367 18.6899C20.4983 19.6116 17.255 20.0666 14 20.0666Z" fill="#292D32"/>
<path d="M24.5004 11.375C24.4071 11.375 24.3137 11.3633 24.2204 11.3283C17.6287 9.135 10.3604 9.135 3.76873 11.3283C3.30207 11.48 2.81207 11.235 2.6604 10.78C2.5204 10.3133 2.7654 9.82334 3.2204 9.67167C10.1737 7.35 17.8271 7.35 24.7687 9.67167C25.2237 9.82334 25.4804 10.325 25.3171 10.78C25.2121 11.1417 24.8621 11.375 24.5004 11.375Z" fill="#292D32"/>
</svg>
